<?xml version="1.0" encoding="UTF-8" ?>
<!DOCTYPE svg PUBLIC "-//W3C//DTD SVG 1.1//EN" "http://www.w3.org/Graphics/SVG/1.1/DTD/svg11.dtd">
<svg width="440pt" height="440pt" viewBox="0 0 440 440" version="1.1" xmlns="http://www.w3.org/2000/svg">
<g id="#18785499">
<path fill="#187854" opacity="0.60" d=" M 202.81 49.17 C 200.41 44.29 204.69 37.97 210.00 37.94 C 214.62 37.40 218.83 41.49 219.00 46.01 C 218.87 49.82 216.12 53.85 212.05 54.07 C 213.12 53.38 214.20 52.71 215.29 52.06 C 214.83 51.61 214.38 51.18 213.92 50.75 C 211.78 51.99 209.17 52.19 207.14 50.59 C 206.56 51.14 205.99 51.69 205.43 52.25 C 206.83 52.70 208.23 53.15 209.63 53.59 C 209.80 59.67 209.73 65.75 209.72 71.84 C 193.48 72.29 177.22 71.78 160.97 72.08 C 159.69 71.99 158.80 73.16 158.15 74.10 C 156.98 79.71 158.80 85.60 157.22 91.15 C 156.82 85.73 157.00 80.29 157.06 74.87 C 157.25 72.44 159.70 71.03 161.98 71.25 C 177.64 71.23 193.31 71.23 208.98 71.25 C 208.99 65.59 209.07 59.94 208.95 54.29 C 206.29 53.58 203.71 51.90 202.81 49.17 M 207.56 39.39 C 202.96 40.99 201.47 47.34 204.82 50.90 C 205.17 48.56 205.09 46.20 204.98 43.85 C 205.26 43.61 205.84 43.13 206.12 42.89 C 205.54 45.23 204.93 48.40 207.38 49.93 C 210.62 53.12 216.90 49.36 215.42 44.99 C 214.87 41.95 211.48 40.73 208.74 41.07 C 210.50 38.98 213.18 42.33 214.67 40.66 L 215.01 40.05 C 212.72 38.86 209.96 37.91 207.56 39.39 M 214.67 40.66 C 214.93 42.12 215.56 43.48 216.00 44.89 C 216.11 46.71 214.89 49.42 217.29 50.20 C 218.39 47.05 218.66 41.70 214.67 40.66 Z" />
<path fill="#187854" opacity="0.60" d=" M 253.86 58.21 C 251.31 53.38 255.57 46.23 261.23 47.01 C 259.31 47.61 257.46 48.49 256.10 50.05 C 259.48 49.48 262.90 49.42 266.32 49.60 C 266.60 52.98 267.51 56.40 265.94 59.62 C 265.21 59.73 263.76 59.94 263.03 60.04 C 264.68 58.76 266.65 57.37 266.45 54.99 C 266.71 50.97 261.28 48.23 258.35 51.11 C 255.09 53.40 256.34 58.67 259.96 59.85 L 258.32 59.67 C 257.71 60.15 257.13 60.66 256.57 61.18 C 257.89 61.63 259.21 62.07 260.53 62.50 C 260.61 65.60 260.64 68.70 260.64 71.80 C 252.77 72.22 244.88 71.98 237.01 71.94 C 236.99 70.69 237.00 69.44 237.03 68.19 L 237.94 67.91 C 237.87 68.72 237.71 70.35 237.63 71.16 C 245.08 71.29 252.53 71.28 259.98 71.16 C 260.01 68.54 260.01 65.92 259.93 63.30 C 257.43 62.30 254.80 60.92 253.86 58.21 M 254.73 50.51 C 253.90 53.39 253.81 56.39 254.72 59.26 C 257.64 58.03 255.16 54.50 256.48 52.30 C 255.91 51.68 255.33 51.08 254.73 50.51 Z" />
<path fill="#187854" opacity="0.60" d=" M 261.73 46.99 C 267.93 46.00 272.57 55.37 267.97 59.35 C 269.47 56.11 269.55 51.84 266.32 49.60 C 265.08 48.28 263.40 47.57 261.73 46.99 Z" />
<path fill="#187854" opacity="0.60" d=" M 132.67 86.44 C 135.09 83.20 140.07 82.49 143.34 84.82 C 145.32 86.08 146.27 88.32 147.08 90.42 C 150.19 90.90 153.47 89.98 156.46 91.09 C 153.30 90.98 150.14 91.02 146.98 91.04 C 146.07 89.97 145.15 88.92 144.22 87.87 C 142.93 82.39 133.07 83.11 132.73 88.96 C 129.70 91.23 131.42 95.93 134.18 97.64 C 134.25 97.71 134.39 97.84 134.46 97.90 C 136.91 101.95 142.81 100.41 144.82 96.80 C 145.45 95.69 145.95 94.52 146.48 93.37 C 149.61 93.42 152.76 93.41 155.89 93.08 L 156.68 93.41 C 153.65 94.56 150.32 93.78 147.16 94.07 C 146.01 98.04 142.44 101.71 138.00 101.05 C 131.21 100.60 128.29 91.23 132.67 86.44 Z" />
<path fill="#187854" opacity="0.60" d=" M 136.54 86.34 C 139.22 86.02 141.77 86.91 144.22 87.87 C 144.16 88.46 144.04 89.65 143.97 90.24 C 142.36 88.64 140.66 86.36 138.06 86.98 C 133.82 87.52 132.39 93.70 135.65 96.29 C 137.32 98.21 139.94 97.37 142.07 97.06 C 141.81 97.28 141.28 97.72 141.01 97.94 C 138.83 98.01 136.64 97.93 134.46 97.90 L 134.48 97.59 L 134.18 97.64 C 133.61 94.76 133.26 91.84 132.73 88.96 C 134.22 88.44 135.45 87.46 136.54 86.34 Z" />
<path fill="#187854" opacity="0.60" d=" M 310.86 93.98 C 312.25 93.52 313.69 93.48 315.08 93.96 C 315.19 95.48 315.44 98.48 312.99 98.03 C 312.51 97.96 311.54 97.83 311.06 97.76 C 310.96 96.50 310.89 95.24 310.86 93.98 M 312.14 95.18 C 311.63 96.82 312.19 97.36 313.82 96.80 C 314.32 95.16 313.76 94.62 312.14 95.18 Z" />
<path fill="#187854" opacity="0.60" d=" M 306.07 101.28 C 306.24 100.89 306.59 100.10 306.76 99.71 C 309.41 101.55 312.46 102.37 315.69 102.04 C 316.14 102.22 317.04 102.58 317.49 102.76 L 317.31 104.00 C 316.71 103.94 315.50 103.81 314.90 103.75 C 313.77 102.76 312.14 102.71 311.05 103.77 C 309.20 105.12 307.37 102.63 305.82 101.83 L 306.07 101.28 Z" />
<path fill="#187854" opacity="0.60" d=" M 145.57 111.10 C 147.15 111.43 148.19 112.65 149.17 113.82 L 148.99 114.26 C 148.79 114.86 148.39 116.07 148.18 116.67 C 146.90 115.43 145.67 114.12 144.53 112.75 L 146.20 112.96 C 146.05 112.49 145.73 111.56 145.57 111.10 Z" />
<path fill="#187854" opacity="0.60" d=" M 304.72 117.73 C 309.31 112.49 319.36 116.14 319.39 123.17 C 320.04 129.25 312.83 133.79 307.45 131.41 C 304.58 130.47 302.81 127.90 301.75 125.21 C 302.42 125.58 303.75 126.32 304.42 126.69 C 304.42 125.09 304.40 123.49 304.76 121.93 C 304.84 124.68 306.02 127.84 309.03 128.46 C 313.04 129.93 317.63 125.54 315.74 121.49 C 313.83 117.92 309.21 118.16 306.16 119.99 C 306.33 119.43 306.65 118.29 306.81 117.73 C 310.01 117.71 313.16 118.89 316.34 118.56 C 316.35 121.82 317.31 125.14 315.77 128.26 C 315.64 128.40 315.38 128.68 315.25 128.82 C 311.41 129.36 307.57 128.84 303.99 127.38 C 305.89 131.39 312.70 132.87 315.25 128.82 C 315.38 128.68 315.64 128.40 315.77 128.26 C 320.07 126.72 319.39 120.97 316.34 118.56 C 314.08 115.73 309.38 114.85 306.81 117.73 C 306.29 117.73 305.24 117.73 304.72 117.73 Z" />
<path fill="#187854" opacity="0.60" d=" M 141.22 117.00 C 144.54 115.52 145.40 122.07 141.91 121.38 C 139.63 120.99 139.40 118.17 141.22 117.00 M 142.22 118.10 C 140.90 118.86 140.87 119.56 142.10 120.20 C 143.44 119.43 143.47 118.73 142.22 118.10 Z" />
<path fill="#187854" opacity="0.60" d=" M 153.43 117.98 C 155.76 117.09 155.72 121.94 153.40 121.02 C 153.26 120.01 153.27 118.98 153.43 117.98 Z" />
<path fill="#187854" opacity="0.60" d=" M 143.84 125.68 C 145.38 124.41 146.81 123.02 148.23 121.63 C 148.46 122.16 148.90 123.21 149.13 123.74 L 149.37 124.12 C 148.33 125.29 147.23 126.39 146.07 127.44 L 145.69 127.13 C 145.23 126.77 144.31 126.04 143.84 125.68 Z" />
<path fill="#187854" opacity="0.60" d=" M 122.03 146.27 C 121.47 141.79 125.77 137.56 130.22 137.99 C 128.43 138.70 126.74 139.64 125.16 140.71 C 126.44 140.92 127.72 141.06 129.02 141.14 C 126.92 142.34 124.58 144.24 124.98 146.94 C 125.19 151.35 131.41 153.91 134.39 150.36 C 137.73 147.57 135.64 142.45 131.98 141.14 C 133.26 141.06 134.54 140.92 135.82 140.72 C 134.24 139.63 132.57 138.70 130.80 137.99 C 134.82 137.56 138.79 141.01 139.01 145.03 C 138.33 143.92 137.67 142.80 137.03 141.68 C 136.59 142.16 136.16 142.64 135.73 143.13 C 137.30 145.60 136.32 148.47 136.33 151.17 C 132.93 152.52 129.23 153.20 125.71 151.78 C 125.58 151.68 125.31 151.47 125.18 151.37 C 124.67 148.66 123.58 145.62 125.32 143.10 C 124.82 142.61 124.31 142.12 123.80 141.64 C 123.19 143.18 122.58 144.71 122.03 146.27 Z" />
<path fill="#187854" opacity="0.60" d=" M 122.03 146.84 C 122.63 148.62 123.21 150.63 125.18 151.37 C 125.31 151.47 125.58 151.68 125.71 151.78 C 127.39 156.56 135.05 155.45 136.33 151.17 C 137.26 150.08 138.26 149.04 139.24 148.00 C 138.69 152.00 135.08 155.44 130.98 155.44 C 126.31 155.87 121.35 151.74 122.03 146.84 Z" />
<path fill="#187854" opacity="0.60" d=" M 154.91 147.88 C 155.35 147.58 156.21 146.98 156.64 146.69 L 157.22 146.51 C 158.56 152.24 157.47 158.21 157.80 164.05 C 157.48 167.78 158.65 171.84 157.09 175.35 L 156.48 175.45 C 156.12 175.14 155.38 174.52 155.01 174.20 C 155.51 174.23 156.49 174.29 156.98 174.31 C 157.06 165.39 156.96 156.46 157.02 147.54 C 156.49 147.62 155.44 147.79 154.91 147.88 Z" />
<path fill="#187854" opacity="0.60" d=" M 296.50 149.44 C 296.14 146.99 299.89 145.88 300.98 148.16 C 300.97 148.86 300.97 150.27 300.97 150.98 C 299.37 151.90 296.70 151.72 296.50 149.44 M 298.21 148.37 C 297.79 149.78 298.28 150.25 299.68 149.77 C 300.10 148.35 299.61 147.88 298.21 148.37 Z" />
<path fill="#187854" opacity="0.60" d=" M 122.76 168.30 C 127.97 165.16 135.10 167.40 137.35 173.11 L 136.46 173.66 L 135.79 174.07 C 135.71 175.86 135.72 177.65 135.72 179.44 L 137.04 179.11 C 136.31 184.36 129.09 188.14 124.66 184.91 C 126.72 185.15 129.16 185.83 130.95 184.37 C 128.97 183.88 126.91 183.79 124.88 183.91 C 124.70 184.05 124.32 184.34 124.13 184.48 L 123.45 185.00 C 118.53 181.61 117.37 174.41 121.24 169.79 L 121.63 170.28 C 122.46 172.49 125.67 169.63 123.30 168.74 L 122.76 168.30 M 125.96 168.58 C 127.46 169.09 129.31 169.23 130.82 168.65 C 130.15 167.21 126.63 167.24 125.96 168.58 M 125.17 170.35 C 121.18 172.41 120.04 178.34 123.58 181.36 C 127.26 185.38 135.07 182.57 135.10 177.04 C 135.89 171.89 129.64 167.76 125.17 170.35 M 120.64 179.05 C 121.11 177.43 121.11 175.59 120.64 173.98 C 119.27 174.63 119.26 178.41 120.64 179.05 Z" />
<path fill="#187854" opacity="0.60" d=" M 283.86 200.80 C 285.45 200.04 286.16 198.30 287.00 196.87 C 287.33 198.72 286.48 200.98 284.41 201.27 C 277.95 201.98 271.46 200.92 265.00 201.27 C 265.04 206.39 264.91 211.52 265.10 216.64 C 266.52 216.65 267.63 217.15 268.43 218.14 C 267.71 217.99 266.27 217.70 265.54 217.55 L 265.91 218.80 C 264.08 219.05 262.28 219.41 260.52 219.95 C 260.18 219.58 259.50 218.85 259.15 218.49 C 259.05 217.49 261.27 217.38 261.94 216.73 C 262.06 211.52 262.00 206.31 261.94 201.11 L 262.74 201.11 C 262.65 206.82 262.39 212.55 262.71 218.26 L 264.58 218.61 C 264.27 212.77 264.51 206.92 264.24 201.09 C 268.78 200.95 273.31 200.97 277.85 201.01 C 279.85 201.00 281.87 201.10 283.86 200.80 Z" />
<path fill="#187854" opacity="0.60" d=" M 186.28 201.10 L 187.00 201.10 C 186.99 203.33 187.01 205.57 187.07 207.81 C 192.27 209.04 196.14 216.30 192.07 220.44 C 192.75 217.99 193.67 215.21 192.22 212.85 C 191.20 210.43 188.58 209.55 186.45 208.41 C 186.38 205.97 186.33 203.54 186.28 201.10 Z" />
<path fill="#187854" opacity="0.60" d=" M 212.03 201.17 L 212.43 201.15 C 212.96 202.44 213.68 203.92 213.51 205.34 C 211.43 205.37 211.51 202.56 212.03 201.17 Z" />
<path fill="#187854" opacity="0.60" d=" M 237.03 201.07 L 238.01 201.06 C 237.98 206.42 237.87 211.78 238.09 217.13 C 239.68 217.71 241.37 218.30 242.26 219.88 C 240.55 218.94 238.53 218.43 237.13 217.03 C 236.83 211.72 237.13 206.39 237.03 201.07 Z" />
<path fill="#187854" opacity="0.60" d=" M 177.54 213.50 C 178.45 210.58 181.08 208.62 183.99 207.99 C 183.03 209.03 181.92 209.91 180.81 210.78 C 177.16 212.76 177.25 217.94 179.73 220.84 C 180.02 217.48 180.29 214.12 180.81 210.78 C 183.88 211.47 188.02 209.75 190.11 212.83 C 191.69 215.05 191.21 218.34 189.66 220.47 C 187.47 222.17 184.42 222.31 182.13 220.72 C 181.59 221.21 181.07 221.71 180.56 222.23 C 182.45 222.86 184.39 224.45 186.49 223.66 C 188.48 223.17 190.14 221.89 191.76 220.70 C 191.76 223.21 188.41 223.84 186.47 224.32 C 180.66 225.48 175.29 218.94 177.54 213.50 M 181.62 219.36 C 183.78 222.18 187.97 221.24 190.00 218.77 C 190.98 215.76 189.85 211.31 186.01 211.40 C 181.65 210.35 178.49 216.27 181.62 219.36 Z" />
<path fill="#187854" opacity="0.60" d=" M 209.22 210.42 C 210.49 209.21 213.14 210.29 213.02 212.05 C 213.55 213.59 210.93 215.69 209.92 214.06 C 211.00 213.80 212.63 212.65 211.65 211.42 C 210.44 210.35 209.16 211.97 208.97 213.11 C 207.67 212.56 208.64 211.09 209.22 210.42 Z" />
<path fill="#187854" opacity="0.60" d=" M 204.75 215.70 C 205.97 216.17 206.81 217.04 207.29 218.30 L 205.76 217.99 C 205.90 218.44 206.19 219.33 206.33 219.78 C 204.84 219.33 203.87 218.15 203.29 216.76 C 203.71 216.90 204.56 217.17 204.98 217.31 L 204.75 215.70 Z" />
<path fill="#187854" opacity="0.60" d=" M 271.28 253.35 C 271.73 253.34 272.63 253.33 273.08 253.32 C 272.61 253.54 271.67 253.98 271.20 254.21 L 271.28 253.35 Z" />
<path fill="#187854" opacity="0.60" d=" M 276.87 290.38 L 277.72 289.88 L 278.72 290.29 L 278.83 291.14 C 278.34 290.95 277.36 290.57 276.87 290.38 Z" />
<path fill="#187854" opacity="0.60" d=" M 343.99 330.87 C 344.18 330.39 344.56 329.41 344.75 328.92 C 344.78 329.38 344.82 330.29 344.84 330.74 L 343.99 330.87 Z" />
<path fill="#187854" opacity="0.60" d=" M 328.97 348.79 C 329.44 348.57 330.40 348.14 330.88 347.92 L 330.80 348.79 L 329.83 349.24 L 328.97 348.79 Z" />
<path fill="#187854" opacity="0.60" d=" M 273.99 348.91 C 274.47 349.13 275.44 349.58 275.93 349.80 C 275.47 349.79 274.53 349.77 274.07 349.76 L 273.99 348.91 Z" />
<path fill="#187854" opacity="0.60" d=" M 291.10 365.64 C 292.00 365.59 292.91 365.52 293.82 365.45 C 294.22 369.96 293.90 374.48 294.03 379.00 C 293.95 381.12 294.26 383.82 292.31 385.24 C 294.22 379.17 293.77 372.60 293.28 366.36 C 292.73 366.18 291.64 365.82 291.10 365.64 Z" />
<path fill="#187854" opacity="0.60" d=" M 296.23 365.63 C 302.52 365.98 308.85 365.36 315.13 365.97 C 309.05 366.05 302.97 365.97 296.89 366.02 C 296.81 373.14 296.89 380.26 296.86 387.39 L 296.10 386.91 C 295.97 379.83 295.79 372.71 296.23 365.63 Z" />
<path fill="#187854" opacity="0.60" d=" M 329.82 365.96 C 334.09 364.55 338.93 364.56 343.22 365.92 C 338.75 365.98 334.29 365.97 329.82 365.96 Z" />
<path fill="#187854" opacity="0.60" d=" M 218.10 366.27 L 218.90 365.77 C 219.01 371.58 218.84 377.39 219.01 383.20 C 217.71 381.76 218.03 379.73 217.97 377.95 C 218.09 374.06 217.82 370.16 218.10 366.27 Z" />
<path fill="#187854" opacity="0.60" d=" M 324.21 369.09 C 323.98 367.48 324.67 366.85 326.26 367.21 C 326.01 368.38 325.32 369.00 324.21 369.09 Z" />
<path fill="#187854" opacity="0.60" d=" M 299.20 368.30 C 304.50 368.60 310.01 367.54 315.17 368.90 C 309.98 369.06 304.79 368.99 299.60 369.00 C 299.62 370.74 299.63 372.48 299.66 374.24 C 305.50 373.91 311.68 375.38 317.26 373.17 C 316.68 374.54 315.47 375.18 314.00 374.99 C 309.01 375.06 304.02 375.03 299.04 374.94 C 298.92 372.72 298.95 370.50 299.20 368.30 Z" />
<path fill="#187854" opacity="0.60" d=" M 328.60 368.78 C 331.21 367.59 334.15 368.04 336.93 367.94 C 339.41 368.04 342.06 367.61 344.36 368.79 C 339.11 368.39 333.84 368.22 328.60 368.78 Z" />
<path fill="#187854" opacity="0.60" d=" M 319.10 369.18 C 320.89 369.27 320.85 373.91 318.95 373.72 C 318.97 372.20 319.02 370.69 319.10 369.18 Z" />
<path fill="#187854" opacity="0.60" d=" M 347.89 369.26 C 349.45 368.70 349.73 372.21 348.13 372.00 C 348.07 371.31 347.95 369.95 347.89 369.26 Z" />
<path fill="#187854" opacity="0.60" d=" M 323.12 372.89 C 322.41 371.35 322.80 370.48 324.27 370.26 C 324.54 371.49 324.15 372.37 323.12 372.89 Z" />
<path fill="#187854" opacity="0.60" d=" M 335.30 376.61 C 339.88 376.72 344.50 376.07 349.04 376.99 C 348.92 379.12 349.38 381.45 348.24 383.40 C 348.41 381.40 348.55 379.41 348.69 377.42 C 344.38 376.92 340.03 376.84 335.70 377.11 C 335.76 377.60 335.87 378.58 335.93 379.07 C 339.27 379.50 342.64 379.24 346.00 379.22 C 345.94 380.65 345.93 382.12 345.34 383.46 C 345.38 382.59 345.45 380.86 345.48 380.00 C 341.96 380.00 338.44 380.01 334.92 379.99 C 335.03 378.86 335.16 377.73 335.30 376.61 Z" />
<path fill="#187854" opacity="0.60" d=" M 299.07 377.12 C 304.75 376.88 310.45 376.97 316.14 377.06 L 316.15 377.94 C 310.68 377.60 305.20 377.79 299.72 377.79 C 299.69 379.87 299.67 381.95 299.66 384.04 C 305.17 384.11 310.68 384.09 316.20 384.04 L 316.16 384.97 C 310.49 384.99 304.81 385.12 299.14 384.88 C 298.94 382.30 298.93 379.70 299.07 377.12 Z" />
<path fill="#187854" opacity="0.60" d=" M 323.23 380.02 C 323.97 380.81 324.27 381.74 324.14 382.82 C 322.54 382.56 322.24 381.63 323.23 380.02 Z" />
<path fill="#187854" opacity="0.60" d=" M 325.84 381.43 C 327.14 380.88 328.35 383.15 327.65 384.18 C 326.23 384.25 325.60 382.60 325.84 381.43 Z" />
<path fill="#187854" opacity="0.60" d=" M 276.41 384.27 C 280.69 384.05 284.98 384.33 289.27 384.15 C 285.20 385.54 280.51 385.45 276.41 384.27 Z" />
</g>
<g id="#26a9e2ff">
<path fill="#26a9e2" opacity="1.00" d=" M 207.56 39.39 C 209.96 37.91 212.72 38.86 215.01 40.05 L 214.67 40.66 C 213.18 42.33 210.50 38.98 208.74 41.07 C 207.79 41.57 206.95 42.22 206.12 42.89 C 205.84 43.13 205.26 43.61 204.98 43.85 C 205.09 46.20 205.17 48.56 204.82 50.90 C 201.47 47.34 202.96 40.99 207.56 39.39 Z" />
<path fill="#26a9e2" opacity="1.00" d=" M 214.67 40.66 C 218.66 41.70 218.39 47.05 217.29 50.20 C 214.89 49.42 216.11 46.71 216.00 44.89 C 215.56 43.48 214.93 42.12 214.67 40.66 Z" />
<path fill="#26a9e2" opacity="1.00" d=" M 261.23 47.01 L 261.73 46.99 C 263.40 47.57 265.08 48.28 266.32 49.60 C 262.90 49.42 259.48 49.48 256.10 50.05 C 257.46 48.49 259.31 47.61 261.23 47.01 Z" />
<path fill="#26a9e2" opacity="1.00" d=" M 266.32 49.60 C 269.55 51.84 269.47 56.11 267.97 59.35 C 267.02 61.40 264.73 62.22 262.78 63.00 C 262.72 65.80 262.73 68.61 262.66 71.42 C 269.44 71.86 276.24 71.41 283.03 71.63 C 284.87 71.47 286.86 72.92 286.77 74.87 C 287.35 81.63 286.84 88.44 287.06 95.22 C 292.56 95.20 298.12 95.50 303.59 95.11 C 304.34 91.37 306.88 87.77 310.90 87.24 C 316.25 85.74 322.51 90.36 321.86 96.08 C 321.77 98.73 320.31 102.21 317.49 102.76 C 317.04 102.58 316.14 102.22 315.69 102.04 C 320.28 100.26 321.61 93.44 317.46 90.50 C 313.52 87.26 307.59 89.50 305.52 93.84 C 305.65 95.85 306.08 97.82 306.76 99.71 C 306.59 100.10 306.24 100.89 306.07 101.28 C 305.05 100.34 304.45 99.11 303.99 97.83 C 298.35 97.62 292.71 97.76 287.06 97.75 C 286.98 105.95 287.05 114.15 287.02 122.35 C 292.05 122.41 297.09 122.48 302.12 122.32 C 302.57 120.58 303.48 119.02 304.72 117.73 C 305.24 117.73 306.29 117.73 306.81 117.73 C 306.65 118.29 306.33 119.43 306.16 119.99 C 305.81 120.48 305.11 121.45 304.76 121.93 C 304.40 123.49 304.42 125.09 304.42 126.69 C 303.75 126.32 302.42 125.58 301.75 125.21 C 296.87 125.00 291.98 125.20 287.10 125.15 C 286.92 132.63 287.09 140.11 287.00 147.59 C 288.38 147.60 289.76 147.58 291.15 147.52 C 291.98 141.09 301.37 138.84 305.25 143.86 C 309.08 147.53 307.64 154.62 302.85 156.73 C 298.20 159.39 291.27 156.03 291.14 150.49 C 289.75 150.44 288.37 150.44 286.99 150.47 C 287.08 158.06 286.97 165.65 287.06 173.24 C 289.42 173.27 291.79 173.28 294.16 173.29 C 295.40 169.17 299.46 165.54 303.99 166.73 C 308.50 167.50 311.43 172.73 309.82 176.98 C 308.76 181.41 303.15 183.84 299.12 181.81 C 296.53 180.76 295.14 178.18 294.15 175.72 C 291.79 175.71 289.43 175.73 287.07 175.76 C 286.94 182.79 287.10 189.83 287.00 196.87 C 286.16 198.30 285.45 200.04 283.86 200.80 C 281.87 201.10 279.85 201.00 277.85 201.01 C 277.91 200.22 278.01 198.64 278.07 197.85 C 279.94 197.76 281.81 197.68 283.68 197.61 C 283.56 156.86 283.64 116.12 283.66 75.38 C 276.13 74.66 268.57 74.68 261.02 74.71 C 231.03 74.90 201.04 74.56 171.05 74.96 C 167.80 75.27 164.40 74.65 161.26 75.66 C 161.01 116.26 161.27 156.88 161.14 197.48 C 164.08 197.58 167.03 197.69 169.98 197.83 C 170.03 198.68 170.14 200.37 170.20 201.22 C 166.57 201.05 162.78 201.76 159.27 200.57 C 157.79 200.11 157.36 198.38 157.38 197.01 C 157.20 189.96 157.69 182.88 157.16 175.85 L 157.09 175.35 C 158.65 171.84 157.48 167.78 157.80 164.05 C 157.47 158.21 158.56 152.24 157.22 146.51 L 157.24 146.03 C 157.58 128.44 157.23 110.83 157.42 93.23 C 157.37 92.71 157.27 91.67 157.22 91.15 C 158.80 85.60 156.98 79.71 158.15 74.10 C 158.80 73.16 159.69 71.99 160.97 72.08 C 177.22 71.78 193.48 72.29 209.72 71.84 C 209.73 65.75 209.80 59.67 209.63 53.59 C 208.23 53.15 206.83 52.70 205.43 52.25 C 205.99 51.69 206.56 51.14 207.14 50.59 C 209.17 52.19 211.78 51.99 213.92 50.75 C 214.38 51.18 214.83 51.61 215.29 52.06 C 214.20 52.71 213.12 53.38 212.05 54.07 C 212.12 59.88 212.09 65.69 212.06 71.50 C 219.57 71.70 227.08 71.54 234.59 71.59 C 234.56 70.66 234.50 68.81 234.47 67.88 C 228.07 67.07 225.79 57.76 230.76 53.84 C 234.40 50.03 241.48 51.39 243.64 56.12 C 246.25 60.67 243.25 67.27 237.94 67.91 L 237.03 68.19 C 237.00 69.44 236.99 70.69 237.01 71.94 C 244.88 71.98 252.77 72.22 260.64 71.80 C 260.64 68.70 260.61 65.60 260.53 62.50 C 259.21 62.07 257.89 61.63 256.57 61.18 C 257.13 60.66 257.71 60.15 258.32 59.67 L 259.96 59.85 C 260.73 59.89 262.27 59.99 263.03 60.04 C 263.76 59.94 265.21 59.73 265.94 59.62 C 267.51 56.40 266.60 52.98 266.32 49.60 M 232.89 54.48 C 228.79 56.82 229.13 63.91 233.56 65.71 C 237.70 68.02 243.56 63.74 242.51 59.07 C 242.54 56.44 240.07 54.95 238.22 53.56 C 236.43 53.69 234.46 53.42 232.89 54.48 M 295.74 143.88 C 295.12 145.20 293.39 145.63 293.18 147.19 C 291.71 150.13 293.70 153.34 296.14 155.01 C 300.65 157.45 306.66 153.02 305.36 147.95 C 304.63 143.60 299.36 141.91 295.74 143.88 M 297.41 171.80 C 297.42 173.57 297.42 175.34 297.42 177.11 C 298.13 177.87 298.83 178.64 299.54 179.41 C 301.91 179.81 304.30 179.49 306.69 179.63 C 306.27 179.18 305.85 178.75 305.44 178.32 C 305.91 178.03 306.86 177.44 307.34 177.15 C 307.51 175.41 307.53 173.67 307.29 171.94 C 304.92 168.63 299.77 168.31 297.41 171.80 Z" />
<path fill="#26a9e2" opacity="1.00" d=" M 254.73 50.51 C 255.33 51.08 255.91 51.68 256.48 52.30 C 255.16 54.50 257.64 58.03 254.72 59.26 C 253.81 56.39 253.90 53.39 254.73 50.51 Z" />
<path fill="#26a9e2" opacity="1.00" d=" M 235.33 58.37 C 236.75 57.72 237.76 58.91 238.46 59.95 C 238.28 60.41 237.91 61.33 237.72 61.78 C 236.55 61.74 235.39 61.70 234.22 61.65 C 234.40 60.53 233.92 58.85 235.33 58.37 Z" />
<path fill="#26a9e2" opacity="1.00" d=" M 132.73 88.96 C 133.07 83.11 142.93 82.39 144.22 87.87 C 141.77 86.91 139.22 86.02 136.54 86.34 C 135.45 87.46 134.22 88.44 132.73 88.96 Z" />
<path fill="#26a9e2" opacity="1.00" d=" M 167.88 90.99 C 168.06 88.71 167.47 85.83 169.44 84.18 C 169.92 86.07 170.25 88.01 170.25 89.97 C 170.29 120.67 170.15 151.36 170.28 182.06 C 170.32 183.91 169.97 185.74 169.45 187.51 L 168.36 187.98 C 168.17 185.64 167.89 183.31 167.88 180.96 C 167.90 150.97 167.91 120.98 167.88 90.99 Z" />
<path fill="#26a9e2" opacity="1.00" d=" M 172.11 85.07 C 175.01 84.42 178.02 84.66 180.97 84.64 C 208.34 84.68 235.70 84.66 263.07 84.67 C 266.32 84.71 269.66 84.28 272.85 85.10 C 274.65 86.49 273.96 89.05 274.18 91.01 C 274.05 120.35 274.38 149.70 274.02 179.03 C 274.03 181.62 274.53 184.30 273.84 186.85 C 273.07 188.13 271.36 187.97 270.09 188.10 C 238.71 188.13 207.34 188.05 175.96 188.11 C 174.50 188.04 172.94 188.15 171.59 187.47 C 170.71 186.14 170.86 184.50 170.78 182.99 C 170.72 153.33 170.85 123.67 170.76 94.02 C 170.96 91.06 169.79 87.43 172.11 85.07 M 173.03 97.39 C 177.98 111.40 183.76 125.13 189.00 139.05 C 189.79 140.42 188.75 141.83 188.29 143.11 C 183.49 154.05 178.85 165.07 174.04 176.02 C 176.14 175.90 178.59 176.68 180.48 175.57 C 184.04 167.10 187.68 158.66 191.21 150.18 C 191.61 149.31 192.09 148.50 192.67 147.74 C 193.62 150.58 194.66 153.39 195.70 156.20 C 195.23 155.87 194.28 155.22 193.80 154.89 C 193.51 153.50 193.16 152.11 192.79 150.74 C 192.05 151.43 191.48 152.25 191.11 153.19 C 188.24 160.24 185.09 167.17 182.24 174.23 C 181.79 175.53 180.94 176.61 179.83 177.42 C 178.68 176.83 177.44 176.77 176.12 177.23 C 176.41 178.46 176.19 180.77 178.09 180.60 C 180.91 180.56 184.87 181.75 186.47 178.62 C 189.60 172.27 191.92 165.54 194.86 159.09 C 195.43 159.28 196.55 159.66 197.12 159.86 C 199.24 165.20 201.33 170.56 203.27 175.98 C 208.87 176.21 214.47 176.03 220.07 176.01 C 219.62 174.62 219.30 173.20 219.16 171.76 C 220.19 172.98 221.04 174.34 221.83 175.74 C 224.19 176.40 226.64 176.10 229.02 175.72 C 228.44 176.10 227.28 176.86 226.71 177.24 C 225.64 176.44 224.55 176.40 223.44 177.11 C 218.09 176.81 212.72 176.76 207.38 177.13 C 206.32 176.81 205.22 176.85 204.09 177.25 C 204.42 178.73 205.30 180.54 207.04 180.57 C 214.97 180.67 222.91 180.70 230.84 180.59 C 232.39 180.61 232.69 178.56 233.23 177.50 C 235.62 170.50 238.99 163.87 241.52 156.93 C 241.84 154.86 241.33 152.79 240.84 150.80 C 238.35 153.08 237.94 156.69 236.41 159.57 C 233.89 164.82 232.32 170.57 229.10 175.45 C 229.52 171.42 231.89 167.98 233.23 164.23 C 235.82 158.80 237.49 152.88 240.63 147.76 C 243.92 157.25 247.81 166.53 251.22 175.98 C 256.79 176.08 262.39 176.27 267.95 175.87 L 268.30 174.47 C 268.62 175.17 269.27 176.56 269.59 177.25 C 264.27 177.33 258.95 177.33 253.64 177.21 L 252.66 176.53 C 251.36 179.24 254.69 180.96 256.97 180.66 C 262.22 180.23 267.78 181.72 272.79 179.71 C 272.73 177.42 272.94 175.05 272.10 172.88 C 267.69 161.60 263.29 150.31 258.97 138.99 C 258.21 136.60 256.12 134.15 257.44 131.58 C 260.12 124.08 263.75 116.99 266.63 109.58 C 267.95 106.18 270.30 102.85 269.67 99.03 C 269.97 96.56 264.70 96.53 265.99 99.14 C 264.72 100.73 264.03 102.65 263.29 104.52 C 259.65 113.09 255.94 121.64 252.27 130.20 C 251.91 132.98 254.02 135.53 254.00 138.38 C 252.34 136.26 251.31 133.56 250.87 130.93 C 255.34 119.66 260.67 108.73 264.93 97.38 C 263.04 97.40 261.15 97.42 259.26 97.41 C 255.98 104.52 253.20 111.86 250.14 119.07 C 249.29 120.69 249.20 122.88 247.64 124.03 C 246.87 121.24 245.25 118.65 245.11 115.71 C 246.62 117.06 247.21 119.04 248.15 120.77 C 249.57 117.59 247.11 114.67 246.35 111.68 C 244.64 107.34 243.54 102.55 240.44 98.93 C 240.35 99.80 240.15 101.53 240.06 102.40 C 238.75 101.02 238.47 98.98 237.18 97.62 C 231.86 97.12 226.49 97.72 221.16 97.31 C 221.23 97.90 221.37 99.08 221.44 99.67 C 220.35 98.68 218.99 97.11 217.60 98.60 L 217.95 99.21 C 217.23 100.12 216.66 101.11 216.24 102.18 C 212.39 111.89 207.87 121.33 204.07 131.05 C 204.83 135.42 208.02 139.13 208.08 143.63 C 205.69 139.76 204.22 135.27 202.88 130.94 C 207.42 119.70 212.71 108.74 216.96 97.39 C 215.08 97.40 213.20 97.41 211.32 97.39 C 207.46 106.08 203.85 114.89 200.40 123.75 C 200.21 123.74 199.82 123.72 199.62 123.71 C 197.95 118.28 195.16 113.19 194.00 107.63 C 197.30 111.32 197.55 116.72 200.07 120.90 C 201.24 118.79 200.39 116.43 199.54 114.39 C 197.73 110.10 196.41 105.62 194.48 101.38 C 194.12 100.27 193.08 99.68 192.20 99.04 C 192.38 101.93 193.83 104.54 193.97 107.44 C 191.58 104.59 191.68 100.37 189.19 97.64 C 183.83 97.13 178.41 97.64 173.03 97.39 Z" />
<path fill="#26a9e2" opacity="1.00" d=" M 144.22 87.87 C 145.15 88.92 146.07 89.97 146.98 91.04 C 150.14 91.02 153.30 90.98 156.46 91.09 C 156.32 91.59 156.03 92.58 155.89 93.08 C 152.76 93.41 149.61 93.42 146.48 93.37 C 145.95 94.52 145.45 95.69 144.82 96.80 C 142.81 100.41 136.91 101.95 134.46 97.90 C 136.64 97.93 138.83 98.01 141.01 97.94 C 141.28 97.72 141.81 97.28 142.07 97.06 C 143.71 95.15 144.84 92.77 143.97 90.24 C 144.04 89.65 144.16 88.46 144.22 87.87 Z" />
<path fill="#26a9e2" opacity="1.00" d=" M 134.18 97.64 C 131.42 95.93 129.70 91.23 132.73 88.96 C 133.26 91.84 133.61 94.76 134.18 97.64 Z" />
<path fill="#26a9e2" opacity="1.00" d=" M 312.14 95.18 C 313.76 94.62 314.32 95.16 313.82 96.80 C 312.19 97.36 311.63 96.82 312.14 95.18 Z" />
<path fill="#26a9e2" opacity="1.00" d=" M 134.18 97.64 L 134.48 97.59 L 134.46 97.90 C 134.39 97.84 134.25 97.71 134.18 97.64 Z" />
<path fill="#26a9e2" opacity="1.00" d=" M 222.45 101.93 C 227.15 113.51 231.48 125.24 236.14 136.84 C 236.61 138.37 237.68 140.05 236.85 141.66 C 232.44 151.81 228.10 162.00 223.66 172.13 C 221.06 162.94 216.73 154.34 213.62 145.31 C 211.97 140.03 207.71 134.51 210.61 128.88 C 214.70 119.96 217.95 110.65 222.45 101.93 Z" />
<path fill="#26a9e2" opacity="1.00" d=" M 311.05 103.77 C 312.14 102.71 313.77 102.76 314.90 103.75 C 313.62 104.82 312.34 104.83 311.05 103.77 Z" />
<path fill="#26a9e2" opacity="1.00" d=" M 136.49 112.46 C 138.89 110.26 142.64 109.57 145.57 111.10 C 145.73 111.56 146.05 112.49 146.20 112.96 L 144.53 112.75 C 139.19 110.77 134.73 116.06 135.54 121.16 C 137.20 124.21 140.16 126.63 143.84 125.68 C 144.31 126.04 145.23 126.77 145.69 127.13 C 142.88 128.07 139.22 128.36 136.93 126.11 C 132.80 122.82 132.75 116.07 136.49 112.46 Z" />
<path fill="#26a9e2" opacity="1.00" d=" M 148.18 116.67 C 148.39 116.07 148.79 114.86 148.99 114.26 C 149.41 115.43 149.83 116.60 150.23 117.77 C 151.03 117.82 152.63 117.93 153.43 117.98 C 153.27 118.98 153.26 120.01 153.40 121.02 C 152.52 121.06 150.77 121.13 149.89 121.17 C 149.70 121.81 149.32 123.10 149.13 123.74 C 148.90 123.21 148.46 122.16 148.23 121.63 C 148.21 119.97 148.19 118.32 148.18 116.67 Z" />
<path fill="#26a9e2" opacity="1.00" d=" M 306.81 117.73 C 309.38 114.85 314.08 115.73 316.34 118.56 C 313.16 118.89 310.01 117.71 306.81 117.73 Z" />
<path fill="#26a9e2" opacity="1.00" d=" M 142.22 118.10 C 143.47 118.73 143.44 119.43 142.10 120.20 C 140.87 119.56 140.90 118.86 142.22 118.10 Z" />
<path fill="#26a9e2" opacity="1.00" d=" M 316.34 118.56 C 319.39 120.97 320.07 126.72 315.77 128.26 C 317.31 125.14 316.35 121.82 316.34 118.56 Z" />
<path fill="#26a9e2" opacity="1.00" d=" M 303.99 127.38 C 307.57 128.84 311.41 129.36 315.25 128.82 C 312.70 132.87 305.89 131.39 303.99 127.38 Z" />
<path fill="#26a9e2" opacity="1.00" d=" M 315.25 128.82 C 315.38 128.68 315.64 128.40 315.77 128.26 C 315.64 128.40 315.38 128.68 315.25 128.82 Z" />
<path fill="#26a9e2" opacity="1.00" d=" M 130.22 137.99 L 130.80 137.99 C 132.57 138.70 134.24 139.63 135.82 140.72 C 134.54 140.92 133.26 141.06 131.98 141.14 C 131.24 141.14 129.76 141.14 129.02 141.14 C 127.72 141.06 126.44 140.92 125.16 140.71 C 126.74 139.64 128.43 138.70 130.22 137.99 Z" />
<path fill="#26a9e2" opacity="1.00" d=" M 123.80 141.64 C 124.31 142.12 124.82 142.61 125.32 143.10 C 123.58 145.62 124.67 148.66 125.18 151.37 C 123.21 150.63 122.63 148.62 122.03 146.84 L 122.03 146.27 C 122.58 144.71 123.19 143.18 123.80 141.64 Z" />
<path fill="#26a9e2" opacity="1.00" d=" M 135.73 143.13 C 136.16 142.64 136.59 142.16 137.03 141.68 C 137.67 142.80 138.33 143.92 139.01 145.03 C 144.34 144.95 149.69 144.75 155.01 145.10 C 155.45 145.34 156.32 145.83 156.75 146.08 L 156.64 146.69 C 156.21 146.98 155.35 147.58 154.91 147.88 C 149.70 148.22 144.46 147.92 139.24 148.00 C 138.26 149.04 137.26 150.08 136.33 151.17 C 136.32 148.47 137.30 145.60 135.73 143.13 Z" />
<path fill="#26a9e2" opacity="1.00" d=" M 208.10 144.05 C 210.05 144.22 210.36 146.37 209.87 147.91 C 208.28 147.39 208.04 145.48 208.10 144.05 Z" />
<path fill="#26a9e2" opacity="1.00" d=" M 298.21 148.37 C 299.61 147.88 300.10 148.35 299.68 149.77 C 298.28 150.25 297.79 149.78 298.21 148.37 Z" />
<path fill="#26a9e2" opacity="1.00" d=" M 125.18 151.37 C 125.31 151.47 125.58 151.68 125.71 151.78 C 125.58 151.68 125.31 151.47 125.18 151.37 Z" />
<path fill="#26a9e2" opacity="1.00" d=" M 125.71 151.78 C 129.23 153.20 132.93 152.52 136.33 151.17 C 135.05 155.45 127.39 156.56 125.71 151.78 Z" />
<path fill="#26a9e2" opacity="1.00" d=" M 263.14 161.67 C 265.90 165.32 267.13 169.89 268.17 174.28 C 265.63 170.53 264.01 166.09 263.14 161.67 Z" />
<path fill="#26a9e2" opacity="1.00" d=" M 125.96 168.58 C 126.63 167.24 130.15 167.21 130.82 168.65 C 129.31 169.23 127.46 169.09 125.96 168.58 Z" />
<path fill="#26a9e2" opacity="1.00" d=" M 121.63 170.28 C 122.05 169.90 122.88 169.12 123.30 168.74 C 125.67 169.63 122.46 172.49 121.63 170.28 Z" />
<path fill="#26a9e2" opacity="1.00" d=" M 120.64 179.05 C 119.26 178.41 119.27 174.63 120.64 173.98 C 121.11 175.59 121.11 177.43 120.64 179.05 Z" />
<path fill="#26a9e2" opacity="1.00" d=" M 135.79 174.07 L 136.46 173.66 C 142.61 174.51 148.86 173.54 155.01 174.20 C 155.38 174.52 156.12 175.14 156.48 175.45 L 156.72 175.96 C 155.61 176.82 154.36 177.20 152.96 177.08 C 147.82 177.22 142.63 176.78 137.52 177.27 C 137.40 177.73 137.16 178.65 137.04 179.11 L 135.72 179.44 C 135.72 177.65 135.71 175.86 135.79 174.07 Z" />
<path fill="#26a9e2" opacity="1.00" d=" M 124.13 184.48 C 124.32 184.34 124.70 184.05 124.88 183.91 C 126.91 183.79 128.97 183.88 130.95 184.37 C 129.16 185.83 126.72 185.15 124.66 184.91 L 124.13 184.48 Z" />
<path fill="#26a9e2" opacity="1.00" d=" M 184.00 201.11 C 184.57 201.11 185.71 201.10 186.28 201.10 C 186.33 203.54 186.38 205.97 186.45 208.41 C 188.58 209.55 191.20 210.43 192.22 212.85 C 193.67 215.21 192.75 217.99 192.07 220.44 L 191.76 220.70 C 190.14 221.89 188.48 223.17 186.49 223.66 C 184.39 224.45 182.45 222.86 180.56 222.23 C 181.07 221.71 181.59 221.21 182.13 220.72 C 184.42 222.31 187.47 222.17 189.66 220.47 C 191.21 218.34 191.69 215.05 190.11 212.83 C 188.02 209.75 183.88 211.47 180.81 210.78 C 181.92 209.91 183.03 209.03 183.99 207.99 C 184.06 205.69 183.98 203.40 184.00 201.11 Z" />
<path fill="#26a9e2" opacity="1.00" d=" M 234.94 201.11 C 235.46 201.10 236.51 201.08 237.03 201.07 C 237.13 206.39 236.83 211.72 237.13 217.03 C 238.53 218.43 240.55 218.94 242.26 219.88 C 245.96 223.24 244.42 229.93 239.75 231.52 C 235.05 233.83 228.39 230.47 228.31 225.04 C 228.02 221.24 231.25 218.54 234.54 217.46 C 235.28 212.08 234.44 206.54 234.94 201.11 M 232.49 221.53 C 230.62 222.94 231.08 225.47 231.50 227.46 C 233.81 230.02 238.31 230.46 240.65 227.68 C 242.59 225.55 241.54 222.23 239.47 220.57 C 237.16 220.25 234.27 219.54 232.49 221.53 Z" />
<path fill="#26a9e2" opacity="1.00" d=" M 262.74 201.11 L 264.24 201.09 C 264.51 206.92 264.27 212.77 264.58 218.61 L 262.71 218.26 C 262.39 212.55 262.65 206.82 262.74 201.11 Z" />
<path fill="#26a9e2" opacity="1.00" d=" M 203.29 216.76 C 201.71 213.75 202.05 209.89 204.30 207.31 C 204.47 207.72 204.81 208.52 204.98 208.93 C 204.38 211.15 204.17 213.44 204.75 215.70 L 204.98 217.31 C 204.56 217.17 203.71 216.90 203.29 216.76 Z" />
<path fill="#26a9e2" opacity="1.00" d=" M 218.15 208.90 C 218.94 211.46 219.23 214.50 217.72 216.87 C 215.66 220.84 210.05 221.88 206.33 219.78 C 206.19 219.33 205.90 218.44 205.76 217.99 L 207.29 218.30 C 209.88 219.00 213.15 219.38 215.06 217.05 C 217.85 215.06 215.68 211.08 218.15 208.90 Z" />
<path fill="#26a9e2" opacity="1.00" d=" M 179.73 220.84 C 177.25 217.94 177.16 212.76 180.81 210.78 C 180.29 214.12 180.02 217.48 179.73 220.84 Z" />
<path fill="#26a9e2" opacity="1.00" d=" M 208.97 213.11 C 209.16 211.97 210.44 210.35 211.65 211.42 C 212.63 212.65 211.00 213.80 209.92 214.06 C 209.68 213.82 209.21 213.35 208.97 213.11 Z" />
<path fill="#26a9e2" opacity="1.00" d=" M 265.54 217.55 C 266.27 217.70 267.71 217.99 268.43 218.14 C 274.29 220.45 274.31 229.98 268.91 232.94 C 264.55 235.81 258.10 233.67 256.24 228.83 C 254.52 225.21 256.11 220.86 259.15 218.49 C 259.50 218.85 260.18 219.58 260.52 219.95 C 256.67 222.24 256.54 228.30 260.09 230.91 C 261.76 232.41 264.09 232.27 266.18 232.47 C 268.42 230.92 271.03 229.06 270.94 226.00 C 271.42 222.59 268.73 220.08 265.91 218.80 L 265.54 217.55 Z" />
<path fill="#26a9e2" opacity="1.00" d=" M 262.26 224.15 C 263.41 223.53 264.64 223.56 265.83 224.07 C 265.73 225.25 265.64 226.43 265.54 227.62 C 263.12 228.25 261.65 226.48 262.26 224.15 Z" />
</g>
<g id="#0099dbff">
<path fill="#0099db" opacity="1.00" d=" M 161.26 75.66 C 164.40 74.65 167.80 75.27 171.05 74.96 C 201.04 74.56 231.03 74.90 261.02 74.71 C 268.57 74.68 276.13 74.66 283.66 75.38 C 283.64 116.12 283.56 156.86 283.68 197.61 C 281.81 197.68 279.94 197.76 278.07 197.85 C 278.01 198.64 277.91 200.22 277.85 201.01 C 273.31 200.97 268.78 200.95 264.24 201.09 L 262.74 201.11 L 261.94 201.11 C 253.97 201.31 245.99 201.19 238.01 201.06 L 237.03 201.07 C 236.51 201.08 235.46 201.10 234.94 201.11 C 227.43 201.34 219.93 201.10 212.43 201.15 L 212.03 201.17 C 211.51 202.56 211.43 205.37 213.51 205.34 L 214.88 205.33 C 215.83 206.26 216.73 207.24 217.57 208.28 C 217.03 208.43 215.96 208.73 215.42 208.89 C 213.19 204.91 207.68 206.11 204.98 208.93 C 204.81 208.52 204.47 207.72 204.30 207.31 C 205.62 205.62 207.67 204.89 209.62 204.20 C 209.57 203.40 209.46 201.80 209.41 201.00 C 201.94 201.38 194.47 201.15 187.00 201.10 L 186.28 201.10 C 185.71 201.10 184.57 201.11 184.00 201.11 C 179.40 201.03 174.80 201.34 170.20 201.22 C 170.14 200.37 170.03 198.68 169.98 197.83 C 167.03 197.69 164.08 197.58 161.14 197.48 C 188.75 196.94 216.37 197.33 243.99 197.21 C 257.10 197.32 270.21 196.95 283.31 197.50 C 283.23 156.79 283.23 116.08 283.31 75.37 C 247.55 75.82 211.78 75.44 176.02 75.58 C 171.10 75.70 166.16 74.99 161.26 75.66 Z" />
<path fill="#0099db" opacity="1.00" d=" M 169.33 83.69 C 170.48 82.31 172.21 81.66 174.00 81.75 C 206.01 81.70 238.03 81.75 270.04 81.72 C 273.19 81.30 277.18 83.33 276.90 86.93 C 276.90 119.97 276.91 153.01 276.90 186.05 C 276.99 188.97 273.85 191.36 271.04 190.92 C 238.32 190.87 205.60 190.94 172.88 190.89 C 171.17 191.02 168.54 189.48 169.45 187.51 C 169.97 185.74 170.32 183.91 170.28 182.06 C 170.15 151.36 170.29 120.67 170.25 89.97 C 170.25 88.01 169.92 86.07 169.44 84.18 L 169.33 83.69 M 172.11 85.07 C 169.79 87.43 170.96 91.06 170.76 94.02 C 170.85 123.67 170.72 153.33 170.78 182.99 C 170.86 184.50 170.71 186.14 171.59 187.47 C 172.94 188.15 174.50 188.04 175.96 188.11 C 207.34 188.05 238.71 188.13 270.09 188.10 C 271.36 187.97 273.07 188.13 273.84 186.85 C 274.53 184.30 274.03 181.62 274.02 179.03 C 274.38 149.70 274.05 120.35 274.18 91.01 C 273.96 89.05 274.65 86.49 272.85 85.10 C 269.66 84.28 266.32 84.71 263.07 84.67 C 235.70 84.66 208.34 84.68 180.97 84.64 C 178.02 84.66 175.01 84.42 172.11 85.07 Z" />
<path fill="#0099db" opacity="1.00" d=" M 265.99 99.14 C 264.70 96.53 269.97 96.56 269.67 99.03 C 270.30 102.85 267.95 106.18 266.63 109.58 C 263.75 116.99 260.12 124.08 257.44 131.58 C 256.12 134.15 258.21 136.60 258.97 138.99 C 263.29 150.31 267.69 161.60 272.10 172.88 C 272.94 175.05 272.73 177.42 272.79 179.71 C 267.78 181.72 262.22 180.23 256.97 180.66 C 254.69 180.96 251.36 179.24 252.66 176.53 L 253.64 177.21 C 254.09 177.53 255.00 178.17 255.46 178.49 C 260.53 178.66 265.61 178.57 270.69 178.58 C 270.57 176.65 270.73 174.64 270.08 172.79 C 264.68 159.97 260.29 146.74 254.74 134.00 C 254.34 132.17 255.29 130.40 255.80 128.69 C 258.16 122.78 260.85 117.01 263.24 111.11 C 264.51 107.84 266.53 104.78 266.90 101.22 C 266.68 100.70 266.22 99.66 265.99 99.14 Z" />
<path fill="#0099db" opacity="1.00" d=" M 217.60 98.60 C 218.99 97.11 220.35 98.68 221.44 99.67 C 221.69 100.23 222.20 101.36 222.45 101.93 C 217.95 110.65 214.70 119.96 210.61 128.88 C 207.71 134.51 211.97 140.03 213.62 145.31 C 216.73 154.34 221.06 162.94 223.66 172.13 C 223.05 173.34 222.44 174.54 221.83 175.74 C 221.66 173.24 221.61 170.67 220.54 168.35 C 216.02 157.51 212.41 146.28 207.50 135.62 C 206.56 131.53 208.21 127.59 210.01 124.02 C 213.16 116.64 216.26 109.24 219.50 101.91 C 219.12 101.23 218.34 99.89 217.95 99.21 L 217.60 98.60 Z" />
<path fill="#0099db" opacity="1.00" d=" M 240.06 102.40 C 242.81 106.18 244.61 110.88 245.09 115.53 C 242.77 111.46 241.07 106.97 240.06 102.40 Z" />
<path fill="#0099db" opacity="1.00" d=" M 254.03 138.49 C 256.80 141.34 257.39 145.46 259.03 148.95 C 260.38 153.15 262.97 157.03 263.12 161.54 C 260.88 158.19 259.94 154.22 258.36 150.56 C 256.90 146.54 254.90 142.70 254.03 138.49 Z" />
<path fill="#0099db" opacity="1.00" d=" M 209.97 148.32 C 212.63 151.35 213.37 155.43 214.98 159.03 C 216.40 163.19 218.86 167.08 219.13 171.57 C 216.98 168.48 216.10 164.76 214.63 161.34 C 213.06 157.01 210.90 152.86 209.97 148.32 Z" />
<path fill="#0099db" opacity="1.00" d=" M 186.65 171.67 C 188.87 166.01 191.15 160.36 193.80 154.89 C 194.28 155.22 195.23 155.87 195.70 156.20 C 196.16 157.42 196.63 158.64 197.12 159.86 C 196.55 159.66 195.43 159.28 194.86 159.09 C 191.92 165.54 189.60 172.27 186.47 178.62 C 184.87 181.75 180.91 180.56 178.09 180.60 C 176.19 180.77 176.41 178.46 176.12 177.23 C 177.44 176.77 178.68 176.83 179.83 177.42 C 180.22 177.63 180.98 178.06 181.36 178.27 C 184.45 177.52 185.46 174.21 186.65 171.67 Z" />
<path fill="#0099db" opacity="1.00" d=" M 126.51 174.54 C 127.59 173.97 129.49 173.57 130.05 175.06 C 131.70 176.81 128.60 180.10 126.81 178.26 C 125.55 177.55 125.99 175.62 126.51 174.54 Z" />
<path fill="#0099db" opacity="1.00" d=" M 204.09 177.25 C 205.22 176.85 206.32 176.81 207.38 177.13 C 210.56 179.12 214.43 178.36 217.98 178.47 C 219.91 178.59 221.73 177.96 223.44 177.11 C 224.55 176.40 225.64 176.44 226.71 177.24 C 227.26 177.54 228.36 178.14 228.92 178.44 C 230.35 178.13 231.79 177.81 233.23 177.50 C 232.69 178.56 232.39 180.61 230.84 180.59 C 222.91 180.70 214.97 180.67 207.04 180.57 C 205.30 180.54 204.42 178.73 204.09 177.25 Z" />
<path fill="#0099db" opacity="1.00" d=" M 273.08 253.32 C 283.87 250.89 295.03 251.67 306.01 251.53 C 315.60 251.55 326.02 251.95 334.03 257.91 C 341.85 263.51 345.25 273.62 344.58 282.95 C 343.08 287.85 336.10 287.96 332.42 285.62 C 327.71 281.58 329.00 274.34 325.36 269.62 C 323.39 267.08 319.97 266.64 317.01 266.14 C 306.38 264.99 295.68 265.99 285.02 266.15 C 280.48 266.17 275.66 267.10 272.15 270.15 C 267.70 273.85 266.77 280.68 269.17 285.78 C 270.71 288.64 274.00 289.51 276.87 290.38 C 277.36 290.57 278.34 290.95 278.83 291.14 C 283.59 291.19 288.30 292.17 293.08 292.07 C 305.12 292.04 317.48 291.69 329.05 295.57 C 334.00 297.15 338.53 300.35 341.16 304.90 C 345.42 312.06 346.05 320.85 344.75 328.92 C 344.56 329.41 344.18 330.39 343.99 330.87 C 343.70 335.44 341.17 339.79 338.32 343.33 C 336.30 345.37 333.97 347.94 330.88 347.92 C 330.40 348.14 329.44 348.57 328.97 348.79 C 316.08 351.26 302.96 349.56 289.96 349.96 C 285.28 350.14 280.58 350.50 275.93 349.80 C 275.44 349.58 274.47 349.13 273.99 348.91 C 261.91 346.78 253.84 333.87 254.45 322.04 C 254.32 315.60 264.09 313.88 267.34 318.50 C 269.16 322.57 268.25 327.44 270.69 331.31 C 272.84 334.79 277.15 336.07 281.03 336.10 C 294.04 336.26 307.04 336.48 320.05 336.58 C 323.09 336.75 325.91 334.98 327.46 332.43 C 329.73 328.71 331.56 324.41 330.83 319.96 C 330.32 316.25 329.78 311.88 326.46 309.57 C 323.68 307.75 320.25 307.33 317.02 306.96 C 302.55 305.86 287.88 308.11 273.54 305.30 C 269.38 304.20 264.91 303.34 261.44 300.65 C 255.81 295.46 253.74 287.48 253.84 280.04 C 253.42 271.40 256.77 262.11 264.21 257.23 C 266.37 255.97 268.58 254.07 271.20 254.21 C 271.67 253.98 272.61 253.54 273.08 253.32 Z" />
<path fill="#0099db" opacity="1.00" d=" M 218.90 365.77 C 219.40 365.83 220.41 365.95 220.92 366.01 C 221.07 371.19 220.49 376.44 221.48 381.57 C 221.73 383.31 223.37 384.55 225.11 384.46 C 229.37 384.57 233.71 385.06 237.92 384.26 C 239.85 383.90 241.09 381.89 240.95 380.01 C 241.07 375.30 240.87 370.59 241.07 365.88 C 243.91 366.03 247.63 364.74 249.71 367.32 C 253.55 371.79 257.27 376.38 261.19 380.79 C 262.08 381.77 263.02 382.78 264.31 383.25 C 264.42 377.53 264.38 371.81 264.32 366.09 C 264.97 366.02 266.27 365.87 266.91 365.80 C 266.85 373.01 267.08 380.23 266.79 387.44 C 265.67 387.40 264.56 387.32 263.45 387.21 C 257.30 381.17 252.40 373.87 245.96 368.13 C 245.82 374.39 246.00 380.66 245.87 386.92 C 243.69 387.88 242.77 387.23 243.11 384.99 C 243.40 382.06 239.11 384.93 239.16 386.67 C 235.20 387.79 231.02 387.15 226.96 387.28 C 223.98 387.29 219.96 386.47 219.01 383.20 C 218.84 377.39 219.01 371.58 218.90 365.77 Z" />
<path fill="#0099db" opacity="1.00" d=" M 291.10 365.64 C 291.64 365.82 292.73 366.18 293.28 366.36 C 293.77 372.60 294.22 379.17 292.31 385.24 C 289.88 387.80 286.12 387.18 282.95 387.27 C 280.11 387.14 277.09 387.62 274.42 386.46 C 271.99 385.21 272.02 382.21 272.02 379.88 C 272.62 379.97 273.81 380.14 274.41 380.23 C 274.71 381.71 274.77 383.59 276.41 384.27 C 280.51 385.45 285.20 385.54 289.27 384.15 C 290.38 383.50 291.03 382.30 290.90 381.01 C 291.06 375.89 290.72 370.76 291.10 365.64 Z" />
<path fill="#0099db" opacity="1.00" d=" M 296.89 366.02 C 302.97 365.97 309.05 366.05 315.13 365.97 C 316.79 366.27 318.92 367.28 319.10 369.18 C 319.02 370.69 318.97 372.20 318.95 373.72 C 318.88 374.30 318.72 375.45 318.64 376.02 C 322.46 379.15 321.16 386.44 316.01 387.12 C 309.64 387.51 303.24 386.98 296.86 387.39 C 296.89 380.26 296.81 373.14 296.89 366.02 M 299.20 368.30 C 298.95 370.50 298.92 372.72 299.04 374.94 C 304.02 375.03 309.01 375.06 314.00 374.99 C 315.47 375.18 316.68 374.54 317.26 373.17 C 316.85 371.68 316.99 369.47 315.17 368.90 C 310.01 367.54 304.50 368.60 299.20 368.30 M 299.07 377.12 C 298.93 379.70 298.94 382.30 299.14 384.88 C 304.81 385.12 310.49 384.99 316.16 384.97 L 316.20 384.04 L 317.09 384.03 C 318.31 382.25 318.90 378.43 316.15 377.94 L 316.14 377.06 C 310.45 376.97 304.75 376.88 299.07 377.12 Z" />
<path fill="#0099db" opacity="1.00" d=" M 326.26 367.21 C 327.18 366.26 328.59 366.15 329.82 365.96 C 334.29 365.97 338.75 365.98 343.22 365.92 C 345.09 365.90 346.53 367.16 348.00 368.14 L 347.89 369.26 C 347.95 369.95 348.07 371.31 348.13 372.00 C 345.86 372.68 345.51 370.01 344.36 368.79 C 342.06 367.61 339.41 368.04 336.93 367.94 C 334.15 368.04 331.21 367.59 328.60 368.78 C 324.25 371.44 326.51 377.29 325.84 381.43 C 325.60 382.60 326.23 384.25 327.65 384.18 C 333.03 384.65 338.50 384.81 343.88 384.26 C 344.25 384.06 344.98 383.66 345.34 383.46 C 345.93 382.12 345.94 380.65 346.00 379.22 C 342.64 379.24 339.27 379.50 335.93 379.07 C 335.87 378.58 335.76 377.60 335.70 377.11 C 340.03 376.84 344.38 376.92 348.69 377.42 C 348.55 379.41 348.41 381.40 348.24 383.40 C 347.63 385.71 345.36 387.37 342.96 387.21 C 338.32 387.23 333.65 387.42 329.02 387.08 C 326.81 386.95 323.75 385.43 324.14 382.82 C 324.27 381.74 323.97 380.81 323.23 380.02 C 322.91 377.65 323.11 375.26 323.12 372.89 C 324.15 372.37 324.54 371.49 324.27 370.26 L 324.21 369.09 C 325.32 369.00 326.01 368.38 326.26 367.21 Z" />
</g>
<g id="#d9eef7ff">
<path fill="#d9eef7" opacity="1.00" d=" M 156.46 91.09 L 157.22 91.15 C 157.27 91.67 157.37 92.71 157.42 93.23 L 156.68 93.41 L 155.89 93.08 C 156.03 92.58 156.32 91.59 156.46 91.09 Z" />
<path fill="#d9eef7" opacity="1.00" d=" M 173.03 97.39 C 178.41 97.64 183.83 97.13 189.19 97.64 C 191.68 100.37 191.58 104.59 193.97 107.44 L 194.00 107.63 C 195.16 113.19 197.95 118.28 199.62 123.71 C 199.82 123.72 200.21 123.74 200.40 123.75 C 203.85 114.89 207.46 106.08 211.32 97.39 C 213.20 97.41 215.08 97.40 216.96 97.39 C 212.71 108.74 207.42 119.70 202.88 130.94 C 204.22 135.27 205.69 139.76 208.08 143.63 L 208.10 144.05 C 208.04 145.48 208.28 147.39 209.87 147.91 L 209.97 148.32 C 210.90 152.86 213.06 157.01 214.63 161.34 C 216.10 164.76 216.98 168.48 219.13 171.57 L 219.16 171.76 C 219.30 173.20 219.62 174.62 220.07 176.01 C 214.47 176.03 208.87 176.21 203.27 175.98 C 201.33 170.56 199.24 165.20 197.12 159.86 C 196.63 158.64 196.16 157.42 195.70 156.20 C 194.66 153.39 193.62 150.58 192.67 147.74 C 192.09 148.50 191.61 149.31 191.21 150.18 C 187.68 158.66 184.04 167.10 180.48 175.57 C 178.59 176.68 176.14 175.90 174.04 176.02 C 178.85 165.07 183.49 154.05 188.29 143.11 C 188.75 141.83 189.79 140.42 189.00 139.05 C 183.76 125.13 177.98 111.40 173.03 97.39 Z" />
<path fill="#d9eef7" opacity="1.00" d=" M 221.16 97.31 C 226.49 97.72 231.86 97.12 237.18 97.62 C 238.47 98.98 238.75 101.02 240.06 102.40 L 240.06 102.40 C 241.07 106.97 242.77 111.46 245.09 115.53 L 245.11 115.71 C 245.25 118.65 246.87 121.24 247.64 124.03 C 249.20 122.88 249.29 120.69 250.14 119.07 C 253.20 111.86 255.98 104.52 259.26 97.41 C 261.15 97.42 263.04 97.40 264.93 97.38 C 260.67 108.73 255.34 119.66 250.87 130.93 C 251.31 133.56 252.34 136.26 254.00 138.38 L 254.03 138.49 C 254.90 142.70 256.90 146.54 258.36 150.56 C 259.94 154.22 260.88 158.19 263.12 161.54 L 263.14 161.67 C 264.01 166.09 265.63 170.53 268.17 174.28 L 268.30 174.47 L 267.95 175.87 C 262.39 176.27 256.79 176.08 251.22 175.98 C 247.81 166.53 243.92 157.25 240.63 147.76 C 237.49 152.88 235.82 158.80 233.23 164.23 C 231.89 167.98 229.52 171.42 229.10 175.45 L 229.02 175.72 C 226.64 176.10 224.19 176.40 221.83 175.74 C 222.44 174.54 223.05 173.34 223.66 172.13 C 228.10 162.00 232.44 151.81 236.85 141.66 C 237.68 140.05 236.61 138.37 236.14 136.84 C 231.48 125.24 227.15 113.51 222.45 101.93 C 222.20 101.36 221.69 100.23 221.44 99.67 C 221.37 99.08 221.23 97.90 221.16 97.31 Z" />
<path fill="#d9eef7" opacity="1.00" d=" M 239.16 386.67 C 239.11 384.93 243.40 382.06 243.11 384.99 C 241.78 385.47 240.59 386.60 239.16 386.67 Z" />
</g>
<g id="#636365ff">
<path fill="#636365" opacity="1.00" d=" M 192.20 99.04 C 193.08 99.68 194.12 100.27 194.48 101.38 C 196.41 105.62 197.73 110.10 199.54 114.39 C 200.39 116.43 201.24 118.79 200.07 120.90 C 197.55 116.72 197.30 111.32 194.00 107.63 L 193.97 107.44 C 193.83 104.54 192.38 101.93 192.20 99.04 Z" />
<path fill="#636365" opacity="1.00" d=" M 240.44 98.93 C 243.54 102.55 244.64 107.34 246.35 111.68 C 247.11 114.67 249.57 117.59 248.15 120.77 C 247.21 119.04 246.62 117.06 245.11 115.71 L 245.09 115.53 C 244.61 110.88 242.81 106.18 240.06 102.40 L 240.06 102.40 C 240.15 101.53 240.35 99.80 240.44 98.93 Z" />
<path fill="#636365" opacity="1.00" d=" M 216.24 102.18 C 216.66 101.11 217.23 100.12 217.95 99.21 C 218.34 99.89 219.12 101.23 219.50 101.91 C 216.26 109.24 213.16 116.64 210.01 124.02 C 208.21 127.59 206.56 131.53 207.50 135.62 C 212.41 146.28 216.02 157.51 220.54 168.35 C 221.61 170.67 221.66 173.24 221.83 175.74 C 221.04 174.34 220.19 172.98 219.16 171.76 L 219.13 171.57 C 218.86 167.08 216.40 163.19 214.98 159.03 C 213.37 155.43 212.63 151.35 209.97 148.32 L 209.87 147.91 C 210.36 146.37 210.05 144.22 208.10 144.05 L 208.08 143.63 C 208.02 139.13 204.83 135.42 204.07 131.05 C 207.87 121.33 212.39 111.89 216.24 102.18 Z" />
<path fill="#636365" opacity="1.00" d=" M 263.29 104.52 C 264.03 102.65 264.72 100.73 265.99 99.14 C 266.22 99.66 266.68 100.70 266.90 101.22 C 266.53 104.78 264.51 107.84 263.24 111.11 C 260.85 117.01 258.16 122.78 255.80 128.69 C 255.29 130.40 254.34 132.17 254.74 134.00 C 260.29 146.74 264.68 159.97 270.08 172.79 C 270.73 174.64 270.57 176.65 270.69 178.58 C 265.61 178.57 260.53 178.66 255.46 178.49 C 255.00 178.17 254.09 177.53 253.64 177.21 C 258.95 177.33 264.27 177.33 269.59 177.25 C 269.27 176.56 268.62 175.17 268.30 174.47 L 268.17 174.28 C 267.13 169.89 265.90 165.32 263.14 161.67 L 263.12 161.54 C 262.97 157.03 260.38 153.15 259.03 148.95 C 257.39 145.46 256.80 141.34 254.03 138.49 L 254.00 138.38 C 254.02 135.53 251.91 132.98 252.27 130.20 C 255.94 121.64 259.65 113.09 263.29 104.52 Z" />
<path fill="#636365" opacity="1.00" d=" M 191.11 153.19 C 191.48 152.25 192.05 151.43 192.79 150.74 C 193.16 152.11 193.51 153.50 193.80 154.89 C 191.15 160.36 188.87 166.01 186.65 171.67 C 185.46 174.21 184.45 177.52 181.36 178.27 C 180.98 178.06 180.22 177.63 179.83 177.42 C 180.94 176.61 181.79 175.53 182.24 174.23 C 185.09 167.17 188.24 160.24 191.11 153.19 Z" />
<path fill="#636365" opacity="1.00" d=" M 236.41 159.57 C 237.94 156.69 238.35 153.08 240.84 150.80 C 241.33 152.79 241.84 154.86 241.52 156.93 C 238.99 163.87 235.62 170.50 233.23 177.50 C 231.79 177.81 230.35 178.13 228.92 178.44 C 228.36 178.14 227.26 177.54 226.71 177.24 C 227.28 176.86 228.44 176.10 229.02 175.72 L 229.10 175.45 C 232.32 170.57 233.89 164.82 236.41 159.57 Z" />
<path fill="#636365" opacity="1.00" d=" M 207.38 177.13 C 212.72 176.76 218.09 176.81 223.44 177.11 C 221.73 177.96 219.91 178.59 217.98 178.47 C 214.43 178.36 210.56 179.12 207.38 177.13 Z" />
<path fill="#636365" opacity="1.00" d=" M 104.97 261.93 C 112.12 254.99 122.35 252.77 132.02 252.86 C 141.36 253.02 150.71 252.62 160.03 253.05 C 164.98 253.27 169.24 256.00 173.03 258.96 C 179.58 265.80 182.73 275.65 181.37 285.03 C 179.29 287.45 176.09 287.73 173.14 287.15 C 171.10 285.88 170.86 283.15 170.63 280.98 C 170.66 278.09 169.59 275.37 169.40 272.51 C 168.17 269.96 166.25 267.50 163.46 266.62 C 153.74 264.85 143.82 265.58 134.00 265.54 C 128.06 266.63 121.77 265.77 116.13 268.25 C 113.76 269.77 111.81 271.96 110.63 274.53 C 107.72 284.45 108.61 294.80 108.24 304.99 C 107.95 313.98 109.76 322.81 111.61 331.55 C 112.40 332.39 113.23 333.23 113.68 334.33 C 122.89 341.23 135.08 340.39 145.99 340.62 C 151.96 341.01 157.68 338.99 163.56 338.46 C 168.79 334.31 171.03 327.35 170.51 320.84 C 173.39 318.94 176.93 319.51 180.19 319.59 C 183.36 326.31 180.55 333.84 177.02 339.80 C 175.45 341.38 174.37 343.33 173.04 345.08 C 166.55 350.31 157.88 350.62 149.94 351.19 C 140.93 351.59 132.01 350.24 123.02 350.50 C 118.50 350.28 113.98 349.21 109.83 347.42 C 107.39 345.82 105.51 343.49 103.46 341.43 C 99.59 336.05 98.57 329.34 97.71 322.93 C 97.34 317.29 97.98 311.59 96.93 306.01 C 96.37 292.55 97.94 279.10 101.81 266.18 C 103.16 264.99 103.77 263.23 104.97 261.93 Z" />
<path fill="#636365" opacity="1.00" d=" M 197.77 254.87 C 200.37 253.66 203.22 253.49 206.01 253.05 C 208.10 253.67 211.95 252.86 212.05 255.92 C 212.13 286.36 212.09 316.81 212.10 347.25 C 209.77 347.99 207.39 348.58 204.97 348.98 C 202.80 348.56 200.54 348.41 198.63 347.20 C 197.20 340.55 198.12 333.68 197.56 326.93 C 196.04 304.34 197.43 281.63 196.80 258.99 C 196.64 257.53 197.42 256.23 197.77 254.87 Z" />
<path fill="#636365" opacity="1.00" d=" M 227.85 254.79 C 232.19 253.73 236.78 253.18 241.10 254.66 C 243.64 257.64 241.80 261.52 241.53 264.93 C 241.28 287.93 241.71 310.95 241.28 333.95 C 241.46 338.46 240.02 342.87 240.61 347.39 C 236.12 348.90 230.27 349.87 226.60 346.08 C 226.55 319.37 226.59 292.67 226.58 265.96 C 226.69 262.21 225.95 258.24 227.85 254.79 Z" />
</g>
<g id="#88cfeeff">
<path fill="#88cfee" opacity="1.00" d=" M 156.75 146.08 L 157.24 146.03 L 157.22 146.51 L 156.64 146.69 L 156.75 146.08 Z" />
<path fill="#88cfee" opacity="1.00" d=" M 156.48 175.45 L 157.09 175.35 L 157.16 175.85 L 156.72 175.96 L 156.48 175.45 Z" />
</g>
</svg>
