<?xml version="1.0" encoding="UTF-8" ?>
<!DOCTYPE svg PUBLIC "-//W3C//DTD SVG 1.1//EN" "http://www.w3.org/Graphics/SVG/1.1/DTD/svg11.dtd">
<svg width="788pt" height="178pt" viewBox="0 0 788 178" version="1.1" xmlns="http://www.w3.org/2000/svg">
<g id="#010101ff">
<path fill="#010101" opacity="1.00" d=" M 83.98 0.00 L 95.90 0.00 C 107.78 0.68 119.77 2.31 130.82 6.95 C 130.82 16.31 130.82 25.67 130.82 35.03 C 113.85 25.33 93.10 22.55 74.16 27.29 C 57.78 31.40 43.71 43.32 36.63 58.61 C 29.75 73.57 28.78 90.75 31.59 106.81 C 34.43 122.77 44.15 137.58 58.38 145.58 C 71.52 153.16 87.37 154.05 102.10 152.03 C 112.23 150.70 122.06 147.25 130.83 141.99 C 130.80 150.69 130.82 159.40 130.82 168.10 C 118.16 174.64 103.89 177.00 89.81 178.00 L 77.82 178.00 C 62.11 177.26 46.23 172.99 33.39 163.65 C 16.76 151.83 5.62 133.10 2.10 113.10 C -0.99 95.51 -0.38 77.09 4.83 59.95 C 10.52 41.06 23.28 24.55 39.78 13.81 C 52.86 5.15 68.42 0.94 83.98 0.00 Z" />
<path fill="#010101" opacity="1.00" d=" M 163.06 3.00 C 172.83 3.00 182.60 2.99 192.37 3.01 C 192.38 60.34 192.38 117.66 192.37 174.99 C 182.60 175.00 172.83 175.00 163.06 175.00 C 163.06 117.66 163.06 60.33 163.06 3.00 Z" />
<path fill="#010101" opacity="1.00" d=" M 235.06 3.00 C 244.83 3.00 254.60 3.00 264.37 3.01 C 264.38 60.33 264.38 117.66 264.37 174.99 C 254.60 175.00 244.83 175.00 235.06 175.00 C 235.06 117.66 235.06 60.33 235.06 3.00 Z" />
</g>
<g id="#1a1ebaff">
<path fill="#1a1eba" opacity="1.00" d=" M 356.29 0.00 L 368.66 0.00 C 379.51 0.66 390.65 1.47 400.70 5.98 C 400.68 15.32 400.68 24.67 400.70 34.02 C 388.24 24.77 372.08 22.10 356.90 23.35 C 348.07 24.15 338.71 26.85 332.71 33.79 C 327.89 39.08 327.08 47.04 329.28 53.65 C 330.89 58.26 334.46 61.87 338.32 64.70 C 347.97 71.71 359.55 75.24 369.83 81.14 C 382.42 88.23 395.25 96.53 402.63 109.37 C 408.46 119.06 409.22 131.02 406.97 141.90 C 404.57 153.55 396.26 163.41 385.90 168.99 C 374.86 175.21 362.07 177.01 349.62 178.00 L 340.72 178.00 C 326.29 176.80 311.33 175.11 298.26 168.45 C 298.22 158.63 298.28 148.81 298.23 138.99 C 309.18 148.54 323.64 153.15 337.88 154.73 C 348.41 155.28 359.82 154.80 369.00 149.00 C 376.97 144.03 379.77 133.40 377.23 124.68 C 375.54 119.35 371.38 115.25 366.94 112.07 C 356.79 104.85 344.75 101.09 334.05 94.87 C 324.55 89.44 314.85 83.74 307.80 75.19 C 294.52 59.59 294.63 33.88 308.98 19.00 C 321.01 5.98 339.19 1.26 356.29 0.00 Z" />
<path fill="#1a1eba" opacity="1.00" d=" M 491.53 3.01 C 503.18 3.00 514.82 2.98 526.47 3.02 C 536.57 22.03 546.75 41.01 556.87 60.02 C 559.07 64.15 560.99 68.43 562.90 72.72 C 569.90 58.11 578.34 44.27 586.10 30.07 C 591.14 21.04 596.18 12.02 601.23 3.00 C 611.95 3.00 622.67 3.00 633.39 3.00 C 615.78 31.43 598.14 59.85 580.52 88.28 C 598.50 117.21 616.51 146.12 634.48 175.05 C 623.09 175.07 611.69 175.06 600.30 175.06 C 590.81 158.06 581.34 141.07 571.86 124.07 C 568.19 117.32 563.98 110.80 561.48 103.48 C 556.46 115.28 549.31 125.98 543.13 137.18 C 535.86 149.81 528.63 162.45 521.34 175.06 C 509.87 175.05 498.40 175.07 486.94 175.05 C 505.68 146.18 524.49 117.36 543.21 88.48 C 525.96 60.00 508.76 31.50 491.53 3.01 Z" />
<path fill="#1a1eba" opacity="1.00" d=" M 643.53 3.01 C 655.20 3.03 666.86 2.92 678.53 3.07 C 688.67 22.33 699.03 41.48 709.23 60.71 C 711.30 64.66 713.13 68.73 714.94 72.80 C 721.80 58.11 730.37 44.31 738.09 30.07 C 743.14 21.05 748.18 12.02 753.23 3.00 C 763.95 3.00 774.67 3.00 785.39 3.00 C 767.78 31.43 750.14 59.85 732.52 88.28 C 750.49 117.19 768.48 146.08 786.45 175.00 C 775.05 175.00 763.66 175.00 752.26 175.00 C 742.79 158.01 733.32 141.03 723.84 124.04 C 720.17 117.30 715.97 110.79 713.48 103.48 C 708.46 115.28 701.31 125.99 695.13 137.19 C 687.86 149.81 680.63 162.45 673.34 175.06 C 661.87 175.05 650.40 175.07 638.94 175.05 C 657.68 146.21 676.44 117.37 695.21 88.53 C 678.01 60.01 660.75 31.52 643.53 3.01 Z" />
</g>
</svg>
