<?xml version="1.0" encoding="UTF-8" ?>
<!DOCTYPE svg PUBLIC "-//W3C//DTD SVG 1.1//EN" "http://www.w3.org/Graphics/SVG/1.1/DTD/svg11.dtd">
<svg width="1366pt" height="315pt" viewBox="0 0 1366 315" version="1.1" xmlns="http://www.w3.org/2000/svg">
<g id="#010101ff">
<path fill="#010101" opacity="1.00" d=" M 350.33 76.45 C 363.16 69.88 377.66 66.99 392.02 66.99 C 406.18 66.97 420.63 68.47 433.81 73.96 C 433.81 83.32 433.82 92.68 433.81 102.04 C 417.11 92.45 396.72 89.66 378.01 94.07 C 362.50 97.72 348.92 108.33 341.32 122.29 C 333.45 136.74 331.90 153.89 333.96 170.00 C 335.76 184.01 342.29 197.62 353.19 206.79 C 363.77 216.09 378.09 220.16 391.99 219.94 C 406.56 219.98 421.33 216.66 433.83 208.97 C 433.80 217.68 433.82 226.38 433.82 235.09 C 417.58 243.34 398.96 245.40 380.98 244.93 C 363.78 244.37 346.40 239.08 332.98 228.06 C 317.94 216.01 308.10 198.11 304.93 179.19 C 301.95 161.24 302.73 142.44 308.43 125.09 C 315.26 104.19 330.79 86.44 350.33 76.45 Z" />
<path fill="#010101" opacity="1.00" d=" M 466.06 70.01 C 475.83 69.99 485.60 70.00 495.37 70.01 C 495.38 127.33 495.38 184.66 495.37 241.99 C 485.60 242.00 475.83 242.00 466.06 242.00 C 466.06 184.67 466.06 127.34 466.06 70.01 Z" />
<path fill="#010101" opacity="1.00" d=" M 538.06 70.01 C 547.83 70.00 557.60 70.00 567.37 70.01 C 567.38 127.34 567.38 184.66 567.37 241.99 C 557.60 242.00 547.83 242.00 538.06 241.99 C 538.06 184.66 538.06 127.34 538.06 70.01 Z" />
</g>
<g id="#1a1ebaff">
<path fill="#1a1eba" opacity="1.00" d=" M 625.59 75.69 C 640.08 68.06 656.91 66.35 673.05 67.15 C 683.44 67.67 694.11 68.66 703.70 73.01 C 703.68 82.35 703.68 91.70 703.70 101.04 C 691.27 91.75 675.10 89.13 659.93 90.34 C 651.10 91.15 641.74 93.83 635.74 100.76 C 630.71 106.25 630.00 114.63 632.56 121.41 C 634.49 126.10 638.34 129.69 642.45 132.50 C 652.49 139.40 664.34 142.93 674.73 149.22 C 686.86 156.15 699.06 164.49 705.98 177.00 C 711.53 186.59 712.16 198.30 709.95 208.97 C 707.64 220.07 699.96 229.58 690.25 235.21 C 679.64 241.55 667.20 243.84 655.03 244.73 C 644.11 245.58 633.15 244.38 622.43 242.30 C 615.18 240.81 607.84 239.08 601.30 235.49 C 601.17 225.65 601.30 215.80 601.23 205.96 C 612.15 215.58 626.67 220.13 640.91 221.74 C 651.43 222.27 662.83 221.79 672.00 216.01 C 679.95 211.04 682.77 200.43 680.24 191.72 C 678.65 186.60 674.71 182.60 670.50 179.47 C 660.24 171.98 647.92 168.21 637.01 161.84 C 626.11 155.65 614.81 148.89 607.82 138.13 C 600.97 127.96 599.68 114.82 602.46 103.08 C 605.52 91.04 614.74 81.31 625.59 75.69 Z" />
<path fill="#1a1eba" opacity="1.00" d=" M 794.53 70.01 C 806.21 70.05 817.89 69.88 829.57 70.10 C 838.87 87.86 848.43 105.50 857.84 123.21 C 860.68 128.35 863.21 133.64 865.59 139.01 C 865.78 138.96 866.17 138.87 866.37 138.82 C 872.41 126.07 879.79 114.02 886.54 101.64 C 892.44 91.09 898.33 80.55 904.23 70.00 C 914.95 70.00 925.67 70.00 936.39 70.00 C 918.78 98.43 901.14 126.85 883.53 155.28 C 901.49 184.19 919.48 213.09 937.45 242.00 C 926.05 242.00 914.65 242.00 903.26 242.00 C 893.92 225.23 884.57 208.48 875.22 191.72 C 871.42 184.75 867.11 178.01 864.44 170.48 C 859.50 182.30 852.30 192.96 846.14 204.16 C 838.88 216.78 831.66 229.41 824.37 242.01 C 812.90 241.98 801.43 242.02 789.97 241.99 C 808.72 213.18 827.43 184.35 846.20 155.56 C 829.04 127.01 811.75 98.53 794.53 70.01 Z" />
<path fill="#1a1eba" opacity="1.00" d=" M 946.53 70.01 C 958.21 70.05 969.89 69.89 981.56 70.09 C 988.66 83.71 996.00 97.20 1003.20 110.76 C 1008.24 120.37 1013.69 129.78 1017.93 139.79 C 1022.51 129.72 1028.21 120.24 1033.54 110.57 C 1041.11 97.05 1048.67 83.52 1056.23 70.00 C 1066.95 70.00 1077.67 70.00 1088.39 70.00 C 1070.78 98.43 1053.14 126.85 1035.53 155.28 C 1053.49 184.19 1071.48 213.09 1089.45 242.00 C 1078.05 242.00 1066.65 242.00 1055.26 242.00 C 1043.67 221.20 1032.06 200.41 1020.47 179.62 C 1018.84 176.71 1017.72 173.56 1016.49 170.48 C 1012.48 180.05 1006.87 188.80 1001.79 197.81 C 993.31 212.54 984.88 227.30 976.36 242.02 C 964.89 241.97 953.43 242.02 941.97 241.99 C 960.71 213.17 979.45 184.35 998.21 155.54 C 981.01 127.01 963.75 98.52 946.53 70.01 Z" />
</g>
</svg>
