<?xml version="1.0" encoding="UTF-8" ?>
<!DOCTYPE svg PUBLIC "-//W3C//DTD SVG 1.1//EN" "http://www.w3.org/Graphics/SVG/1.1/DTD/svg11.dtd">
<svg width="919pt" height="445pt" viewBox="0 0 919 445" version="1.1" xmlns="http://www.w3.org/2000/svg">
<g id="#5596d6ff">
<path fill="#5596d6" opacity="1.00" d=" M 587.01 32.02 C 622.24 10.52 663.72 -0.51 704.96 0.41 C 739.04 1.04 772.88 9.97 802.91 26.05 C 835.76 43.59 863.98 69.68 884.10 101.00 C 902.78 130.02 914.48 163.53 917.66 197.91 C 921.27 235.73 914.95 274.50 899.12 309.07 C 883.90 342.70 859.86 372.24 830.21 394.22 C 799.07 417.34 761.65 431.94 723.05 435.84 C 685.49 439.74 646.92 433.89 612.37 418.58 C 578.91 403.93 549.35 380.60 527.10 351.65 C 532.12 351.21 537.13 350.55 542.10 349.66 C 564.22 376.18 592.92 397.22 625.08 409.86 C 660.39 423.89 699.63 427.62 737.01 420.89 C 773.80 414.37 808.62 397.37 836.50 372.50 C 868.75 344.03 891.83 305.27 900.96 263.19 C 892.93 258.54 884.89 253.92 876.87 249.25 C 870.89 245.26 865.81 240.08 859.99 235.90 C 856.98 234.43 853.70 233.67 850.60 232.46 C 848.65 231.86 846.67 230.71 844.60 231.38 C 837.11 233.18 829.60 234.93 822.11 236.77 C 821.46 232.35 819.40 228.19 816.16 225.11 C 825.43 222.53 834.86 220.53 844.20 218.24 C 847.55 217.18 850.77 219.00 853.90 219.98 C 858.04 221.57 862.40 222.61 866.42 224.51 C 872.38 228.79 877.64 234.00 883.64 238.24 C 890.20 242.13 896.85 245.88 903.45 249.72 C 909.19 211.81 904.27 172.28 888.89 137.12 C 873.09 100.64 846.32 69.13 813.22 47.18 C 806.04 55.38 798.86 63.58 791.66 71.75 C 790.07 73.49 788.93 75.55 787.91 77.65 C 790.43 81.62 792.82 85.68 795.24 89.71 C 797.16 93.57 802.14 94.12 804.65 97.45 C 806.31 99.99 805.88 103.61 803.67 105.70 C 799.51 110.17 795.28 114.58 791.11 119.03 C 788.91 121.47 785.94 123.60 785.56 127.12 C 785.46 127.43 785.27 128.05 785.17 128.36 C 780.89 128.26 776.62 128.05 772.35 128.02 C 773.30 124.47 773.32 120.53 775.17 117.28 C 779.59 112.23 784.34 107.46 788.94 102.57 C 787.46 101.18 786.10 99.67 785.12 97.89 C 781.79 92.24 778.30 86.70 774.96 81.06 C 773.61 78.97 773.65 76.19 774.99 74.10 C 777.04 70.52 778.85 66.73 781.62 63.61 C 788.47 55.87 795.27 48.08 802.08 40.30 C 768.54 20.93 729.41 11.63 690.74 13.42 C 691.02 14.64 691.08 16.01 692.00 16.98 C 698.05 24.25 704.31 31.34 710.51 38.48 C 711.90 39.96 712.74 41.90 712.62 43.96 C 712.62 58.98 712.63 74.01 712.62 89.04 C 712.74 91.59 711.43 94.17 709.07 95.29 C 704.71 97.73 700.24 99.96 695.86 102.35 C 698.08 97.54 698.79 92.04 697.43 86.88 C 698.00 86.59 699.16 86.01 699.73 85.72 C 699.60 72.36 700.07 58.94 699.51 45.62 C 693.13 37.98 686.41 30.60 680.12 22.89 C 678.18 20.53 678.51 17.27 677.95 14.45 C 625.24 20.18 575.28 47.23 541.63 88.19 C 537.22 86.56 532.67 85.36 528.05 84.51 C 544.36 63.68 564.41 45.77 587.01 32.02 Z" />
<path fill="#5596d6" opacity="1.00" d=" M 664.21 128.02 C 666.02 122.15 667.53 116.18 669.63 110.40 C 670.67 116.23 669.90 122.18 670.11 128.07 C 668.14 128.05 666.17 128.04 664.21 128.02 Z" />
<path fill="#5596d6" opacity="1.00" d=" M 580.08 125.38 C 588.03 128.10 595.99 130.77 603.96 133.45 C 603.97 137.99 604.03 142.52 604.00 147.06 C 597.66 144.94 591.33 142.81 585.01 140.65 C 583.81 135.43 582.16 130.31 580.08 125.38 Z" />
<path fill="#5596d6" opacity="1.00" d=" M 788.13 140.25 C 794.04 145.22 801.78 146.77 808.71 149.76 C 807.68 150.89 806.74 152.10 805.80 153.29 C 799.92 153.48 794.03 153.34 788.15 153.38 C 788.10 149.00 788.12 144.62 788.13 140.25 Z" />
<path fill="#5596d6" opacity="1.00" d=" M 822.32 143.81 C 824.00 142.81 825.94 142.15 827.91 142.77 C 839.33 145.13 850.77 147.45 862.18 149.87 C 865.42 150.41 867.91 153.62 867.48 156.91 C 867.15 160.41 863.57 163.25 860.09 162.52 C 853.97 161.39 847.91 160.00 841.82 158.79 C 840.86 155.31 839.12 152.00 836.40 149.58 C 832.64 145.81 827.30 144.87 822.32 143.81 Z" />
<path fill="#5596d6" opacity="1.00" d=" M 491.48 154.75 C 492.62 151.14 493.50 146.14 498.05 145.53 C 503.24 144.46 507.01 150.16 505.21 154.78 C 500.63 154.72 496.05 154.75 491.48 154.75 Z" />
<path fill="#5596d6" opacity="1.00" d=" M 488.07 167.25 C 492.49 167.25 496.90 167.26 501.32 167.26 C 499.71 173.78 498.31 180.36 497.29 187.00 C 492.95 186.88 488.62 186.85 484.29 186.87 C 485.26 180.28 486.52 173.73 488.07 167.25 Z" />
<path fill="#5596d6" opacity="1.00" d=" M 593.45 219.48 C 596.82 215.99 600.48 212.79 603.98 209.42 C 603.99 215.06 604.00 220.70 603.99 226.35 C 599.92 226.39 595.86 226.38 591.79 226.38 C 591.94 224.03 591.60 221.28 593.45 219.48 Z" />
<path fill="#5596d6" opacity="1.00" d=" M 591.88 238.88 C 595.91 238.87 599.95 238.87 604.00 238.89 C 604.03 247.51 603.98 256.13 604.00 264.75 C 599.96 264.74 595.92 264.74 591.88 264.75 C 591.87 256.12 591.87 247.50 591.88 238.88 Z" />
<path fill="#5596d6" opacity="1.00" d=" M 483.02 240.22 C 487.32 240.10 491.63 240.04 495.94 239.99 C 496.85 248.31 498.20 256.58 500.06 264.75 C 495.65 264.75 491.24 264.74 486.83 264.75 C 485.11 256.65 483.85 248.46 483.02 240.22 Z" />
<path fill="#5596d6" opacity="1.00" d=" M 788.27 247.34 C 792.17 249.96 794.46 254.76 799.34 256.14 C 799.35 257.83 799.36 259.52 799.38 261.21 C 798.58 261.96 797.79 262.71 797.02 263.48 C 794.06 263.51 791.11 263.51 788.16 263.51 C 788.14 258.12 787.99 252.72 788.27 247.34 Z" />
<path fill="#5596d6" opacity="1.00" d=" M 489.91 277.25 C 494.39 277.25 498.87 277.25 503.36 277.25 C 505.84 285.45 508.80 293.51 512.23 301.36 C 507.51 301.18 502.78 301.28 498.06 301.12 C 494.92 293.32 492.18 285.35 489.91 277.25 Z" />
<path fill="#5596d6" opacity="1.00" d=" M 591.89 277.26 C 595.90 277.24 599.91 277.24 603.93 277.31 C 604.06 285.11 603.99 292.91 603.99 300.72 C 599.76 299.93 593.46 300.32 592.11 295.09 C 591.55 289.17 592.02 283.19 591.89 277.26 Z" />
<path fill="#5596d6" opacity="1.00" d=" M 788.05 283.67 C 790.39 283.63 792.74 283.60 795.10 283.60 C 797.25 286.67 799.80 289.56 803.20 291.31 C 803.92 292.95 804.30 294.96 805.99 295.95 C 811.64 300.04 817.40 304.01 823.03 308.15 C 825.12 309.62 826.11 312.39 825.43 314.87 C 824.36 319.59 823.24 324.30 822.05 328.99 C 821.41 332.51 817.55 334.81 814.14 333.80 C 807.39 332.36 800.67 330.75 793.93 329.28 C 790.12 331.38 786.33 333.49 782.51 335.57 C 781.91 339.66 782.16 343.91 780.99 347.90 C 779.80 350.92 776.41 351.84 773.46 351.71 C 775.85 344.91 774.54 336.95 769.79 331.48 C 770.25 326.29 775.70 324.81 779.47 322.53 C 783.67 320.45 787.52 317.54 791.99 316.07 C 798.43 316.54 804.65 318.74 811.00 319.92 C 811.30 318.62 811.60 317.33 811.92 316.04 C 806.89 312.45 801.87 308.84 796.82 305.28 C 795.49 304.29 793.98 303.32 793.40 301.69 C 791.50 296.90 789.96 291.98 788.13 287.17 C 788.09 286.00 788.06 284.83 788.05 283.67 Z" />
<path fill="#5596d6" opacity="1.00" d=" M 727.29 312.13 C 729.05 312.13 730.84 312.13 732.62 312.13 C 733.84 315.76 735.47 319.26 736.40 322.99 C 736.68 327.12 736.35 331.27 736.10 335.39 C 735.28 337.50 734.64 339.67 734.18 341.89 C 733.32 338.17 732.28 334.31 729.71 331.37 C 728.77 329.99 727.07 328.86 727.27 326.99 C 727.17 322.04 727.28 317.09 727.29 312.13 Z" />
<path fill="#5596d6" opacity="1.00" d=" M 690.87 313.93 C 696.19 317.99 701.75 321.73 707.10 325.76 C 707.09 326.02 707.08 326.53 707.07 326.78 C 703.54 329.53 700.53 333.00 699.14 337.33 C 698.45 336.66 697.76 335.99 697.08 335.33 C 698.53 330.80 698.57 325.73 696.51 321.38 C 695.28 318.45 692.83 316.34 690.87 313.93 Z" />
<path fill="#5596d6" opacity="1.00" d=" M 718.77 364.39 C 727.16 362.91 732.91 355.25 734.17 347.15 C 734.55 348.88 734.95 350.60 735.34 352.35 C 735.08 360.15 733.50 367.87 731.59 375.42 C 730.65 378.27 730.02 381.56 727.65 383.62 C 725.76 384.42 724.66 382.20 723.93 380.87 C 721.43 375.65 720.18 369.96 718.77 364.39 Z" />
</g>
<g id="#ffffffff">
<path fill="#ffffff" opacity="1.00" d=" M 666.64 76.66 C 671.40 72.67 678.18 71.34 684.11 73.15 C 690.56 75.00 695.58 80.50 697.43 86.88 C 698.79 92.04 698.08 97.54 695.86 102.35 C 694.34 104.84 692.17 106.82 690.33 109.04 C 690.10 115.35 690.33 121.67 690.24 127.99 C 695.41 128.02 700.58 127.98 705.75 128.02 C 701.75 124.87 698.79 120.27 698.34 115.13 C 697.42 108.08 700.89 100.57 707.15 97.07 C 713.23 93.44 721.56 94.39 726.70 99.26 C 732.46 104.37 734.19 113.22 731.19 120.24 C 730.01 123.28 727.68 125.62 725.55 128.00 C 730.95 128.01 736.35 128.00 741.75 127.99 C 741.74 125.13 741.75 122.27 741.75 119.40 C 739.35 117.43 737.04 115.22 735.77 112.33 C 732.32 105.37 734.36 96.22 740.51 91.45 C 746.46 86.49 755.79 86.36 761.87 91.17 C 767.56 95.38 770.03 103.29 767.87 110.02 C 766.90 113.56 764.46 116.39 761.85 118.86 C 761.87 121.91 761.87 124.95 761.88 128.00 C 765.36 128.00 768.85 127.98 772.35 128.02 C 776.62 128.05 780.89 128.26 785.17 128.36 C 785.27 128.05 785.46 127.43 785.56 127.12 L 785.39 128.38 C 789.09 131.28 788.04 136.16 788.13 140.25 C 788.12 144.62 788.10 149.00 788.15 153.38 C 794.03 153.34 799.92 153.48 805.80 153.29 C 806.74 152.10 807.68 150.89 808.71 149.76 C 812.36 146.06 817.50 145.06 822.32 143.81 C 827.30 144.87 832.64 145.81 836.40 149.58 C 839.12 152.00 840.86 155.31 841.82 158.79 C 843.71 167.29 838.31 176.22 830.24 179.10 C 822.33 182.30 812.72 179.96 807.15 173.52 C 800.81 173.48 794.46 173.51 788.12 173.50 C 788.13 179.96 788.12 186.42 788.13 192.88 C 793.10 192.84 798.07 192.93 803.05 192.86 C 804.45 193.20 805.12 191.81 805.98 191.03 C 810.05 186.16 816.89 183.98 823.06 185.25 C 829.57 186.45 835.16 191.55 836.93 197.93 C 838.82 204.27 836.88 211.57 832.02 216.07 C 826.81 221.19 818.40 222.48 811.84 219.36 C 808.65 218.09 806.47 215.40 804.12 213.06 C 798.79 212.87 793.45 213.06 788.12 213.00 C 788.13 217.88 788.11 222.76 788.13 227.64 C 789.21 227.62 790.29 227.61 791.39 227.59 C 797.08 219.89 809.07 218.59 816.16 225.11 C 819.40 228.19 821.46 232.35 822.11 236.77 C 822.65 242.97 820.31 249.52 815.30 253.37 C 810.90 256.99 804.70 257.86 799.34 256.14 C 794.46 254.76 792.17 249.96 788.27 247.34 C 787.99 252.72 788.14 258.12 788.16 263.51 C 791.11 263.51 794.06 263.51 797.02 263.48 C 797.79 262.71 798.58 261.96 799.38 261.21 C 803.95 257.13 810.69 255.76 816.49 257.75 C 823.72 260.08 828.80 267.43 828.64 275.00 C 828.71 282.00 824.37 288.83 817.90 291.57 C 813.25 293.66 807.80 293.35 803.20 291.31 C 799.80 289.56 797.25 286.67 795.10 283.60 C 792.74 283.60 790.39 283.63 788.05 283.67 C 788.06 284.83 788.09 286.00 788.13 287.17 C 787.69 294.50 789.03 302.06 787.39 309.25 C 787.92 298.31 787.48 287.34 787.62 276.39 C 790.82 276.37 794.03 276.36 797.24 276.40 C 798.50 280.94 802.05 284.95 806.87 285.67 C 813.10 286.96 819.73 282.25 820.50 275.91 C 821.77 269.15 815.93 262.21 809.02 262.44 C 803.45 262.21 798.58 266.49 797.35 271.78 C 794.10 271.90 790.87 271.90 787.63 271.87 C 787.60 261.39 787.66 250.91 787.60 240.43 C 789.15 240.41 790.70 240.38 792.26 240.37 C 793.32 245.27 797.01 249.65 802.10 250.52 C 808.79 252.04 815.96 246.82 816.54 239.98 C 817.51 233.25 811.84 226.52 805.02 226.47 C 799.16 226.00 793.99 230.38 792.47 235.85 C 790.84 235.85 789.22 235.85 787.61 235.85 C 787.67 225.48 787.55 215.11 787.67 204.74 C 794.52 204.76 801.38 204.73 808.24 204.76 C 810.40 213.25 821.62 216.95 828.44 211.53 C 834.75 207.27 834.57 196.95 828.17 192.86 C 821.17 187.60 810.04 191.64 808.17 200.24 C 801.35 200.28 794.52 200.22 787.71 200.27 C 787.51 188.94 787.68 177.60 787.62 166.27 C 795.33 166.23 803.05 166.25 810.76 166.25 C 812.53 170.67 816.16 174.49 821.00 175.33 C 828.27 177.11 836.53 171.70 837.09 164.08 C 837.97 157.09 831.95 150.56 825.06 150.19 C 818.06 149.35 811.27 154.76 810.43 161.75 C 802.83 161.75 795.22 161.77 787.62 161.73 C 787.59 152.49 787.68 143.25 787.60 134.02 C 787.69 131.42 785.62 128.76 782.90 128.80 C 773.11 128.28 763.30 128.61 753.50 128.48 C 753.49 124.71 753.48 120.94 753.53 117.18 C 758.19 115.88 762.35 112.13 762.90 107.14 C 763.98 100.98 759.27 94.64 753.08 93.88 C 746.44 92.65 739.65 98.22 739.61 104.98 C 739.19 110.73 743.59 115.70 748.97 117.13 C 749.03 120.94 749.03 124.75 748.91 128.55 C 738.48 128.43 728.05 128.56 717.62 128.48 C 717.62 127.53 717.62 125.64 717.62 124.69 C 722.69 123.49 727.26 119.51 727.80 114.12 C 729.00 107.21 723.07 100.22 716.06 100.35 C 709.61 99.95 703.69 105.59 703.62 112.02 C 703.27 117.75 707.51 123.03 713.02 124.36 C 713.01 125.76 713.02 127.15 713.04 128.55 C 702.68 128.46 692.32 128.51 681.96 128.52 C 681.85 120.51 681.75 112.50 682.01 104.50 C 688.65 103.04 693.13 95.55 690.58 89.08 C 688.27 81.88 678.50 78.99 672.55 83.57 C 667.33 87.10 666.11 95.09 670.04 100.01 C 671.79 102.49 674.65 103.70 677.39 104.73 C 677.36 112.65 677.38 120.56 677.38 128.47 C 667.15 128.53 656.93 128.60 646.71 128.40 C 646.79 120.85 646.73 113.31 646.75 105.76 C 620.40 105.73 594.05 105.75 567.70 105.75 C 568.90 107.22 570.09 108.69 571.28 110.17 C 594.93 110.35 618.58 110.20 642.24 110.25 C 642.24 116.33 642.30 122.42 642.22 128.50 C 641.56 128.43 640.26 128.29 639.61 128.23 C 639.90 122.57 639.68 116.91 639.75 111.25 C 617.20 111.24 594.64 111.27 572.09 111.23 C 575.25 115.65 577.92 120.40 580.08 125.38 C 582.16 130.31 583.81 135.43 585.01 140.65 C 586.08 145.29 586.77 150.01 587.29 154.74 C 592.86 154.76 598.43 154.74 604.00 154.75 C 604.00 157.09 603.99 159.42 603.98 161.76 C 598.56 161.75 593.15 161.74 587.74 161.76 C 587.79 163.25 587.86 164.75 587.92 166.24 C 593.28 166.26 598.63 166.25 603.98 166.25 L 603.99 167.25 C 598.64 167.26 593.30 167.24 587.95 167.26 C 588.05 173.97 585.68 181.14 580.01 185.15 C 572.29 190.61 561.42 191.03 553.03 186.85 C 545.62 183.02 542.02 174.89 539.86 167.25 C 527.01 167.25 514.17 167.25 501.32 167.26 C 496.90 167.26 492.49 167.25 488.07 167.25 C 467.08 167.27 446.08 167.22 425.08 167.27 C 425.55 172.39 426.95 178.55 432.37 180.55 C 448.79 187.24 466.89 186.69 484.29 186.87 C 488.62 186.85 492.95 186.88 497.29 187.00 C 508.30 187.31 519.35 188.13 530.13 190.49 C 532.06 190.90 534.03 191.14 536.02 191.13 C 558.68 191.11 581.34 191.13 604.00 191.12 C 604.00 193.45 603.99 195.78 603.99 198.12 C 587.27 198.13 570.55 198.12 553.83 198.12 C 556.68 199.40 559.14 201.61 562.12 202.55 C 576.07 202.73 590.03 202.57 603.99 202.62 L 603.99 203.63 C 590.27 203.60 576.55 203.67 562.83 203.59 C 570.58 209.55 576.58 217.54 580.70 226.37 C 584.40 226.38 588.09 226.37 591.79 226.38 C 595.86 226.38 599.92 226.39 603.99 226.35 C 603.99 228.69 603.99 231.03 604.00 233.37 C 597.19 233.38 590.39 233.38 583.59 233.37 C 584.02 234.86 584.45 236.35 584.89 237.85 C 591.26 237.91 597.62 237.84 603.99 237.89 L 604.00 238.89 C 599.95 238.87 595.91 238.87 591.88 238.88 C 589.66 238.87 587.45 238.87 585.25 238.87 C 587.54 247.32 588.75 256.03 589.21 264.77 C 589.88 264.76 591.21 264.75 591.88 264.75 C 595.92 264.74 599.96 264.74 604.00 264.75 C 604.00 267.08 603.99 269.42 603.98 271.76 C 599.13 271.75 594.28 271.74 589.43 271.75 C 589.37 273.25 589.31 274.75 589.27 276.25 C 594.15 276.25 599.03 276.27 603.91 276.21 C 603.92 276.48 603.93 277.03 603.93 277.31 C 599.91 277.24 595.90 277.24 591.89 277.26 C 591.00 277.26 590.12 277.26 589.25 277.27 C 588.36 293.98 584.86 310.91 576.63 325.63 C 571.95 333.84 565.45 341.42 556.82 345.60 C 552.23 347.93 547.10 348.71 542.10 349.66 C 537.13 350.55 532.12 351.21 527.10 351.65 C 506.45 353.36 485.75 350.85 465.07 351.67 C 453.91 352.09 442.53 353.37 431.53 350.76 C 417.65 347.24 405.49 338.29 396.96 326.94 C 386.60 312.54 381.53 294.81 380.55 277.24 C 376.83 277.25 373.10 277.25 369.38 277.25 C 369.46 299.62 367.44 321.95 367.62 344.32 C 361.27 345.46 355.34 348.18 348.98 349.25 C 341.99 350.49 334.69 348.75 328.57 345.29 C 324.56 342.98 320.78 339.04 321.00 334.09 C 320.98 315.14 321.02 296.19 320.99 277.25 C 316.19 277.26 311.40 277.24 306.60 277.26 C 306.92 299.47 306.67 321.68 306.75 343.89 C 298.17 345.81 290.03 350.46 281.00 349.60 C 274.97 348.93 268.36 347.52 264.07 342.89 C 260.45 338.88 260.33 333.12 260.27 328.03 C 260.69 311.09 259.76 294.15 258.96 277.23 C 253.43 277.27 247.90 277.23 242.38 277.27 C 242.91 295.19 237.64 313.15 228.33 328.41 C 224.34 334.56 219.87 340.71 213.60 344.73 C 204.79 350.46 194.27 352.77 183.98 354.07 C 163.73 356.46 143.33 354.56 123.02 354.39 C 111.49 354.39 99.76 353.76 88.71 350.21 C 80.16 347.49 72.29 342.48 66.51 335.57 C 60.67 328.76 56.98 320.44 54.04 312.04 C 50.16 300.85 48.35 289.06 47.64 277.27 C 40.08 277.23 32.53 277.26 24.98 277.25 C 24.86 279.49 24.75 281.74 24.64 283.99 C 22.85 283.96 21.06 283.91 19.28 283.87 C 19.38 281.32 19.54 278.77 19.73 276.22 C 29.01 276.29 38.29 276.22 47.57 276.27 C 47.49 274.75 47.40 273.24 47.31 271.73 C 36.72 271.73 26.13 271.83 15.54 271.68 C 15.05 275.64 15.00 279.63 14.79 283.61 C 14.13 283.57 12.79 283.49 12.12 283.46 C 12.44 277.23 12.78 271.00 13.05 264.77 C 24.44 264.73 35.84 264.75 47.23 264.75 C 47.01 256.12 47.12 247.47 46.27 238.87 C 37.83 238.89 29.39 238.84 20.94 238.90 L 21.29 237.93 C 29.59 237.78 37.89 237.93 46.19 237.87 C 46.10 236.36 46.01 234.85 45.92 233.35 C 37.54 233.40 29.16 233.36 20.78 233.38 C 20.56 232.78 20.10 231.59 19.87 231.00 C 19.78 229.46 19.72 227.93 19.69 226.40 C 28.42 226.35 37.15 226.39 45.87 226.37 C 45.87 218.79 45.88 211.21 45.87 203.63 C 42.50 203.62 39.14 203.61 35.77 203.65 C 35.91 203.39 36.21 202.87 36.36 202.61 C 39.55 202.59 42.73 202.66 45.92 202.55 C 45.95 201.08 45.98 199.60 46.01 198.13 C 42.77 198.13 39.53 198.12 36.29 198.11 C 35.83 196.71 35.37 195.31 34.92 193.91 C 34.85 193.22 34.72 191.83 34.65 191.14 C 38.55 191.10 42.45 191.17 46.36 191.05 C 46.65 183.10 47.35 175.16 48.18 167.25 C 41.70 167.25 35.22 167.24 28.73 167.26 L 29.10 166.32 C 35.49 166.14 41.88 166.30 48.27 166.26 C 48.48 164.76 48.69 163.26 48.90 161.76 C 42.18 161.71 35.45 161.81 28.72 161.71 C 27.86 160.02 26.95 158.37 25.98 156.75 C 25.89 156.25 25.70 155.26 25.60 154.77 C 33.74 154.73 41.88 154.76 50.02 154.75 C 52.19 144.79 54.09 134.77 56.33 124.83 C 58.10 119.83 61.25 115.44 64.41 111.23 C 53.28 111.28 42.15 111.23 31.02 111.26 L 31.26 110.27 C 42.53 110.23 53.80 110.23 65.07 110.28 C 66.52 108.78 67.94 107.28 69.36 105.76 C 56.38 105.73 43.40 105.77 30.42 105.74 L 30.18 105.12 C 30.08 103.00 30.11 100.87 30.12 98.75 C 45.99 98.65 61.88 98.94 77.74 98.61 C 89.95 90.65 104.28 85.71 118.94 85.62 C 139.94 85.63 160.94 85.62 181.93 85.62 C 186.32 85.66 190.77 85.33 195.09 86.32 C 203.62 88.08 211.22 92.87 217.57 98.71 C 231.25 98.81 244.94 98.72 258.62 98.75 C 260.63 93.32 265.56 89.73 270.93 88.06 C 279.68 85.27 289.50 84.56 298.24 87.75 C 302.95 89.38 306.59 93.66 306.79 98.75 C 311.95 98.73 317.10 98.81 322.25 98.69 C 325.21 91.79 332.69 87.85 339.99 87.89 C 347.14 87.95 354.59 86.85 361.47 89.30 C 365.79 90.79 368.79 94.58 370.36 98.75 C 381.69 98.62 393.06 98.99 404.37 98.58 C 411.47 92.98 419.59 88.65 428.43 86.58 C 445.27 82.38 462.76 82.48 479.99 82.38 C 496.02 82.52 512.19 81.75 528.05 84.51 C 532.67 85.36 537.22 86.56 541.63 88.19 C 548.39 90.60 554.47 94.46 560.29 98.60 C 590.92 98.96 621.60 98.64 652.25 98.75 C 652.25 108.50 652.25 118.25 652.25 127.99 C 656.23 128.00 660.22 127.99 664.21 128.02 C 666.17 128.04 668.14 128.05 670.11 128.07 C 669.90 122.18 670.67 116.23 669.63 110.40 C 663.41 106.97 659.25 100.15 659.23 93.03 C 658.98 86.81 661.80 80.57 666.64 76.66 M 117.27 89.32 C 96.91 90.20 76.49 99.95 64.78 116.94 C 62.59 120.34 60.14 123.79 59.38 127.85 C 58.23 133.58 57.01 139.31 55.82 145.04 C 50.35 168.60 49.43 192.94 49.57 217.03 C 49.27 226.36 49.66 235.70 50.42 245.00 C 51.27 264.89 50.07 285.19 55.58 304.55 C 59.17 317.00 64.32 329.84 74.52 338.36 C 86.81 348.70 103.61 350.37 119.04 350.70 C 142.36 350.55 165.87 353.40 189.04 349.62 C 199.40 347.81 210.27 344.49 217.62 336.54 C 227.31 325.79 233.39 312.17 236.64 298.17 C 238.66 288.84 239.80 279.00 237.57 269.60 C 236.54 265.40 233.97 260.34 229.07 260.05 C 222.83 260.07 216.27 259.98 210.42 262.47 C 207.10 263.84 205.55 267.45 205.50 270.85 C 205.29 277.58 205.36 284.51 202.84 290.88 C 200.68 296.43 198.83 302.35 194.81 306.89 C 193.34 308.62 191.22 309.56 189.03 309.95 C 178.14 312.28 167.25 315.57 155.99 314.92 C 143.82 314.37 131.52 314.67 119.51 312.32 C 109.53 310.36 99.39 306.21 92.81 298.15 C 89.76 293.70 89.02 288.17 87.95 283.01 C 85.17 265.47 82.55 247.80 82.62 230.00 C 82.54 218.66 83.34 207.34 83.39 196.00 C 83.54 186.29 83.74 176.56 85.04 166.93 C 86.39 157.66 88.48 147.91 94.62 140.52 C 97.54 136.77 102.48 135.78 106.85 134.72 C 117.43 132.53 128.26 131.85 139.04 131.38 C 152.66 130.94 166.31 130.92 179.90 131.84 C 184.14 132.23 188.46 132.41 192.57 133.62 C 197.51 135.32 200.54 140.09 202.16 144.82 C 205.71 155.34 205.17 166.63 207.39 177.42 C 208.11 180.41 208.98 183.67 211.43 185.75 C 213.54 187.52 216.51 187.04 219.06 187.15 C 223.53 187.01 228.28 187.41 232.45 185.46 C 235.89 183.81 237.49 179.99 238.21 176.46 C 239.92 167.32 239.01 157.95 237.59 148.84 C 235.39 131.56 228.46 114.47 215.84 102.17 C 208.40 94.95 198.66 89.31 188.05 89.25 C 164.46 89.29 140.86 89.16 117.27 89.32 M 449.57 90.82 C 442.29 91.48 435.00 92.48 427.96 94.51 C 413.71 98.47 401.89 109.22 395.24 122.28 C 388.61 135.40 386.50 150.39 387.00 164.96 C 386.96 182.60 390.53 201.13 401.69 215.28 C 407.95 223.01 418.10 225.37 427.03 228.57 C 450.83 234.87 475.69 232.29 500.01 232.50 C 510.69 232.52 521.57 232.51 531.94 235.38 C 537.43 236.94 543.01 239.96 545.60 245.30 C 548.41 251.15 549.41 257.67 550.20 264.05 C 550.83 271.16 551.22 278.61 548.62 285.41 C 546.31 291.77 544.32 298.54 539.79 303.75 C 536.89 307.14 532.51 309.21 528.02 309.01 C 500.66 308.71 473.30 308.32 445.95 307.95 C 437.51 307.87 428.31 304.65 423.93 296.97 C 417.88 286.83 420.18 274.41 416.49 263.57 C 415.03 258.66 409.90 256.04 405.02 256.12 C 399.80 255.67 393.77 257.23 391.09 262.15 C 387.10 269.38 387.86 278.09 388.92 285.99 C 391.17 299.75 395.79 313.48 404.60 324.48 C 411.40 332.74 420.41 339.34 430.61 342.69 C 440.77 345.89 451.56 344.72 462.02 344.29 C 486.99 342.92 512.16 346.93 537.00 342.89 C 543.81 341.64 551.12 341.02 556.94 336.86 C 567.01 329.89 572.73 318.38 576.49 307.04 C 582.98 286.23 583.59 263.60 578.39 242.44 C 574.69 227.57 566.13 213.04 552.18 205.79 C 538.48 199.00 523.19 196.13 508.05 195.03 C 486.20 193.33 463.99 196.07 442.40 191.48 C 436.66 189.99 430.59 188.79 425.65 185.33 C 421.01 182.07 418.71 176.47 418.02 171.00 C 416.83 162.13 417.27 152.62 421.70 144.65 C 425.71 137.22 433.04 131.93 441.13 129.77 C 447.25 127.92 453.71 128.51 460.00 128.10 C 479.97 127.31 500.06 125.57 519.97 128.04 C 526.85 129.08 534.84 130.59 538.86 136.95 C 544.28 145.72 544.45 156.38 547.40 166.03 C 549.04 171.70 551.62 177.95 557.33 180.59 C 562.81 182.88 569.45 182.65 574.64 179.69 C 578.68 177.32 580.46 172.51 580.38 168.00 C 580.34 151.73 577.64 134.95 569.29 120.74 C 562.36 108.76 551.04 99.42 537.96 94.89 C 524.86 90.22 510.75 90.06 497.01 89.87 C 481.19 89.98 465.34 89.46 449.57 90.82 M 267.97 98.06 C 263.09 102.86 265.97 110.10 265.99 116.04 C 265.97 143.37 265.87 170.69 265.75 198.01 C 265.95 221.02 265.14 244.04 266.09 267.04 C 266.84 287.68 268.30 308.32 267.77 328.98 C 267.99 332.24 267.67 336.24 270.42 338.59 C 273.52 340.75 277.35 341.59 281.04 342.06 C 287.40 342.83 293.30 339.92 299.23 338.14 C 299.16 258.76 299.07 179.38 299.14 100.00 C 299.83 95.83 295.09 94.31 291.88 93.71 C 283.83 92.57 274.78 93.22 267.97 98.06 M 328.54 105.05 C 328.44 181.02 328.54 257.00 328.49 332.98 C 328.15 337.60 333.45 339.45 336.99 340.82 C 344.68 343.96 352.76 340.70 360.14 338.28 C 360.24 317.16 362.07 296.09 361.87 274.97 C 361.88 229.97 361.86 184.97 361.88 139.97 C 361.88 129.29 362.93 118.65 363.78 108.02 C 363.95 103.78 363.45 98.03 358.78 96.35 C 352.71 94.39 346.20 95.50 339.94 95.41 C 334.50 95.31 328.48 99.11 328.54 105.05 M 224.10 105.74 C 225.17 107.21 226.23 108.68 227.27 110.17 C 237.48 110.35 247.70 110.21 257.91 110.24 C 257.77 108.71 257.61 107.19 257.42 105.68 C 246.31 105.83 235.21 105.72 224.10 105.74 M 306.63 105.76 C 306.63 107.25 306.63 108.75 306.63 110.24 C 311.42 110.25 316.21 110.25 321.00 110.25 C 320.99 108.75 320.99 107.25 321.00 105.75 C 316.21 105.75 311.42 105.74 306.63 105.76 M 371.18 110.22 C 378.73 110.24 386.29 110.34 393.84 110.17 C 394.94 108.69 396.08 107.24 397.21 105.79 C 388.64 105.65 380.07 105.88 371.50 105.66 C 371.35 107.18 371.25 108.70 371.18 110.22 M 228.07 111.34 C 236.79 124.15 240.43 139.56 242.15 154.76 C 247.56 154.74 252.97 154.76 258.38 154.74 C 258.20 140.25 259.11 125.70 258.03 111.25 C 248.05 111.31 238.06 111.13 228.07 111.34 M 306.59 111.30 C 306.70 125.80 306.53 140.30 306.68 154.79 C 311.45 154.71 316.22 154.76 320.99 154.76 C 321.01 140.25 321.01 125.75 320.99 111.24 C 316.19 111.29 311.39 111.19 306.59 111.30 M 371.13 111.26 C 369.48 125.69 369.22 140.23 369.38 154.74 C 372.75 154.75 376.13 154.77 379.51 154.71 C 380.37 139.43 384.32 123.98 393.06 111.24 C 385.75 111.27 378.44 111.23 371.13 111.26 M 115.00 137.03 C 109.67 137.91 104.11 138.56 99.30 141.16 C 95.09 144.53 93.08 149.79 91.32 154.72 C 127.80 154.77 164.29 154.77 200.77 154.72 C 199.49 148.41 198.27 140.40 191.80 137.27 C 185.05 135.39 177.91 135.52 170.97 135.05 C 152.30 134.41 133.54 134.66 115.00 137.03 M 449.03 135.98 C 438.35 136.47 427.93 143.94 425.86 154.75 C 447.73 154.75 469.61 154.75 491.48 154.75 C 496.05 154.75 500.63 154.72 505.21 154.78 C 515.85 154.71 526.48 154.76 537.12 154.75 C 535.77 149.37 535.03 143.20 530.84 139.18 C 526.80 136.48 521.79 135.89 517.09 135.24 C 494.44 132.89 471.70 135.54 449.03 135.98 M 88.81 166.24 C 126.58 166.26 164.35 166.25 202.13 166.24 C 201.73 164.82 202.28 162.91 201.24 161.78 C 164.06 161.69 126.87 161.81 89.68 161.72 C 89.37 163.22 89.09 164.72 88.81 166.24 M 242.73 161.76 C 242.77 163.25 242.81 164.75 242.85 166.25 C 248.02 166.25 253.20 166.26 258.37 166.24 C 258.37 164.75 258.37 163.25 258.37 161.76 C 253.16 161.74 247.95 161.74 242.73 161.76 M 306.63 161.76 C 306.62 163.25 306.62 164.75 306.63 166.24 C 311.42 166.26 316.21 166.25 321.00 166.25 C 320.99 164.75 320.99 163.25 321.00 161.76 C 316.21 161.75 311.42 161.74 306.63 161.76 M 369.38 161.75 C 369.38 163.25 369.38 164.75 369.38 166.25 C 372.71 166.25 376.04 166.25 379.37 166.25 C 379.37 164.75 379.37 163.25 379.37 161.76 C 376.04 161.74 372.71 161.75 369.38 161.75 M 425.00 161.76 C 425.00 163.24 425.01 164.73 425.02 166.22 C 463.21 166.29 501.40 166.22 539.59 166.26 C 539.26 164.79 538.94 163.31 538.63 161.84 C 500.75 161.64 462.87 161.80 425.00 161.76 M 88.72 167.23 C 87.61 175.15 87.38 183.14 87.12 191.12 C 128.45 191.11 169.77 191.15 211.10 191.10 C 216.98 190.48 222.94 190.32 228.82 191.09 C 238.62 191.17 248.43 191.10 258.24 191.12 C 258.40 183.16 258.39 175.21 258.37 167.25 C 253.16 167.29 247.94 167.17 242.73 167.32 C 242.60 173.91 242.14 181.37 237.36 186.41 C 233.35 190.51 227.28 190.75 221.91 190.35 C 217.53 189.97 212.30 191.82 208.77 188.33 C 203.26 182.85 203.23 174.46 202.20 167.25 C 164.37 167.24 126.55 167.27 88.72 167.23 M 306.60 167.30 C 306.66 175.24 306.60 183.18 306.63 191.12 C 311.42 191.12 316.21 191.12 321.00 191.12 C 320.99 183.16 321.02 175.20 320.98 167.23 C 316.18 167.29 311.39 167.19 306.60 167.30 M 369.37 167.26 C 369.35 175.18 369.43 183.10 369.33 191.02 C 373.64 191.23 377.96 191.08 382.28 191.12 C 380.44 183.30 379.74 175.26 379.46 167.24 C 376.10 167.25 372.74 167.25 369.37 167.26 M 86.97 198.11 C 86.95 199.94 87.12 201.75 87.50 203.54 L 87.02 204.49 C 86.59 211.78 86.39 219.08 86.37 226.38 C 143.67 226.37 200.96 226.38 258.25 226.37 C 258.29 218.95 258.16 211.52 258.32 204.10 L 257.22 203.70 C 258.15 201.97 258.39 200.06 258.28 198.13 C 201.18 198.11 144.07 198.14 86.97 198.11 M 369.36 198.15 C 369.36 199.64 369.37 201.13 369.39 202.62 C 374.88 202.63 380.38 202.61 385.87 202.64 C 385.32 201.11 384.75 199.59 384.17 198.08 C 379.23 198.17 374.29 198.08 369.36 198.15 M 306.62 198.14 C 306.62 199.26 306.62 201.50 306.63 202.61 C 311.42 202.63 316.21 202.63 321.00 202.62 C 321.00 201.50 321.00 199.26 321.00 198.14 C 316.21 198.12 311.41 198.11 306.62 198.14 M 306.63 203.63 C 306.62 211.21 306.62 218.79 306.63 226.37 C 311.42 226.38 316.21 226.38 321.00 226.37 C 321.00 218.79 321.00 211.21 321.00 203.62 C 316.21 203.62 311.42 203.62 306.63 203.63 M 369.38 226.38 C 380.31 226.35 391.24 226.42 402.17 226.34 C 394.86 220.40 389.96 212.17 386.25 203.62 C 380.63 203.62 375.01 203.64 369.40 203.61 C 369.35 211.20 369.38 218.79 369.38 226.38 M 86.38 233.38 C 86.38 234.86 86.38 236.34 86.38 237.83 C 143.63 237.93 200.89 237.85 258.14 237.87 C 258.11 236.36 258.07 234.85 258.00 233.34 C 200.80 233.43 143.59 233.35 86.38 233.38 M 306.63 233.39 C 306.61 234.86 306.60 236.32 306.58 237.79 C 311.39 237.96 316.20 237.84 321.01 237.88 C 320.99 236.36 320.96 234.85 320.93 233.33 C 316.17 233.42 311.40 233.35 306.63 233.39 M 369.38 233.38 C 369.37 234.87 369.37 236.36 369.36 237.86 C 390.64 237.78 411.93 238.10 433.21 237.69 C 427.97 236.88 422.96 235.19 417.95 233.53 C 401.78 233.17 385.57 233.48 369.38 233.38 M 86.47 238.88 C 86.84 247.54 87.80 256.16 88.95 264.75 C 126.97 264.74 165.00 264.77 203.02 264.74 C 204.74 261.54 207.71 259.18 211.19 258.19 C 217.23 256.40 223.64 256.25 229.90 256.44 C 234.65 256.82 238.00 260.73 239.92 264.76 C 246.14 264.67 252.36 264.88 258.58 264.65 C 258.10 256.07 258.11 247.47 258.12 238.88 C 200.90 238.87 143.69 238.87 86.47 238.88 M 306.63 238.88 C 306.62 247.50 306.62 256.13 306.63 264.75 C 311.41 264.75 316.20 264.74 320.99 264.76 C 321.01 256.13 321.00 247.50 321.00 238.88 C 316.21 238.87 311.42 238.87 306.63 238.88 M 369.33 239.00 C 369.44 247.58 369.35 256.16 369.38 264.75 C 373.53 264.75 377.68 264.75 381.83 264.75 C 383.40 259.43 386.42 254.25 391.40 251.50 C 398.22 247.71 406.85 247.67 414.02 250.48 C 419.95 252.85 423.37 258.82 424.81 264.77 C 445.48 264.72 466.16 264.76 486.83 264.75 C 491.24 264.74 495.65 264.75 500.06 264.75 C 514.29 264.74 528.52 264.78 542.75 264.73 C 541.99 259.41 541.27 253.96 539.04 249.02 C 537.19 244.96 532.54 243.36 528.55 242.25 C 517.89 239.70 506.82 240.05 495.94 239.99 C 491.63 240.04 487.32 240.10 483.02 240.22 C 469.71 240.38 456.36 240.58 443.10 239.18 C 438.73 238.73 434.34 238.90 429.97 238.87 C 409.76 238.96 389.54 238.71 369.33 239.00 M 89.93 271.76 C 90.17 273.26 90.42 274.78 90.69 276.28 C 127.61 276.25 164.53 276.19 201.45 276.31 C 201.61 274.84 201.75 273.38 201.88 271.91 C 164.58 271.54 127.25 271.84 89.93 271.76 M 241.85 271.75 C 242.01 273.24 242.16 274.73 242.32 276.22 C 247.85 276.29 253.39 276.21 258.92 276.27 C 258.86 274.75 258.79 273.24 258.71 271.73 C 253.09 271.77 247.47 271.74 241.85 271.75 M 306.63 271.76 C 306.62 273.25 306.62 274.74 306.63 276.24 C 311.42 276.25 316.21 276.25 321.00 276.25 C 320.99 274.75 320.99 273.25 321.00 271.76 C 316.21 271.74 311.42 271.74 306.63 271.76 M 369.38 271.75 C 369.38 273.25 369.38 274.75 369.38 276.25 C 373.12 276.25 376.85 276.25 380.59 276.25 C 380.62 274.74 380.65 273.24 380.68 271.74 C 376.91 271.75 373.15 271.74 369.38 271.75 M 425.88 271.76 C 426.06 273.27 426.27 274.79 426.51 276.31 C 465.36 276.17 504.20 276.30 543.05 276.24 C 543.08 274.74 543.10 273.25 543.14 271.76 C 504.05 271.75 464.97 271.74 425.88 271.76 M 90.69 277.39 C 92.43 284.86 92.26 294.06 98.92 299.17 C 109.65 308.34 124.43 309.98 137.98 310.61 C 148.98 310.74 160.11 312.30 171.01 310.11 C 177.01 308.94 182.95 307.52 188.92 306.18 C 191.98 305.66 193.55 302.59 194.98 300.16 C 198.42 292.97 201.53 285.38 201.69 277.29 C 164.69 277.29 127.68 277.09 90.69 277.39 M 426.46 277.27 C 427.38 283.56 427.65 290.76 432.37 295.59 C 436.91 300.25 443.93 300.51 450.03 300.50 C 466.04 300.71 482.05 300.96 498.06 301.12 C 502.78 301.28 507.51 301.18 512.23 301.36 C 518.14 301.25 524.07 301.76 529.99 301.37 C 534.31 300.25 536.38 295.78 538.09 292.06 C 539.97 287.23 542.06 282.39 542.97 277.25 C 529.76 277.25 516.56 277.25 503.36 277.25 C 498.87 277.25 494.39 277.25 489.91 277.25 C 468.76 277.26 447.61 277.23 426.46 277.27 Z" />
<path fill="#ffffff" opacity="1.00" d=" M 676.53 86.64 C 681.50 84.01 687.97 89.19 686.43 94.60 C 685.39 99.64 678.48 101.83 674.77 98.24 C 670.86 95.20 671.96 88.44 676.53 86.64 Z" />
<path fill="#ffffff" opacity="1.00" d=" M 749.47 98.64 C 754.72 96.92 760.19 102.94 757.91 108.02 C 756.19 113.09 748.40 113.88 745.53 109.50 C 742.63 105.75 744.91 99.72 749.47 98.64 Z" />
<path fill="#ffffff" opacity="1.00" d=" M 712.41 104.66 C 716.57 102.71 721.97 104.94 723.61 109.21 C 725.50 113.32 723.28 118.53 719.17 120.25 C 714.83 122.37 709.17 119.75 707.74 115.21 C 706.18 111.17 708.47 106.30 712.41 104.66 M 713.37 110.49 C 710.32 113.22 714.61 118.20 717.73 115.46 C 721.17 112.84 716.56 107.43 713.37 110.49 Z" />
<path fill="#ffffff" opacity="1.00" d=" M 610.12 134.63 C 667.24 134.60 724.35 134.65 781.46 134.61 C 781.62 191.68 781.35 248.76 781.59 305.83 C 724.44 306.22 667.27 305.91 610.12 305.98 C 610.14 248.87 610.12 191.75 610.12 134.63 M 625.22 143.34 C 621.40 144.22 618.81 148.08 619.02 151.92 C 618.99 197.64 618.97 243.36 619.04 289.07 C 618.77 293.85 623.19 298.05 627.94 297.62 C 673.65 297.62 719.36 297.64 765.06 297.61 C 769.31 297.81 773.46 294.27 773.48 289.94 C 773.52 243.61 773.50 197.28 773.49 150.95 C 773.55 146.58 769.42 142.81 765.10 143.12 C 737.74 143.12 710.39 143.13 683.04 143.12 C 663.77 143.27 644.46 142.83 625.22 143.34 Z" />
<path fill="#ffffff" opacity="1.00" d=" M 625.29 148.23 C 626.64 147.25 628.44 147.77 630.00 147.60 C 675.00 147.66 719.99 147.60 764.99 147.63 C 767.32 147.39 769.40 149.60 769.00 151.93 C 768.98 197.99 769.06 244.07 768.92 290.14 C 768.57 292.41 766.03 293.40 763.98 293.13 C 718.31 293.06 672.63 293.23 626.96 293.05 C 623.93 292.86 623.21 289.48 623.48 287.01 C 623.51 242.33 623.50 197.65 623.49 152.97 C 623.46 151.25 623.61 149.19 625.29 148.23 M 624.86 164.76 C 632.73 185.23 640.70 205.65 648.65 226.09 C 641.30 243.33 633.78 260.52 626.39 277.75 C 627.08 277.75 628.45 277.74 629.14 277.74 C 629.31 280.30 629.88 283.44 632.70 284.34 C 635.62 284.87 638.64 284.74 641.59 284.46 C 644.60 283.86 646.07 280.78 647.31 278.29 C 650.04 272.31 652.52 266.22 654.98 260.14 C 656.04 257.68 656.95 254.91 659.44 253.53 C 662.46 261.61 665.66 269.62 668.61 277.73 L 669.09 277.75 C 669.28 281.33 672.30 284.71 676.01 284.64 C 686.36 284.83 696.71 284.63 707.06 284.67 C 710.10 284.93 713.05 283.12 714.19 280.29 C 717.21 273.28 720.21 266.25 723.19 259.22 C 724.09 257.25 724.75 254.72 727.26 254.32 C 730.18 262.15 733.23 269.93 736.17 277.76 C 736.82 277.77 738.13 277.79 738.78 277.80 C 739.07 280.94 741.82 283.35 744.95 283.42 C 750.29 283.52 755.64 283.40 760.99 283.47 C 762.85 283.62 764.61 282.92 766.35 282.33 C 767.65 280.48 767.94 278.11 767.17 275.99 C 760.56 259.79 754.43 243.40 748.01 227.12 C 745.64 222.10 745.89 216.29 746.73 210.94 C 752.01 198.87 757.07 186.69 762.39 174.64 C 763.43 172.36 763.29 169.94 762.34 167.67 C 760.58 167.11 758.80 166.59 756.95 166.61 C 757.15 166.14 757.55 165.19 757.75 164.72 C 754.20 164.72 750.65 164.73 747.11 164.76 C 742.73 175.35 738.35 185.93 733.88 196.47 C 734.09 192.71 732.22 189.39 731.20 185.89 C 730.83 185.48 730.10 184.66 729.73 184.24 C 729.04 179.28 725.94 174.93 725.21 169.91 C 723.69 168.57 721.74 168.21 719.78 168.39 C 719.33 167.12 718.77 165.91 718.22 164.70 C 709.57 164.76 700.92 164.69 692.28 164.75 L 693.11 166.75 C 691.96 166.50 690.92 166.02 690.01 165.30 C 686.86 164.00 683.09 165.10 679.71 164.72 C 675.31 174.92 671.15 185.22 666.87 195.47 C 663.39 187.60 661.00 179.28 657.71 171.33 C 656.74 169.19 654.84 167.61 652.39 168.58 C 651.94 167.28 651.38 166.03 650.85 164.78 C 642.18 164.66 633.52 164.73 624.86 164.76 Z" />
<path fill="#ffffff" opacity="1.00" d=" M 820.27 154.43 C 826.75 151.50 835.31 157.84 833.23 164.99 C 831.53 172.30 820.95 174.38 816.35 168.60 C 812.09 164.14 814.55 156.24 820.27 154.43 M 822.27 160.28 C 820.69 161.12 820.09 163.31 821.13 164.80 C 822.44 167.21 826.63 166.68 827.16 163.94 C 828.14 161.20 824.62 158.69 822.27 160.28 Z" />
<path fill="#ffffff" opacity="1.00" d=" M 692.77 178.69 C 693.53 176.87 694.66 175.25 695.81 173.67 C 702.53 191.16 709.38 208.60 716.13 226.08 C 710.10 240.41 703.79 254.64 697.70 268.95 C 696.45 267.57 695.38 266.04 694.81 264.26 C 689.56 250.47 684.13 236.76 678.86 222.98 C 677.83 218.33 677.77 213.17 679.89 208.80 C 684.27 198.80 688.60 188.78 692.77 178.69 Z" />
<path fill="#ffffff" opacity="1.00" d=" M 818.34 195.50 C 823.39 193.67 829.88 198.45 828.29 203.98 C 826.67 210.19 817.28 211.31 813.97 205.96 C 811.15 202.13 813.93 196.49 818.34 195.50 Z" />
<path fill="#ffffff" opacity="1.00" d=" M 801.49 230.64 C 805.86 228.80 811.22 231.55 812.56 236.02 C 814.24 240.64 810.90 246.08 806.13 246.94 C 801.25 248.10 796.08 243.98 795.98 239.01 C 795.71 235.40 798.11 231.87 801.49 230.64 M 802.39 235.59 C 798.67 237.45 801.90 243.56 805.55 241.36 C 809.33 239.54 806.11 233.35 802.39 235.59 Z" />
<path fill="#ffffff" opacity="1.00" d=" M 806.37 267.55 C 811.10 265.42 816.86 270.05 815.94 275.11 C 815.43 279.76 809.74 282.79 805.66 280.39 C 800.49 278.01 800.91 269.34 806.37 267.55 Z" />
<path fill="#ffffff" opacity="1.00" d=" M 634.50 312.12 C 636.91 312.12 639.33 312.12 641.75 312.14 C 641.76 315.16 641.75 318.18 641.71 321.21 C 636.41 322.53 632.03 327.41 632.35 333.03 C 632.20 339.20 637.77 344.72 643.94 344.54 C 650.61 344.85 656.46 338.48 655.70 331.88 C 655.41 326.65 651.19 322.47 646.28 321.19 C 646.24 318.17 646.23 315.15 646.25 312.14 C 649.04 312.12 651.82 312.12 654.62 312.13 C 654.62 314.27 654.61 316.42 654.62 318.58 C 658.27 321.58 661.33 325.65 661.67 330.52 C 661.69 324.25 664.37 318.29 669.15 314.23 C 669.73 313.52 670.30 312.81 670.87 312.09 C 673.16 312.11 675.45 312.12 677.74 312.14 C 677.75 313.31 677.76 314.48 677.78 315.66 C 672.38 316.83 667.68 321.31 667.45 327.02 C 666.72 333.97 673.02 340.51 679.99 340.01 C 687.07 340.03 692.92 332.86 691.56 325.93 C 690.90 320.97 686.84 317.28 682.25 315.80 C 682.24 314.58 682.24 313.36 682.24 312.14 C 684.95 312.12 687.67 312.12 690.39 312.13 C 690.51 312.58 690.75 313.48 690.87 313.93 C 692.83 316.34 695.28 318.45 696.51 321.38 C 698.57 325.73 698.53 330.80 697.08 335.33 C 694.28 342.53 686.76 347.61 678.98 346.98 C 670.57 346.62 662.45 339.50 662.47 330.81 C 662.24 335.11 661.75 339.62 659.25 343.27 C 655.17 349.81 646.62 353.02 639.23 350.87 C 631.77 348.92 626.13 341.76 625.99 334.05 C 625.65 327.62 629.20 321.49 634.48 317.97 C 634.49 316.02 634.49 314.07 634.50 312.12 Z" />
<path fill="#ffffff" opacity="1.00" d=" M 707.12 312.13 C 709.20 312.12 711.28 312.12 713.37 312.13 C 713.38 319.48 713.38 326.83 713.37 334.18 C 708.49 335.51 703.95 339.59 704.10 344.98 C 703.83 351.71 710.77 356.85 717.17 355.94 C 723.40 355.56 728.88 349.39 727.43 343.07 C 726.63 338.31 722.31 335.24 717.89 334.13 C 717.86 326.79 717.87 319.46 717.88 312.13 C 721.02 312.12 724.15 312.12 727.29 312.13 C 727.28 317.09 727.17 322.04 727.27 326.99 C 727.07 328.86 728.77 329.99 729.71 331.37 C 732.28 334.31 733.32 338.17 734.18 341.89 C 734.64 339.67 735.28 337.50 736.10 335.39 C 738.29 331.47 741.60 328.27 745.60 326.23 C 745.64 321.53 745.61 316.83 745.63 312.13 C 747.70 312.12 749.78 312.12 751.87 312.13 C 751.89 319.30 751.85 326.48 751.90 333.66 C 746.31 335.49 741.98 340.95 742.57 346.99 C 742.84 354.16 750.03 359.97 757.11 358.73 C 764.03 357.93 769.24 350.71 767.82 343.88 C 766.99 338.19 761.91 334.05 756.38 333.26 C 756.36 326.22 756.38 319.18 756.37 312.14 C 759.49 312.12 762.62 312.12 765.75 312.13 C 765.77 317.36 765.69 322.59 765.81 327.83 C 767.20 328.96 768.57 330.14 769.79 331.48 C 774.54 336.95 775.85 344.91 773.46 351.71 C 770.32 360.34 761.00 366.17 751.86 364.85 C 744.55 364.12 738.26 358.97 735.34 352.35 C 734.95 350.60 734.55 348.88 734.17 347.15 C 732.91 355.25 727.16 362.91 718.77 364.39 C 713.80 365.01 708.60 363.60 704.86 360.22 C 698.52 354.68 696.45 345.20 699.14 337.33 C 700.53 333.00 703.54 329.53 707.07 326.78 C 707.08 326.53 707.09 326.02 707.10 325.76 C 707.15 321.21 707.11 316.67 707.12 312.13 Z" />
<path fill="#ffffff" opacity="1.00" d=" M 675.34 320.52 C 680.68 317.03 688.45 321.75 688.08 328.03 C 688.21 334.36 680.26 338.76 675.04 335.06 C 669.68 332.03 669.84 323.33 675.34 320.52 M 678.35 324.44 C 676.01 325.25 675.75 328.96 677.89 330.16 C 679.69 331.41 682.71 330.25 682.87 327.97 C 683.50 325.49 680.56 323.30 678.35 324.44 Z" />
<path fill="#ffffff" opacity="1.00" d=" M 641.21 326.38 C 646.12 324.13 652.20 328.76 650.98 334.10 C 650.26 339.18 643.51 341.77 639.63 338.37 C 635.47 335.35 636.42 328.22 641.21 326.38 Z" />
<path fill="#ffffff" opacity="1.00" d=" M 752.41 337.50 C 758.68 335.02 765.87 341.49 764.18 347.97 C 763.10 354.30 754.66 357.52 749.73 353.31 C 743.99 349.30 745.68 339.40 752.41 337.50 M 753.29 343.49 C 751.04 344.82 751.48 348.67 754.04 349.37 C 756.16 350.15 758.63 348.24 758.33 345.98 C 758.27 343.57 755.22 342.09 753.29 343.49 Z" />
<path fill="#ffffff" opacity="1.00" d=" M 713.15 339.27 C 717.54 337.31 723.82 340.99 722.90 346.08 C 721.73 352.02 712.75 353.21 709.67 348.19 C 707.34 344.97 709.57 340.34 713.15 339.27 Z" />
<path fill="#ffffff" opacity="1.00" d=" M 193.94 387.00 C 198.11 388.79 200.39 395.29 196.22 398.23 C 191.37 400.72 185.60 399.21 180.63 397.90 C 183.24 399.33 183.33 403.26 180.23 403.88 C 180.37 403.06 180.64 401.43 180.77 400.62 C 179.88 399.90 178.99 399.19 178.10 398.48 C 178.81 398.58 180.23 398.79 180.93 398.90 L 180.02 396.91 C 184.83 396.81 190.38 400.29 194.63 396.69 C 197.89 394.05 195.12 389.98 193.94 387.00 Z" />
<path fill="#ffffff" opacity="1.00" d=" M 186.95 394.50 C 189.79 394.91 191.65 392.31 193.87 391.02 C 193.59 392.71 193.40 395.01 191.28 395.36 C 185.93 396.55 180.64 393.66 175.31 394.43 C 175.27 394.16 175.17 393.62 175.13 393.35 C 179.12 392.45 182.97 394.39 186.95 394.50 Z" />
<path fill="#ffffff" opacity="1.00" d=" M 194.21 403.82 C 194.18 401.23 196.41 399.23 199.02 400.25 C 203.35 400.68 203.76 407.22 200.05 408.86 C 196.38 409.94 193.62 406.97 190.87 405.13 C 189.33 404.02 187.10 403.93 186.04 402.23 C 190.92 401.82 194.09 407.00 198.89 406.52 C 201.29 406.30 200.89 402.61 198.83 402.14 C 196.98 401.39 196.04 404.02 194.21 403.82 Z" />
<path fill="#ffffff" opacity="1.00" d=" M 183.67 408.93 C 188.65 411.60 187.60 419.69 193.38 421.56 C 196.25 422.54 197.96 418.56 196.07 416.64 C 194.44 415.71 193.15 417.79 191.85 418.44 C 190.24 416.75 192.13 414.45 194.06 414.40 C 197.93 413.78 201.35 418.60 198.95 421.91 C 196.86 425.88 191.00 424.17 189.20 420.78 C 187.10 416.96 185.89 412.71 183.67 408.93 Z" />
<path fill="#ffffff" opacity="1.00" d=" M 164.29 414.45 C 164.41 414.55 164.64 414.74 164.76 414.84 C 164.88 416.21 165.55 417.36 166.77 418.29 C 167.46 416.88 168.58 416.10 170.13 415.97 C 170.93 418.05 169.51 420.91 167.05 420.62 C 164.83 421.00 164.86 418.13 164.19 416.74 C 163.36 416.77 161.71 416.82 160.88 416.84 C 161.68 415.63 163.06 415.09 164.29 414.45 Z" />
</g>
<g id="#0099ddff">
<path fill="#0099dd" opacity="1.00" d=" M 672.55 83.57 C 678.50 78.99 688.27 81.88 690.58 89.08 C 693.13 95.55 688.65 103.04 682.01 104.50 C 681.75 112.50 681.85 120.51 681.96 128.52 C 692.32 128.51 702.68 128.46 713.04 128.55 C 713.02 127.15 713.01 125.76 713.02 124.36 C 707.51 123.03 703.27 117.75 703.62 112.02 C 703.69 105.59 709.61 99.95 716.06 100.35 C 723.07 100.22 729.00 107.21 727.80 114.12 C 727.26 119.51 722.69 123.49 717.62 124.69 C 717.62 125.64 717.62 127.53 717.62 128.48 C 728.05 128.56 738.48 128.43 748.91 128.55 C 749.03 124.75 749.03 120.94 748.97 117.13 C 743.59 115.70 739.19 110.73 739.61 104.98 C 739.65 98.22 746.44 92.65 753.08 93.88 C 759.27 94.64 763.98 100.98 762.90 107.14 C 762.35 112.13 758.19 115.88 753.53 117.18 C 753.48 120.94 753.49 124.71 753.50 128.48 C 763.30 128.61 773.11 128.28 782.90 128.80 C 785.62 128.76 787.69 131.42 787.60 134.02 C 787.68 143.25 787.59 152.49 787.62 161.73 C 795.22 161.77 802.83 161.75 810.43 161.75 C 811.27 154.76 818.06 149.35 825.06 150.19 C 831.95 150.56 837.97 157.09 837.09 164.08 C 836.53 171.70 828.27 177.11 821.00 175.33 C 816.16 174.49 812.53 170.67 810.76 166.25 C 803.05 166.25 795.33 166.23 787.62 166.27 C 787.68 177.60 787.51 188.94 787.71 200.27 C 794.52 200.22 801.35 200.28 808.17 200.24 C 810.04 191.64 821.17 187.60 828.17 192.86 C 834.57 196.95 834.75 207.27 828.44 211.53 C 821.62 216.95 810.40 213.25 808.24 204.76 C 801.38 204.73 794.52 204.76 787.67 204.74 C 787.55 215.11 787.67 225.48 787.61 235.85 C 789.22 235.85 790.84 235.85 792.47 235.85 C 793.99 230.38 799.16 226.00 805.02 226.47 C 811.84 226.52 817.51 233.25 816.54 239.98 C 815.96 246.82 808.79 252.04 802.10 250.52 C 797.01 249.65 793.32 245.27 792.26 240.37 C 790.70 240.38 789.15 240.41 787.60 240.43 C 787.66 250.91 787.60 261.39 787.63 271.87 C 790.87 271.90 794.10 271.90 797.35 271.78 C 798.58 266.49 803.45 262.21 809.02 262.44 C 815.93 262.21 821.77 269.15 820.50 275.91 C 819.73 282.25 813.10 286.96 806.87 285.67 C 802.05 284.95 798.50 280.94 797.24 276.40 C 794.03 276.36 790.82 276.37 787.62 276.39 C 787.48 287.34 787.92 298.31 787.39 309.25 C 786.11 310.88 784.23 312.21 782.08 312.10 C 776.63 312.20 771.19 312.08 765.75 312.13 C 762.62 312.12 759.49 312.12 756.37 312.14 C 756.38 319.18 756.36 326.22 756.38 333.26 C 761.91 334.05 766.99 338.19 767.82 343.88 C 769.24 350.71 764.03 357.93 757.11 358.73 C 750.03 359.97 742.84 354.16 742.57 346.99 C 741.98 340.95 746.31 335.49 751.90 333.66 C 751.85 326.48 751.89 319.30 751.87 312.13 C 749.78 312.12 747.70 312.12 745.63 312.13 C 741.29 312.13 736.95 312.12 732.62 312.13 C 730.84 312.13 729.05 312.13 727.29 312.13 C 724.15 312.12 721.02 312.12 717.88 312.13 C 717.87 319.46 717.86 326.79 717.89 334.13 C 722.31 335.24 726.63 338.31 727.43 343.07 C 728.88 349.39 723.40 355.56 717.17 355.94 C 710.77 356.85 703.83 351.71 704.10 344.98 C 703.95 339.59 708.49 335.51 713.37 334.18 C 713.38 326.83 713.38 319.48 713.37 312.13 C 711.28 312.12 709.20 312.12 707.12 312.13 C 701.54 312.13 695.97 312.12 690.39 312.13 C 687.67 312.12 684.95 312.12 682.24 312.14 C 682.24 313.36 682.24 314.58 682.25 315.80 C 686.84 317.28 690.90 320.97 691.56 325.93 C 692.92 332.86 687.07 340.03 679.99 340.01 C 673.02 340.51 666.72 333.97 667.45 327.02 C 667.68 321.31 672.38 316.83 677.78 315.66 C 677.76 314.48 677.75 313.31 677.74 312.14 C 675.45 312.12 673.16 312.11 670.87 312.09 C 670.30 312.81 669.73 313.52 669.15 314.23 C 665.17 310.57 659.47 312.64 654.62 312.13 C 651.82 312.12 649.04 312.12 646.25 312.14 C 646.23 315.15 646.24 318.17 646.28 321.19 C 651.19 322.47 655.41 326.65 655.70 331.88 C 656.46 338.48 650.61 344.85 643.94 344.54 C 637.77 344.72 632.20 339.20 632.35 333.03 C 632.03 327.41 636.41 322.53 641.71 321.21 C 641.75 318.18 641.76 315.16 641.75 312.14 C 639.33 312.12 636.91 312.12 634.50 312.12 C 626.31 312.10 618.12 312.16 609.94 312.11 C 607.36 312.34 604.79 310.53 604.23 308.01 C 603.83 305.60 604.00 303.14 603.99 300.72 C 603.99 292.91 604.06 285.11 603.93 277.31 C 603.93 277.03 603.92 276.48 603.91 276.21 C 599.03 276.27 594.15 276.25 589.27 276.25 C 589.31 274.75 589.37 273.25 589.43 271.75 C 594.28 271.74 599.13 271.75 603.98 271.76 C 603.99 269.42 604.00 267.08 604.00 264.75 C 603.98 256.13 604.03 247.51 604.00 238.89 L 603.99 237.89 C 597.62 237.84 591.26 237.91 584.89 237.85 C 584.45 236.35 584.02 234.86 583.59 233.37 C 590.39 233.38 597.19 233.38 604.00 233.37 C 603.99 231.03 603.99 228.69 603.99 226.35 C 604.00 220.70 603.99 215.06 603.98 209.42 C 603.98 207.48 603.98 205.55 603.99 203.63 L 603.99 202.62 C 590.03 202.57 576.07 202.73 562.12 202.55 C 559.14 201.61 556.68 199.40 553.83 198.12 C 570.55 198.12 587.27 198.13 603.99 198.12 C 603.99 195.78 604.00 193.45 604.00 191.12 C 603.99 183.16 604.01 175.21 603.99 167.25 L 603.98 166.25 C 598.63 166.25 593.28 166.26 587.92 166.24 C 587.86 164.75 587.79 163.25 587.74 161.76 C 593.15 161.74 598.56 161.75 603.98 161.76 C 603.99 159.42 604.00 157.09 604.00 154.75 C 604.00 152.19 603.99 149.62 604.00 147.06 C 604.03 142.52 603.97 137.99 603.96 133.45 C 604.59 130.23 607.53 127.56 610.93 127.98 C 620.49 128.14 630.07 127.70 639.61 128.23 C 640.26 128.29 641.56 128.43 642.22 128.50 C 642.30 122.42 642.24 116.33 642.24 110.25 C 618.58 110.20 594.93 110.35 571.28 110.17 C 570.09 108.69 568.90 107.22 567.70 105.75 C 594.05 105.75 620.40 105.73 646.75 105.76 C 646.73 113.31 646.79 120.85 646.71 128.40 C 656.93 128.60 667.15 128.53 677.38 128.47 C 677.38 120.56 677.36 112.65 677.39 104.73 C 674.65 103.70 671.79 102.49 670.04 100.01 C 666.11 95.09 667.33 87.10 672.55 83.57 M 676.53 86.64 C 671.96 88.44 670.86 95.20 674.77 98.24 C 678.48 101.83 685.39 99.64 686.43 94.60 C 687.97 89.19 681.50 84.01 676.53 86.64 M 749.47 98.64 C 744.91 99.72 742.63 105.75 745.53 109.50 C 748.40 113.88 756.19 113.09 757.91 108.02 C 760.19 102.94 754.72 96.92 749.47 98.64 M 712.41 104.66 C 708.47 106.30 706.18 111.17 707.74 115.21 C 709.17 119.75 714.83 122.37 719.17 120.25 C 723.28 118.53 725.50 113.32 723.61 109.21 C 721.97 104.94 716.57 102.71 712.41 104.66 M 610.12 134.63 C 610.12 191.75 610.14 248.87 610.12 305.98 C 667.27 305.91 724.44 306.22 781.59 305.83 C 781.35 248.76 781.62 191.68 781.46 134.61 C 724.35 134.65 667.24 134.60 610.12 134.63 M 820.27 154.43 C 814.55 156.24 812.09 164.14 816.35 168.60 C 820.95 174.38 831.53 172.30 833.23 164.99 C 835.31 157.84 826.75 151.50 820.27 154.43 M 818.34 195.50 C 813.93 196.49 811.15 202.13 813.97 205.96 C 817.28 211.31 826.67 210.19 828.29 203.98 C 829.88 198.45 823.39 193.67 818.34 195.50 M 801.49 230.64 C 798.11 231.87 795.71 235.40 795.98 239.01 C 796.08 243.98 801.25 248.10 806.13 246.94 C 810.90 246.08 814.24 240.64 812.56 236.02 C 811.22 231.55 805.86 228.80 801.49 230.64 M 806.37 267.55 C 800.91 269.34 800.49 278.01 805.66 280.39 C 809.74 282.79 815.43 279.76 815.94 275.11 C 816.86 270.05 811.10 265.42 806.37 267.55 M 675.34 320.52 C 669.84 323.33 669.68 332.03 675.04 335.06 C 680.26 338.76 688.21 334.36 688.08 328.03 C 688.45 321.75 680.68 317.03 675.34 320.52 M 641.21 326.38 C 636.42 328.22 635.47 335.35 639.63 338.37 C 643.51 341.77 650.26 339.18 650.98 334.10 C 652.20 328.76 646.12 324.13 641.21 326.38 M 752.41 337.50 C 745.68 339.40 743.99 349.30 749.73 353.31 C 754.66 357.52 763.10 354.30 764.18 347.97 C 765.87 341.49 758.68 335.02 752.41 337.50 M 713.15 339.27 C 709.57 340.34 707.34 344.97 709.67 348.19 C 712.75 353.21 721.73 352.02 722.90 346.08 C 723.82 340.99 717.54 337.31 713.15 339.27 Z" />
<path fill="#0099dd" opacity="1.00" d=" M 6.94 114.94 C 4.07 108.62 7.49 100.39 14.12 98.18 C 20.29 95.72 27.60 99.13 30.18 105.12 L 30.42 105.74 C 43.40 105.77 56.38 105.73 69.36 105.76 C 67.94 107.28 66.52 108.78 65.07 110.28 C 53.80 110.23 42.53 110.23 31.26 110.27 L 31.02 111.26 C 30.40 115.91 27.30 120.21 22.78 121.75 C 16.77 124.11 9.38 120.91 6.94 114.94 M 15.50 101.57 C 9.10 103.53 7.48 112.95 12.92 116.89 C 17.64 121.06 25.88 118.17 27.11 112.04 C 29.07 105.55 21.76 98.96 15.50 101.57 Z" />
<path fill="#0099dd" opacity="1.00" d=" M 224.10 105.74 C 235.21 105.72 246.31 105.83 257.42 105.68 C 257.61 107.19 257.77 108.71 257.91 110.24 C 247.70 110.21 237.48 110.35 227.27 110.17 C 226.23 108.68 225.17 107.21 224.10 105.74 Z" />
<path fill="#0099dd" opacity="1.00" d=" M 306.63 105.76 C 311.42 105.74 316.21 105.75 321.00 105.75 C 320.99 107.25 320.99 108.75 321.00 110.25 C 316.21 110.25 311.42 110.25 306.63 110.24 C 306.63 108.75 306.63 107.25 306.63 105.76 Z" />
<path fill="#0099dd" opacity="1.00" d=" M 371.18 110.22 C 371.25 108.70 371.35 107.18 371.50 105.66 C 380.07 105.88 388.64 105.65 397.21 105.79 C 396.08 107.24 394.94 108.69 393.84 110.17 C 386.29 110.34 378.73 110.24 371.18 110.22 Z" />
<path fill="#0099dd" opacity="1.00" d=" M 16.42 107.45 C 18.41 105.40 22.24 107.19 21.92 110.02 C 21.90 112.59 18.48 114.07 16.60 112.32 C 15.05 111.19 15.10 108.73 16.42 107.45 Z" />
<path fill="#0099dd" opacity="1.00" d=" M 713.37 110.49 C 716.56 107.43 721.17 112.84 717.73 115.46 C 714.61 118.20 710.32 113.22 713.37 110.49 Z" />
<path fill="#0099dd" opacity="1.00" d=" M 625.22 143.34 C 644.46 142.83 663.77 143.27 683.04 143.12 C 710.39 143.13 737.74 143.12 765.10 143.12 C 769.42 142.81 773.55 146.58 773.49 150.95 C 773.50 197.28 773.52 243.61 773.48 289.94 C 773.46 294.27 769.31 297.81 765.06 297.61 C 719.36 297.64 673.65 297.62 627.94 297.62 C 623.19 298.05 618.77 293.85 619.04 289.07 C 618.97 243.36 618.99 197.64 619.02 151.92 C 618.81 148.08 621.40 144.22 625.22 143.34 M 625.29 148.23 C 623.61 149.19 623.46 151.25 623.49 152.97 C 623.50 197.65 623.51 242.33 623.48 287.01 C 623.21 289.48 623.93 292.86 626.96 293.05 C 672.63 293.23 718.31 293.06 763.98 293.13 C 766.03 293.40 768.57 292.41 768.92 290.14 C 769.06 244.07 768.98 197.99 769.00 151.93 C 769.40 149.60 767.32 147.39 764.99 147.63 C 719.99 147.60 675.00 147.66 630.00 147.60 C 628.44 147.77 626.64 147.25 625.29 148.23 Z" />
<path fill="#0099dd" opacity="1.00" d=" M 13.11 154.05 C 17.50 152.18 22.55 153.66 25.98 156.75 C 26.95 158.37 27.86 160.02 28.72 161.71 C 35.45 161.81 42.18 161.71 48.90 161.76 C 48.69 163.26 48.48 164.76 48.27 166.26 C 41.88 166.30 35.49 166.14 29.10 166.32 L 28.73 167.26 C 27.81 170.42 25.95 173.40 22.93 174.92 C 17.46 178.03 9.77 175.70 7.09 169.97 C 3.99 164.22 6.98 156.30 13.11 154.05 M 15.14 158.27 C 10.23 159.76 8.87 166.89 12.97 170.03 C 16.90 173.81 24.48 170.57 24.15 165.05 C 24.76 160.40 19.42 156.50 15.14 158.27 Z" />
<path fill="#0099dd" opacity="1.00" d=" M 822.27 160.28 C 824.62 158.69 828.14 161.20 827.16 163.94 C 826.63 166.68 822.44 167.21 821.13 164.80 C 820.09 163.31 820.69 161.12 822.27 160.28 Z" />
<path fill="#0099dd" opacity="1.00" d=" M 88.81 166.24 C 89.09 164.72 89.37 163.22 89.68 161.72 C 126.87 161.81 164.06 161.69 201.24 161.78 C 202.28 162.91 201.73 164.82 202.13 166.24 C 164.35 166.25 126.58 166.26 88.81 166.24 Z" />
<path fill="#0099dd" opacity="1.00" d=" M 242.73 161.76 C 247.95 161.74 253.16 161.74 258.37 161.76 C 258.37 163.25 258.37 164.75 258.37 166.24 C 253.20 166.26 248.02 166.25 242.85 166.25 C 242.81 164.75 242.77 163.25 242.73 161.76 Z" />
<path fill="#0099dd" opacity="1.00" d=" M 306.63 161.76 C 311.42 161.74 316.21 161.75 321.00 161.76 C 320.99 163.25 320.99 164.75 321.00 166.25 C 316.21 166.25 311.42 166.26 306.63 166.24 C 306.62 164.75 306.62 163.25 306.63 161.76 Z" />
<path fill="#0099dd" opacity="1.00" d=" M 369.38 161.75 C 372.71 161.75 376.04 161.74 379.37 161.76 C 379.37 163.25 379.37 164.75 379.37 166.25 C 376.04 166.25 372.71 166.25 369.38 166.25 C 369.38 164.75 369.38 163.25 369.38 161.75 Z" />
<path fill="#0099dd" opacity="1.00" d=" M 425.00 161.76 C 462.87 161.80 500.75 161.64 538.63 161.84 C 538.94 163.31 539.26 164.79 539.59 166.26 C 501.40 166.22 463.21 166.29 425.02 166.22 C 425.01 164.73 425.00 163.24 425.00 161.76 Z" />
<path fill="#0099dd" opacity="1.00" d=" M 16.10 191.06 C 21.48 185.68 31.23 187.39 34.92 193.91 C 35.37 195.31 35.83 196.71 36.29 198.11 C 39.53 198.12 42.77 198.13 46.01 198.13 C 45.98 199.60 45.95 201.08 45.92 202.55 C 42.73 202.66 39.55 202.59 36.36 202.61 C 36.21 202.87 35.91 203.39 35.77 203.65 C 33.45 210.29 25.15 213.88 18.87 210.45 C 11.62 207.14 10.09 196.28 16.10 191.06 M 20.39 192.43 C 15.11 195.00 14.46 203.18 19.38 206.46 C 24.10 210.36 32.00 206.90 32.57 200.87 C 33.71 194.48 25.98 189.09 20.39 192.43 Z" />
<path fill="#0099dd" opacity="1.00" d=" M 23.13 197.07 C 24.89 195.95 27.47 197.06 27.91 199.08 C 28.76 201.66 25.51 204.21 23.21 202.75 C 20.99 201.71 20.94 198.16 23.13 197.07 Z" />
<path fill="#0099dd" opacity="1.00" d=" M 86.97 198.11 C 144.07 198.14 201.18 198.11 258.28 198.13 C 258.39 200.06 258.15 201.97 257.22 203.70 C 205.16 203.76 153.09 203.71 101.03 203.73 C 96.52 203.68 92.00 203.89 87.50 203.54 C 87.12 201.75 86.95 199.94 86.97 198.11 Z" />
<path fill="#0099dd" opacity="1.00" d=" M 369.36 198.15 C 374.29 198.08 379.23 198.17 384.17 198.08 C 384.75 199.59 385.32 201.11 385.87 202.64 C 380.38 202.61 374.88 202.63 369.39 202.62 C 369.37 201.13 369.36 199.64 369.36 198.15 Z" />
<path fill="#0099dd" opacity="1.00" d=" M 306.62 198.14 C 311.41 198.11 316.21 198.12 321.00 198.14 C 321.00 199.26 321.00 201.50 321.00 202.62 C 316.21 202.63 311.42 202.63 306.63 202.61 C 306.62 201.50 306.62 199.26 306.62 198.14 Z" />
<path fill="#0099dd" opacity="1.00" d=" M 0.00 235.21 C 0.53 230.43 3.98 225.79 8.92 225.05 C 13.44 224.17 17.89 227.02 19.87 231.00 C 20.10 231.59 20.56 232.78 20.78 233.38 C 29.16 233.36 37.54 233.40 45.92 233.35 C 46.01 234.85 46.10 236.36 46.19 237.87 C 37.89 237.93 29.59 237.78 21.29 237.93 L 20.94 238.90 C 19.86 243.95 15.43 248.54 9.98 248.11 C 4.76 247.93 0.94 243.30 0.00 238.45 L 0.00 235.21 M 8.18 230.15 C 2.75 232.91 3.78 242.56 10.03 243.50 C 14.77 243.79 17.56 238.13 16.05 234.07 C 15.18 230.86 11.32 228.30 8.18 230.15 Z" />
<path fill="#0099dd" opacity="1.00" d=" M 86.38 233.38 C 143.59 233.35 200.80 233.43 258.00 233.34 C 258.07 234.85 258.11 236.36 258.14 237.87 C 200.89 237.85 143.63 237.93 86.38 237.83 C 86.38 236.34 86.38 234.86 86.38 233.38 Z" />
<path fill="#0099dd" opacity="1.00" d=" M 306.63 233.39 C 311.40 233.35 316.17 233.42 320.93 233.33 C 320.96 234.85 320.99 236.36 321.01 237.88 C 316.20 237.84 311.39 237.96 306.58 237.79 C 306.60 236.32 306.61 234.86 306.63 233.39 Z" />
<path fill="#0099dd" opacity="1.00" d=" M 369.38 233.38 C 385.57 233.48 401.78 233.17 417.95 233.53 C 422.96 235.19 427.97 236.88 433.21 237.69 C 411.93 238.10 390.64 237.78 369.36 237.86 C 369.37 236.36 369.37 234.87 369.38 233.38 Z" />
<path fill="#0099dd" opacity="1.00" d=" M 802.39 235.59 C 806.11 233.35 809.33 239.54 805.55 241.36 C 801.90 243.56 798.67 237.45 802.39 235.59 Z" />
<path fill="#0099dd" opacity="1.00" d=" M 14.79 283.61 C 15.00 279.63 15.05 275.64 15.54 271.68 C 26.13 271.83 36.72 271.73 47.31 271.73 C 47.40 273.24 47.49 274.75 47.57 276.27 C 38.29 276.22 29.01 276.29 19.73 276.22 C 19.54 278.77 19.38 281.32 19.28 283.87 C 19.26 284.42 19.22 285.53 19.20 286.08 C 24.61 287.43 29.13 292.23 29.16 297.96 C 29.77 305.14 23.06 311.72 15.90 311.01 C 8.85 310.86 3.06 303.78 4.22 296.84 C 4.79 291.31 9.44 287.14 14.67 285.91 C 14.70 285.33 14.76 284.19 14.79 283.61 M 13.17 290.33 C 6.94 292.68 5.86 302.08 11.46 305.73 C 16.78 309.98 25.56 305.68 25.53 298.89 C 26.09 292.65 18.84 287.57 13.17 290.33 Z" />
<path fill="#0099dd" opacity="1.00" d=" M 89.93 271.76 C 127.25 271.84 164.58 271.54 201.88 271.91 C 201.75 273.38 201.61 274.84 201.45 276.31 C 164.53 276.19 127.61 276.25 90.69 276.28 C 90.42 274.78 90.17 273.26 89.93 271.76 Z" />
<path fill="#0099dd" opacity="1.00" d=" M 241.85 271.75 C 247.47 271.74 253.09 271.77 258.71 271.73 C 258.79 273.24 258.86 274.75 258.92 276.27 C 253.39 276.21 247.85 276.29 242.32 276.22 C 242.16 274.73 242.01 273.24 241.85 271.75 Z" />
<path fill="#0099dd" opacity="1.00" d=" M 306.63 271.76 C 311.42 271.74 316.21 271.74 321.00 271.76 C 320.99 273.25 320.99 274.75 321.00 276.25 C 316.21 276.25 311.42 276.25 306.63 276.24 C 306.62 274.74 306.62 273.25 306.63 271.76 Z" />
<path fill="#0099dd" opacity="1.00" d=" M 369.38 271.75 C 373.15 271.74 376.91 271.75 380.68 271.74 C 380.65 273.24 380.62 274.74 380.59 276.25 C 376.85 276.25 373.12 276.25 369.38 276.25 C 369.38 274.75 369.38 273.25 369.38 271.75 Z" />
<path fill="#0099dd" opacity="1.00" d=" M 425.88 271.76 C 464.97 271.74 504.05 271.75 543.14 271.76 C 543.10 273.25 543.08 274.74 543.05 276.24 C 504.20 276.30 465.36 276.17 426.51 276.31 C 426.27 274.79 426.06 273.27 425.88 271.76 Z" />
<path fill="#0099dd" opacity="1.00" d=" M 14.63 295.65 C 16.85 293.86 20.47 296.20 19.71 298.95 C 19.39 301.39 15.99 302.44 14.32 300.67 C 12.82 299.41 13.03 296.74 14.63 295.65 Z" />
<path fill="#0099dd" opacity="1.00" d=" M 678.35 324.44 C 680.56 323.30 683.50 325.49 682.87 327.97 C 682.71 330.25 679.69 331.41 677.89 330.16 C 675.75 328.96 676.01 325.25 678.35 324.44 Z" />
<path fill="#0099dd" opacity="1.00" d=" M 753.29 343.49 C 755.22 342.09 758.27 343.57 758.33 345.98 C 758.63 348.24 756.16 350.15 754.04 349.37 C 751.48 348.67 751.04 344.82 753.29 343.49 Z" />
</g>
<g id="#5f5f61ff">
<path fill="#5f5f61" opacity="1.00" d=" M 117.27 89.32 C 140.86 89.16 164.46 89.29 188.05 89.25 C 198.66 89.31 208.40 94.95 215.84 102.17 C 228.46 114.47 235.39 131.56 237.59 148.84 C 239.01 157.95 239.92 167.32 238.21 176.46 C 237.49 179.99 235.89 183.81 232.45 185.46 C 228.28 187.41 223.53 187.01 219.06 187.15 C 216.51 187.04 213.54 187.52 211.43 185.75 C 208.98 183.67 208.11 180.41 207.39 177.42 C 205.17 166.63 205.71 155.34 202.16 144.82 C 200.54 140.09 197.51 135.32 192.57 133.62 C 188.46 132.41 184.14 132.23 179.90 131.84 C 166.31 130.92 152.66 130.94 139.04 131.38 C 128.26 131.85 117.43 132.53 106.85 134.72 C 102.48 135.78 97.54 136.77 94.62 140.52 C 88.48 147.91 86.39 157.66 85.04 166.93 C 83.74 176.56 83.54 186.29 83.39 196.00 C 83.34 207.34 82.54 218.66 82.62 230.00 C 82.55 247.80 85.17 265.47 87.95 283.01 C 89.02 288.17 89.76 293.70 92.81 298.15 C 99.39 306.21 109.53 310.36 119.51 312.32 C 131.52 314.67 143.82 314.37 155.99 314.92 C 167.25 315.57 178.14 312.28 189.03 309.95 C 191.22 309.56 193.34 308.62 194.81 306.89 C 198.83 302.35 200.68 296.43 202.84 290.88 C 205.36 284.51 205.29 277.58 205.50 270.85 C 205.55 267.45 207.10 263.84 210.42 262.47 C 216.27 259.98 222.83 260.07 229.07 260.05 C 233.97 260.34 236.54 265.40 237.57 269.60 C 239.80 279.00 238.66 288.84 236.64 298.17 C 233.39 312.17 227.31 325.79 217.62 336.54 C 210.27 344.49 199.40 347.81 189.04 349.62 C 165.87 353.40 142.36 350.55 119.04 350.70 C 103.61 350.37 86.81 348.70 74.52 338.36 C 64.32 329.84 59.17 317.00 55.58 304.55 C 50.07 285.19 51.27 264.89 50.42 245.00 C 49.66 235.70 49.27 226.36 49.57 217.03 C 49.43 192.94 50.35 168.60 55.82 145.04 C 57.01 139.31 58.23 133.58 59.38 127.85 C 60.14 123.79 62.59 120.34 64.78 116.94 C 76.49 99.95 96.91 90.20 117.27 89.32 Z" />
<path fill="#5f5f61" opacity="1.00" d=" M 267.97 98.06 C 274.78 93.22 283.83 92.57 291.88 93.71 C 295.09 94.31 299.83 95.83 299.14 100.00 C 299.07 179.38 299.16 258.76 299.23 338.14 C 293.30 339.92 287.40 342.83 281.04 342.06 C 277.35 341.59 273.52 340.75 270.42 338.59 C 267.67 336.24 267.99 332.24 267.77 328.98 C 268.30 308.32 266.84 287.68 266.09 267.04 C 265.14 244.04 265.95 221.02 265.75 198.01 C 265.87 170.69 265.97 143.37 265.99 116.04 C 265.97 110.10 263.09 102.86 267.97 98.06 Z" />
<path fill="#5f5f61" opacity="1.00" d=" M 328.54 105.05 C 328.48 99.11 334.50 95.31 339.94 95.41 C 346.20 95.50 352.71 94.39 358.78 96.35 C 363.45 98.03 363.95 103.78 363.78 108.02 C 362.93 118.65 361.88 129.29 361.88 139.97 C 361.86 184.97 361.88 229.97 361.87 274.97 C 362.07 296.09 360.24 317.16 360.14 338.28 C 352.76 340.70 344.68 343.96 336.99 340.82 C 333.45 339.45 328.15 337.60 328.49 332.98 C 328.54 257.00 328.44 181.02 328.54 105.05 Z" />
<path fill="#5f5f61" opacity="1.00" d=" M 171.56 404.48 C 174.57 404.24 170.42 408.48 169.01 406.50 C 167.75 404.97 170.57 404.56 171.56 404.48 Z" />
</g>
<g id="#0098daff">
<path fill="#0098da" opacity="1.00" d=" M 449.57 90.82 C 465.34 89.46 481.19 89.98 497.01 89.87 C 510.75 90.06 524.86 90.22 537.96 94.89 C 551.04 99.42 562.36 108.76 569.29 120.74 C 577.64 134.95 580.34 151.73 580.38 168.00 C 580.46 172.51 578.68 177.32 574.64 179.69 C 569.45 182.65 562.81 182.88 557.33 180.59 C 551.62 177.95 549.04 171.70 547.40 166.03 C 544.45 156.38 544.28 145.72 538.86 136.95 C 534.84 130.59 526.85 129.08 519.97 128.04 C 500.06 125.57 479.97 127.31 460.00 128.10 C 453.71 128.51 447.25 127.92 441.13 129.77 C 433.04 131.93 425.71 137.22 421.70 144.65 C 417.27 152.62 416.83 162.13 418.02 171.00 C 418.71 176.47 421.01 182.07 425.65 185.33 C 430.59 188.79 436.66 189.99 442.40 191.48 C 463.99 196.07 486.20 193.33 508.05 195.03 C 523.19 196.13 538.48 199.00 552.18 205.79 C 566.13 213.04 574.69 227.57 578.39 242.44 C 583.59 263.60 582.98 286.23 576.49 307.04 C 572.73 318.38 567.01 329.89 556.94 336.86 C 551.12 341.02 543.81 341.64 537.00 342.89 C 512.16 346.93 486.99 342.92 462.02 344.29 C 451.56 344.72 440.77 345.89 430.61 342.69 C 420.41 339.34 411.40 332.74 404.60 324.48 C 395.79 313.48 391.17 299.75 388.92 285.99 C 387.86 278.09 387.10 269.38 391.09 262.15 C 393.77 257.23 399.80 255.67 405.02 256.12 C 409.90 256.04 415.03 258.66 416.49 263.57 C 420.18 274.41 417.88 286.83 423.93 296.97 C 428.31 304.65 437.51 307.87 445.95 307.95 C 473.30 308.32 500.66 308.71 528.02 309.01 C 532.51 309.21 536.89 307.14 539.79 303.75 C 544.32 298.54 546.31 291.77 548.62 285.41 C 551.22 278.61 550.83 271.16 550.20 264.05 C 549.41 257.67 548.41 251.15 545.60 245.30 C 543.01 239.96 537.43 236.94 531.94 235.38 C 521.57 232.51 510.69 232.52 500.01 232.50 C 475.69 232.29 450.83 234.87 427.03 228.57 C 418.10 225.37 407.95 223.01 401.69 215.28 C 390.53 201.13 386.96 182.60 387.00 164.96 C 386.50 150.39 388.61 135.40 395.24 122.28 C 401.89 109.22 413.71 98.47 427.96 94.51 C 435.00 92.48 442.29 91.48 449.57 90.82 Z" />
<path fill="#0098da" opacity="1.00" d=" M 624.86 164.76 C 633.52 164.73 642.18 164.66 650.85 164.78 C 651.38 166.03 651.94 167.28 652.39 168.58 C 656.35 179.26 660.17 190.05 664.74 200.49 C 665.49 198.83 666.24 197.17 666.87 195.47 C 671.15 185.22 675.31 174.92 679.71 164.72 C 683.09 165.10 686.86 164.00 690.01 165.30 C 689.31 166.92 688.64 168.54 687.96 170.16 C 681.80 184.45 675.75 198.79 669.54 213.05 C 676.81 232.18 684.41 251.18 691.75 270.27 C 692.48 272.35 693.37 274.38 694.49 276.30 C 694.87 275.41 695.26 274.53 695.65 273.65 C 696.33 272.09 697.03 270.52 697.70 268.95 C 703.79 254.64 710.10 240.41 716.13 226.08 C 709.38 208.60 702.53 191.16 695.81 173.67 C 694.96 171.34 694.07 169.03 693.11 166.75 L 692.28 164.75 C 700.92 164.69 709.57 164.76 718.22 164.70 C 718.77 165.91 719.33 167.12 719.78 168.39 C 723.79 179.14 727.81 189.90 732.14 200.53 C 732.72 199.19 733.38 197.86 733.88 196.47 C 738.35 185.93 742.73 175.35 747.11 164.76 C 750.65 164.73 754.20 164.72 757.75 164.72 C 757.55 165.19 757.15 166.14 756.95 166.61 C 756.57 167.49 756.20 168.38 755.84 169.27 C 749.57 183.90 743.31 198.53 737.03 213.16 C 745.32 234.72 753.90 256.17 762.11 277.76 C 755.23 277.78 748.35 277.70 741.47 277.82 C 740.80 277.81 739.45 277.80 738.78 277.80 C 738.13 277.79 736.82 277.77 736.17 277.76 C 733.23 269.93 730.18 262.15 727.26 254.32 C 726.51 252.32 725.73 250.34 724.96 248.35 C 724.50 247.19 724.05 246.03 723.63 244.87 C 722.89 242.87 722.15 240.87 721.40 238.88 C 715.49 251.90 710.32 265.24 704.44 278.27 C 693.74 277.25 682.90 278.14 672.15 277.86 C 671.12 277.83 670.10 277.79 669.09 277.75 L 668.61 277.73 C 665.66 269.62 662.46 261.61 659.44 253.53 C 658.82 251.86 658.17 250.21 657.54 248.56 C 657.03 247.23 656.53 245.90 656.03 244.57 C 655.31 242.67 654.55 240.78 653.78 238.90 C 648.13 251.98 642.70 265.16 637.02 278.23 C 635.66 277.99 634.30 277.82 632.93 277.73 C 631.66 277.71 630.40 277.72 629.14 277.74 C 628.45 277.74 627.08 277.75 626.39 277.75 C 633.78 260.52 641.30 243.33 648.65 226.09 C 640.70 205.65 632.73 185.23 624.86 164.76 Z" />
<path fill="#0098da" opacity="1.00" d=" M 449.04 370.64 C 458.52 368.67 468.35 368.62 477.95 369.70 C 482.36 370.20 487.15 371.30 490.08 374.94 C 492.17 377.45 491.80 380.93 491.91 383.99 C 489.90 384.00 487.89 384.00 485.89 383.99 C 485.40 381.78 484.93 379.30 483.01 377.85 C 480.18 375.63 476.37 375.92 472.99 375.87 C 466.25 375.97 459.48 375.13 452.79 376.19 C 449.93 376.63 446.96 377.85 445.39 380.41 C 443.21 383.89 443.73 388.17 443.57 392.09 C 443.52 396.70 443.12 401.61 445.15 405.90 C 446.32 408.50 449.22 409.86 451.99 409.74 C 460.71 409.73 469.43 410.03 478.14 409.82 C 480.11 409.63 482.62 409.67 483.87 407.84 C 485.05 405.43 485.13 402.67 485.72 400.10 C 478.15 400.16 470.57 400.11 463.00 400.12 C 462.97 397.89 462.99 395.67 463.10 393.45 C 472.83 393.76 482.72 392.04 492.33 394.17 C 492.97 399.08 492.51 404.24 490.86 408.93 C 489.41 413.12 485.34 416.07 480.94 416.26 C 473.29 416.55 465.64 416.28 457.99 416.38 C 452.37 416.40 445.92 416.53 441.47 412.52 C 437.99 408.97 437.36 403.72 436.95 399.00 C 436.45 391.33 436.58 383.22 439.95 376.15 C 441.56 372.63 445.59 371.49 449.04 370.64 Z" />
<path fill="#0098da" opacity="1.00" d=" M 213.78 370.24 C 215.76 370.24 217.76 370.25 219.75 370.25 C 220.01 381.54 218.99 392.96 220.97 404.13 C 221.61 408.30 226.11 410.17 229.92 409.86 C 238.28 409.65 246.74 411.02 255.02 409.44 C 259.01 408.80 261.91 405.10 261.80 401.10 C 261.98 390.74 261.82 380.37 261.88 370.00 C 264.13 369.99 266.38 370.00 268.63 370.04 C 268.72 378.71 269.22 387.37 268.93 396.04 C 268.61 401.17 268.00 406.66 264.85 410.93 C 261.90 414.87 256.77 416.37 252.03 416.38 C 245.36 416.39 238.69 416.36 232.02 416.39 C 227.30 416.36 222.26 415.55 218.44 412.57 C 215.00 409.84 213.69 405.27 213.68 401.02 C 213.85 390.76 213.67 380.50 213.78 370.24 Z" />
<path fill="#0098da" opacity="1.00" d=" M 273.75 370.01 C 277.67 370.04 281.78 369.28 285.58 370.48 C 289.22 372.72 291.40 376.59 294.22 379.71 C 302.40 389.31 310.23 399.29 319.36 408.03 C 319.38 395.37 319.41 382.71 319.34 370.05 C 321.42 369.97 323.50 369.97 325.58 370.13 C 325.38 385.54 325.58 400.96 325.48 416.38 C 322.67 416.38 319.86 416.38 317.06 416.34 C 304.98 402.58 293.38 388.35 280.65 375.18 C 280.45 388.11 280.85 401.05 280.61 413.96 C 280.33 417.41 276.06 416.16 273.75 416.38 C 273.74 400.92 273.76 385.47 273.75 370.01 Z" />
<path fill="#0098da" opacity="1.00" d=" M 368.32 370.08 C 370.58 369.99 372.85 369.98 375.12 370.00 C 375.13 380.32 375.11 390.64 375.13 400.96 C 375.20 405.46 373.80 410.30 370.23 413.27 C 367.42 415.68 363.59 416.41 359.97 416.38 C 353.98 416.36 347.99 416.40 342.00 416.36 C 337.98 416.20 333.34 415.67 330.61 412.36 C 327.89 408.88 327.80 404.22 327.71 400.01 C 329.70 399.99 331.71 400.00 333.71 400.00 C 333.96 403.67 334.45 408.95 339.08 409.51 C 346.05 409.86 353.09 410.30 360.07 409.88 C 363.55 409.72 368.18 408.16 368.28 404.00 C 368.48 392.70 368.38 381.39 368.32 370.08 Z" />
<path fill="#0098da" opacity="1.00" d=" M 380.00 370.00 C 392.69 370.03 405.37 369.94 418.06 370.04 C 422.57 370.09 427.42 372.22 429.34 376.53 C 431.59 381.52 430.02 387.16 427.71 391.83 C 434.22 396.69 434.56 407.23 428.88 412.84 C 426.35 415.49 422.58 416.49 419.01 416.38 C 406.00 416.37 393.00 416.38 380.00 416.37 C 380.00 400.92 380.00 385.46 380.00 370.00 M 386.88 376.76 C 386.94 380.73 386.69 384.72 387.05 388.69 C 397.36 388.54 407.67 388.66 417.98 388.63 C 419.76 388.67 421.83 388.36 422.92 386.78 C 425.59 382.99 422.97 376.60 418.01 376.78 C 407.64 376.71 397.26 376.77 386.88 376.76 M 387.05 395.34 C 386.96 400.15 386.98 404.96 387.04 409.77 C 397.36 409.73 407.68 409.74 418.01 409.77 C 419.89 409.75 421.98 409.88 423.59 408.68 C 426.72 406.44 427.04 401.78 425.48 398.53 C 424.09 395.85 420.78 395.41 418.08 395.38 C 407.73 395.34 397.39 395.43 387.05 395.34 Z" />
</g>
<g id="#b7b7b8ff">
<path fill="#b7b7b8" opacity="1.00" d=" M 690.01 165.30 C 690.92 166.02 691.96 166.50 693.11 166.75 C 694.07 169.03 694.96 171.34 695.81 173.67 C 694.66 175.25 693.53 176.87 692.77 178.69 C 688.60 188.78 684.27 198.80 679.89 208.80 C 677.77 213.17 677.83 218.33 678.86 222.98 C 684.13 236.76 689.56 250.47 694.81 264.26 C 695.38 266.04 696.45 267.57 697.70 268.95 C 697.03 270.52 696.33 272.09 695.65 273.65 C 693.71 270.29 692.44 266.62 691.07 263.00 C 685.73 249.60 680.61 236.12 675.33 222.70 C 673.75 218.87 673.91 214.41 675.71 210.68 C 680.75 199.01 685.70 187.30 690.77 175.63 C 691.53 174.08 691.57 172.35 691.58 170.66 C 690.37 170.50 689.16 170.33 687.96 170.16 C 688.64 168.54 689.31 166.92 690.01 165.30 Z" />
</g>
<g id="#b9b9baff">
<path fill="#b9b9ba" opacity="1.00" d=" M 756.95 166.61 C 758.80 166.59 760.58 167.11 762.34 167.67 C 763.29 169.94 763.43 172.36 762.39 174.64 C 757.07 186.69 752.01 198.87 746.73 210.94 C 745.89 216.29 745.64 222.10 748.01 227.12 C 754.43 243.40 760.56 259.79 767.17 275.99 C 767.94 278.11 767.65 280.48 766.35 282.33 C 764.61 282.92 762.85 283.62 760.99 283.47 C 755.64 283.40 750.29 283.52 744.95 283.42 C 741.82 283.35 739.07 280.94 738.78 277.80 C 739.45 277.80 740.80 277.81 741.47 277.82 C 743.29 279.33 745.43 280.66 747.92 280.42 C 753.17 280.27 758.58 281.07 763.67 279.40 C 763.58 277.89 763.67 276.35 763.24 274.89 C 756.32 256.87 749.14 238.94 742.26 220.89 C 740.72 217.67 741.87 214.17 743.23 211.12 C 748.25 199.47 753.20 187.78 758.25 176.15 C 758.76 174.75 759.50 173.37 759.48 171.84 C 758.45 170.74 757.07 170.07 755.84 169.27 C 756.20 168.38 756.57 167.49 756.95 166.61 Z" />
</g>
<g id="#909092ff">
<path fill="#909092" opacity="1.00" d=" M 652.39 168.58 C 654.84 167.61 656.74 169.19 657.71 171.33 C 661.00 179.28 663.39 187.60 666.87 195.47 C 666.24 197.17 665.49 198.83 664.74 200.49 C 660.17 190.05 656.35 179.26 652.39 168.58 Z" />
</g>
<g id="#959596ff">
<path fill="#959596" opacity="1.00" d=" M 719.78 168.39 C 721.74 168.21 723.69 168.57 725.21 169.91 C 725.94 174.93 729.04 179.28 729.73 184.24 C 730.10 184.66 730.83 185.48 731.20 185.89 C 732.22 189.39 734.09 192.71 733.88 196.47 C 733.38 197.86 732.72 199.19 732.14 200.53 C 727.81 189.90 723.79 179.14 719.78 168.39 Z" />
</g>
<g id="#737375ff">
<path fill="#737375" opacity="1.00" d=" M 687.96 170.16 C 689.16 170.33 690.37 170.50 691.58 170.66 C 691.57 172.35 691.53 174.08 690.77 175.63 C 685.70 187.30 680.75 199.01 675.71 210.68 C 673.91 214.41 673.75 218.87 675.33 222.70 C 680.61 236.12 685.73 249.60 691.07 263.00 C 692.44 266.62 693.71 270.29 695.65 273.65 C 695.26 274.53 694.87 275.41 694.49 276.30 C 693.37 274.38 692.48 272.35 691.75 270.27 C 684.41 251.18 676.81 232.18 669.54 213.05 C 675.75 198.79 681.80 184.45 687.96 170.16 Z" />
</g>
<g id="#737376ff">
<path fill="#737376" opacity="1.00" d=" M 737.03 213.16 C 743.31 198.53 749.57 183.90 755.84 169.27 C 757.07 170.07 758.45 170.74 759.48 171.84 C 759.50 173.37 758.76 174.75 758.25 176.15 C 753.20 187.78 748.25 199.47 743.23 211.12 C 741.87 214.17 740.72 217.67 742.26 220.89 C 749.14 238.94 756.32 256.87 763.24 274.89 C 763.67 276.35 763.58 277.89 763.67 279.40 C 758.58 281.07 753.17 280.27 747.92 280.42 C 745.43 280.66 743.29 279.33 741.47 277.82 C 748.35 277.70 755.23 277.78 762.11 277.76 C 753.90 256.17 745.32 234.72 737.03 213.16 Z" />
</g>
<g id="#707072ff">
<path fill="#707072" opacity="1.00" d=" M 637.02 278.23 C 642.70 265.16 648.13 251.98 653.78 238.90 C 654.55 240.78 655.31 242.67 656.03 244.57 C 650.40 254.60 646.81 265.62 642.05 276.06 C 641.26 278.18 639.05 279.02 637.02 278.23 Z" />
</g>
<g id="#707071ff">
<path fill="#707071" opacity="1.00" d=" M 704.44 278.27 C 710.32 265.24 715.49 251.90 721.40 238.88 C 722.15 240.87 722.89 242.87 723.63 244.87 C 719.54 250.91 717.69 258.06 714.63 264.61 C 712.57 268.93 711.33 273.68 708.61 277.64 C 707.70 279.16 705.80 278.49 704.44 278.27 Z" />
</g>
<g id="#9b9b9cff">
<path fill="#9b9b9c" opacity="1.00" d=" M 642.05 276.06 C 646.81 265.62 650.40 254.60 656.03 244.57 C 656.53 245.90 657.03 247.23 657.54 248.56 C 654.36 252.20 653.41 257.12 651.28 261.35 C 648.51 267.27 646.66 273.64 643.28 279.24 C 641.55 282.32 637.61 281.75 634.67 281.43 C 633.30 280.71 633.40 278.97 632.93 277.73 C 634.30 277.82 635.66 277.99 637.02 278.23 C 639.05 279.02 641.26 278.18 642.05 276.06 Z" />
</g>
<g id="#9c9c9dff">
<path fill="#9c9c9d" opacity="1.00" d=" M 714.63 264.61 C 717.69 258.06 719.54 250.91 723.63 244.87 C 724.05 246.03 724.50 247.19 724.96 248.35 C 720.16 257.46 716.72 267.22 712.57 276.64 C 711.55 278.95 709.77 281.72 706.91 281.59 C 696.64 281.40 686.37 281.92 676.10 281.55 C 673.89 281.79 673.23 279.24 672.15 277.86 C 682.90 278.14 693.74 277.25 704.44 278.27 C 705.80 278.49 707.70 279.16 708.61 277.64 C 711.33 273.68 712.57 268.93 714.63 264.61 Z" />
</g>
<g id="#dfdfdfff">
<path fill="#dfdfdf" opacity="1.00" d=" M 651.28 261.35 C 653.41 257.12 654.36 252.20 657.54 248.56 C 658.17 250.21 658.82 251.86 659.44 253.53 C 656.95 254.91 656.04 257.68 654.98 260.14 C 652.52 266.22 650.04 272.31 647.31 278.29 C 646.07 280.78 644.60 283.86 641.59 284.46 C 638.64 284.74 635.62 284.87 632.70 284.34 C 629.88 283.44 629.31 280.30 629.14 277.74 C 630.40 277.72 631.66 277.71 632.93 277.73 C 633.40 278.97 633.30 280.71 634.67 281.43 C 637.61 281.75 641.55 282.32 643.28 279.24 C 646.66 273.64 648.51 267.27 651.28 261.35 Z" />
</g>
<g id="#e0e0e0ff">
<path fill="#e0e0e0" opacity="1.00" d=" M 712.57 276.64 C 716.72 267.22 720.16 257.46 724.96 248.35 C 725.73 250.34 726.51 252.32 727.26 254.32 C 724.75 254.72 724.09 257.25 723.19 259.22 C 720.21 266.25 717.21 273.28 714.19 280.29 C 713.05 283.12 710.10 284.93 707.06 284.67 C 696.71 284.63 686.36 284.83 676.01 284.64 C 672.30 284.71 669.28 281.33 669.09 277.75 C 670.10 277.79 671.12 277.83 672.15 277.86 C 673.23 279.24 673.89 281.79 676.10 281.55 C 686.37 281.92 696.64 281.40 706.91 281.59 C 709.77 281.72 711.55 278.95 712.57 276.64 Z" />
</g>
<g id="#00a7f5ff">
<path fill="#00a7f5" opacity="1.00" d=" M 157.74 370.78 C 162.48 366.33 169.51 363.16 175.93 365.83 C 184.44 369.25 189.23 377.58 194.36 384.63 C 198.34 386.84 202.17 390.49 201.57 395.47 C 203.42 398.28 205.02 401.48 204.41 404.97 C 203.95 407.61 203.89 411.30 201.02 412.54 C 198.55 412.73 196.26 411.54 193.90 411.02 C 196.12 414.18 199.91 415.70 203.67 414.48 C 202.75 418.18 201.74 422.29 198.56 424.74 C 196.34 426.76 192.79 427.77 190.11 426.01 C 187.15 424.39 186.43 420.80 185.25 417.93 C 185.96 416.31 183.00 414.62 183.06 416.94 C 183.40 417.29 184.08 417.99 184.42 418.34 C 186.02 420.91 185.86 424.61 188.38 426.67 C 189.67 427.30 191.00 427.87 192.21 428.68 C 190.10 428.87 187.82 428.68 185.96 429.87 C 186.93 430.03 188.86 430.34 189.83 430.49 C 190.09 431.91 188.51 432.02 187.54 432.44 C 185.04 433.33 182.35 433.21 179.78 432.72 C 179.24 430.16 178.82 427.53 179.16 424.93 C 181.26 426.55 183.27 428.29 185.54 429.70 C 185.52 429.03 185.86 428.13 185.07 427.77 C 182.79 426.33 180.68 424.60 179.31 422.24 C 179.29 423.13 179.24 424.02 179.16 424.93 C 178.89 425.06 178.34 425.34 178.07 425.48 C 177.83 423.35 176.67 421.58 175.67 419.76 C 176.40 418.25 177.74 416.53 176.36 414.97 C 174.54 417.87 173.93 422.20 170.15 423.27 C 167.29 424.10 163.25 424.15 161.61 421.18 C 164.34 421.05 167.46 422.41 169.97 420.83 C 171.88 419.40 171.31 416.79 171.20 414.75 C 169.07 414.70 166.81 415.24 164.76 414.84 C 164.64 414.74 164.41 414.55 164.29 414.45 C 163.95 414.18 163.27 413.63 162.93 413.36 C 162.58 409.67 166.47 408.92 168.89 407.44 C 166.39 406.23 163.61 405.95 160.96 405.22 C 160.79 403.08 160.83 400.16 163.30 399.35 C 166.58 397.23 170.48 398.20 174.04 398.78 C 175.41 397.86 176.76 396.92 178.21 396.14 C 176.44 396.12 174.90 397.06 173.35 397.77 C 173.50 397.02 173.79 395.50 173.93 394.74 C 172.92 395.87 171.49 397.56 169.87 396.24 C 168.49 393.68 170.66 391.09 173.13 390.51 C 177.32 388.97 182.00 391.98 185.99 390.01 C 187.02 387.23 184.92 384.50 183.89 382.02 C 181.04 377.08 178.26 371.49 173.15 368.55 C 169.14 366.44 165.16 369.87 162.84 372.91 C 158.48 378.85 154.77 385.44 152.68 392.54 C 151.43 392.67 150.18 392.81 148.93 392.94 C 149.01 390.71 149.09 388.50 149.15 386.27 C 148.47 385.99 147.12 385.44 146.44 385.16 C 149.05 379.59 153.38 375.03 157.74 370.78 M 193.94 387.00 C 195.12 389.98 197.89 394.05 194.63 396.69 C 190.38 400.29 184.83 396.81 180.02 396.91 L 180.93 398.90 C 180.23 398.79 178.81 398.58 178.10 398.48 C 178.99 399.19 179.88 399.90 180.77 400.62 C 180.64 401.43 180.37 403.06 180.23 403.88 C 183.33 403.26 183.24 399.33 180.63 397.90 C 185.60 399.21 191.37 400.72 196.22 398.23 C 200.39 395.29 198.11 388.79 193.94 387.00 M 186.95 394.50 C 182.97 394.39 179.12 392.45 175.13 393.35 C 175.17 393.62 175.27 394.16 175.31 394.43 C 180.64 393.66 185.93 396.55 191.28 395.36 C 193.40 395.01 193.59 392.71 193.87 391.02 C 191.65 392.31 189.79 394.91 186.95 394.50 M 194.21 403.82 C 196.04 404.02 196.98 401.39 198.83 402.14 C 200.89 402.61 201.29 406.30 198.89 406.52 C 194.09 407.00 190.92 401.82 186.04 402.23 C 187.10 403.93 189.33 404.02 190.87 405.13 C 193.62 406.97 196.38 409.94 200.05 408.86 C 203.76 407.22 203.35 400.68 199.02 400.25 C 196.41 399.23 194.18 401.23 194.21 403.82 M 171.56 404.48 C 170.57 404.56 167.75 404.97 169.01 406.50 C 170.42 408.48 174.57 404.24 171.56 404.48 M 183.67 408.93 C 185.89 412.71 187.10 416.96 189.20 420.78 C 191.00 424.17 196.86 425.88 198.95 421.91 C 201.35 418.60 197.93 413.78 194.06 414.40 C 192.13 414.45 190.24 416.75 191.85 418.44 C 193.15 417.79 194.44 415.71 196.07 416.64 C 197.96 418.56 196.25 422.54 193.38 421.56 C 187.60 419.69 188.65 411.60 183.67 408.93 Z" />
</g>
<g id="#aee6fbff">
<path fill="#aee6fb" opacity="1.00" d=" M 172.25 384.18 C 175.80 384.31 179.42 384.34 182.88 385.27 C 184.87 385.76 186.06 388.85 183.86 389.89 C 179.86 391.41 175.19 387.83 171.40 390.53 C 169.28 391.88 168.99 394.55 168.57 396.81 C 167.05 396.82 165.53 396.83 164.02 396.84 C 163.03 394.91 162.12 392.37 163.60 390.45 C 165.61 387.80 169.26 388.01 172.16 387.16 C 172.19 386.42 172.23 384.93 172.25 384.18 Z" />
<path fill="#aee6fb" opacity="1.00" d=" M 157.59 408.86 C 159.10 406.75 162.12 406.74 164.47 406.67 C 164.69 408.69 162.25 412.13 159.99 410.23 C 160.21 411.19 160.64 413.09 160.85 414.05 C 158.95 413.11 156.95 411.15 157.59 408.86 Z" />
<path fill="#aee6fb" opacity="1.00" d=" M 168.41 425.25 C 169.09 425.20 170.45 425.11 171.13 425.07 C 171.52 426.93 172.42 429.21 170.96 430.87 C 167.78 431.37 169.09 427.15 168.41 425.25 Z" />
</g>
<g id="#a9abaeff">
<path fill="#a9abae" opacity="1.00" d=" M 142.90 392.82 C 143.33 390.29 144.66 385.09 148.16 386.41 C 148.27 388.48 148.21 390.55 148.18 392.63 C 146.42 392.70 144.66 392.76 142.90 392.82 Z" />
<path fill="#a9abae" opacity="1.00" d=" M 141.35 394.20 C 142.51 394.16 143.67 394.14 144.84 394.11 C 145.31 396.60 145.22 399.16 144.43 401.57 C 142.50 401.73 140.57 401.79 138.64 401.75 C 138.43 398.96 140.42 396.70 141.35 394.20 Z" />
<path fill="#a9abae" opacity="1.00" d=" M 145.89 393.79 C 147.78 393.78 149.67 393.77 151.56 393.76 C 152.02 396.45 150.82 399.02 150.12 401.56 C 148.68 401.58 147.24 401.60 145.80 401.62 C 145.55 399.01 145.60 396.39 145.89 393.79 Z" />
<path fill="#a9abae" opacity="1.00" d=" M 137.74 402.46 C 138.53 402.50 140.09 402.60 140.88 402.65 C 140.92 405.67 141.04 408.71 140.58 411.72 C 138.56 411.84 136.55 411.82 134.54 411.67 C 134.88 408.39 136.33 405.38 137.74 402.46 Z" />
<path fill="#a9abae" opacity="1.00" d=" M 141.72 402.38 C 144.28 402.37 146.84 402.37 149.40 402.40 C 148.86 405.57 148.15 408.72 147.02 411.74 C 145.28 411.70 143.53 411.65 141.79 411.58 C 141.54 408.52 141.59 405.44 141.72 402.38 Z" />
<path fill="#a9abae" opacity="1.00" d=" M 130.93 422.73 C 131.39 419.25 132.39 415.87 133.76 412.66 C 134.38 412.69 135.62 412.76 136.24 412.80 C 136.91 416.00 136.07 419.33 136.32 422.59 C 134.52 422.63 132.73 422.67 130.93 422.73 Z" />
<path fill="#a9abae" opacity="1.00" d=" M 137.49 412.66 C 140.34 412.65 143.20 412.65 146.05 412.66 C 146.36 415.96 145.97 419.28 145.31 422.52 C 142.65 422.89 139.96 422.83 137.29 422.59 C 137.20 419.28 137.06 415.95 137.49 412.66 Z" />
<path fill="#a9abae" opacity="1.00" d=" M 130.86 423.83 C 134.22 423.92 137.58 424.09 140.95 424.15 C 141.42 427.14 141.66 430.24 140.81 433.21 C 137.50 433.19 134.20 433.15 130.90 432.92 C 130.55 429.90 130.62 426.85 130.86 423.83 Z" />
<path fill="#a9abae" opacity="1.00" d=" M 142.23 423.93 C 142.93 424.00 144.34 424.14 145.04 424.21 C 145.76 427.12 145.21 430.24 145.22 433.24 C 144.48 433.16 143.00 433.00 142.26 432.92 C 141.98 429.92 142.02 426.92 142.23 423.93 Z" />
<path fill="#a9abae" opacity="1.00" d=" M 130.83 433.73 C 135.63 434.05 140.44 433.71 145.25 433.84 C 145.74 436.93 145.89 440.08 145.28 443.18 C 141.16 444.52 136.02 444.37 132.52 441.53 C 130.26 439.58 130.55 436.39 130.83 433.73 Z" />
</g>
<g id="#60bee9ef">
<path fill="#60bee9" opacity="0.94" d=" M 183.06 416.94 C 183.00 414.62 185.96 416.31 185.25 417.93 L 184.42 418.34 C 184.08 417.99 183.40 417.29 183.06 416.94 Z" />
</g>
<g id="#92c1d3d6">
<path fill="#92c1d3" opacity="0.84" d=" M 174.55 421.72 C 178.06 423.20 178.88 428.46 177.63 431.77 C 176.46 433.79 174.64 431.43 173.93 430.30 L 173.14 432.07 C 172.18 429.25 172.32 426.22 172.30 423.29 C 175.49 423.13 174.44 427.38 174.72 429.25 C 175.06 429.21 175.75 429.12 176.10 429.08 C 176.16 426.51 175.63 424.03 174.55 421.72 Z" />
</g>
</svg>
