<?xml version="1.0" encoding="utf-8"?>
<!-- Generator: Adobe Illustrator 22.0.1, SVG Export Plug-In . SVG Version: 6.00 Build 0)  -->
<svg version="1.1" id="Layer_2" xmlns="http://www.w3.org/2000/svg" xmlns:xlink="http://www.w3.org/1999/xlink" x="0px" y="0px"
	 viewBox="0 0 500 500" style="enable-background:new 0 0 500 500;" xml:space="preserve">
<style type="text/css">
	.st0{fill:#6C6C6C;}
</style>
<path class="st0" d="M225.1,291.8h-99.3c-2.2,0-4-1.8-4-4V278c0-2.2,1.8-4,4-4h99.3c2.2,0,4,1.8,4,4v9.8
	C229.1,290,227.3,291.8,225.1,291.8z"/>
<path class="st0" d="M225.1,250.1h-99.3c-2.2,0-4-1.8-4-4v-9.8c0-2.2,1.8-4,4-4h99.3c2.2,0,4,1.8,4,4v9.8
	C229.1,248.3,227.3,250.1,225.1,250.1z"/>
<path class="st0" d="M225.1,208.4h-99.3c-2.2,0-4-1.8-4-4v-9.8c0-2.2,1.8-4,4-4h99.3c2.2,0,4,1.8,4,4v9.8
	C229.1,206.6,227.3,208.4,225.1,208.4z"/>
<path class="st0" d="M224.7,166.6h-99.3c-2.2,0-4-1.8-4-4v-9.8c0-2.2,1.8-4,4-4h99.3c2.2,0,4,1.8,4,4v9.8
	C228.7,164.8,226.9,166.6,224.7,166.6z"/>
<path class="st0" d="M224.7,124.9h-99.3c-2.2,0-4-1.8-4-4v-9.8c0-2.2,1.8-4,4-4h99.3c2.2,0,4,1.8,4,4v9.8
	C228.7,123.1,226.9,124.9,224.7,124.9z"/>
<g>
	<path class="st0" d="M407.7,154.3H258.5c-16.7,0-30.4,13.7-30.4,30.4v236.3c0,16.7,13.7,30.4,30.4,30.4h149.2
		c16.7,0,30.4-13.7,30.4-30.4V184.7C438.2,168,424.5,154.3,407.7,154.3z M416.3,421.1c0,4.5-3.7,8.1-8.1,8.1H258.9
		c-4.5,0-8.1-3.7-8.1-8.1V184.7c0-4.5,3.7-8.1,8.1-8.1h149.2c4.5,0,8.1,3.7,8.1,8.1V421.1z"/>
	<path class="st0" d="M383.4,396.1H284c-2.2,0-4-1.8-4-4v-9.8c0-2.2,1.8-4,4-4h99.3c2.2,0,4,1.8,4,4v9.8
		C387.4,394.3,385.6,396.1,383.4,396.1z"/>
	<path class="st0" d="M383.4,354.4H284c-2.2,0-4-1.8-4-4v-9.8c0-2.2,1.8-4,4-4h99.3c2.2,0,4,1.8,4,4v9.8
		C387.4,352.6,385.6,354.4,383.4,354.4z"/>
	<path class="st0" d="M383.4,312.7H284c-2.2,0-4-1.8-4-4v-9.8c0-2.2,1.8-4,4-4h99.3c2.2,0,4,1.8,4,4v9.8
		C387.4,310.9,385.6,312.7,383.4,312.7z"/>
	<path class="st0" d="M383,271h-99.3c-2.2,0-4-1.8-4-4v-9.8c0-2.2,1.8-4,4-4H383c2.2,0,4,1.8,4,4v9.8C387,269.2,385.2,271,383,271z"
		/>
	<path class="st0" d="M383,229.2h-99.3c-2.2,0-4-1.8-4-4v-9.8c0-2.2,1.8-4,4-4H383c2.2,0,4,1.8,4,4v9.8
		C387,227.4,385.2,229.2,383,229.2z"/>
</g>
<polygon id="XMLID_5265_" class="st0" points="211.3,408.1 168.8,376 168.8,391.7 124.9,391.7 132.3,409 124.9,424.6 168.8,424.6 
	168.8,440.3 "/>
<rect x="86.6" y="377.7" transform="matrix(-1.836970e-16 1 -1 -1.836970e-16 511.1012 277.1012)" class="st0" width="60.8" height="32.9"/>
<path class="st0" d="M240.1,324.9H100.6c-4.5,0-8.1-3.7-8.1-8.1V80.4c0-4.5,3.7-8.1,8.1-8.1h149.2c4.5,0,8.1,3.7,8.1,8.1v86.2h21.9
	V80.4c0-16.7-13.7-30.4-30.4-30.4H100.2c-16.7,0-30.4,13.7-30.4,30.4v236.3c0,16.7,13.7,30.4,30.4,30.4h139.9V324.9z"/>
</svg>
