<?xml version="1.0" encoding="utf-8"?>
<!-- Generator: Adobe Illustrator 21.1.0, SVG Export Plug-In . SVG Version: 6.00 Build 0)  -->
<!DOCTYPE svg PUBLIC "-//W3C//DTD SVG 1.1//EN" "http://www.w3.org/Graphics/SVG/1.1/DTD/svg11.dtd">
<svg version="1.1" id="Layer_1" xmlns="http://www.w3.org/2000/svg" xmlns:xlink="http://www.w3.org/1999/xlink" x="0px" y="0px"
	 width="500px" height="500px" viewBox="0 0 500 500" style="enable-background:new 0 0 500 500;" xml:space="preserve">
<style type="text/css">
	.st0{display:none;}
	.st1{display:inline;}
	.st2{fill:none;stroke:#EDEDED;stroke-width:0.5;stroke-miterlimit:10;}
	.st3{fill:none;stroke:#BDBDBD;stroke-miterlimit:10;}
	.st4{display:inline;fill:#1E1E1E;}
	.st5{fill:#1E1E1E;}
	.st6{fill:#6C6C6C;}
	.st7{clip-path:url(#SVGID_2_);}
</style>
<g id="Layer_1_1_" class="st0">
	<g class="st1">
		<rect x="250" y="350" class="st2" width="25" height="25"/>
		<rect x="175" y="350" class="st2" width="25" height="25"/>
		<rect x="225" y="350" class="st2" width="25" height="25"/>
		<rect x="200" y="350" class="st2" width="25" height="25"/>
		<rect x="125" y="325" class="st2" width="25" height="25"/>
		<rect x="125" y="350" class="st2" width="25" height="25"/>
		<rect x="150" y="350" class="st2" width="25" height="25"/>
		<rect x="275" y="350" class="st2" width="25" height="25"/>
		<rect x="350" y="300" class="st2" width="25" height="25"/>
		<rect x="125" y="300" class="st2" width="25" height="25"/>
		<rect x="350" y="325" class="st2" width="25" height="25"/>
		<rect x="350" y="275" class="st2" width="25" height="25"/>
		<rect x="300" y="350" class="st2" width="25" height="25"/>
		<rect x="350" y="350" class="st2" width="25" height="25"/>
		<rect x="350" y="250" class="st2" width="25" height="25"/>
		<rect x="325" y="350" class="st2" width="25" height="25"/>
		<rect x="250" y="125" class="st2" width="25" height="25"/>
		<rect x="225" y="125" class="st2" width="25" height="25"/>
		<rect x="200" y="125" class="st2" width="25" height="25"/>
		<rect x="300" y="125" class="st2" width="25" height="25"/>
		<rect x="325" y="125" class="st2" width="25" height="25"/>
		<rect x="175" y="125" class="st2" width="25" height="25"/>
		<rect x="275" y="125" class="st2" width="25" height="25"/>
		<rect x="125" y="175" class="st2" width="25" height="25"/>
		<rect x="125" y="200" class="st2" width="25" height="25"/>
		<rect x="125" y="225" class="st2" width="25" height="25"/>
		<rect x="125" y="250" class="st2" width="25" height="25"/>
		<rect x="125" y="275" class="st2" width="25" height="25"/>
		<rect x="150" y="125" class="st2" width="25" height="25"/>
		<rect x="125" y="125" class="st2" width="25" height="25"/>
		<rect x="125" y="150" class="st2" width="25" height="25"/>
		<rect x="350" y="150" class="st2" width="25" height="25"/>
		<rect x="100" y="275" class="st2" width="25" height="25"/>
		<rect x="100" y="300" class="st2" width="25" height="25"/>
		<rect x="100" y="250" class="st2" width="25" height="25"/>
		<rect x="100" y="175" class="st2" width="25" height="25"/>
		<rect x="100" y="150" class="st2" width="25" height="25"/>
		<rect x="100" y="200" class="st2" width="25" height="25"/>
		<rect x="100" y="225" class="st2" width="25" height="25"/>
		<rect x="100" y="325" class="st2" width="25" height="25"/>
		<rect x="200" y="375" class="st2" width="25" height="25"/>
		<rect x="225" y="375" class="st2" width="25" height="25"/>
		<rect x="175" y="375" class="st2" width="25" height="25"/>
		<rect x="150" y="375" class="st2" width="25" height="25"/>
		<rect x="100" y="375" class="st2" width="25" height="25"/>
		<rect x="125" y="375" class="st2" width="25" height="25"/>
		<rect x="100" y="350" class="st2" width="25" height="25"/>
		<rect x="100" y="125" class="st2" width="25" height="25"/>
		<rect x="350" y="100" class="st2" width="25" height="25"/>
		<rect x="300" y="100" class="st2" width="25" height="25"/>
		<rect x="275" y="100" class="st2" width="25" height="25"/>
		<rect x="350" y="125" class="st2" width="25" height="25"/>
		<rect x="325" y="150" class="st2" width="25" height="25"/>
		<rect x="350" y="200" class="st2" width="25" height="25"/>
		<rect x="350" y="175" class="st2" width="25" height="25"/>
		<rect x="100" y="100" class="st2" width="25" height="25"/>
		<rect x="125" y="100" class="st2" width="25" height="25"/>
		<rect x="350" y="225" class="st2" width="25" height="25"/>
		<rect x="150" y="100" class="st2" width="25" height="25"/>
		<rect x="250" y="100" class="st2" width="25" height="25"/>
		<rect x="225" y="100" class="st2" width="25" height="25"/>
		<rect x="200" y="100" class="st2" width="25" height="25"/>
		<rect x="175" y="100" class="st2" width="25" height="25"/>
		<rect x="275" y="175" class="st2" width="25" height="25"/>
		<rect x="175" y="175" class="st2" width="25" height="25"/>
		<rect x="175" y="225" class="st2" width="25" height="25"/>
		<rect x="175" y="200" class="st2" width="25" height="25"/>
		<rect x="200" y="175" class="st2" width="25" height="25"/>
		<rect x="250" y="375" class="st2" width="25" height="25"/>
		<rect x="250" y="175" class="st2" width="25" height="25"/>
		<rect x="275" y="200" class="st2" width="25" height="25"/>
		<rect x="225" y="175" class="st2" width="25" height="25"/>
		<rect x="250" y="300" class="st2" width="25" height="25"/>
		<rect x="300" y="300" class="st2" width="25" height="25"/>
		<rect x="275" y="300" class="st2" width="25" height="25"/>
		<rect x="225" y="300" class="st2" width="25" height="25"/>
		<rect x="175" y="275" class="st2" width="25" height="25"/>
		<rect x="175" y="300" class="st2" width="25" height="25"/>
		<rect x="200" y="300" class="st2" width="25" height="25"/>
		<rect x="175" y="250" class="st2" width="25" height="25"/>
		<rect x="200" y="200" class="st2" width="25" height="25"/>
		<rect x="225" y="200" class="st2" width="25" height="25"/>
		<rect x="250" y="225" class="st2" width="25" height="25"/>
		<rect x="250" y="200" class="st2" width="25" height="25"/>
		<rect x="275" y="225" class="st2" width="25" height="25"/>
		<rect x="225" y="250" class="st2" width="25" height="25"/>
		<rect x="250" y="250" class="st2" width="25" height="25"/>
		<rect x="225" y="225" class="st2" width="25" height="25"/>
		<rect x="275" y="275" class="st2" width="25" height="25"/>
		<rect x="250" y="275" class="st2" width="25" height="25"/>
		<rect x="275" y="250" class="st2" width="25" height="25"/>
		<rect x="200" y="225" class="st2" width="25" height="25"/>
		<rect x="200" y="250" class="st2" width="25" height="25"/>
		<rect x="200" y="275" class="st2" width="25" height="25"/>
		<rect x="225" y="275" class="st2" width="25" height="25"/>
		<rect x="325" y="175" class="st2" width="25" height="25"/>
		<rect x="225" y="325" class="st2" width="25" height="25"/>
		<rect x="200" y="325" class="st2" width="25" height="25"/>
		<rect x="250" y="325" class="st2" width="25" height="25"/>
		<rect x="175" y="325" class="st2" width="25" height="25"/>
		<rect x="150" y="300" class="st2" width="25" height="25"/>
		<rect x="150" y="325" class="st2" width="25" height="25"/>
		<rect x="275" y="325" class="st2" width="25" height="25"/>
		<rect x="325" y="300" class="st2" width="25" height="25"/>
		<rect x="325" y="250" class="st2" width="25" height="25"/>
		<rect x="325" y="225" class="st2" width="25" height="25"/>
		<rect x="300" y="325" class="st2" width="25" height="25"/>
		<rect x="325" y="200" class="st2" width="25" height="25"/>
		<rect x="325" y="325" class="st2" width="25" height="25"/>
		<rect x="150" y="275" class="st2" width="25" height="25"/>
		<rect x="325" y="275" class="st2" width="25" height="25"/>
		<rect x="300" y="225" class="st2" width="25" height="25"/>
		<rect x="150" y="250" class="st2" width="25" height="25"/>
		<rect x="275" y="150" class="st2" width="25" height="25"/>
		<rect x="300" y="175" class="st2" width="25" height="25"/>
		<rect x="300" y="200" class="st2" width="25" height="25"/>
		<rect x="300" y="250" class="st2" width="25" height="25"/>
		<rect x="300" y="275" class="st2" width="25" height="25"/>
		<rect x="250" y="150" class="st2" width="25" height="25"/>
		<rect x="300" y="150" class="st2" width="25" height="25"/>
		<rect x="150" y="200" class="st2" width="25" height="25"/>
		<rect x="150" y="225" class="st2" width="25" height="25"/>
		<rect x="150" y="175" class="st2" width="25" height="25"/>
		<rect x="175" y="150" class="st2" width="25" height="25"/>
		<rect x="200" y="150" class="st2" width="25" height="25"/>
		<rect x="150" y="150" class="st2" width="25" height="25"/>
		<rect x="225" y="150" class="st2" width="25" height="25"/>
		<rect x="325" y="100" class="st2" width="25" height="25"/>
		<rect x="50" y="125" class="st2" width="25" height="25"/>
		<rect x="50" y="150" class="st2" width="25" height="25"/>
		<rect x="50" y="100" class="st2" width="25" height="25"/>
		<rect x="50" y="175" class="st2" width="25" height="25"/>
		<rect x="50" y="50" class="st2" width="25" height="25"/>
		<rect x="75" y="50" class="st2" width="25" height="25"/>
		<rect x="50" y="200" class="st2" width="25" height="25"/>
		<rect x="50" y="75" class="st2" width="25" height="25"/>
		<rect x="50" y="325" class="st2" width="25" height="25"/>
		<rect x="100" y="50" class="st2" width="25" height="25"/>
		<rect x="50" y="350" class="st2" width="25" height="25"/>
		<rect x="50" y="225" class="st2" width="25" height="25"/>
		<rect x="50" y="375" class="st2" width="25" height="25"/>
		<rect x="50" y="250" class="st2" width="25" height="25"/>
		<rect x="50" y="300" class="st2" width="25" height="25"/>
		<rect x="50" y="275" class="st2" width="25" height="25"/>
		<rect x="300" y="50" class="st2" width="25" height="25"/>
		<rect x="375" y="50" class="st2" width="25" height="25"/>
		<rect x="350" y="50" class="st2" width="25" height="25"/>
		<rect x="400" y="50" class="st2" width="25" height="25"/>
		<rect x="400" y="75" class="st2" width="25" height="25"/>
		<rect x="400" y="125" class="st2" width="25" height="25"/>
		<rect x="400" y="100" class="st2" width="25" height="25"/>
		<rect x="125" y="50" class="st2" width="25" height="25"/>
		<rect x="325" y="50" class="st2" width="25" height="25"/>
		<rect x="175" y="50" class="st2" width="25" height="25"/>
		<rect x="150" y="50" class="st2" width="25" height="25"/>
		<rect x="400" y="150" class="st2" width="25" height="25"/>
		<rect x="275" y="50" class="st2" width="25" height="25"/>
		<rect x="225" y="50" class="st2" width="25" height="25"/>
		<rect x="50" y="400" class="st2" width="25" height="25"/>
		<rect x="250" y="50" class="st2" width="25" height="25"/>
		<rect x="200" y="50" class="st2" width="25" height="25"/>
		<rect x="425" y="275" class="st2" width="25" height="25"/>
		<rect x="425" y="300" class="st2" width="25" height="25"/>
		<rect x="425" y="250" class="st2" width="25" height="25"/>
		<rect x="425" y="350" class="st2" width="25" height="25"/>
		<rect x="425" y="375" class="st2" width="25" height="25"/>
		<rect x="425" y="225" class="st2" width="25" height="25"/>
		<rect x="425" y="325" class="st2" width="25" height="25"/>
		<rect x="425" y="400" class="st2" width="25" height="25"/>
		<rect x="425" y="100" class="st2" width="25" height="25"/>
		<rect x="425" y="75" class="st2" width="25" height="25"/>
		<rect x="425" y="50" class="st2" width="25" height="25"/>
		<rect x="425" y="150" class="st2" width="25" height="25"/>
		<rect x="425" y="175" class="st2" width="25" height="25"/>
		<rect x="425" y="125" class="st2" width="25" height="25"/>
		<rect x="425" y="200" class="st2" width="25" height="25"/>
		<rect x="325" y="425" class="st2" width="25" height="25"/>
		<rect x="225" y="425" class="st2" width="25" height="25"/>
		<rect x="150" y="425" class="st2" width="25" height="25"/>
		<rect x="425" y="425" class="st2" width="25" height="25"/>
		<rect x="175" y="425" class="st2" width="25" height="25"/>
		<rect x="125" y="425" class="st2" width="25" height="25"/>
		<rect x="75" y="425" class="st2" width="25" height="25"/>
		<rect x="100" y="425" class="st2" width="25" height="25"/>
		<rect x="200" y="425" class="st2" width="25" height="25"/>
		<rect x="375" y="425" class="st2" width="25" height="25"/>
		<rect x="250" y="425" class="st2" width="25" height="25"/>
		<rect x="400" y="425" class="st2" width="25" height="25"/>
		<rect x="350" y="425" class="st2" width="25" height="25"/>
		<rect x="275" y="425" class="st2" width="25" height="25"/>
		<rect x="300" y="425" class="st2" width="25" height="25"/>
		<rect x="50" y="425" class="st2" width="25" height="25"/>
		<rect x="200" y="75" class="st2" width="25" height="25"/>
		<rect x="275" y="75" class="st2" width="25" height="25"/>
		<rect x="250" y="75" class="st2" width="25" height="25"/>
		<rect x="225" y="75" class="st2" width="25" height="25"/>
		<rect x="325" y="75" class="st2" width="25" height="25"/>
		<rect x="350" y="75" class="st2" width="25" height="25"/>
		<rect x="300" y="75" class="st2" width="25" height="25"/>
		<rect x="275" y="375" class="st2" width="25" height="25"/>
		<rect x="75" y="75" class="st2" width="25" height="25"/>
		<rect x="375" y="75" class="st2" width="25" height="25"/>
		<rect x="175" y="75" class="st2" width="25" height="25"/>
		<rect x="75" y="125" class="st2" width="25" height="25"/>
		<rect x="75" y="100" class="st2" width="25" height="25"/>
		<rect x="100" y="75" class="st2" width="25" height="25"/>
		<rect x="150" y="75" class="st2" width="25" height="25"/>
		<rect x="125" y="75" class="st2" width="25" height="25"/>
		<rect x="300" y="375" class="st2" width="25" height="25"/>
		<rect x="375" y="300" class="st2" width="25" height="25"/>
		<rect x="375" y="325" class="st2" width="25" height="25"/>
		<rect x="375" y="375" class="st2" width="25" height="25"/>
		<rect x="375" y="100" class="st2" width="25" height="25"/>
		<rect x="75" y="150" class="st2" width="25" height="25"/>
		<rect x="325" y="375" class="st2" width="25" height="25"/>
		<rect x="350" y="375" class="st2" width="25" height="25"/>
		<rect x="375" y="350" class="st2" width="25" height="25"/>
		<rect x="375" y="175" class="st2" width="25" height="25"/>
		<rect x="375" y="150" class="st2" width="25" height="25"/>
		<rect x="375" y="125" class="st2" width="25" height="25"/>
		<rect x="375" y="275" class="st2" width="25" height="25"/>
		<rect x="375" y="250" class="st2" width="25" height="25"/>
		<rect x="375" y="200" class="st2" width="25" height="25"/>
		<rect x="375" y="225" class="st2" width="25" height="25"/>
		<rect x="400" y="200" class="st2" width="25" height="25"/>
		<rect x="75" y="175" class="st2" width="25" height="25"/>
		<rect x="350" y="400" class="st2" width="25" height="25"/>
		<rect x="250" y="400" class="st2" width="25" height="25"/>
		<rect x="400" y="375" class="st2" width="25" height="25"/>
		<rect x="275" y="400" class="st2" width="25" height="25"/>
		<rect x="300" y="400" class="st2" width="25" height="25"/>
		<rect x="325" y="400" class="st2" width="25" height="25"/>
		<rect x="400" y="400" class="st2" width="25" height="25"/>
		<rect x="400" y="225" class="st2" width="25" height="25"/>
		<rect x="400" y="175" class="st2" width="25" height="25"/>
		<rect x="400" y="250" class="st2" width="25" height="25"/>
		<rect x="400" y="350" class="st2" width="25" height="25"/>
		<rect x="400" y="325" class="st2" width="25" height="25"/>
		<rect x="400" y="300" class="st2" width="25" height="25"/>
		<rect x="400" y="275" class="st2" width="25" height="25"/>
		<rect x="375" y="400" class="st2" width="25" height="25"/>
		<rect x="75" y="300" class="st2" width="25" height="25"/>
		<rect x="75" y="325" class="st2" width="25" height="25"/>
		<rect x="75" y="275" class="st2" width="25" height="25"/>
		<rect x="75" y="225" class="st2" width="25" height="25"/>
		<rect x="75" y="200" class="st2" width="25" height="25"/>
		<rect x="75" y="350" class="st2" width="25" height="25"/>
		<rect x="75" y="250" class="st2" width="25" height="25"/>
		<rect x="200" y="400" class="st2" width="25" height="25"/>
		<rect x="150" y="400" class="st2" width="25" height="25"/>
		<rect x="175" y="400" class="st2" width="25" height="25"/>
		<rect x="225" y="400" class="st2" width="25" height="25"/>
		<rect x="125" y="400" class="st2" width="25" height="25"/>
		<rect x="75" y="375" class="st2" width="25" height="25"/>
		<rect x="75" y="400" class="st2" width="25" height="25"/>
		<rect x="100" y="400" class="st2" width="25" height="25"/>
	</g>
	<g class="st1">
		<rect x="50" y="50" class="st3" width="400" height="400"/>
		<rect x="50" y="50" class="st3" width="50" height="50"/>
		<rect x="400" y="50" class="st3" width="50" height="50"/>
		<rect x="50" y="400" class="st3" width="50" height="50"/>
		<rect x="400" y="400" class="st3" width="50" height="50"/>
		<rect x="100" y="100" class="st3" width="150" height="150"/>
		<rect x="250" y="100" class="st3" width="150" height="150"/>
		<rect x="100" y="250" class="st3" width="150" height="150"/>
		<rect x="250" y="250" class="st3" width="150" height="150"/>
		<line class="st3" x1="50" y1="50" x2="450" y2="450"/>
		<line class="st3" x1="450" y1="50" x2="50" y2="450"/>
		<circle class="st3" cx="250" cy="250" r="150"/>
		<circle class="st3" cx="250" cy="250" r="200"/>
	</g>
</g>
<g id="Layer_2_1_" class="st0">
	<g class="st1">
		<g>
			<path d="M94.6,178.8c32.6,0,49.9,31.8,58.6,58.4c4.9,15.1,7.7,30.1,9.3,40.3c17.4-2.9,50.9-7.7,87.4-7.7
				c35.8,0,70.1,4.8,87.8,7.7c1.5-10.2,4.3-25.2,9.3-40.4c8.7-26.7,25.9-58.4,58.6-58.4c0.2,0,0.5,0,0.7,0v-0.5
				c0-57.1-71.8-103.3-156.5-103.3C150.2,74.9,94,121.2,94,178.2v0.5C94.1,178.8,94.4,178.8,94.6,178.8z"/>
			<path d="M368.5,405.9h-43.4v11c0,5,5.9,9.1,13.3,9.1h22.1c7.3,0,13.3-4.1,13.3-9.1v-11.2C372,405.8,370.3,405.9,368.5,405.9z"/>
			<path d="M131.5,405.9c-1.8,0-3.5-0.1-5.3-0.2v11.2c0,5,5.9,9.1,13.3,9.1h22.1c7.3,0,13.3-4.1,13.3-9.1v-11H131.5z"/>
		</g>
		<path d="M405.4,190.4c-49.6,0-57.8,100.8-57.8,100.8s-47.8-9.7-97.9-9.7c-51.4,0-97.4,9.7-97.4,9.7s-8.1-100.8-57.8-100.8
			C71.1,190.4,52,209.5,52,233c0,17.4,10.4,32.3,25.4,38.9V340c0,29.9,24.2,54.1,54.1,54.1h237.1c29.9,0,54.1-24.2,54.1-54.1v-68
			c14.9-6.6,25.4-21.6,25.4-38.9C448,209.5,428.9,190.4,405.4,190.4z"/>
	</g>
</g>
<g id="Layer_3" class="st0">
	<path class="st4" d="M81.7,392l49.4,52.5c0,0,37-46.4,44.5-52.9c7.3-6.5,21.4-10.9,39.7-10.9c18.2,0,44.1-0.6,50.4-1
		c6.3-0.5,81-34.7,97.3-41.2c16.2-6.5-6.7-25-38.7-13.7c-32,11.5-57.1,22.2-68.1,22.2c-11.1,0-44.9,0-54.5,0
		c-9.5,0,4.1-9.9,13.5-9.9c9.6,0,23.9,0,41.1,0c17,0,38.7-24.6,5.8-24.6c-33.1,0-53.7,0-67.6,0c-14,0-57.2,2.7-71.8,33.2L81.7,392z"
		/>
	<g id="Layer_4" class="st1">
		<path class="st5" d="M385.7,187.6c-2.9-4.5-8.2-7-14.2-7h-28.7c0.3-4.3,0.3-7.9,0.5-10.5c0-2.4-2.1-4.5-4.5-4.5H160.5
			c-2.4,0-4.5,2.1-4.5,4.5c0.2,19,5.1,94.6,66.2,112.9H165c-3.6,0-7.6,2.7-8.9,6.2l-1.7,4.6c-1.4,3.4,0.5,6.2,4.1,6.2h182.2
			c3.6,0,5.5-2.7,4.1-6.2l-1.7-4.6c-1.4-3.4-5.3-6.2-8.9-6.2h-54.6c20.8-6.5,34.8-20.1,44.3-35.9c39.5-1.2,56.5-28.5,63.2-44.8
			C388.9,197.2,388.4,191.9,385.7,187.6z M374.5,197.2c-6,14.9-18.4,32.4-43.8,36c5.7-13.6,8.8-27.6,10.5-39.3h30.2
			c1.7,0,2.7,0.7,3.3,1.2C375,195.7,375,196.3,374.5,197.2z"/>
		<path class="st5" d="M240.6,154.8c1.2,1.4,2.7,2.1,4.5,2.1c1.4,0,2.7-0.5,3.8-1.4c2.4-2.1,2.7-5.8,0.5-8.2
			c-0.2-0.2-15.4-18.4-5.7-30.7c13.2-16.6,5.1-30.2-0.9-35c-2.6-2.1-6.2-1.5-8.2,0.9s-1.5,6.2,0.9,8.1c1.4,1.2,7.9,7.7-0.9,18.7
			C218.8,129.1,239.8,153.8,240.6,154.8z"/>
		<path class="st5" d="M278.4,60.3c2.4-2.1,2.9-5.7,0.9-8.1c-2.1-2.6-5.7-2.9-8.2-0.9c-6,4.8-14.1,18.4-0.9,35
			c10,12.5-5.5,30.7-5.7,30.9c-2.1,2.4-1.9,6,0.5,8.2c1,1,2.4,1.4,3.8,1.4c1.5,0,3.3-0.7,4.5-2.1c0.9-1,21.8-25.6,6-45.6
			C270.3,68,276.9,61.5,278.4,60.3z"/>
	</g>
</g>
<g id="Layer_4_1_" class="st0">
	<path class="st4" d="M81.7,392l49.4,52.5c0,0,37-46.4,44.5-52.9c7.3-6.5,21.4-10.9,39.7-10.9c18.2,0,44.1-0.6,50.4-1
		c6.3-0.5,81-34.7,97.3-41.2c16.2-6.5-6.7-25-38.7-13.7c-32,11.5-57.1,22.2-68.1,22.2c-11.1,0-44.9,0-54.5,0
		c-9.5,0,4.1-9.9,13.5-9.9c9.6,0,23.9,0,41.1,0c17,0,38.7-24.6,5.8-24.6c-33.1,0-53.7,0-67.6,0c-14,0-57.2,2.7-71.8,33.2L81.7,392z"
		/>
	<g class="st1">
		<ellipse class="st5" cx="251" cy="229.2" rx="36.5" ry="36.7"/>
		<path class="st5" d="M317.5,150.4h-23l-5.2-14.9c-1.5-4.4-6.6-8-11.2-8H222c-4.7,0-9.7,3.6-11.2,8l-5.2,14.9h-23
			c-19.5,0-35.3,18.1-35.3,40.4v68.5c0,22.3,15.8,40.4,35.3,40.4h135c19.5,0,35.3-18.1,35.3-40.4v-68.5
			C352.8,168.5,337,150.4,317.5,150.4z M181.4,185.7c-6,0-10.9-4.6-10.9-10.4c0-5.7,4.9-10.4,10.9-10.4s10.9,4.6,10.9,10.4
			C192.3,181.1,187.4,185.7,181.4,185.7z M251,283c-29.4,0-53.4-24.1-53.4-53.8s23.9-53.8,53.4-53.8c29.4,0,53.4,24.1,53.4,53.8
			C304.4,258.8,280.4,283,251,283z"/>
	</g>
</g>
<g id="Layer_5" class="st0">
	<g class="st1">
		<path class="st5" d="M424.4,148.1l-6.7-45.2C416,91.6,406,83,394.6,83c-1.2,0-2.3,0.1-3.5,0.3L87,128.6
			c-6.2,0.9-11.6,4.2-15.4,9.2c-3.7,5-5.3,11.2-4.3,17.4l6.7,45.2c0.2,1.6,1.1,3,2.2,4c-0.9,1.1-1.5,2.6-1.5,4.2v177.2
			c0,12.9,10.5,23.4,23.4,23.4h307.5c12.9,0,23.4-10.5,23.4-23.4V208.6c0-3.7-3-6.7-6.7-6.7h-313l309.5-46.2
			C422.4,155.2,425,151.8,424.4,148.1z M251.6,117.6l55.7,41.3l-63.1,9.4L188.5,127L251.6,117.6z M88.9,141.9l50.3-7.5l55.7,41.2
			l-63.1,9.4l-50.5-37.4c0.3-0.6,0.6-1.2,1.1-1.8C83.9,143.7,86.3,142.3,88.9,141.9z M309.2,318l-79.5,45.9
			c-14.1,8.2-25.7,1.5-25.7-14.9v-91.9c0-16.3,11.6-23,25.7-14.9l79.5,45.9C323.4,296.4,323.4,309.8,309.2,318z M356.6,151.5
			l-55.7-41.2l63.1-9.4l44.8,33.2l1.4,9.5L356.6,151.5z"/>
	</g>
</g>
<g id="Layer_6" class="st0">
	<g class="st1">
		<circle cx="104.5" cy="158.7" r="21.2"/>
		<path d="M178.7,254v-21.2c-16.3,0.2-32.7-7.9-43.1-19.4l-13.7-15.2c-1.8-2-4-3.6-6.5-4.8c-0.1,0-0.1-0.1-0.2-0.1h-0.1
			c-3.7-2.1-7.9-3.2-12.6-2.8c-11.1,1-19.2,10.8-19.2,21.9V275c0,11.7,9.5,21.2,21.2,21.2h53V379h21.2v-87.9
			c0-11.7-9.5-21.2-21.2-21.2h-31.8v-36.6C139.4,244.7,160.1,253.9,178.7,254z"/>
	</g>
	<g class="st1">
		<rect x="57.3" y="196.7" width="17.8" height="182.3"/>
		<rect x="129.7" y="305.6" width="17.8" height="73.4"/>
		<rect x="69.7" y="305.6" width="77.7" height="17.8"/>
	</g>
	<g class="st1">
		<circle cx="395.5" cy="158.7" r="21.2"/>
		<path d="M374.3,233.4V270h-31.8c-11.7,0-21.2,9.5-21.2,21.2V379h21.2v-82.6h53c11.7,0,21.2-9.5,21.2-21.2v-62.6
			c0-11.1-8.1-21-19.2-21.9c-4.7-0.4-8.9,0.6-12.6,2.8h-0.1c-0.1,0-0.1,0.1-0.2,0.1c-2.4,1.2-4.7,2.8-6.5,4.8l-13.7,15.2
			C354,225,337.6,233.2,321.3,233v21C339.9,253.9,360.6,244.7,374.3,233.4z"/>
	</g>
	<g class="st1">
		<rect x="424.9" y="196.7" width="17.8" height="182.3"/>
		<rect x="352.5" y="305.6" width="17.8" height="73.4"/>
		<rect x="352.5" y="305.6" width="77.7" height="17.8"/>
	</g>
	<rect x="187.5" y="253.6" class="st1" width="125.8" height="17.8"/>
	<polygon class="st1" points="241.5,253.6 259.3,253.6 262.5,379 237.5,379 	"/>
</g>
<g id="Layer_7" class="st0">
	<path class="st4" d="M326.9,76.8H173.1c-12.7,0-23.1,10.4-23.1,23.1v302c0,12.7,10.4,23.1,23.1,23.1h153.8
		c12.7,0,23.1-10.4,23.1-23.1v-302C350,87.2,339.6,76.8,326.9,76.8z M275,404.3c0,2.3-1.9,4.2-4.2,4.2h-41.7c-2.3,0-4.2-1.9-4.2-4.2
		v-8.7c0-2.3,1.9-4.2,4.2-4.2h41.7c2.3,0,4.2,1.9,4.2,4.2V404.3z M325,363.1c0,6.6-5.3,11.9-11.9,11.9H186.9
		c-6.6,0-11.9-5.3-11.9-11.9V108.7c0-4.8,3.9-8.7,8.7-8.7H313c6.6,0,11.9,5.3,11.9,11.9v251.2H325z"/>
	<polygon class="st4" points="235.6,337.5 235.6,263.9 208.8,263.9 262.4,163.5 262.4,237.1 289.2,237.1 	"/>
</g>
<g id="Layer_8" class="st0">
	<g id="XMLID_15184_" class="st1">
		<path id="XMLID_213_" class="st5" d="M417.1,75.5H82.9C64.8,75.5,50,90.3,50,108.4v219.2c0,18.1,14.8,32.9,32.9,32.9h334.2
			c18.1,0,32.9-14.8,32.9-32.9V108.4C450,90.3,435.2,75.5,417.1,75.5z M278.8,327.5h-57.5v-12.9h57.5V327.5z M422.6,300.1H77.4
			V108.4h345.2V300.1z"/>
		<path id="XMLID_212_" class="st5" d="M296.8,390.2L282,370.5h-64l-14.8,19.7h-51.7v6.6c0,7.2,6.7,13.1,14.8,13.1h167.3
			c8.1,0,14.8-5.9,14.8-13.1v-6.6H296.8z"/>
	</g>
</g>
<g>
	<g transform="translate(-53 -77)">
		<g>
			<g>
				<path id="_x34_0zub" class="st6" d="M258.8,197.9c-9.8,17-23.2,40-2.9,73.7c3.1,5.2,8.7,8.2,14.4,8.2c2.9,0,5.9-0.8,8.7-2.5
					c7.8-4.7,10.5-15,5.7-23c-10-16.7-5.6-24.2,3.3-39.5l3.9-6.9c17.3-31.7,8-52.9-7-79.4c-4.6-8-14.9-10.9-22.9-6.4
					s-10.9,14.9-6.4,22.9c13.4,23.5,15.5,30.7,6.7,46.7C261.2,193.8,260.1,196,258.8,197.9"/>
			</g>
		</g>
		<g>
			<g>
				<path id="_x34_0zuc" class="st6" d="M320.8,217c-6.9,11.8-17.2,29.6-2,54.7c3.1,5.2,8.7,8.2,14.4,8.2c2.9,0,5.9-0.8,8.7-2.5
					c7.8-4.7,10.5-15,5.7-23c-4.9-8.2-3.6-10.6,2.3-20.6c0.8-1.5,1.8-3.1,2.6-4.7c13.9-25.3,4.1-42.8-4.7-58.2
					c-4.6-8-14.7-10.9-22.9-6.4c-8,4.6-10.9,14.7-6.4,22.9c8.8,15.5,8.7,17.8,4.4,25.6C322.3,214.4,321.5,215.7,320.8,217"/>
			</g>
		</g>
		<g>
			<g>
				<defs>
					<rect id="SVGID_1_" x="195" y="300.2" width="214.3" height="234.2"/>
				</defs>
				<clipPath id="SVGID_2_">
					<use xlink:href="#SVGID_1_"  style="overflow:visible;"/>
				</clipPath>
				<g class="st7">
					<g>
						<path id="_x34_0zue" class="st6" d="M394.7,325c8.1,0,14.7,6.5,14.6,14.7c0,8.2-6.5,14.7-14.7,14.7h-6.2l-20.7,165.3
							c-1.2,8.3-8.2,14.7-16.7,14.7h-97.7c-8.5,0-15.7-6.4-16.7-14.7l-20.7-165.3h-6.2c-8.2,0-14.7-6.5-14.7-14.7
							s6.5-14.7,14.7-14.7c0,0,14.7-24.8,22.9-24.8h139.2C380,300.2,394.7,325,394.7,325L394.7,325z M354.5,356.4H250.1l18.1,144.4
							h68.1L354.5,356.4z"/>
					</g>
				</g>
			</g>
		</g>
	</g>
</g>
</svg>
