<?xml version="1.0" encoding="utf-8"?>
<!-- Generator: Adobe Illustrator 22.0.1, SVG Export Plug-In . SVG Version: 6.00 Build 0)  -->
<svg version="1.1" id="Layer_3" xmlns="http://www.w3.org/2000/svg" xmlns:xlink="http://www.w3.org/1999/xlink" x="0px" y="0px"
	 viewBox="0 0 500 500" style="enable-background:new 0 0 500 500;" xml:space="preserve">
<style type="text/css">
	.st0{fill:#6C6C6C;}
</style>
<g>
	<path class="st0" d="M436.7,331.2v-21.2c0-1.8-0.7-3.5-2-4.7l-240-240c-2.6-2.6-6.8-2.6-9.4,0c-2.6,2.6-2.6,6.8,0,9.4l238,238v17.2
		H70c-11,0-20,9-20,20v53.3c0,11,9,20,20,20h6.7v6.7c0,3.7,3,6.7,6.7,6.7h333.3c3.7,0,6.7-3,6.7-6.7v-6.7h6.7c11,0,20-9,20-20v-53.3
		C450,341.3,444.4,333.9,436.7,331.2z M104,396.6c-11,0-20-9-20-20c0-11,9-20,20-20c11,0,20,9,20,20C124,387.6,115,396.6,104,396.6z
		"/>
</g>
</svg>
