<?xml version="1.0" encoding="utf-8"?>
<!-- Generator: Adobe Illustrator 22.1.0, SVG Export Plug-In . SVG Version: 6.00 Build 0)  -->
<svg version="1.1" id="Layer_2" xmlns="http://www.w3.org/2000/svg" xmlns:xlink="http://www.w3.org/1999/xlink" x="0px" y="0px"
	 viewBox="0 0 500 500" style="enable-background:new 0 0 500 500;" xml:space="preserve">
<style type="text/css">
	.st0{fill:#6C6C6C;}
</style>
<path class="st0" d="M438.9,202.8c7.3,0,11.1-2,11.1-5.2c0-1.5-0.8-3.2-2.6-5.1c-1.1-1.1-2.4-2.3-4.1-3.5L268.8,61
	c-10.3-7.6-27.3-7.6-37.7,0L56.6,189c-4.5,3.3-6.6,6.3-6.6,8.6c0,1,0.4,1.8,1.1,2.6c1.6,1.6,5,2.6,10,2.6h35.5V356h-5.5
	c-8.9,0-16.2,7.3-16.2,16.2v18.6h-7.1c-8.9,0-16.2,7.3-16.2,16.2v21.5c0,9,7.3,16.2,16.2,16.2h362.8c9,0,16.2-7.3,16.2-16.2V407
	c0-8.9-7.3-16.2-16.2-16.2h-7.1v-18.6c0-8.9-7.3-16.2-16.2-16.2h-5.5V202.8H438.9z M182.4,356h-37.9V202.8h37.9V356z M268.1,356
	h-37.9V202.8h37.9V356z M250,151.9c-11.2,0-20.2-9-20.2-20.2c0-11.2,9-20.2,20.2-20.2c11.2,0,20.2,9,20.2,20.2
	C270.2,142.9,261.2,151.9,250,151.9z M353.9,356H316V202.8h37.9V356z"/>
</svg>
