<?xml version="1.0" encoding="utf-8"?>
<!-- Generator: Adobe Illustrator 22.0.1, SVG Export Plug-In . SVG Version: 6.00 Build 0)  -->
<svg version="1.1" id="Layer_1" xmlns="http://www.w3.org/2000/svg" xmlns:xlink="http://www.w3.org/1999/xlink" x="0px" y="0px"
	 viewBox="0 0 400 400" style="enable-background:new 0 0 400 400;" xml:space="preserve">
<style type="text/css">
	.st0{fill:#6C6C6C;}
</style>
<g>
	<circle class="st0" cx="119.1" cy="120.2" r="50.3"/>
	<path class="st0" d="M214.5,342.1c-15.6,0-28.5-11.7-30.2-27.2c-1.7-16,9-32.3,24.3-37.2l11.3-3.6c2.1-0.7,4.1-1.1,6.2-1.3v-35.8
		l-10.9,3.6l-88.5,28.9h-15.2l-88.4-28.9l-10.9-3.6v35.8c2.1,0.2,4.2,0.6,6.2,1.3l11.3,3.6C45,282.6,55.7,299,54,315
		c-1.6,15.5-14.6,27.2-30.2,27.2c-1.2,0-2.3-0.1-3.5-0.2l-8.1-0.9v19.2v7.5l99.3,32.4h15.3l99.3-32.4v-7.5V341l-8.1,0.9
		C216.8,342.1,215.6,342.1,214.5,342.1z"/>
	<path class="st0" d="M119.1,247.8c0,0,4.4-7.2,37.2-13.1c21.5-3.8,42.3-9.8,55.5-13.9c-42.3-35.9-143-35.9-185.4,0
		c13.2,4.1,34,10,55.5,13.9C114.8,240.6,119.1,247.8,119.1,247.8z"/>
	<path class="st0" d="M20.5,324.5c0.5,0.1,1.1,0.1,1.6,0.1c7.1,0,13.3-5.4,14-12.6c0.8-7.8-4.6-16.1-12.1-18.5l-7.9-2.5
		c-0.7-0.2-1.5-0.4-2.2-0.5c-0.6-0.1-1.2-0.1-1.8-0.1c-5.7,0-10.4,4.1-11.1,10.5l-0.7,7.1c-0.8,7.8,4.9,14.9,12.7,15.8l1,0.1
		L20.5,324.5z"/>
	<path class="st0" d="M237.9,307.8l-0.7-7.1c-0.7-6.4-5.3-10.5-11.1-10.5c-0.6,0-1.2,0.1-1.8,0.1c-0.7,0.1-1.4,0.3-2.2,0.5l-7.9,2.5
		c-7.5,2.4-12.9,10.7-12.1,18.5c0.8,7.3,6.9,12.6,14,12.6c0.5,0,1.1,0,1.6-0.1l6.5-0.7l1-0.1C233,322.7,238.7,315.6,237.9,307.8z"/>
</g>
<g>
	<path class="st0" d="M220.9,43c-4.9,0-8.9,4-8.9,8.9v38.7c0,4.9,4,8.9,8.9,8.9h19.9c4.9,0,11.7,2.8,15.3,6.4l34.5,34.5
		c3.5,3.5,6.4,2.3,6.4-2.6V4.7c0-4.9-2.8-6.1-6.4-2.6l-34.5,34.5c-3.5,3.5-10.4,6.4-15.3,6.4L220.9,43L220.9,43z"/>
</g>
<path id="XMLID_12313_" class="st0" d="M375.8,71.9L397,50.7c3-3,3-7.9,0-10.8l-8.2-8.2c-3-3-7.9-3-10.8,0l-21.2,21.2l-20.7-20.7
	c-3-3-7.9-3-10.8,0l-6.9,6.9c-3,3-3,7.9,0,10.8l20.6,20.6l-21.2,21.2c-3,3-3,7.9,0,10.8l8.2,8.2c3,3,7.9,3,10.8,0l21.2-21.2
	l20.6,20.6c3,3,7.9,3,10.8,0l6.9-6.9c3-3,3-7.9,0-10.8L375.8,71.9z"/>
</svg>
