<?xml version="1.0" encoding="UTF-8" ?>
<!DOCTYPE svg PUBLIC "-//W3C//DTD SVG 1.1//EN" "http://www.w3.org/Graphics/SVG/1.1/DTD/svg11.dtd">
<svg width="1542pt" height="388pt" viewBox="0 0 1542 388" version="1.1" xmlns="http://www.w3.org/2000/svg">
<g id="#2d619eff">
<path fill="#2d619e" opacity="1.00" d=" M 132.59 25.56 C 158.14 10.03 188.22 2.53 218.03 3.14 C 228.14 3.60 238.13 5.36 248.05 7.28 C 247.48 12.60 246.09 17.78 244.80 22.96 C 233.55 21.51 222.42 18.85 211.02 18.94 C 181.36 17.99 151.72 27.55 127.57 44.66 C 103.64 61.75 84.56 85.92 74.85 113.79 C 66.97 135.91 64.28 159.83 66.89 183.15 C 67.26 186.44 67.96 189.71 67.94 193.04 C 65.45 194.00 62.73 193.68 60.12 193.85 C 53.09 160.35 57.28 124.67 71.74 93.66 C 84.86 65.75 106.03 41.41 132.59 25.56 Z" />
<path fill="#2d619e" opacity="1.00" d=" M 264.41 12.75 C 269.12 13.94 273.56 15.96 277.94 18.02 C 293.19 25.22 307.16 35.03 319.30 46.72 C 321.33 48.71 323.49 50.62 325.07 52.99 C 321.51 57.63 317.06 61.58 312.30 64.95 C 297.98 48.29 278.90 36.47 258.88 27.86 C 260.62 22.79 262.63 17.81 264.41 12.75 Z" />
<path fill="#2d619e" opacity="1.00" d=" M 191.47 37.78 C 207.64 36.09 224.20 36.32 240.05 40.23 C 239.69 46.91 238.01 53.41 235.89 59.72 C 215.03 54.81 192.62 56.51 172.86 64.87 C 146.70 75.99 125.64 98.31 115.94 125.02 C 111.07 137.76 109.61 151.47 109.40 165.01 C 109.56 170.98 110.46 176.90 110.95 182.85 C 102.55 185.43 93.91 187.25 85.15 188.05 C 84.63 180.68 83.30 173.38 83.04 165.99 C 82.66 135.38 93.70 104.85 113.26 81.34 C 132.73 57.83 161.15 41.74 191.47 37.78 Z" />
<path fill="#2d619e" opacity="1.00" d=" M 253.11 44.95 C 267.92 50.51 281.39 59.26 293.09 69.85 C 295.53 72.10 298.15 74.25 300.07 76.99 C 295.89 81.31 292.44 86.87 286.54 89.03 C 275.55 77.43 261.68 68.93 247.00 62.81 C 248.74 56.76 250.67 50.76 253.11 44.95 Z" />
<path fill="#2d619e" opacity="1.00" d=" M 199.41 73.46 C 206.14 67.80 216.35 66.61 224.10 70.84 C 231.29 74.51 236.27 81.84 237.28 89.83 C 263.84 95.49 288.82 113.57 298.32 139.62 C 299.43 142.47 300.25 145.52 299.83 148.60 C 296.87 139.25 292.93 130.07 286.49 122.54 C 275.92 109.65 261.15 100.56 245.28 95.70 C 242.62 94.93 239.95 93.99 237.14 94.03 C 235.58 97.02 235.17 100.49 233.37 103.38 C 226.88 114.33 210.31 117.69 200.25 109.76 C 195.15 105.96 192.21 100.04 190.65 94.00 C 179.43 95.54 168.91 100.31 159.57 106.58 C 153.50 110.72 147.43 115.06 142.74 120.77 C 136.16 128.56 131.80 137.90 128.13 147.33 C 130.53 132.98 138.70 120.08 149.50 110.53 C 161.10 100.20 175.51 93.24 190.62 89.85 C 191.50 83.57 194.41 77.48 199.41 73.46 M 207.94 78.96 C 209.28 78.98 210.63 79.00 211.97 79.02 C 211.94 77.14 211.93 75.26 211.81 73.39 C 209.75 74.61 208.95 76.92 207.94 78.96 M 216.17 73.35 C 216.04 75.22 215.99 77.10 215.93 78.97 C 217.28 78.98 218.62 78.99 219.97 79.00 C 219.06 76.89 218.21 74.64 216.17 73.35 M 221.59 74.82 C 222.03 77.94 224.45 79.77 227.60 79.21 C 225.81 77.47 223.76 76.04 221.59 74.82 M 200.57 79.17 C 202.89 79.30 205.22 78.53 205.10 75.78 C 203.39 76.63 201.80 77.69 200.57 79.17 M 206.97 81.87 C 206.43 84.41 205.04 87.18 206.27 89.72 C 207.49 91.75 210.05 90.44 211.87 90.28 C 211.92 87.31 212.89 84.15 211.64 81.31 C 210.06 81.18 208.51 81.58 206.97 81.87 M 216.27 81.47 C 215.93 84.05 215.44 86.62 215.34 89.22 C 217.14 90.25 220.28 92.07 221.83 89.75 C 223.74 86.06 220.99 79.94 216.27 81.47 M 198.19 81.87 C 197.24 84.38 195.54 86.99 196.25 89.77 C 197.44 91.66 199.92 90.29 201.67 90.20 C 202.29 87.30 202.87 84.40 203.21 81.46 C 201.54 81.64 199.85 81.56 198.19 81.87 M 224.90 81.55 C 225.00 84.13 224.45 86.94 225.65 89.34 C 226.86 91.35 229.44 90.25 231.30 90.25 C 231.02 87.94 231.25 85.34 229.74 83.40 C 228.72 81.73 226.54 82.02 224.90 81.55 M 195.73 92.77 C 196.38 95.17 196.46 97.98 198.26 99.89 C 199.58 101.17 201.53 100.31 203.13 100.31 C 202.67 97.98 202.54 95.53 201.54 93.35 C 200.30 91.16 197.62 92.59 195.73 92.77 M 205.74 92.79 C 205.90 94.97 205.43 97.42 206.66 99.36 C 207.85 101.26 210.27 100.34 212.07 100.29 C 212.01 97.97 212.43 95.54 211.67 93.29 C 210.42 91.10 207.65 92.64 205.74 92.79 M 215.98 92.70 C 216.00 95.25 216.00 97.80 216.00 100.36 C 217.19 100.47 218.39 100.64 219.60 100.58 C 222.76 99.39 223.46 94.26 220.72 92.29 C 219.21 91.57 217.53 92.50 215.98 92.70 M 224.96 99.91 C 226.00 101.93 228.35 100.37 229.97 100.14 C 230.43 97.58 231.92 94.81 230.66 92.26 C 226.36 91.01 222.80 96.19 224.96 99.91 M 200.52 103.81 C 202.30 105.29 204.28 106.53 206.43 107.40 C 205.70 104.58 203.24 103.56 200.52 103.81 M 208.01 103.97 C 208.91 106.08 209.76 108.35 211.82 109.62 C 211.94 107.75 211.99 105.87 212.04 103.99 C 210.69 103.98 209.35 103.97 208.01 103.97 M 215.93 103.99 C 215.99 105.87 216.04 107.75 216.17 109.63 C 218.20 108.33 219.06 106.08 219.97 103.97 C 218.62 103.97 217.28 103.98 215.93 103.99 M 223.18 104.03 C 222.79 105.16 222.41 106.29 222.05 107.43 C 223.84 106.38 225.59 105.27 227.31 104.12 C 225.93 104.08 224.55 104.05 223.18 104.03 Z" />
<path fill="#2d619e" opacity="1.00" d=" M 135.00 147.99 C 135.01 144.83 135.45 140.23 139.08 139.23 C 149.47 139.70 159.96 137.62 170.26 139.69 C 171.76 140.09 173.79 140.26 174.36 142.02 C 175.10 144.36 173.46 147.24 170.93 147.44 C 162.67 148.65 154.30 147.68 145.99 147.99 C 145.91 152.00 145.92 156.03 146.01 160.05 C 154.67 160.58 163.77 158.33 172.00 162.01 C 171.61 163.87 172.67 166.52 170.77 167.73 C 162.55 168.35 154.28 167.79 146.04 168.01 C 146.02 172.99 146.03 177.98 146.03 182.96 C 154.04 183.10 162.05 182.81 170.05 183.04 C 173.29 182.69 176.17 186.52 174.42 189.44 C 173.40 191.98 170.26 191.91 167.99 191.99 C 159.27 192.00 150.56 192.06 141.85 191.99 C 139.22 192.14 135.95 190.78 135.66 187.83 C 134.23 174.60 135.26 161.26 135.00 147.99 Z" />
<path fill="#2d619e" opacity="1.00" d=" M 193.43 139.60 C 198.71 138.52 204.29 138.32 209.54 139.70 C 214.49 141.03 219.04 144.86 220.28 149.95 C 221.08 153.76 217.08 158.00 213.29 155.91 C 210.73 153.27 209.67 149.38 206.57 147.24 C 201.97 144.53 195.39 145.93 192.23 150.21 C 190.99 153.35 193.60 156.42 196.34 157.62 C 200.06 159.20 204.15 159.63 208.00 160.82 C 212.95 162.12 218.45 164.24 220.72 169.23 C 224.51 176.48 221.21 186.25 213.97 189.93 C 206.59 193.64 197.34 193.83 190.00 189.95 C 185.41 187.57 182.14 183.01 181.12 177.98 C 180.75 174.32 184.71 170.84 188.17 172.81 C 191.42 175.46 191.35 180.55 194.91 182.97 C 199.32 186.44 205.88 185.42 209.92 181.85 C 214.19 179.02 211.66 171.82 207.13 170.76 C 199.29 168.12 190.02 167.27 184.23 160.72 C 178.76 152.99 184.74 141.60 193.43 139.60 Z" />
<path fill="#2d619e" opacity="1.00" d=" M 267.38 139.61 C 272.69 138.52 278.30 138.31 283.57 139.71 C 288.51 141.05 293.08 144.89 294.28 149.99 C 295.04 153.78 291.07 158.00 287.29 155.91 C 284.60 153.13 283.52 148.92 280.04 146.89 C 276.71 145.15 272.62 145.79 269.36 147.37 C 266.52 148.80 264.83 153.22 267.31 155.68 C 274.94 160.66 285.15 159.76 292.31 165.66 C 298.95 172.19 297.07 185.40 288.62 189.57 C 280.20 194.28 268.80 194.00 261.17 187.83 C 258.86 185.81 256.32 183.34 256.31 180.04 C 256.18 177.49 254.88 173.32 258.43 172.61 C 262.81 170.86 264.59 175.99 265.93 179.06 C 268.12 184.79 275.66 186.62 280.81 183.85 C 283.46 182.47 286.59 180.35 286.58 177.00 C 286.24 173.59 283.17 170.97 279.90 170.40 C 272.92 168.49 265.41 167.02 259.66 162.33 C 256.16 158.90 256.68 153.42 257.14 148.96 C 258.77 144.47 262.76 140.84 267.38 139.61 Z" />
<path fill="#2d619e" opacity="1.00" d=" M 234.04 139.84 C 236.43 139.85 239.24 139.11 241.28 140.77 C 242.84 141.99 242.69 144.14 242.80 145.91 C 243.14 159.30 243.19 172.71 242.74 186.11 C 242.79 188.39 241.45 190.50 239.68 191.83 C 237.68 193.23 235.06 191.96 233.39 190.62 C 231.30 188.29 232.08 184.90 231.96 182.05 C 231.88 170.03 232.22 157.99 231.72 145.97 C 231.77 143.73 233.10 141.80 234.04 139.84 Z" />
<path fill="#2d619e" opacity="1.00" d=" M 314.19 160.02 C 320.79 159.94 327.40 159.91 334.01 160.02 C 334.39 169.08 333.60 178.17 331.75 187.04 C 324.99 186.53 318.51 184.52 311.97 182.87 C 312.60 175.24 313.79 167.67 314.19 160.02 Z" />
<path fill="#2d619e" opacity="1.00" d=" M 351.11 159.99 C 356.45 159.92 361.79 159.92 367.13 160.02 C 367.21 166.36 365.67 172.59 365.87 178.94 C 368.89 179.01 372.38 178.31 374.64 180.88 C 374.02 181.29 372.79 182.13 372.17 182.54 C 372.97 183.05 373.74 183.60 374.50 184.18 C 373.12 185.18 371.90 186.75 370.05 186.78 C 368.16 186.69 366.45 185.81 364.70 185.19 C 363.87 188.39 363.47 191.66 362.98 194.92 C 358.32 193.89 353.68 192.81 349.03 191.75 C 349.64 181.16 351.58 170.64 351.11 159.99 Z" />
<path fill="#2d619e" opacity="1.00" d=" M 45.87 184.64 C 46.54 182.77 47.29 180.93 48.08 179.11 C 50.87 178.02 54.51 178.54 55.50 181.74 C 53.31 182.38 51.10 182.91 48.87 183.39 C 48.96 183.66 49.14 184.19 49.22 184.46 C 51.38 183.96 53.54 183.50 55.74 183.28 C 54.60 188.15 48.67 187.62 45.87 184.64 Z" />
<path fill="#2d619e" opacity="1.00" d=" M 37.49 186.24 C 40.39 184.82 43.56 184.86 46.49 186.19 C 45.37 190.57 38.75 190.47 37.49 186.24 Z" />
<path fill="#2d619e" opacity="1.00" d=" M 372.50 187.59 C 374.32 185.66 376.79 184.04 379.46 185.49 C 383.89 186.89 381.14 194.25 376.99 193.57 C 374.43 193.84 372.98 191.61 372.42 189.45 C 374.92 189.46 377.42 189.66 379.92 189.94 L 379.99 189.27 C 377.39 189.25 374.70 189.13 372.50 187.59 Z" />
<path fill="#2d619e" opacity="1.00" d=" M 37.76 189.95 C 40.71 189.85 43.66 189.86 46.60 190.11 C 45.72 192.77 43.49 193.32 40.94 192.94 C 39.98 193.66 39.51 194.70 39.53 196.03 C 37.65 196.53 35.76 196.97 33.87 197.40 C 33.96 197.67 34.14 198.20 34.23 198.47 C 36.36 197.97 38.49 197.51 40.66 197.20 C 39.65 202.47 33.04 201.53 30.45 198.13 C 30.98 197.71 32.04 196.87 32.57 196.45 C 32.39 195.59 32.04 193.87 31.86 193.02 C 33.79 192.32 38.19 194.58 38.65 191.95 C 38.43 191.45 37.98 190.45 37.76 189.95 Z" />
<path fill="#2d619e" opacity="1.00" d=" M 380.04 193.60 C 382.99 192.21 387.34 191.99 388.50 195.74 C 386.31 196.38 384.09 196.91 381.87 197.39 C 381.96 197.66 382.13 198.19 382.22 198.46 C 384.36 197.97 386.51 197.51 388.71 197.23 C 387.56 202.48 381.10 201.47 378.40 198.17 C 378.93 197.75 379.99 196.92 380.52 196.50 C 380.40 195.77 380.16 194.32 380.04 193.60 Z" />
<path fill="#2d619e" opacity="1.00" d=" M 20.43 202.60 C 24.03 200.99 29.41 199.36 32.40 202.73 C 34.45 209.71 21.65 211.36 20.51 204.79 C 23.56 204.85 26.67 207.15 29.65 205.74 C 26.55 204.79 23.28 204.23 20.43 202.60 Z" />
<path fill="#2d619e" opacity="1.00" d=" M 64.75 210.08 C 65.71 206.84 64.06 203.02 66.65 200.35 C 67.16 205.40 67.14 210.50 66.78 215.56 C 65.44 214.04 63.89 212.27 64.75 210.08 Z" />
<path fill="#2d619e" opacity="1.00" d=" M 175.99 201.01 C 176.48 201.01 177.47 201.00 177.96 201.00 C 178.03 205.32 178.08 209.64 177.98 213.96 C 177.49 213.97 176.51 213.99 176.02 214.00 C 175.93 209.67 175.89 205.34 175.99 201.01 Z" />
<path fill="#2d619e" opacity="1.00" d=" M 192.33 200.70 C 193.19 201.13 194.06 201.55 194.92 202.00 C 193.62 203.02 192.28 204.15 193.99 205.62 C 193.24 208.65 193.94 212.29 191.53 214.66 C 191.28 211.55 191.18 208.35 189.71 205.52 C 190.60 203.92 191.49 202.32 192.33 200.70 Z" />
<path fill="#2d619e" opacity="1.00" d=" M 238.34 200.41 C 238.75 200.81 239.56 201.61 239.97 202.01 C 240.94 206.47 240.73 211.13 240.07 215.62 C 236.61 213.54 238.60 209.45 237.34 206.35 C 236.88 208.92 236.90 211.55 236.81 214.16 C 233.76 214.75 229.62 215.38 227.88 212.08 C 225.98 209.54 228.57 207.08 230.01 205.12 C 232.58 205.22 235.15 205.28 237.73 205.17 C 237.91 203.58 238.11 201.99 238.34 200.41 M 229.78 211.98 C 231.28 211.98 232.79 211.97 234.29 211.96 C 233.88 210.31 234.20 208.21 232.74 207.02 C 229.70 206.37 230.04 210.05 229.78 211.98 Z" />
<path fill="#2d619e" opacity="1.00" d=" M 289.46 201.57 C 292.28 200.92 296.26 200.65 297.65 203.85 C 295.06 203.57 292.50 203.17 289.92 202.89 C 289.93 203.57 289.95 204.94 289.97 205.63 C 292.68 206.56 296.75 206.66 297.64 210.04 C 297.87 213.65 293.53 215.48 290.52 214.48 C 288.56 214.10 287.55 212.24 286.44 210.81 C 288.36 211.39 290.22 212.22 292.17 212.73 C 293.79 212.36 295.14 211.33 296.57 210.54 C 294.12 209.10 291.31 208.48 288.80 207.21 C 286.71 205.71 287.01 202.48 289.46 201.57 Z" />
<path fill="#2d619e" opacity="1.00" d=" M 310.55 206.91 C 310.64 204.65 309.97 201.31 312.79 200.51 C 313.70 205.49 313.94 210.62 313.04 215.62 C 310.40 213.54 310.92 209.87 310.55 206.91 Z" />
<path fill="#2d619e" opacity="1.00" d=" M 386.40 203.71 C 385.14 201.43 388.32 200.65 390.01 200.84 C 392.44 200.70 396.77 200.79 396.62 204.20 C 396.35 210.41 385.88 210.31 384.38 204.83 C 387.48 204.85 390.61 207.03 393.66 205.78 C 391.27 204.97 388.77 204.57 386.40 203.71 Z" />
<path fill="#2d619e" opacity="1.00" d=" M 69.16 204.64 C 71.22 204.55 73.70 203.91 75.29 205.65 C 77.55 207.84 77.53 211.28 77.05 214.17 C 73.05 214.49 76.06 209.08 73.97 207.02 C 69.32 206.75 71.35 212.77 70.76 215.59 C 67.61 212.72 69.00 208.33 69.16 204.64 Z" />
<path fill="#2d619e" opacity="1.00" d=" M 100.16 204.66 C 102.22 204.58 104.76 203.84 106.32 205.66 C 108.72 208.40 108.21 212.35 107.87 215.69 C 105.54 213.17 106.07 209.54 105.16 206.46 C 100.63 207.31 102.22 212.29 101.71 215.58 C 98.62 212.68 99.99 208.35 100.16 204.66 Z" />
<path fill="#2d619e" opacity="1.00" d=" M 159.99 204.59 C 161.67 204.50 163.57 203.77 165.10 204.82 C 168.66 207.16 169.41 212.89 165.94 215.67 C 165.56 212.81 166.71 209.53 165.03 206.97 C 163.70 206.82 162.21 207.38 162.26 208.94 C 161.95 211.30 161.91 213.82 160.29 215.74 C 159.95 212.03 160.03 208.31 159.99 204.59 Z" />
<path fill="#2d619e" opacity="1.00" d=" M 179.99 204.59 C 181.67 204.50 183.58 203.77 185.11 204.82 C 188.65 207.17 189.42 212.89 185.94 215.66 C 185.59 212.80 186.66 209.57 185.06 206.98 C 183.67 206.80 182.19 207.41 182.25 209.02 C 181.96 211.35 181.87 213.83 180.29 215.73 C 179.95 212.03 180.03 208.30 179.99 204.59 Z" />
<path fill="#2d619e" opacity="1.00" d=" M 79.77 213.05 C 78.05 210.80 78.26 206.63 81.06 205.40 C 83.59 205.21 86.39 204.65 88.74 205.90 C 88.48 208.85 88.52 211.88 87.82 214.77 C 86.60 217.77 83.09 218.21 80.27 218.22 C 81.08 215.83 83.84 215.83 85.80 214.92 C 83.80 214.38 81.03 215.15 79.77 213.05 M 81.21 208.02 C 80.31 209.84 81.51 211.72 81.96 213.48 C 83.42 212.41 86.68 211.82 85.66 209.37 C 85.23 207.57 82.34 205.97 81.21 208.02 Z" />
<path fill="#2d619e" opacity="1.00" d=" M 91.92 214.15 C 87.91 212.45 89.29 205.97 93.03 204.85 C 95.89 204.44 99.72 206.94 98.58 210.14 C 96.14 210.46 93.56 210.40 91.40 211.78 C 93.74 212.31 96.14 212.31 98.52 212.33 C 96.62 213.63 94.28 215.88 91.92 214.15 M 91.36 206.80 C 91.88 210.22 95.36 208.73 97.67 208.71 C 95.90 207.18 93.64 206.78 91.36 206.80 Z" />
<path fill="#2d619e" opacity="1.00" d=" M 110.10 204.99 C 110.57 204.99 111.51 204.99 111.98 204.99 C 111.97 208.54 112.00 212.09 111.73 215.64 C 108.77 212.80 109.93 208.60 110.10 204.99 Z" />
<path fill="#2d619e" opacity="1.00" d=" M 113.03 209.04 C 113.74 207.21 115.25 205.67 117.05 204.88 C 119.56 204.22 121.04 206.69 122.33 208.36 C 123.29 204.33 127.83 205.29 130.93 205.02 C 130.95 208.57 131.00 212.14 130.70 215.69 C 128.34 213.14 128.96 209.60 128.80 206.44 C 124.95 207.80 126.44 212.61 125.00 215.64 C 123.41 214.22 122.98 212.18 122.61 210.19 C 120.11 210.40 117.47 210.41 115.33 211.92 C 117.65 212.98 120.17 212.21 122.59 212.16 C 121.16 213.14 119.86 214.80 117.95 214.64 C 115.10 214.67 112.86 211.71 113.03 209.04 M 115.36 206.87 C 115.78 209.63 118.62 208.87 120.62 209.12 C 120.21 206.32 117.36 207.10 115.36 206.87 Z" />
<path fill="#2d619e" opacity="1.00" d=" M 135.20 205.24 C 137.45 205.04 139.71 205.25 141.97 205.28 C 141.98 208.12 142.00 210.97 141.96 213.81 C 139.46 214.03 136.52 215.51 134.29 213.73 C 132.50 211.27 132.15 206.87 135.20 205.24 M 134.80 212.36 C 136.34 212.26 138.38 212.97 139.37 211.35 C 140.90 209.54 139.69 206.40 137.09 206.95 C 134.34 207.00 135.23 210.59 134.80 212.36 Z" />
<path fill="#2d619e" opacity="1.00" d=" M 149.05 208.98 C 149.46 205.75 153.70 203.66 156.38 205.69 C 157.90 206.67 157.82 208.70 158.38 210.23 C 156.05 210.65 153.69 210.95 151.36 211.35 C 153.07 213.13 155.46 212.41 157.61 212.25 C 155.56 217.09 147.73 213.66 149.05 208.98 M 152.00 206.83 C 151.76 207.39 151.29 208.51 151.05 209.07 C 152.92 208.98 154.79 208.97 156.66 208.80 C 155.97 206.66 153.77 207.01 152.00 206.83 Z" />
<path fill="#2d619e" opacity="1.00" d=" M 197.28 205.12 C 201.16 203.47 205.90 209.47 202.70 212.60 C 201.50 213.98 199.42 215.69 197.57 214.46 C 195.78 213.61 194.47 211.91 194.01 210.00 C 194.61 208.11 195.74 206.37 197.28 205.12 M 198.17 207.02 C 196.37 208.52 196.43 211.42 198.14 212.96 C 202.09 213.87 202.14 206.12 198.17 207.02 Z" />
<path fill="#2d619e" opacity="1.00" d=" M 205.00 205.25 C 206.75 205.27 208.51 205.24 210.27 205.24 C 207.19 208.03 207.38 212.37 205.32 215.72 C 204.98 212.24 205.04 208.74 205.00 205.25 Z" />
<path fill="#2d619e" opacity="1.00" d=" M 243.25 206.04 C 243.62 205.71 244.37 205.06 244.74 204.73 C 244.87 208.44 245.68 212.05 246.30 215.69 C 244.60 214.80 242.57 213.93 242.03 211.89 C 242.21 209.90 242.85 207.99 243.25 206.04 Z" />
<path fill="#2d619e" opacity="1.00" d=" M 245.99 209.14 C 246.92 206.83 249.21 204.30 251.97 204.93 C 252.94 205.58 253.87 206.31 254.74 207.12 C 253.25 207.13 251.76 207.22 250.29 207.38 C 248.66 207.86 248.33 209.80 247.49 211.03 C 249.75 211.97 252.14 212.47 254.58 212.71 C 251.80 216.86 245.67 213.62 245.99 209.14 Z" />
<path fill="#2d619e" opacity="1.00" d=" M 257.47 205.59 C 259.58 205.04 261.79 205.10 263.95 204.91 C 263.98 208.15 264.00 211.40 264.03 214.64 C 261.36 214.40 258.12 215.15 256.14 212.84 C 253.90 210.86 254.94 206.83 257.47 205.59 M 258.26 206.60 C 257.74 208.16 257.20 209.71 256.74 211.28 C 258.59 211.68 260.46 211.98 262.35 212.25 C 262.34 209.51 261.53 206.59 258.26 206.60 Z" />
<path fill="#2d619e" opacity="1.00" d=" M 271.32 211.65 C 269.80 209.28 270.92 206.69 272.25 204.56 C 272.23 208.02 273.00 211.51 276.06 213.53 C 276.76 210.45 276.86 207.19 278.32 204.32 C 278.40 208.39 280.78 213.37 277.81 216.88 C 276.06 218.98 273.38 217.82 271.44 216.70 C 273.45 216.10 275.47 215.54 277.47 214.91 C 275.15 214.48 272.29 214.20 271.32 211.65 Z" />
<path fill="#2d619e" opacity="1.00" d=" M 299.25 204.35 C 302.39 207.51 301.92 212.31 299.26 215.61 C 298.97 211.86 298.97 208.10 299.25 204.35 Z" />
<path fill="#2d619e" opacity="1.00" d=" M 302.12 206.31 C 303.63 203.46 307.54 205.17 308.77 207.45 C 306.94 207.33 305.12 207.23 303.31 207.14 C 305.21 208.40 307.29 209.36 309.38 210.28 C 309.45 214.65 303.16 216.48 301.36 212.22 C 303.37 212.24 305.40 212.30 307.42 212.13 C 305.24 210.91 301.02 209.66 302.12 206.31 Z" />
<path fill="#2d619e" opacity="1.00" d=" M 314.77 208.95 C 315.10 206.25 318.05 203.46 320.85 204.73 C 322.72 205.36 323.49 207.33 324.53 208.83 C 324.14 209.29 323.37 210.21 322.98 210.67 C 321.89 210.28 320.81 209.89 319.73 209.51 C 320.41 209.27 321.78 208.79 322.47 208.55 C 320.89 207.07 319.00 206.76 317.01 207.59 C 317.58 209.30 317.97 211.10 318.87 212.69 C 320.45 212.57 322.03 212.42 323.62 212.24 C 321.50 217.24 313.90 213.58 314.77 208.95 Z" />
<path fill="#2d619e" opacity="1.00" d=" M 343.55 205.57 C 345.63 205.05 347.81 205.10 349.95 204.92 C 349.98 208.16 350.00 211.40 350.03 214.64 C 347.35 214.39 344.10 215.14 342.13 212.83 C 339.88 210.82 340.95 206.74 343.55 205.57 M 344.18 207.13 C 341.45 208.50 343.67 213.45 346.52 212.50 C 349.93 211.41 347.44 205.15 344.18 207.13 Z" />
<path fill="#2d619e" opacity="1.00" d=" M 351.87 207.09 C 352.66 203.45 357.55 204.75 358.72 207.49 C 356.92 207.35 355.12 207.22 353.33 207.11 C 355.23 208.41 357.32 209.38 359.42 210.33 C 359.38 214.67 353.16 216.45 351.38 212.24 C 353.39 212.25 355.41 212.30 357.42 212.13 C 355.32 210.88 351.95 210.10 351.87 207.09 Z" />
<path fill="#2d619e" opacity="1.00" d=" M 212.98 215.31 C 209.58 213.15 210.51 208.60 211.64 205.41 C 216.03 206.22 220.46 204.92 224.84 205.74 C 224.98 209.05 225.08 212.38 224.78 215.69 C 222.51 213.38 223.02 210.10 222.84 207.16 C 222.12 207.10 220.68 206.96 219.96 206.90 C 219.40 209.81 219.03 212.75 218.49 215.66 C 216.60 213.20 217.00 210.07 216.89 207.17 C 216.07 207.10 214.44 206.97 213.63 206.91 C 213.51 209.71 214.48 212.73 212.98 215.31 Z" />
<path fill="#2d619e" opacity="1.00" d=" M 327.07 215.68 C 323.86 213.10 324.46 208.89 325.61 205.42 C 329.94 206.26 334.31 204.89 338.63 205.72 C 339.43 209.05 341.57 213.29 337.89 215.65 C 336.95 212.92 336.94 210.02 336.89 207.17 C 336.08 207.10 334.45 206.97 333.63 206.90 C 333.47 209.64 334.52 212.65 333.03 215.16 C 329.72 214.15 331.44 209.75 330.88 207.16 C 330.07 207.10 328.46 206.98 327.65 206.91 C 327.66 209.85 328.13 212.86 327.07 215.68 Z" />
<path fill="#2d619e" opacity="1.00" d=" M 14.40 210.57 C 18.13 209.50 22.40 209.51 25.70 211.79 C 24.94 212.25 24.20 212.72 23.45 213.19 C 24.20 214.32 24.89 215.49 25.50 216.71 C 21.87 217.46 17.69 218.87 14.25 216.78 C 12.02 215.65 11.60 211.27 14.40 210.57 Z" />
<path fill="#2d619e" opacity="1.00" d=" M 392.74 213.06 C 393.05 212.13 393.37 211.21 393.70 210.29 C 397.34 210.53 402.69 208.21 404.53 212.64 C 400.70 213.79 396.61 214.32 392.74 213.06 Z" />
<path fill="#2d619e" opacity="1.00" d=" M 391.41 214.26 C 395.77 214.77 400.18 215.09 404.53 214.25 C 402.96 220.33 393.94 218.89 391.41 214.26 Z" />
<path fill="#2d619e" opacity="1.00" d=" M 6.16 222.12 C 9.61 220.90 13.38 221.00 16.99 220.80 C 19.21 220.51 20.92 222.05 22.55 223.30 C 18.22 226.44 12.20 226.99 7.40 224.62 C 6.06 224.24 5.64 223.40 6.16 222.12 Z" />
<path fill="#2d619e" opacity="1.00" d=" M 230.77 227.03 C 231.91 220.81 241.99 218.76 244.57 224.92 C 241.85 224.81 239.11 224.06 236.39 224.49 C 233.41 225.45 231.32 229.75 233.66 232.33 C 235.54 234.73 238.83 234.50 241.54 234.26 C 241.44 231.35 238.71 230.60 236.59 229.48 C 238.40 227.75 241.34 226.57 243.41 228.63 C 245.98 231.32 244.22 235.89 240.76 236.72 C 235.07 239.08 228.68 232.75 230.77 227.03 Z" />
<path fill="#2d619e" opacity="1.00" d=" M 396.60 221.46 C 401.33 220.75 406.51 220.14 411.01 222.15 C 411.21 223.40 410.75 224.23 409.62 224.65 C 405.23 226.77 400.17 226.09 395.66 224.77 C 395.92 223.65 396.23 222.55 396.60 221.46 Z" />
<path fill="#2d619e" opacity="1.00" d=" M 179.04 221.99 C 179.53 222.00 180.52 222.02 181.01 222.04 C 181.29 225.85 180.05 230.27 182.41 233.61 C 184.25 236.00 188.08 234.69 188.76 231.98 C 189.45 228.70 188.92 225.32 188.92 222.00 C 189.45 222.00 190.51 222.00 191.04 222.00 C 191.16 225.94 191.06 229.87 190.84 233.81 C 189.32 235.11 188.04 236.94 186.02 237.45 C 183.01 237.26 179.70 235.33 179.22 232.13 C 178.62 228.78 179.00 225.36 179.04 221.99 Z" />
<path fill="#2d619e" opacity="1.00" d=" M 202.96 231.42 C 203.31 227.94 201.51 222.91 205.81 221.36 C 206.12 226.00 205.39 230.82 207.43 235.17 C 208.02 237.49 204.84 237.51 203.69 236.30 C 201.16 233.52 199.51 230.05 196.87 227.35 C 196.69 230.76 197.37 234.29 196.04 237.56 C 195.30 236.40 193.47 235.58 193.78 233.98 C 194.16 229.83 193.84 225.62 194.71 221.53 C 198.30 224.06 200.51 227.89 202.96 231.42 Z" />
<path fill="#2d619e" opacity="1.00" d=" M 215.89 221.42 C 216.87 222.30 218.92 222.47 219.06 224.06 C 219.56 227.58 218.96 231.30 217.71 234.62 C 214.84 238.87 207.32 236.78 207.61 231.36 C 209.71 232.44 211.42 234.25 213.69 234.99 C 217.86 231.71 215.26 225.87 215.89 221.42 Z" />
<path fill="#2d619e" opacity="1.00" d=" M 219.97 222.39 C 222.33 222.28 224.68 222.01 227.05 222.11 C 227.10 225.98 229.02 229.37 229.88 233.03 C 229.15 237.76 223.52 236.99 220.03 237.06 C 220.04 232.17 219.90 227.28 219.97 222.39 M 223.18 223.34 C 223.07 225.06 222.99 226.78 222.95 228.50 C 224.11 227.86 225.65 227.54 226.17 226.14 C 225.65 224.78 224.28 224.14 223.18 223.34 M 223.02 229.61 C 222.99 231.55 223.00 233.49 223.03 235.43 C 224.73 234.84 227.82 234.56 227.01 231.96 C 226.98 229.90 224.34 230.24 223.02 229.61 Z" />
<path fill="#2d619e" opacity="1.00" d=" M 106.76 238.48 C 114.39 233.73 121.00 227.52 128.75 222.95 C 143.70 244.93 167.86 259.77 193.72 265.13 C 192.17 273.42 191.16 281.82 188.85 289.95 C 170.00 288.01 152.56 279.47 136.99 269.07 C 125.43 260.53 114.71 250.53 106.76 238.48 Z" />
<path fill="#2d619e" opacity="1.00" d=" M 5.47 226.09 C 11.13 226.80 16.84 226.81 22.49 226.08 C 22.27 230.48 17.45 230.82 14.07 230.92 C 10.59 231.18 5.82 230.39 5.47 226.09 Z" />
<path fill="#2d619e" opacity="1.00" d=" M 395.43 226.26 C 400.77 226.97 406.15 226.72 411.49 226.05 C 411.10 228.42 409.63 230.56 407.08 230.81 C 402.89 231.50 396.31 231.76 395.43 226.26 Z" />
<path fill="#2d619e" opacity="1.00" d=" M 292.36 228.10 C 298.17 231.28 302.85 236.06 307.97 240.17 C 308.18 243.29 305.22 245.25 303.59 247.55 C 279.51 276.59 241.59 293.17 203.97 292.01 C 203.62 283.35 204.51 274.71 205.08 266.08 C 213.75 267.35 222.60 266.72 231.13 264.83 C 239.55 262.95 247.97 260.68 255.73 256.84 C 269.85 250.05 281.93 239.67 292.36 228.10 Z" />
<path fill="#2d619e" opacity="1.00" d=" M 6.39 233.61 C 11.12 232.33 16.25 232.83 20.54 235.23 C 19.61 236.93 18.24 238.48 16.20 238.76 C 11.78 239.48 7.01 239.03 3.09 236.75 C 2.33 234.56 4.85 234.09 6.39 233.61 Z" />
<path fill="#2d619e" opacity="1.00" d=" M 398.33 234.33 C 403.52 232.20 409.63 232.48 414.55 235.24 C 413.47 237.59 411.16 238.95 408.59 238.89 C 404.63 239.14 400.35 239.08 396.91 236.81 C 396.75 235.57 397.22 234.74 398.33 234.33 Z" />
<path fill="#2d619e" opacity="1.00" d=" M 2.44 238.18 C 8.50 240.73 15.42 241.18 21.40 238.14 C 20.86 240.03 21.02 242.82 18.77 243.60 C 14.28 244.66 9.02 245.88 4.84 243.21 C 3.07 242.17 3.05 239.89 2.44 238.18 Z" />
<path fill="#2d619e" opacity="1.00" d=" M 396.95 238.97 C 402.66 239.84 408.51 240.59 414.21 239.18 C 414.06 240.73 413.88 242.27 413.66 243.81 C 408.14 245.18 402.34 245.02 397.05 242.86 C 397.01 241.56 396.98 240.26 396.95 238.97 Z" />
<path fill="#2d619e" opacity="1.00" d=" M 85.83 253.91 C 88.02 252.08 90.35 250.41 92.76 248.89 C 114.00 279.81 148.12 301.74 185.29 307.36 C 186.45 310.92 185.12 314.48 183.85 317.80 C 144.61 310.15 108.29 287.14 85.83 253.91 Z" />
<path fill="#2d619e" opacity="1.00" d=" M 6.76 251.75 C 12.29 250.80 19.35 249.80 23.29 254.83 C 17.44 258.90 9.95 258.28 3.61 255.83 C 3.89 253.99 4.63 251.98 6.76 251.75 Z" />
<path fill="#2d619e" opacity="1.00" d=" M 397.02 252.01 C 402.74 249.98 409.02 251.07 414.50 253.32 C 413.14 256.75 409.24 257.20 406.06 257.79 C 402.09 258.30 398.28 256.78 394.54 255.68 C 395.05 254.29 395.26 252.37 397.02 252.01 Z" />
<path fill="#2d619e" opacity="1.00" d=" M 322.27 252.05 C 326.06 254.77 329.49 257.94 333.30 260.64 C 330.53 265.27 326.76 269.18 323.11 273.12 C 292.25 305.53 246.61 323.03 202.00 319.97 C 202.00 316.68 202.01 313.40 202.01 310.11 C 230.83 310.35 260.07 303.13 284.35 287.32 C 298.87 277.83 312.06 266.13 322.27 252.05 Z" />
<path fill="#2d619e" opacity="1.00" d=" M 2.91 257.24 C 9.55 259.37 16.77 259.51 23.33 257.00 C 22.86 258.79 23.14 261.21 21.33 262.34 C 15.81 264.70 9.70 264.09 4.24 261.87 C 3.80 260.32 3.36 258.78 2.91 257.24 Z" />
<path fill="#2d619e" opacity="1.00" d=" M 394.91 257.27 C 401.22 259.35 408.09 259.44 414.32 257.02 C 413.86 259.00 414.01 261.86 411.66 262.66 C 406.28 264.40 400.40 263.85 395.13 261.98 C 395.05 260.41 394.98 258.84 394.91 257.27 Z" />
<path fill="#2d619e" opacity="1.00" d=" M 9.03 272.46 C 16.63 270.26 25.43 269.73 32.36 274.19 C 31.90 275.91 31.52 278.02 29.43 278.39 C 21.70 280.78 12.16 281.33 5.66 275.70 C 6.68 274.54 7.44 272.93 9.03 272.46 Z" />
<path fill="#2d619e" opacity="1.00" d=" M 388.26 272.32 C 395.77 270.06 404.55 269.90 411.39 274.20 C 410.85 275.67 410.70 277.66 408.90 278.14 C 401.03 280.99 392.11 280.40 384.63 276.66 C 384.97 274.58 386.07 272.77 388.26 272.32 Z" />
<path fill="#2d619e" opacity="1.00" d=" M 5.64 278.03 C 13.67 283.07 23.83 282.58 32.28 278.89 C 32.36 281.00 33.15 283.66 31.22 285.24 C 28.42 287.65 24.48 287.73 20.99 287.97 C 16.28 288.09 10.84 288.26 7.15 284.83 C 5.19 283.10 5.61 280.34 5.64 278.03 Z" />
<path fill="#2d619e" opacity="1.00" d=" M 384.97 278.14 C 392.85 283.35 402.98 282.33 411.33 278.85 C 411.49 280.80 412.37 283.16 410.71 284.73 C 407.89 287.49 403.67 287.78 399.96 288.08 C 395.09 288.19 389.88 287.83 385.58 285.36 C 384.03 283.31 385.09 280.50 384.97 278.14 Z" />
<path fill="#2d619e" opacity="1.00" d=" M 29.56 293.83 C 38.25 292.63 48.35 291.58 55.78 297.24 C 57.38 297.99 57.34 300.07 56.32 301.30 C 54.57 303.63 51.46 303.88 48.84 304.47 C 40.64 306.15 31.69 306.73 23.94 303.03 C 21.88 302.11 19.88 299.54 21.31 297.31 C 23.66 295.39 26.64 294.45 29.56 293.83 Z" />
<path fill="#2d619e" opacity="1.00" d=" M 368.96 294.03 C 378.45 292.28 389.46 291.91 397.35 298.39 C 396.44 301.08 394.27 302.99 391.52 303.66 C 383.32 305.94 374.33 306.71 366.15 303.95 C 363.62 303.04 360.56 301.97 359.97 298.98 C 361.41 295.56 365.73 294.87 368.96 294.03 Z" />
<path fill="#2d619e" opacity="1.00" d=" M 51.63 306.32 C 53.89 305.66 55.60 303.97 57.47 302.65 C 56.97 306.71 58.22 312.56 53.57 314.58 C 43.79 317.93 32.57 318.14 22.98 314.02 C 19.25 312.19 20.15 307.35 19.92 303.95 C 29.83 308.21 41.23 309.66 51.63 306.32 Z" />
<path fill="#2d619e" opacity="1.00" d=" M 360.00 303.17 C 368.10 308.82 378.48 308.51 387.85 307.31 C 391.22 306.88 394.08 304.90 396.85 303.08 C 396.52 306.37 398.30 310.80 395.40 313.27 C 385.31 318.77 372.60 318.43 362.31 313.66 C 358.48 311.65 360.20 306.61 360.00 303.17 Z" />
<path fill="#2d619e" opacity="1.00" d=" M 64.49 315.66 C 75.32 314.14 86.89 314.33 96.98 319.01 C 99.57 320.41 102.99 323.52 100.89 326.68 C 94.86 331.55 86.70 333.12 79.10 333.00 C 69.76 333.26 59.65 333.71 51.37 328.61 C 49.24 327.40 46.97 324.90 48.20 322.30 C 51.92 317.21 58.80 316.77 64.49 315.66 Z" />
<path fill="#2d619e" opacity="1.00" d=" M 315.78 322.18 C 321.69 317.26 329.47 315.74 336.95 315.28 C 348.26 314.35 361.35 314.56 369.97 323.08 C 369.87 325.88 367.85 328.23 365.37 329.32 C 356.94 333.64 347.20 333.14 338.01 333.01 C 330.95 333.07 323.38 331.81 317.71 327.32 C 315.88 326.22 316.02 324.02 315.78 322.18 Z" />
<path fill="#2d619e" opacity="1.00" d=" M 47.97 330.07 C 54.27 335.63 63.02 336.33 71.01 336.99 C 81.58 337.51 93.39 336.74 101.77 329.51 C 101.86 333.63 102.62 337.85 101.62 341.92 C 101.17 344.15 98.85 345.04 97.07 346.03 C 88.38 350.30 78.45 350.12 69.01 350.02 C 61.59 349.97 53.65 348.25 48.14 342.94 C 47.97 338.65 47.91 334.36 47.97 330.07 Z" />
<path fill="#2d619e" opacity="1.00" d=" M 316.10 330.16 C 323.83 335.78 333.66 337.14 342.98 337.10 C 352.32 337.25 362.18 335.74 369.88 330.09 C 369.55 335.01 371.96 341.82 367.01 345.11 C 358.09 350.69 347.11 350.37 336.98 349.98 C 330.30 349.48 323.15 348.43 317.65 344.33 C 314.24 340.44 316.31 334.80 316.10 330.16 Z" />
<path fill="#2d619e" opacity="1.00" d=" M 106.69 352.61 C 108.18 346.83 114.82 345.96 119.83 345.39 C 129.15 344.82 139.78 343.26 147.78 349.28 C 150.94 351.30 147.32 355.09 144.94 355.98 C 132.56 360.12 117.54 361.07 106.69 352.61 Z" />
<path fill="#2d619e" opacity="1.00" d=" M 267.93 351.02 C 272.50 345.29 280.40 345.36 287.05 344.96 C 294.87 344.48 303.83 344.57 309.91 350.27 C 310.50 353.77 306.77 355.90 303.94 356.81 C 295.19 359.17 285.71 360.07 276.92 357.44 C 273.41 356.17 268.94 355.22 267.93 351.02 Z" />
<path fill="#2d619e" opacity="1.00" d=" M 106.97 356.15 C 110.07 358.16 113.46 359.80 117.13 360.43 C 124.01 361.56 131.13 362.60 138.03 360.99 C 142.38 360.22 146.08 357.72 149.89 355.65 C 149.50 358.60 149.45 361.58 149.30 364.55 C 148.33 366.91 146.11 368.78 143.64 369.44 C 133.81 372.35 123.00 373.33 113.18 369.87 C 110.93 369.06 108.32 368.05 107.47 365.59 C 106.52 362.54 107.01 359.29 106.97 356.15 Z" />
<path fill="#2d619e" opacity="1.00" d=" M 267.96 356.15 C 272.39 359.28 277.72 360.70 283.07 361.18 C 292.57 362.71 303.37 361.83 310.97 355.36 C 309.77 359.61 311.72 365.48 307.26 368.22 C 301.21 371.79 293.78 371.98 286.93 372.06 C 280.76 371.78 274.32 370.42 269.24 366.74 C 267.41 363.55 268.13 359.66 267.96 356.15 Z" />
<path fill="#2d619e" opacity="1.00" d=" M 163.95 361.91 C 170.20 359.03 177.33 358.89 184.09 359.05 C 189.29 359.15 194.36 360.99 198.32 364.37 C 197.29 365.90 196.43 367.75 194.64 368.53 C 189.49 371.06 183.58 370.99 177.98 371.17 C 172.25 371.30 166.56 369.79 161.68 366.80 C 162.07 365.03 161.97 362.73 163.95 361.91 Z" />
<path fill="#2d619e" opacity="1.00" d=" M 222.53 361.61 C 228.99 359.00 236.14 358.80 243.01 359.10 C 247.90 359.31 252.56 361.23 256.31 364.34 C 255.29 365.91 254.42 367.78 252.59 368.55 C 247.46 371.05 241.59 370.99 236.02 371.17 C 230.27 371.31 224.56 369.80 219.67 366.78 C 219.93 364.75 220.24 362.31 222.53 361.61 Z" />
<path fill="#2d619e" opacity="1.00" d=" M 161.95 369.13 C 168.64 373.67 177.26 374.23 185.07 373.49 C 189.65 372.98 194.17 371.70 198.04 369.14 C 197.82 372.26 198.73 375.94 196.67 378.61 C 192.39 381.63 186.93 381.88 181.90 382.37 C 175.13 383.03 167.58 382.51 162.11 378.01 C 162.03 375.05 161.97 372.09 161.95 369.13 Z" />
<path fill="#2d619e" opacity="1.00" d=" M 219.95 369.13 C 230.74 375.90 245.08 375.12 256.08 369.17 C 255.84 372.75 257.13 378.27 252.70 379.77 C 244.33 383.29 234.81 383.11 226.07 381.13 C 223.79 380.76 221.93 379.37 220.13 378.03 C 220.04 375.06 219.97 372.09 219.95 369.13 Z" />
</g>
<g id="#fffffffe">
<path fill="#ffffff" opacity="1.00" d=" M 715.97 156.08 C 720.23 150.39 724.51 144.70 728.78 139.00 C 733.31 139.00 737.84 139.00 742.38 139.00 C 735.93 144.29 729.48 149.58 723.03 154.88 C 721.19 156.83 718.31 155.83 715.97 156.08 Z" />
<path fill="#ffffff" opacity="1.00" d=" M 763.12 139.00 C 770.68 139.00 778.25 139.00 785.82 139.00 C 785.83 165.64 785.78 192.29 785.84 218.93 C 786.10 221.36 785.67 224.32 787.40 226.30 C 790.28 227.74 793.61 227.65 796.75 228.02 C 796.74 229.36 796.74 230.71 796.75 232.06 C 785.54 232.06 774.33 232.06 763.12 232.06 C 763.11 230.71 763.11 229.36 763.12 228.02 C 766.35 227.59 769.94 227.84 772.79 226.01 C 774.22 223.24 773.93 219.99 774.10 216.98 C 774.14 196.32 774.12 175.65 774.11 154.98 C 773.93 151.66 774.32 148.09 772.81 145.01 C 769.95 143.17 766.36 143.41 763.12 142.98 C 763.11 141.65 763.11 140.33 763.12 139.00 Z" />
<path fill="#ffffff" opacity="1.00" d=" M 1230.12 139.00 C 1237.68 139.00 1245.25 139.00 1252.82 139.00 C 1252.83 165.64 1252.78 192.29 1252.84 218.93 C 1253.08 221.36 1252.69 224.28 1254.36 226.27 C 1257.24 227.75 1260.60 227.65 1263.75 228.02 C 1263.74 229.36 1263.74 230.71 1263.75 232.06 C 1252.54 232.06 1241.33 232.06 1230.12 232.06 C 1230.11 230.71 1230.10 229.36 1230.12 228.02 C 1233.80 227.37 1240.52 228.39 1240.73 223.05 C 1241.57 210.07 1240.91 197.04 1241.12 184.04 C 1240.91 171.98 1241.58 159.87 1240.71 147.83 C 1240.40 142.60 1233.76 143.65 1230.12 142.98 C 1230.10 141.65 1230.10 140.33 1230.12 139.00 Z" />
<path fill="#ffffff" opacity="1.00" d=" M 1288.44 139.03 C 1292.97 138.97 1297.50 139.01 1302.04 139.00 C 1295.64 144.28 1289.23 149.54 1282.84 154.83 C 1281.00 156.84 1278.08 155.83 1275.72 156.08 C 1279.96 150.39 1284.23 144.74 1288.44 139.03 Z" />
<path fill="#ffffff" opacity="1.00" d=" M 516.13 154.07 C 522.38 147.70 531.10 144.24 539.88 143.34 C 551.29 142.04 562.67 144.50 573.75 146.97 C 573.75 152.67 573.75 158.37 573.75 164.06 C 571.29 164.06 568.83 164.06 566.38 164.06 C 566.16 159.93 566.50 155.04 563.02 152.07 C 557.11 146.93 548.54 146.51 541.14 147.49 C 531.46 149.08 524.32 157.22 520.96 166.01 C 516.72 177.11 516.21 189.46 518.31 201.07 C 520.27 211.98 527.27 222.41 537.88 226.45 C 550.19 231.35 564.20 228.59 575.32 221.95 C 575.31 223.65 575.31 225.35 575.31 227.06 C 563.80 233.68 549.87 235.35 536.90 233.06 C 526.44 231.22 516.80 224.96 511.18 215.90 C 504.80 205.87 503.53 193.51 504.43 181.90 C 505.21 171.72 508.73 161.36 516.13 154.07 Z" />
<path fill="#ffffff" opacity="1.00" d=" M 662.50 155.98 C 666.39 154.98 670.28 154.02 674.19 153.05 C 674.19 158.03 674.19 163.01 674.19 168.00 C 680.16 168.00 686.14 168.00 692.13 168.00 C 692.12 169.69 692.12 171.37 692.13 173.06 C 686.14 173.06 680.16 173.06 674.19 173.06 C 674.25 187.39 674.07 201.73 674.28 216.05 C 674.53 220.45 674.96 226.28 679.68 228.23 C 683.47 230.03 687.51 228.26 690.67 226.05 C 690.63 227.73 690.62 229.42 690.62 231.11 C 682.91 234.30 672.50 233.87 666.67 227.31 C 663.24 223.01 662.60 217.28 662.51 211.97 C 662.47 199.00 662.51 186.03 662.50 173.06 C 659.35 173.06 656.20 173.06 653.06 173.06 C 653.05 171.37 653.05 169.69 653.06 168.00 C 656.20 168.00 659.35 168.00 662.50 168.00 C 662.49 163.99 662.50 159.98 662.50 155.98 Z" />
<path fill="#ffffff" opacity="1.00" d=" M 592.69 171.94 C 602.96 167.93 614.55 165.15 625.42 168.37 C 631.76 170.15 636.05 176.30 636.34 182.76 C 636.78 194.15 636.27 205.57 636.59 216.97 C 636.83 219.81 636.92 222.92 638.65 225.31 C 640.32 227.42 643.28 226.85 645.64 227.25 C 645.72 228.72 645.81 230.20 645.90 231.68 C 641.55 232.93 636.49 234.00 632.40 231.46 C 629.61 229.78 628.42 226.59 627.38 223.68 C 621.99 228.46 615.46 232.63 608.06 232.98 C 602.21 233.41 596.12 231.26 592.22 226.79 C 587.80 222.04 586.87 214.81 588.87 208.78 C 590.75 203.26 595.52 199.09 600.91 197.11 C 608.51 194.24 616.77 193.94 624.82 193.99 C 624.58 187.66 625.80 180.59 622.06 175.01 C 618.09 169.67 609.79 170.12 604.78 173.71 C 601.32 175.93 601.13 180.41 600.58 184.07 C 597.94 184.06 595.31 184.06 592.69 184.06 C 592.68 180.02 592.68 175.98 592.69 171.94 M 604.43 203.35 C 598.68 208.24 598.88 218.62 605.42 222.77 C 611.28 226.80 618.80 224.43 624.81 221.99 C 624.80 214.01 624.82 206.02 624.80 198.04 C 617.77 197.91 609.94 198.43 604.43 203.35 Z" />
<path fill="#ffffff" opacity="1.00" d=" M 705.87 171.94 C 716.11 167.94 727.64 165.18 738.48 168.33 C 744.84 170.07 749.20 176.18 749.50 182.66 C 749.98 194.07 749.47 205.50 749.76 216.92 C 750.00 219.74 750.08 222.82 751.76 225.23 C 753.39 227.43 756.43 226.85 758.82 227.25 C 758.89 228.72 758.98 230.19 759.08 231.66 C 754.93 232.87 750.19 233.91 746.16 231.80 C 743.01 230.22 741.63 226.79 740.53 223.67 C 734.65 229.00 727.18 233.44 718.98 233.00 C 712.38 232.88 705.93 229.10 702.91 223.19 C 699.30 216.00 700.96 206.41 707.21 201.20 C 715.70 194.15 727.53 194.08 738.00 193.99 C 737.82 188.22 738.72 182.08 736.23 176.67 C 732.11 167.58 715.68 169.94 714.42 179.87 C 714.15 181.26 713.93 182.66 713.76 184.07 C 711.13 184.06 708.50 184.06 705.87 184.06 C 705.87 180.02 705.87 175.98 705.87 171.94 M 717.44 203.51 C 711.93 208.42 712.12 218.45 718.42 222.64 C 724.28 226.85 731.93 224.46 738.00 221.99 C 737.99 214.01 738.01 206.02 737.99 198.04 C 730.88 197.90 722.94 198.45 717.44 203.51 Z" />
<path fill="#ffffff" opacity="1.00" d=" M 827.54 167.76 C 836.85 165.99 847.37 167.02 854.99 173.10 C 861.33 178.09 864.83 185.94 865.72 193.83 C 866.75 203.17 865.74 213.29 860.27 221.20 C 856.12 227.28 849.35 231.33 842.11 232.47 C 832.98 233.93 822.79 232.66 815.51 226.54 C 809.12 221.29 805.77 213.14 805.06 205.05 C 804.22 196.01 805.35 186.28 810.68 178.68 C 814.59 173.00 820.80 169.11 827.54 167.76 M 831.44 171.66 C 827.10 173.03 823.96 176.67 821.79 180.51 C 817.52 188.19 816.76 197.32 817.63 205.93 C 818.43 213.09 820.97 220.48 826.40 225.47 C 830.40 229.18 836.73 230.04 841.56 227.48 C 845.69 225.32 848.45 221.29 850.37 217.16 C 853.45 210.27 854.02 202.51 853.42 195.07 C 852.75 187.78 850.31 180.29 845.02 175.04 C 841.55 171.54 836.15 170.12 831.44 171.66 Z" />
<path fill="#ffffff" opacity="1.00" d=" M 887.54 171.61 C 895.71 165.61 906.63 166.39 915.98 168.65 C 923.39 168.24 930.78 167.48 938.18 166.96 C 937.17 169.69 936.16 172.41 935.15 175.14 C 930.09 174.33 925.02 173.56 919.97 172.73 C 929.02 180.89 930.05 196.54 921.17 205.19 C 914.60 212.07 904.01 213.40 895.21 210.71 C 893.01 212.84 890.64 215.66 891.45 218.97 C 892.25 221.14 894.78 221.70 896.83 221.87 C 906.39 222.38 916.16 221.15 925.54 223.62 C 928.75 224.42 931.91 226.29 933.36 229.39 C 936.07 235.47 934.73 243.26 929.80 247.83 C 923.24 254.06 913.79 255.90 905.03 256.01 C 896.56 256.04 887.60 255.32 880.17 250.86 C 876.41 248.74 873.76 244.26 875.12 239.91 C 876.78 234.29 882.48 231.44 887.37 229.07 C 884.02 227.22 880.21 224.22 881.08 219.87 C 882.35 214.64 887.70 212.06 892.03 209.69 C 887.06 207.36 882.56 203.50 880.67 198.21 C 877.36 189.12 879.28 177.43 887.54 171.61 M 899.37 171.60 C 894.06 173.12 891.68 178.83 891.18 183.87 C 890.58 190.30 890.55 197.33 893.92 203.06 C 897.70 209.46 908.36 209.69 912.41 203.46 C 915.19 199.22 915.60 193.96 915.64 189.03 C 915.58 184.17 915.12 178.92 912.10 174.92 C 909.20 171.08 903.74 170.32 899.37 171.60 M 891.05 230.15 C 885.33 234.35 884.55 244.96 890.97 248.99 C 894.82 251.41 899.50 251.87 903.95 251.96 C 909.34 252.03 915.15 251.05 919.33 247.38 C 922.92 244.33 924.40 238.77 922.34 234.47 C 920.29 230.90 915.76 230.20 912.02 230.09 C 905.03 230.09 898.03 229.94 891.05 230.15 Z" />
<path fill="#ffffff" opacity="1.00" d=" M 969.55 167.76 C 978.85 165.98 989.36 167.02 996.98 173.09 C 1003.34 178.09 1006.84 185.96 1007.72 193.87 C 1008.72 202.96 1007.78 212.75 1002.69 220.58 C 998.68 226.79 992.01 231.06 984.77 232.35 C 975.63 233.96 965.40 232.85 957.96 226.90 C 951.31 221.68 947.79 213.36 947.06 205.09 C 946.22 196.03 947.34 186.28 952.70 178.67 C 956.60 172.99 962.81 169.10 969.55 167.76 M 973.50 171.64 C 969.10 173.01 965.93 176.70 963.75 180.59 C 959.52 188.25 958.76 197.33 959.63 205.89 C 960.42 213.07 962.96 220.48 968.41 225.47 C 972.23 229.00 978.14 229.97 982.88 227.81 C 987.14 225.89 990.04 221.93 992.05 217.84 C 995.41 210.80 996.04 202.78 995.42 195.10 C 994.75 187.81 992.32 180.30 987.02 175.04 C 983.56 171.56 978.19 170.12 973.50 171.64 Z" />
<path fill="#ffffff" opacity="1.00" d=" M 1075.90 168.10 C 1083.59 165.99 1092.68 166.58 1099.01 171.88 C 1106.45 178.28 1108.02 188.77 1107.98 198.06 C 1094.89 198.07 1081.79 198.05 1068.70 198.07 C 1068.86 206.03 1069.73 214.73 1075.09 221.06 C 1078.71 225.36 1084.52 227.13 1090.01 226.95 C 1096.11 226.98 1102.21 226.03 1107.97 224.01 C 1107.94 225.69 1107.93 227.37 1107.93 229.06 C 1098.47 232.39 1088.04 234.47 1078.15 231.81 C 1068.90 229.40 1061.32 222.05 1058.10 213.12 C 1055.41 205.72 1055.19 197.52 1056.80 189.85 C 1058.94 180.05 1066.01 170.91 1075.90 168.10 M 1075.30 174.31 C 1070.26 179.46 1069.22 187.07 1069.04 193.96 C 1077.86 194.04 1086.69 193.99 1095.52 193.99 C 1095.52 188.00 1095.62 181.65 1092.84 176.18 C 1089.56 169.93 1079.97 169.40 1075.30 174.31 Z" />
<path fill="#ffffff" opacity="1.00" d=" M 1154.18 168.09 C 1160.20 166.35 1167.34 166.30 1172.56 170.18 C 1177.27 173.66 1179.30 179.65 1179.55 185.31 C 1179.83 196.83 1179.37 208.37 1179.79 219.89 C 1180.17 222.08 1179.75 224.85 1181.31 226.61 C 1184.26 227.70 1187.46 227.67 1190.57 228.00 C 1190.55 229.35 1190.55 230.71 1190.57 232.06 C 1179.38 232.06 1168.19 232.06 1157.00 232.06 C 1156.99 230.70 1156.99 229.35 1157.00 228.00 C 1160.17 227.66 1163.49 227.71 1166.50 226.50 C 1167.78 223.51 1167.65 220.17 1167.90 216.99 C 1167.97 207.65 1167.95 198.30 1167.91 188.96 C 1167.69 185.11 1167.79 180.77 1165.27 177.58 C 1162.65 174.78 1158.32 174.70 1154.82 175.44 C 1148.69 176.91 1143.55 180.82 1138.75 184.71 C 1138.97 197.52 1138.30 210.37 1139.13 223.16 C 1139.28 228.47 1146.09 227.32 1149.69 228.02 C 1149.68 229.36 1149.68 230.71 1149.69 232.06 C 1138.52 232.06 1127.35 232.06 1116.18 232.06 C 1116.17 230.71 1116.17 229.36 1116.18 228.02 C 1119.83 227.36 1126.50 228.39 1126.71 223.09 C 1127.48 211.09 1126.85 199.03 1127.06 187.01 C 1126.88 182.72 1127.59 178.13 1125.84 174.09 C 1123.02 172.20 1119.40 172.44 1116.18 171.97 C 1116.17 170.65 1116.17 169.32 1116.18 168.00 C 1123.70 168.00 1131.23 168.00 1138.75 168.00 C 1138.74 172.23 1138.77 176.45 1138.73 180.68 C 1142.46 175.08 1147.58 170.04 1154.18 168.09 Z" />
<path fill="#ffffff" opacity="1.00" d=" M 1343.22 168.08 C 1349.25 166.34 1356.42 166.31 1361.64 170.24 C 1366.52 173.89 1368.46 180.20 1368.58 186.08 C 1368.76 197.04 1368.46 208.00 1368.73 218.95 C 1369.06 221.47 1368.71 224.41 1370.24 226.59 C 1373.21 227.68 1376.43 227.68 1379.56 228.00 C 1379.55 229.35 1379.55 230.70 1379.57 232.06 C 1368.38 232.07 1357.19 232.06 1346.00 232.06 C 1345.98 230.70 1345.98 229.35 1346.00 228.00 C 1349.17 227.66 1352.48 227.71 1355.50 226.50 C 1356.87 223.22 1356.70 219.55 1356.93 216.07 C 1356.92 206.71 1357.00 197.34 1356.88 187.97 C 1356.65 184.43 1356.60 180.47 1354.27 177.57 C 1351.65 174.79 1347.36 174.70 1343.88 175.43 C 1337.73 176.89 1332.57 180.80 1327.75 184.71 C 1327.97 197.53 1327.30 210.39 1328.14 223.19 C 1328.31 228.48 1335.10 227.31 1338.69 228.02 C 1338.67 229.36 1338.67 230.71 1338.69 232.06 C 1327.52 232.06 1316.35 232.06 1305.18 232.06 C 1305.17 230.71 1305.17 229.36 1305.18 228.02 C 1308.82 227.36 1315.47 228.39 1315.71 223.12 C 1316.49 211.11 1315.85 199.04 1316.06 187.01 C 1315.87 182.70 1316.61 178.08 1314.81 174.04 C 1311.95 172.23 1308.40 172.42 1305.18 171.98 C 1305.17 170.65 1305.17 169.32 1305.18 168.00 C 1312.70 168.00 1320.23 168.00 1327.75 168.00 C 1327.74 172.23 1327.77 176.45 1327.73 180.68 C 1331.46 175.07 1336.60 170.02 1343.22 168.08 Z" />
<path fill="#ffffff" opacity="1.00" d=" M 1394.30 174.35 C 1400.92 167.64 1411.24 165.56 1420.21 167.87 C 1425.17 169.14 1429.58 172.41 1432.21 176.81 C 1436.17 183.12 1436.93 190.78 1436.98 198.06 C 1423.89 198.07 1410.79 198.05 1397.70 198.07 C 1397.85 205.34 1398.56 213.08 1402.73 219.28 C 1405.59 223.74 1410.70 226.44 1415.93 226.82 C 1423.03 227.31 1430.24 226.36 1436.97 224.01 C 1436.93 225.69 1436.92 227.37 1436.93 229.06 C 1427.47 232.39 1417.05 234.46 1407.17 231.82 C 1397.35 229.27 1389.47 221.17 1386.55 211.55 C 1382.87 199.00 1384.59 183.82 1394.30 174.35 M 1404.30 174.30 C 1399.26 179.46 1398.22 187.06 1398.04 193.96 C 1406.86 194.04 1415.69 193.99 1424.52 193.99 C 1424.52 188.02 1424.62 181.69 1421.86 176.23 C 1418.62 169.94 1408.99 169.39 1404.30 174.30 Z" />
<path fill="#ffffff" opacity="1.00" d=" M 1453.69 171.94 C 1462.35 168.52 1471.71 166.18 1481.08 167.22 C 1485.58 167.71 1490.23 169.27 1493.33 172.73 C 1496.32 176.01 1497.38 180.57 1497.47 184.90 C 1497.58 195.26 1497.41 205.62 1497.55 215.98 C 1497.76 219.12 1497.75 222.58 1499.63 225.28 C 1501.28 227.43 1504.26 226.85 1506.64 227.25 C 1506.70 228.72 1506.80 230.20 1506.90 231.67 C 1502.57 232.92 1497.54 233.99 1493.46 231.50 C 1490.62 229.82 1489.41 226.61 1488.37 223.68 C 1482.98 228.47 1476.45 232.64 1469.05 232.98 C 1462.93 233.44 1456.58 231.04 1452.71 226.20 C 1448.71 221.46 1447.97 214.61 1449.86 208.83 C 1451.72 203.28 1456.52 199.08 1461.94 197.10 C 1469.54 194.24 1477.78 193.94 1485.82 193.99 C 1485.63 188.28 1486.50 182.25 1484.14 176.87 C 1480.17 167.54 1463.42 169.87 1462.22 179.94 C 1461.92 181.30 1461.76 182.68 1461.58 184.07 C 1458.93 184.06 1456.31 184.06 1453.69 184.06 C 1453.68 180.02 1453.68 175.98 1453.69 171.94 M 1465.42 203.36 C 1459.71 208.24 1459.87 218.55 1466.35 222.72 C 1472.20 226.82 1479.78 224.44 1485.81 221.99 C 1485.80 214.01 1485.82 206.02 1485.80 198.04 C 1478.77 197.91 1470.92 198.43 1465.42 203.36 Z" />
<path fill="#ffffff" opacity="1.00" d=" M 1268.06 168.00 C 1275.56 168.00 1283.06 168.00 1290.57 168.00 C 1290.57 184.68 1290.54 201.35 1290.58 218.03 C 1290.76 220.71 1290.47 223.70 1291.91 226.08 C 1294.72 227.86 1298.25 227.57 1301.44 228.03 C 1301.42 229.37 1301.42 230.71 1301.44 232.06 C 1290.31 232.06 1279.18 232.06 1268.06 232.06 C 1268.04 230.71 1268.04 229.36 1268.06 228.02 C 1271.28 227.51 1275.11 227.95 1277.80 225.77 C 1278.93 223.01 1278.82 219.95 1278.93 217.02 C 1278.94 205.66 1278.94 194.30 1278.92 182.94 C 1278.83 180.02 1278.93 176.97 1277.79 174.22 C 1275.04 172.13 1271.29 172.48 1268.06 171.98 C 1268.04 170.65 1268.04 169.32 1268.06 168.00 Z" />
</g>
</svg>
