<?xml version="1.0" encoding="UTF-8" ?>
<!DOCTYPE svg PUBLIC "-//W3C//DTD SVG 1.1//EN" "http://www.w3.org/Graphics/SVG/1.1/DTD/svg11.dtd">
<svg width="603pt" height="162pt" viewBox="0 0 603 162" version="1.1" xmlns="http://www.w3.org/2000/svg">
<g id="#efea44ff">
<path fill="#efea44" opacity="1.00" d=" M 51.73 2.81 C 64.41 -0.87 78.21 -0.83 90.83 3.11 C 106.96 8.24 120.54 20.07 128.83 34.72 C 126.50 36.78 124.25 38.93 121.99 41.07 C 124.34 45.26 126.65 49.56 127.68 54.30 C 127.35 54.53 126.69 55.00 126.37 55.23 C 124.07 51.27 123.16 46.69 120.74 42.78 C 119.39 43.96 118.06 45.15 116.69 46.30 C 116.64 46.21 116.53 46.04 116.47 45.96 C 114.98 43.57 113.53 41.14 111.74 38.96 C 111.46 38.44 111.17 37.93 110.87 37.42 C 109.96 36.18 109.01 34.97 107.99 33.81 C 107.74 33.56 107.24 33.04 106.99 32.79 C 105.79 31.58 104.59 30.39 103.33 29.25 C 103.13 29.09 102.75 28.77 102.55 28.61 C 101.41 27.71 100.27 26.82 99.08 25.99 C 98.84 25.84 98.36 25.53 98.12 25.38 C 96.67 24.51 95.22 23.63 93.72 22.85 C 93.47 22.73 92.96 22.50 92.70 22.38 C 91.51 21.86 90.31 21.36 89.09 20.89 L 88.15 20.57 C 87.06 20.21 85.96 19.87 84.85 19.54 C 84.56 19.46 83.96 19.31 83.66 19.23 C 82.25 18.93 80.84 18.67 79.42 18.45 L 78.50 18.34 C 76.93 18.16 75.36 17.99 73.78 17.86 C 73.49 17.85 72.92 17.82 72.63 17.80 C 71.90 17.80 70.44 17.79 69.71 17.78 C 69.23 17.81 68.26 17.85 67.78 17.87 C 66.45 17.98 65.13 18.11 63.82 18.26 C 63.55 18.30 63.02 18.37 62.75 18.40 C 61.22 18.63 59.69 18.89 58.17 19.17 C 57.66 19.28 57.15 19.40 56.65 19.53 C 55.92 19.76 54.46 20.23 53.73 20.47 L 52.82 20.77 C 51.60 21.23 50.39 21.73 49.19 22.25 C 48.90 22.39 48.32 22.67 48.02 22.81 C 46.66 23.51 45.33 24.26 44.02 25.04 C 43.77 25.20 43.29 25.52 43.04 25.68 C 41.77 26.57 40.54 27.52 39.31 28.47 C 39.11 28.63 38.70 28.96 38.50 29.12 C 37.16 30.30 35.90 31.57 34.66 32.85 C 34.49 33.03 34.14 33.39 33.97 33.57 C 32.81 34.90 31.70 36.28 30.61 37.67 C 30.44 37.88 30.11 38.32 29.95 38.53 L 29.52 39.24 C 28.04 41.72 26.55 44.19 25.04 46.64 C 23.64 45.43 22.28 44.16 20.92 42.91 C 18.73 46.73 17.04 50.80 15.92 55.06 C 15.81 53.42 15.67 51.78 15.48 50.15 C 16.09 46.89 17.89 44.07 19.47 41.22 C 17.20 39.09 14.99 36.90 12.70 34.80 C 21.15 19.84 35.14 7.73 51.73 2.81 M 46.74 6.68 C 33.53 12.29 22.48 22.49 15.14 34.75 C 18.42 37.62 21.43 40.78 24.80 43.54 C 29.12 35.66 35.19 28.63 42.84 23.83 C 54.29 16.33 68.72 14.78 81.98 17.07 C 96.87 19.80 110.11 29.74 117.19 43.08 C 120.18 40.26 123.13 37.38 126.35 34.82 C 124.50 31.59 122.26 28.62 119.99 25.68 L 119.72 25.64 C 119.51 25.26 119.24 24.96 118.91 24.76 C 114.43 18.99 108.57 14.39 102.40 10.55 C 85.87 0.47 64.52 -0.85 46.74 6.68 Z" />
<path fill="#efea44" opacity="1.00" d=" M 104.77 43.81 C 105.79 44.09 106.81 44.39 107.82 44.72 L 105.99 44.27 C 108.94 48.78 113.70 51.83 115.75 56.96 C 115.67 57.46 115.52 58.46 115.45 58.95 C 114.95 58.79 113.94 58.47 113.44 58.31 C 113.61 74.53 113.46 90.75 113.52 106.96 C 113.64 114.40 112.07 121.96 108.37 128.46 C 104.06 136.18 96.75 141.91 88.58 145.11 C 85.40 146.34 82.09 147.24 78.78 148.05 C 76.55 148.19 74.34 148.43 72.11 148.57 C 70.91 148.62 69.71 148.67 68.51 148.64 C 66.08 148.54 63.64 148.30 61.24 147.88 C 58.21 147.15 55.24 146.20 52.30 145.17 C 46.86 142.90 41.77 139.62 37.83 135.19 C 31.39 128.13 28.22 118.49 28.18 109.02 C 28.11 91.78 28.22 74.53 28.13 57.28 C 27.66 57.83 26.71 58.91 26.23 59.45 C 26.23 58.88 26.24 57.74 26.24 57.16 C 27.01 55.35 27.79 53.54 28.57 51.74 C 31.62 50.03 33.57 47.10 35.63 44.39 C 36.12 44.38 37.09 44.36 37.57 44.35 C 36.36 46.38 34.96 48.29 33.65 50.27 C 33.54 50.40 33.32 50.66 33.21 50.79 L 33.79 50.85 C 39.71 51.63 45.69 51.06 51.64 51.23 C 51.77 69.95 51.27 88.69 51.91 107.40 C 51.83 109.84 51.07 112.17 50.29 114.46 C 49.65 111.66 49.10 108.83 49.16 105.96 C 49.20 88.56 49.19 71.16 49.17 53.76 C 43.00 53.72 36.82 53.73 30.64 53.75 C 30.63 71.52 30.64 89.29 30.63 107.05 C 30.61 115.97 33.23 125.10 39.01 132.02 C 46.74 141.37 59.00 146.32 71.00 146.31 C 82.45 145.91 94.02 141.31 101.73 132.66 C 107.80 125.99 110.91 116.93 110.85 107.97 C 110.87 89.91 110.82 71.85 110.87 53.79 C 104.31 53.72 97.75 53.65 91.19 53.84 C 91.26 68.58 91.20 83.31 91.22 98.05 C 91.18 102.82 91.70 107.71 90.18 112.33 C 87.67 106.84 89.00 100.80 88.84 95.01 C 88.73 80.47 88.98 65.93 88.70 51.39 C 95.36 51.03 102.02 51.31 108.69 51.23 C 107.15 49.23 105.62 47.22 104.28 45.08 L 104.77 43.81 Z" />
<path fill="#efea44" opacity="1.00" d=" M 73.02 51.51 C 74.45 51.13 75.90 50.83 77.35 50.53 C 76.94 51.55 76.52 52.58 76.10 53.60 C 74.59 53.43 73.08 53.32 71.56 53.26 C 71.93 52.82 72.65 51.95 73.02 51.51 Z" />
<path fill="#efea44" opacity="1.00" d=" M 70.14 112.01 C 71.64 111.30 73.04 113.92 71.03 114.15 C 69.45 114.85 68.21 112.40 70.14 112.01 Z" />
<path fill="#efea44" opacity="1.00" d=" M 51.28 116.77 C 51.98 116.77 53.38 116.76 54.07 116.76 C 60.56 125.19 73.77 126.47 82.38 120.65 C 82.45 120.58 82.61 120.46 82.69 120.40 C 83.07 120.02 83.83 119.27 84.21 118.89 C 84.85 118.22 85.49 117.55 86.14 116.89 C 86.83 116.86 88.22 116.78 88.91 116.75 C 81.33 129.96 59.10 129.62 51.28 116.77 Z" />
</g>
<g id="#ffffffff">
<path fill="#ffffff" opacity="1.00" d=" M 46.74 6.68 C 64.52 -0.85 85.87 0.47 102.40 10.55 C 108.57 14.39 114.43 18.99 118.91 24.76 C 118.35 24.77 117.24 24.78 116.68 24.79 C 113.94 26.32 111.30 28.05 108.76 29.90 C 109.73 29.81 111.69 29.63 112.67 29.54 C 112.57 30.53 112.38 32.51 112.29 33.50 C 114.42 30.94 116.26 28.16 118.03 25.35 C 118.46 25.42 119.30 25.57 119.72 25.64 L 119.99 25.68 C 122.26 28.62 124.50 31.59 126.35 34.82 C 123.13 37.38 120.18 40.26 117.19 43.08 C 110.11 29.74 96.87 19.80 81.98 17.07 C 68.72 14.78 54.29 16.33 42.84 23.83 C 35.19 28.63 29.12 35.66 24.80 43.54 C 21.43 40.78 18.42 37.62 15.14 34.75 C 22.48 22.49 33.53 12.29 46.74 6.68 M 64.79 4.23 C 64.44 7.69 63.87 11.13 63.63 14.61 C 64.20 13.84 65.32 12.31 65.88 11.55 C 66.60 12.67 67.55 13.50 68.74 14.02 C 68.27 12.00 67.61 10.03 66.89 8.09 C 66.46 6.66 66.54 4.71 64.79 4.23 M 70.31 4.07 C 70.14 7.34 69.86 10.62 70.28 13.89 C 75.17 14.47 75.43 8.92 74.36 5.51 C 73.66 3.97 71.69 4.28 70.31 4.07 M 56.32 5.95 C 56.60 7.86 56.85 9.78 57.05 11.70 C 58.55 10.21 58.46 8.21 58.19 6.25 C 60.91 7.78 61.40 11.96 59.87 14.47 C 59.66 12.26 58.96 11.61 57.79 12.53 C 57.42 14.46 58.16 15.24 59.99 14.87 C 63.52 13.95 62.09 9.31 61.02 6.93 C 60.08 5.03 57.95 5.53 56.32 5.95 M 79.26 14.90 C 81.00 13.06 81.02 10.31 82.41 8.23 C 82.22 7.35 81.82 5.57 81.63 4.68 C 79.45 7.48 79.67 11.52 79.26 14.90 M 83.57 9.69 C 83.20 9.59 82.47 9.38 82.10 9.28 C 82.59 11.18 81.37 14.13 83.53 15.22 C 84.21 12.19 84.79 9.13 85.61 6.13 C 83.24 5.59 83.90 8.23 83.57 9.69 M 52.10 6.72 C 52.95 10.06 53.01 14.53 56.09 16.62 C 55.03 13.36 55.16 8.81 52.10 6.72 M 85.07 16.11 C 86.12 15.45 87.15 14.77 88.17 14.06 C 88.55 14.88 89.29 16.51 89.66 17.33 C 90.75 13.94 90.62 10.29 90.77 6.77 C 88.09 9.27 86.36 12.72 85.07 16.11 M 46.37 9.98 C 47.19 12.79 50.29 13.56 51.70 15.90 C 51.07 16.45 49.82 17.55 49.19 18.11 C 51.06 18.13 53.72 16.72 52.49 14.50 C 51.09 12.93 49.16 11.92 47.70 10.40 C 48.58 9.71 49.37 8.92 50.06 8.03 C 48.65 8.30 47.42 9.01 46.37 9.98 M 92.06 16.98 C 92.27 18.54 94.03 18.75 95.22 19.14 C 94.53 18.11 93.83 17.10 93.11 16.09 C 94.12 13.27 95.57 10.46 98.98 10.40 C 94.82 7.65 91.79 13.43 92.06 16.98 M 40.54 12.14 C 42.16 15.17 43.58 18.36 45.76 21.05 C 45.95 19.62 45.38 18.30 44.87 17.00 C 46.15 17.93 47.41 19.10 49.12 18.99 C 48.03 17.90 46.89 16.86 45.74 15.84 C 45.66 14.38 45.96 12.61 44.58 11.64 C 43.51 10.33 41.78 11.99 40.54 12.14 M 100.24 11.90 C 98.62 14.54 97.36 17.38 96.01 20.17 C 99.55 19.17 99.91 14.43 101.87 11.69 C 101.46 11.74 100.65 11.85 100.24 11.90 M 35.95 14.96 C 37.57 17.73 39.24 20.46 40.96 23.17 C 42.03 22.54 43.11 21.92 44.19 21.30 C 42.58 20.96 40.45 21.12 40.13 19.01 C 40.53 18.55 41.33 17.62 41.74 17.16 C 40.80 17.29 39.86 17.42 38.92 17.56 C 38.72 17.04 38.32 16.00 38.13 15.48 C 38.71 14.77 39.28 14.03 39.82 13.28 C 38.50 13.77 37.22 14.36 35.95 14.96 M 104.45 14.48 C 102.48 15.75 101.11 17.88 100.23 20.03 C 99.10 22.15 102.14 24.48 103.90 23.02 C 105.78 21.20 107.61 18.86 107.87 16.18 C 107.24 15.06 105.77 13.84 104.45 14.48 M 32.88 16.52 C 33.69 18.41 34.74 20.18 35.76 21.96 C 33.56 21.44 32.36 18.96 29.99 18.98 C 32.63 21.39 35.03 24.69 38.62 25.64 C 36.84 22.59 36.36 18.05 32.88 16.52 M 104.50 26.09 C 106.50 25.51 107.80 23.77 109.42 22.59 C 108.72 24.58 107.74 26.53 107.66 28.69 C 110.27 26.19 112.94 23.61 114.64 20.37 C 112.75 21.17 111.48 22.82 109.98 24.15 C 110.57 22.11 111.33 20.11 111.62 18.00 C 108.73 20.17 106.55 23.15 104.50 26.09 M 27.84 20.64 C 29.11 24.11 32.07 26.68 34.77 29.08 C 34.09 25.48 30.73 22.72 27.84 20.64 M 24.44 23.78 C 25.70 25.32 27.06 26.77 28.30 28.33 C 26.38 27.62 24.50 26.81 22.59 26.05 C 22.62 26.34 22.66 26.93 22.68 27.22 C 24.95 29.56 27.30 31.99 30.22 33.54 C 29.30 31.76 27.92 30.30 26.70 28.73 C 28.63 29.45 30.51 30.26 32.44 30.98 C 30.87 27.85 27.78 24.98 24.44 23.78 M 20.17 29.03 C 20.29 32.77 25.86 32.84 26.69 36.47 C 23.17 36.08 21.13 32.71 17.79 31.87 C 19.13 34.56 22.13 35.82 24.50 37.45 C 26.32 38.62 28.67 35.42 27.01 34.03 C 24.89 32.16 22.51 30.61 20.17 29.03 M 113.44 34.45 C 114.41 35.56 115.39 36.75 116.89 37.12 C 116.51 36.54 115.75 35.39 115.37 34.81 C 117.73 32.94 120.24 31.22 122.21 28.92 C 118.66 29.22 116.42 32.75 113.44 34.45 Z" />
<path fill="#ffffff" opacity="1.00" d=" M 65.37 9.35 C 68.73 9.42 63.87 12.38 65.37 9.35 Z" />
<path fill="#ffffff" opacity="1.00" d=" M 88.34 12.51 C 88.95 13.13 88.95 13.13 88.34 12.51 Z" />
<path fill="#ffffff" opacity="1.00" d=" M 42.93 12.83 C 44.30 12.72 44.80 13.35 44.42 14.73 C 43.04 14.85 42.54 14.21 42.93 12.83 Z" />
<path fill="#ffffff" opacity="1.00" d=" M 113.45 28.41 C 114.09 29.00 114.09 29.00 113.45 28.41 Z" />
<path fill="#ffffff" opacity="1.00" d=" M 141.60 43.97 C 142.94 44.00 144.29 44.03 145.64 44.06 C 145.77 50.03 145.16 56.07 145.97 61.99 C 146.55 66.75 154.16 67.62 155.64 63.01 C 157.01 56.82 155.93 50.33 156.25 44.02 C 157.59 44.01 158.93 44.00 160.27 43.99 C 160.21 49.29 160.38 54.59 160.20 59.88 C 160.12 63.45 158.32 67.47 154.59 68.44 C 149.98 70.15 143.28 68.56 142.14 63.14 C 141.02 56.83 141.85 50.35 141.60 43.97 Z" />
<path fill="#ffffff" opacity="1.00" d=" M 165.87 43.98 C 167.46 44.00 169.05 44.01 170.64 44.04 C 174.49 50.46 178.29 56.92 182.43 63.15 C 182.11 56.77 182.33 50.38 182.27 44.00 C 183.23 44.00 185.17 44.00 186.13 44.00 C 186.13 52.33 186.13 60.66 186.13 68.99 C 184.72 69.00 183.31 69.01 181.90 69.03 C 177.66 62.48 173.62 55.82 169.63 49.12 C 169.85 55.75 169.68 62.38 169.73 69.00 C 168.77 69.00 166.83 69.00 165.87 69.00 C 165.87 60.66 165.87 52.32 165.87 43.98 Z" />
<path fill="#ffffff" opacity="1.00" d=" M 191.87 44.00 C 193.24 44.00 194.62 44.00 196.00 44.00 C 196.00 52.33 196.00 60.67 196.00 69.00 C 194.62 69.00 193.24 69.00 191.87 69.00 C 191.87 60.67 191.87 52.33 191.87 44.00 Z" />
<path fill="#ffffff" opacity="1.00" d=" M 198.29 43.96 C 199.73 44.00 201.18 44.04 202.63 44.11 C 204.50 51.11 207.25 57.88 208.71 64.98 C 211.01 58.04 213.21 51.07 215.34 44.08 C 216.76 44.03 218.20 43.99 219.63 43.96 C 216.70 52.28 213.91 60.65 211.03 68.99 C 209.57 69.00 208.12 69.01 206.67 69.02 C 203.86 60.67 200.97 52.35 198.29 43.96 Z" />
<path fill="#ffffff" opacity="1.00" d=" M 223.00 44.00 C 227.25 44.00 231.50 43.98 235.75 44.02 C 235.75 44.76 235.75 46.24 235.75 46.98 C 232.78 47.01 229.83 47.00 226.87 47.00 C 226.86 49.67 226.86 52.33 226.87 55.00 C 229.62 55.00 232.38 55.00 235.13 55.00 C 235.13 55.75 235.13 57.25 235.13 58.00 C 232.38 58.00 229.62 58.00 226.87 58.00 C 226.86 60.67 226.86 63.33 226.87 66.00 C 230.00 66.00 233.13 66.00 236.27 66.00 C 236.27 66.75 236.27 68.25 236.27 69.00 C 231.84 69.00 227.42 69.00 223.00 69.00 C 223.00 60.67 223.00 52.33 223.00 44.00 Z" />
<path fill="#ffffff" opacity="1.00" d=" M 240.87 44.00 C 245.35 44.37 250.48 42.83 254.38 45.74 C 258.39 49.24 256.58 56.58 251.38 57.85 C 254.90 60.87 256.74 65.23 259.31 68.98 C 257.78 68.99 256.26 69.01 254.73 69.03 C 252.53 65.64 251.11 61.63 247.96 58.96 C 247.19 58.97 245.64 59.00 244.87 59.02 C 244.87 62.34 244.86 65.67 244.87 68.99 C 243.53 69.00 242.20 69.00 240.87 69.00 C 240.87 60.67 240.87 52.34 240.87 44.00 M 244.87 46.97 C 244.86 49.99 244.86 53.02 244.87 56.04 C 246.58 55.92 248.39 56.25 250.04 55.62 C 253.15 53.99 253.25 48.66 249.94 47.15 C 248.26 46.92 246.56 47.00 244.87 46.97 Z" />
<path fill="#ffffff" opacity="1.00" d=" M 263.04 46.00 C 266.42 43.39 271.07 43.64 274.99 44.71 C 274.99 46.06 275.00 47.41 275.02 48.76 C 272.34 46.83 268.13 45.96 265.66 48.59 C 264.09 50.38 265.41 53.05 267.46 53.71 C 270.89 55.54 275.76 57.40 276.02 61.91 C 276.56 65.34 273.61 68.00 270.55 68.76 C 267.27 69.40 263.96 68.80 260.83 67.75 C 260.76 66.23 260.69 64.70 260.61 63.18 C 263.07 65.12 266.32 66.92 269.52 65.66 C 272.05 65.32 272.79 61.61 270.85 60.11 C 268.14 58.04 264.55 57.27 262.26 54.63 C 260.08 52.22 260.36 47.94 263.04 46.00 Z" />
<path fill="#ffffff" opacity="1.00" d=" M 279.87 44.00 C 281.24 44.00 282.62 44.00 284.00 44.00 C 284.00 52.33 284.00 60.67 284.00 69.00 C 282.62 69.00 281.24 69.00 279.87 69.00 C 279.87 60.67 279.87 52.33 279.87 44.00 Z" />
<path fill="#ffffff" opacity="1.00" d=" M 289.87 44.01 C 295.53 44.16 302.17 42.97 306.78 47.11 C 311.98 52.69 310.99 63.40 304.06 67.19 C 299.78 69.74 294.61 68.87 289.87 68.99 C 289.87 60.66 289.87 52.33 289.87 44.01 M 293.87 46.98 C 293.87 53.33 293.86 59.68 293.87 66.02 C 297.02 66.03 300.65 66.36 303.07 63.90 C 306.45 60.42 306.46 54.66 304.52 50.46 C 302.40 46.71 297.60 46.84 293.87 46.98 Z" />
<path fill="#ffffff" opacity="1.00" d=" M 320.16 44.01 C 321.68 44.01 323.20 44.03 324.73 44.07 C 327.56 52.41 330.58 60.69 333.50 69.00 C 332.03 69.00 330.56 69.00 329.10 69.00 C 328.40 66.67 327.70 64.33 326.99 62.00 C 323.93 62.02 320.87 61.92 317.82 62.04 C 316.69 64.15 316.38 66.63 315.65 68.90 C 314.19 68.96 312.73 69.00 311.28 69.04 C 314.20 60.68 317.27 52.37 320.16 44.01 M 322.37 48.04 C 321.29 51.74 319.92 55.36 318.63 59.00 C 321.09 59.00 323.54 59.00 326.00 58.97 C 324.70 55.36 323.26 51.78 322.37 48.04 Z" />
<path fill="#ffffff" opacity="1.00" d=" M 336.87 44.01 C 342.56 44.16 349.26 42.96 353.86 47.19 C 358.95 52.80 357.96 63.40 351.07 67.18 C 346.78 69.74 341.61 68.87 336.87 68.99 C 336.87 60.66 336.87 52.33 336.87 44.01 M 340.87 46.98 C 340.86 53.33 340.87 59.68 340.87 66.02 C 344.02 66.03 347.66 66.36 350.09 63.89 C 353.46 60.39 353.47 54.59 351.49 50.40 C 349.33 46.70 344.58 46.85 340.87 46.98 Z" />
<path fill="#ffffff" opacity="1.00" d=" M 369.87 43.98 C 371.46 44.00 373.05 44.01 374.65 44.05 C 378.49 50.50 382.35 56.94 386.44 63.23 C 386.09 56.83 386.34 50.41 386.27 44.00 C 387.23 44.00 389.17 44.00 390.13 44.00 C 390.13 52.33 390.13 60.66 390.13 68.99 C 388.71 69.00 387.30 69.01 385.89 69.02 C 381.65 62.47 377.63 55.78 373.59 49.10 C 373.90 55.73 373.66 62.37 373.73 69.00 C 372.77 69.00 370.83 69.00 369.87 69.00 C 369.87 60.66 369.86 52.32 369.87 43.98 Z" />
<path fill="#ffffff" opacity="1.00" d=" M 402.16 44.02 C 403.67 44.01 405.18 44.02 406.70 44.05 C 409.58 52.39 412.56 60.68 415.50 69.00 C 414.03 69.00 412.56 69.00 411.10 69.00 C 410.40 66.66 409.70 64.33 408.99 62.00 C 405.87 62.00 402.75 62.00 399.63 61.99 C 398.95 64.28 398.28 66.56 397.68 68.87 C 396.21 68.94 394.74 69.00 393.28 69.05 C 396.18 60.69 399.27 52.39 402.16 44.02 M 400.64 59.01 C 403.09 59.00 405.54 59.00 408.00 58.97 C 406.71 55.36 405.25 51.80 404.41 48.05 C 403.27 51.74 401.92 55.36 400.64 59.01 Z" />
<path fill="#ffffff" opacity="1.00" d=" M 421.95 45.92 C 425.63 43.47 430.28 43.68 434.41 44.65 C 434.46 45.43 434.57 47.00 434.62 47.78 C 431.54 47.08 428.10 46.27 425.18 47.91 C 419.49 51.06 418.86 60.15 423.65 64.36 C 426.79 66.91 431.33 66.30 434.57 64.23 C 434.54 65.11 434.48 66.87 434.45 67.76 C 433.70 67.99 432.20 68.47 431.46 68.71 C 427.01 69.66 421.81 68.77 418.91 64.98 C 414.69 59.25 415.79 49.88 421.95 45.92 Z" />
<path fill="#ffffff" opacity="1.00" d=" M 438.87 44.00 C 440.24 44.00 441.62 44.00 443.00 44.00 C 443.00 52.33 443.00 60.67 443.00 69.00 C 441.62 69.00 440.24 69.00 438.87 69.00 C 438.86 60.67 438.86 52.33 438.87 44.00 Z" />
<path fill="#ffffff" opacity="1.00" d=" M 457.00 44.10 C 461.50 43.30 466.60 45.25 468.69 49.49 C 471.08 54.21 470.88 60.40 467.77 64.75 C 463.82 70.15 454.85 70.52 450.42 65.55 C 444.53 58.87 447.23 45.30 457.00 44.10 M 456.34 47.48 C 451.03 49.97 450.52 57.46 452.81 62.20 C 454.54 66.21 460.25 67.35 463.41 64.35 C 466.64 61.21 466.56 56.05 465.52 51.98 C 464.52 48.19 459.97 45.71 456.34 47.48 Z" />
<path fill="#ffffff" opacity="1.00" d=" M 474.87 43.98 C 476.46 44.00 478.06 44.02 479.67 44.06 C 483.50 50.48 487.28 56.94 491.46 63.15 C 491.08 56.77 491.34 50.38 491.27 44.00 C 492.23 44.00 494.17 44.00 495.13 44.00 C 495.13 52.33 495.13 60.66 495.13 68.99 C 493.71 69.00 492.29 69.01 490.87 69.02 C 486.66 62.46 482.62 55.79 478.61 49.11 C 478.88 55.74 478.67 62.37 478.73 69.00 C 477.76 69.00 475.83 69.00 474.87 69.00 C 474.87 60.66 474.86 52.32 474.87 43.98 Z" />
<path fill="#ffffff" opacity="1.00" d=" M 507.15 44.01 C 508.67 44.01 510.20 44.03 511.73 44.07 C 514.56 52.41 517.58 60.69 520.50 69.00 C 519.03 69.00 517.56 69.00 516.10 69.00 C 515.40 66.66 514.69 64.33 513.99 62.00 C 510.87 62.00 507.76 62.01 504.65 61.98 C 503.95 64.27 503.28 66.57 502.66 68.89 C 501.19 68.95 499.74 69.00 498.29 69.04 C 501.18 60.68 504.28 52.38 507.15 44.01 M 505.64 59.01 C 508.09 59.00 510.54 59.00 513.00 58.96 C 511.70 55.36 510.24 51.80 509.42 48.05 C 508.26 51.74 506.92 55.36 505.64 59.01 Z" />
<path fill="#ffffff" opacity="1.00" d=" M 522.87 44.00 C 524.20 44.00 525.53 44.00 526.87 44.01 C 526.86 51.34 526.87 58.67 526.87 66.00 C 529.95 66.00 533.04 66.00 536.13 66.00 C 536.13 66.75 536.13 68.25 536.13 69.00 C 531.71 69.00 527.29 69.00 522.87 69.00 C 522.86 60.67 522.86 52.33 522.87 44.00 Z" />
<path fill="#ffffff" opacity="1.00" d=" M 30.64 53.75 C 36.82 53.73 43.00 53.72 49.17 53.76 C 49.19 71.16 49.20 88.56 49.16 105.96 C 49.10 108.83 49.65 111.66 50.29 114.46 C 50.11 115.02 49.75 116.14 49.57 116.70 C 50.00 116.72 50.86 116.75 51.28 116.77 C 59.10 129.62 81.33 129.96 88.91 116.75 C 89.50 116.73 90.68 116.71 91.27 116.70 C 90.89 115.25 90.52 113.79 90.18 112.33 C 91.70 107.71 91.18 102.82 91.22 98.05 C 91.20 83.31 91.26 68.58 91.19 53.84 C 97.75 53.65 104.31 53.72 110.87 53.79 C 110.82 71.85 110.87 89.91 110.85 107.97 C 110.91 116.93 107.80 125.99 101.73 132.66 C 94.02 141.31 82.45 145.91 71.00 146.31 C 59.00 146.32 46.74 141.37 39.01 132.02 C 33.23 125.10 30.61 115.97 30.63 107.05 C 30.64 89.29 30.63 71.52 30.64 53.75 M 35.67 62.43 C 39.04 63.77 42.86 63.05 46.38 62.79 C 46.34 62.16 46.26 60.92 46.22 60.30 C 43.33 60.29 40.44 60.30 37.55 60.33 C 37.47 59.61 37.32 58.19 37.25 57.47 C 34.69 57.77 33.70 60.77 35.67 62.43 M 95.19 58.38 C 95.05 58.96 94.76 60.13 94.62 60.71 C 97.14 60.72 99.66 60.54 102.18 60.35 C 101.41 60.52 99.87 60.86 99.10 61.03 C 99.84 61.55 100.58 62.06 101.33 62.57 C 102.92 62.00 104.52 61.47 106.13 60.95 C 106.18 60.08 106.23 59.21 106.28 58.35 C 102.58 58.36 98.88 58.19 95.19 58.38 M 95.03 65.57 C 98.76 65.53 102.49 65.53 106.22 65.54 C 106.22 64.75 106.23 63.96 106.23 63.17 C 103.68 63.17 101.08 63.05 98.61 63.79 C 98.55 62.90 98.54 62.01 98.45 61.12 C 95.38 61.12 94.72 63.09 95.03 65.57 M 34.60 67.70 C 34.56 69.20 34.05 70.80 34.74 72.21 C 36.82 74.44 40.39 74.33 43.15 73.79 C 46.77 73.56 46.97 67.34 43.57 66.61 C 40.57 65.77 37.32 66.21 34.60 67.70 M 94.87 68.77 C 94.86 69.41 94.86 70.67 94.86 71.30 C 96.94 71.36 99.03 71.37 101.11 71.36 C 99.02 71.79 96.94 72.25 94.87 72.76 C 94.87 73.60 94.86 75.28 94.86 76.12 C 98.61 76.14 102.37 76.14 106.13 76.13 C 106.15 75.50 106.18 74.23 106.19 73.60 C 104.06 73.60 101.93 73.61 99.80 73.56 C 102.15 72.15 107.12 72.72 106.30 68.78 C 102.49 68.75 98.68 68.76 94.87 68.77 M 34.40 76.50 C 34.47 77.40 34.53 78.30 34.60 79.20 C 36.10 79.29 37.61 79.38 39.12 79.49 C 37.62 79.84 36.11 80.16 34.64 80.61 C 34.57 81.36 34.45 82.85 34.39 83.59 C 35.90 82.96 37.40 82.32 38.92 81.69 C 40.35 82.75 42.16 84.03 44.01 83.10 C 46.61 82.02 45.29 78.68 45.68 76.51 C 41.92 76.54 38.16 76.54 34.40 76.50 M 96.03 81.06 C 93.95 81.22 95.10 83.89 94.78 85.20 C 98.62 85.87 102.46 86.62 106.35 86.99 C 106.62 84.78 104.63 83.93 103.08 82.94 C 104.77 82.26 106.72 81.66 106.40 79.31 C 102.93 79.82 99.45 80.28 96.03 81.06 M 34.74 87.81 C 34.26 89.30 34.14 91.24 35.20 92.51 C 36.80 93.30 38.69 92.72 40.41 92.81 C 40.39 92.18 40.34 90.93 40.32 90.30 C 38.96 90.30 37.60 90.29 36.25 90.27 C 37.00 87.85 40.07 88.45 41.97 88.65 C 44.47 88.98 43.21 91.40 42.48 92.74 C 43.51 92.65 44.55 92.57 45.59 92.49 C 45.73 90.44 46.57 87.35 44.02 86.45 C 41.02 86.14 36.98 85.16 34.74 87.81 M 94.84 89.80 C 94.80 90.71 94.73 92.55 94.70 93.46 C 96.45 93.82 98.21 94.15 99.97 94.49 C 98.27 94.67 96.54 94.70 94.90 95.21 C 94.73 96.43 94.80 97.67 94.82 98.90 C 98.59 98.85 102.37 98.86 106.15 98.86 C 106.16 98.27 106.18 97.09 106.18 96.50 C 103.09 96.46 100.00 96.50 96.91 96.60 C 100.01 95.46 104.49 96.55 106.58 93.80 C 103.69 93.19 100.77 92.81 97.86 92.37 C 100.63 92.32 103.39 92.32 106.16 92.25 C 106.16 91.64 106.15 90.41 106.15 89.80 C 102.38 89.79 98.61 89.79 94.84 89.80 M 34.41 95.63 C 34.41 97.64 34.41 99.65 34.44 101.66 C 36.55 101.81 37.34 100.74 36.81 98.45 C 37.28 98.42 38.20 98.35 38.67 98.31 C 38.66 99.09 38.65 100.65 38.65 101.42 C 39.28 101.44 40.55 101.46 41.18 101.47 C 41.22 100.61 41.31 98.88 41.36 98.02 C 43.25 98.12 42.95 100.23 43.41 101.56 C 43.96 101.53 45.07 101.46 45.62 101.42 C 45.61 99.50 45.61 97.58 45.61 95.66 C 41.88 95.69 38.14 95.70 34.41 95.63 M 95.40 102.63 C 95.34 103.55 95.28 104.47 95.23 105.39 C 96.64 105.48 98.05 105.58 99.47 105.67 L 99.46 107.39 C 97.89 107.32 96.32 107.25 94.75 107.19 C 94.84 107.78 95.03 108.95 95.12 109.54 C 98.70 110.05 102.31 110.50 105.93 110.52 C 106.03 109.96 106.22 108.83 106.32 108.26 C 104.74 108.00 103.16 107.83 101.61 107.43 C 101.04 105.20 105.05 106.52 106.33 106.34 C 106.38 105.67 106.47 104.34 106.52 103.67 C 102.81 103.37 99.09 103.11 95.40 102.63 M 34.57 110.49 C 35.32 112.35 34.93 115.13 37.10 116.02 C 38.73 117.13 40.29 115.44 41.59 114.62 C 43.29 114.97 45.75 115.28 46.46 113.18 C 46.49 111.46 45.90 109.82 45.51 108.18 C 41.89 109.08 38.21 109.71 34.57 110.49 M 95.36 112.36 C 94.24 113.22 93.69 114.76 93.69 116.14 C 95.09 119.32 98.86 120.56 102.05 120.93 C 105.05 121.11 106.59 116.61 104.06 114.90 C 101.73 113.17 98.23 110.78 95.36 112.36 M 37.12 119.42 C 37.28 119.99 37.59 121.13 37.75 121.70 C 38.59 121.55 40.28 121.25 41.13 121.10 C 40.32 122.74 39.10 124.33 39.81 126.27 C 43.37 124.29 46.21 121.31 49.44 118.87 C 48.74 117.75 48.04 116.62 47.35 115.50 C 44.01 116.99 40.56 118.18 37.12 119.42 M 91.38 120.38 C 90.63 121.35 88.90 122.20 89.18 123.58 C 91.47 126.09 93.89 128.51 96.38 130.83 C 97.00 130.63 98.25 130.22 98.87 130.02 C 97.66 128.68 96.43 127.35 95.25 125.99 C 96.65 126.81 98.03 127.68 99.42 128.55 C 100.02 127.82 100.63 127.10 101.23 126.37 C 99.75 125.69 98.28 125.00 96.82 124.28 C 96.94 121.72 93.82 117.83 91.38 120.38 M 48.28 122.29 C 45.47 123.77 46.58 127.19 46.44 129.71 C 45.83 129.07 44.60 127.77 43.98 127.13 C 40.41 128.67 44.00 133.77 46.77 131.75 C 49.70 130.46 49.22 127.05 48.70 124.50 L 50.16 124.87 C 50.44 125.37 51.01 126.37 51.29 126.88 C 54.66 125.08 51.08 120.16 48.28 122.29 M 83.76 129.10 C 84.82 131.83 86.04 134.97 88.83 136.36 C 90.70 136.68 92.62 134.95 92.89 133.15 C 92.31 131.67 91.51 130.30 90.80 128.89 C 90.21 129.12 89.03 129.59 88.44 129.82 C 89.16 131.21 89.75 132.66 89.97 134.22 C 88.01 133.10 86.69 131.02 86.29 128.83 C 85.96 126.86 87.97 126.49 89.48 126.42 C 88.00 121.97 82.26 125.67 83.76 129.10 M 48.83 133.94 C 47.59 135.03 49.00 135.83 49.92 136.30 C 50.52 135.69 51.71 134.48 52.31 133.87 C 52.66 135.72 52.04 138.03 54.18 139.03 C 55.66 135.31 56.77 131.45 58.35 127.78 C 57.25 127.05 56.14 126.32 55.03 125.60 C 53.03 128.43 50.86 131.13 48.83 133.94 M 57.41 140.04 C 59.38 140.07 61.97 141.55 63.47 139.57 C 65.16 137.15 65.82 133.99 65.50 131.07 C 64.53 128.84 61.84 128.93 59.86 128.30 C 59.02 132.20 58.03 136.09 57.41 140.04 M 74.10 129.67 C 74.65 133.53 75.59 137.31 76.47 141.10 C 78.17 140.76 79.88 140.40 81.58 140.05 C 81.49 139.41 81.32 138.13 81.23 137.49 C 80.39 137.58 78.71 137.76 77.87 137.85 C 77.80 136.08 79.41 135.75 80.75 135.27 C 80.61 134.74 80.31 133.66 80.17 133.13 C 79.29 133.20 77.53 133.36 76.65 133.44 C 76.86 130.97 81.01 131.69 79.37 128.49 C 77.61 128.87 75.86 129.28 74.10 129.67 M 66.79 129.55 C 66.94 133.42 66.68 137.28 66.87 141.14 C 67.48 141.24 68.71 141.43 69.33 141.53 C 69.41 139.66 69.49 137.81 69.54 135.95 C 70.34 138.26 69.88 142.24 73.52 141.40 C 72.90 139.84 72.28 138.28 71.66 136.72 C 72.81 134.85 73.33 132.58 72.46 130.47 C 70.94 129.04 68.66 129.79 66.79 129.55 Z" />
<path fill="#ffffff" opacity="1.00" d=" M 65.50 58.36 C 68.17 58.15 70.84 57.85 73.52 57.59 C 73.53 58.18 73.53 58.76 73.51 59.35 C 71.20 59.31 68.89 59.29 66.59 59.08 L 65.50 58.36 Z" />
<path fill="#ffffff" opacity="1.00" d=" M 37.13 70.81 C 36.92 67.72 41.64 69.10 43.53 69.51 C 43.43 69.94 43.23 70.79 43.13 71.22 C 41.13 71.25 38.98 71.77 37.13 70.81 Z" />
<path fill="#ffffff" opacity="1.00" d=" M 145.73 85.99 C 147.07 86.00 148.41 86.01 149.75 86.02 C 149.51 92.50 150.20 99.04 149.32 105.47 C 148.38 109.81 143.63 111.66 139.58 111.05 C 139.49 110.13 139.31 108.29 139.22 107.37 C 141.58 108.77 144.94 107.87 145.44 104.98 C 146.10 98.68 145.56 92.31 145.73 85.99 Z" />
<path fill="#ffffff" opacity="1.00" d=" M 163.01 86.10 C 167.51 85.30 172.61 87.26 174.69 91.49 C 177.47 96.98 176.80 104.76 171.79 108.78 C 166.74 112.62 158.39 111.53 155.16 105.86 C 151.04 98.84 153.97 87.19 163.01 86.10 M 162.34 89.48 C 157.04 91.97 156.53 99.43 158.79 104.17 C 160.51 108.19 166.21 109.36 169.38 106.37 C 172.65 103.24 172.57 98.07 171.52 93.99 C 170.53 90.19 165.97 87.71 162.34 89.48 Z" />
<path fill="#ffffff" opacity="1.00" d=" M 180.87 86.01 C 185.33 86.37 190.43 84.85 194.33 87.70 C 198.40 91.17 196.61 98.60 191.37 99.85 C 194.91 102.85 196.73 107.23 199.31 110.98 C 197.78 110.99 196.25 111.01 194.73 111.03 C 192.54 107.64 191.11 103.65 187.97 100.96 C 187.20 100.97 185.64 101.00 184.87 101.02 C 184.87 104.34 184.86 107.67 184.87 110.99 C 183.53 111.00 182.20 111.00 180.87 111.00 C 180.87 102.67 180.87 94.34 180.87 86.01 M 184.87 88.97 C 184.86 91.99 184.86 95.02 184.87 98.04 C 186.60 97.91 188.44 98.26 190.09 97.60 C 193.17 95.92 193.24 90.60 189.90 89.14 C 188.23 88.93 186.54 89.00 184.87 88.97 Z" />
<path fill="#ffffff" opacity="1.00" d=" M 205.39 88.39 C 209.50 85.27 215.07 85.56 219.76 87.03 C 219.75 88.30 219.74 89.57 219.75 90.84 C 216.54 89.05 212.42 88.03 209.06 90.02 C 204.04 92.84 203.34 100.18 206.15 104.79 C 208.19 108.21 212.92 108.82 216.31 107.21 C 216.76 105.19 216.47 103.09 216.56 101.04 C 214.88 101.01 213.20 101.00 211.53 100.98 C 211.53 100.24 211.53 98.75 211.53 98.00 C 214.51 98.00 217.49 98.00 220.47 98.00 C 220.47 101.84 220.46 105.69 220.47 109.53 C 215.71 111.13 210.14 112.02 205.61 109.28 C 198.58 104.80 198.70 93.14 205.39 88.39 Z" />
<path fill="#ffffff" opacity="1.00" d=" M 225.00 86.00 C 229.25 86.00 233.50 85.99 237.75 86.02 C 237.75 86.76 237.74 88.25 237.74 88.99 C 234.78 89.00 231.82 89.00 228.87 89.00 C 228.86 91.67 228.86 94.33 228.87 97.00 C 231.62 97.00 234.38 97.00 237.13 97.00 C 237.13 97.75 237.13 99.25 237.13 100.00 C 234.38 100.00 231.62 100.00 228.87 100.00 C 228.86 102.67 228.86 105.33 228.87 108.00 C 232.00 108.00 235.13 108.00 238.27 108.00 C 238.27 108.75 238.27 110.25 238.27 111.00 C 233.84 111.00 229.42 111.00 225.00 111.00 C 225.00 102.67 225.00 94.33 225.00 86.00 Z" />
<path fill="#ffffff" opacity="1.00" d=" M 251.87 86.00 C 255.15 86.00 258.43 86.00 261.71 86.01 C 263.63 86.89 265.99 87.71 266.67 89.96 C 267.89 93.15 265.96 96.60 263.11 98.12 C 267.91 98.72 269.72 105.27 266.30 108.46 C 262.48 112.29 256.68 110.68 251.87 111.00 C 251.87 102.66 251.87 94.33 251.87 86.00 M 255.87 88.96 C 255.86 91.66 255.86 94.35 255.87 97.05 C 259.16 97.77 263.79 95.96 262.72 91.85 C 262.45 88.45 258.29 88.98 255.87 88.96 M 255.87 99.98 C 255.86 102.66 255.86 105.34 255.87 108.02 C 257.76 107.87 259.81 108.38 261.60 107.56 C 264.35 106.62 264.72 102.05 262.12 100.71 C 260.24 99.54 257.94 100.13 255.87 99.98 Z" />
<path fill="#ffffff" opacity="1.00" d=" M 278.16 86.01 C 279.68 86.01 281.20 86.03 282.73 86.07 C 285.56 94.42 288.58 102.69 291.50 111.00 C 290.03 111.00 288.56 111.00 287.10 111.00 C 286.40 108.66 285.70 106.33 284.99 104.00 C 281.87 104.00 278.76 104.01 275.65 103.98 C 274.95 106.28 274.27 108.58 273.64 110.90 C 272.18 110.96 270.73 111.00 269.28 111.04 C 272.19 102.68 275.27 94.38 278.16 86.01 M 276.64 101.01 C 279.09 101.00 281.55 101.00 284.01 100.96 C 282.70 97.36 281.25 93.80 280.41 90.06 C 279.26 93.74 277.92 97.37 276.64 101.01 Z" />
<path fill="#ffffff" opacity="1.00" d=" M 295.95 88.09 C 299.32 85.39 304.04 85.63 307.99 86.71 C 307.99 88.06 308.00 89.41 308.02 90.77 C 305.34 88.73 301.86 88.48 298.85 89.94 C 298.13 91.53 297.44 93.53 299.03 94.84 C 301.88 96.72 305.41 97.72 307.65 100.45 C 309.97 103.01 309.39 107.51 306.50 109.43 C 303.12 111.54 298.79 111.37 295.12 110.12 C 292.74 109.82 294.14 106.66 293.59 105.18 C 296.07 107.11 299.34 108.93 302.55 107.65 C 305.03 107.27 305.76 103.72 303.93 102.18 C 301.22 100.06 297.59 99.30 295.28 96.65 C 293.11 94.27 293.33 90.05 295.95 88.09 Z" />
<path fill="#ffffff" opacity="1.00" d=" M 319.16 86.02 C 320.67 86.01 322.18 86.02 323.70 86.05 C 326.58 94.38 329.56 102.68 332.50 111.00 C 331.03 111.00 329.56 111.00 328.10 111.00 C 327.40 108.66 326.70 106.33 325.99 104.00 C 322.83 103.99 319.68 103.96 316.53 104.08 C 315.94 106.29 315.40 108.52 314.66 110.68 C 313.24 111.03 311.78 111.16 310.29 111.06 C 313.18 102.69 316.27 94.39 319.16 86.02 M 321.35 90.04 C 320.29 93.75 318.92 97.36 317.64 101.00 C 320.09 101.00 322.54 101.00 325.00 100.97 C 323.70 97.36 322.28 93.77 321.35 90.04 Z" />
<path fill="#ffffff" opacity="1.00" d=" M 335.87 86.01 C 341.53 86.16 348.17 84.98 352.78 89.11 C 357.98 94.70 356.99 105.42 350.04 109.20 C 345.75 111.74 340.60 110.87 335.87 110.99 C 335.86 102.66 335.87 94.33 335.87 86.01 M 339.87 88.98 C 339.86 95.33 339.87 101.68 339.87 108.02 C 342.99 108.02 346.59 108.37 349.02 105.95 C 352.46 102.48 352.47 96.65 350.50 92.43 C 348.36 88.70 343.59 88.85 339.87 88.98 Z" />
<path fill="#ffffff" opacity="1.00" d=" M 359.87 86.01 C 364.35 86.37 369.48 84.83 373.38 87.74 C 377.39 91.25 375.58 98.59 370.37 99.85 C 373.91 102.86 375.74 107.23 378.31 110.99 C 376.77 111.00 375.24 111.01 373.71 111.02 C 371.55 107.62 370.10 103.65 366.98 100.96 C 366.20 100.98 364.64 101.00 363.87 101.02 C 363.86 104.34 363.86 107.66 363.88 110.99 C 362.54 110.99 361.20 111.00 359.87 111.00 C 359.87 102.67 359.87 94.34 359.87 86.01 M 363.87 88.97 C 363.86 91.99 363.86 95.02 363.87 98.04 C 365.57 97.92 367.37 98.23 369.02 97.63 C 372.16 96.01 372.26 90.65 368.93 89.15 C 367.25 88.92 365.55 89.00 363.87 88.97 Z" />
<path fill="#ffffff" opacity="1.00" d=" M 382.00 86.00 C 386.25 86.00 390.49 85.99 394.74 86.01 C 394.74 86.76 394.74 88.24 394.74 88.99 C 391.78 89.00 388.82 89.00 385.87 89.00 C 385.86 91.67 385.86 94.33 385.87 97.00 C 388.62 97.00 391.37 97.00 394.13 97.00 C 394.13 97.75 394.13 99.25 394.13 100.00 C 391.37 100.00 388.62 100.00 385.87 100.00 C 385.86 102.67 385.86 105.33 385.87 108.00 C 389.00 108.00 392.13 108.00 395.27 108.00 C 395.27 108.75 395.27 110.25 395.27 111.00 C 390.84 111.00 386.42 111.00 382.00 111.00 C 382.00 102.67 382.00 94.33 382.00 86.00 Z" />
<path fill="#ffffff" opacity="1.00" d=" M 411.96 87.99 C 416.04 85.27 421.26 85.65 425.76 87.02 C 425.74 88.29 425.74 89.56 425.75 90.84 C 422.54 89.05 418.42 88.03 415.06 90.02 C 410.01 92.86 409.32 100.29 412.22 104.89 C 414.28 108.21 418.92 108.80 422.27 107.23 C 422.81 105.24 422.45 103.12 422.59 101.08 C 420.90 101.03 419.20 100.99 417.53 100.96 C 417.53 100.22 417.53 98.74 417.54 98.00 C 420.51 98.00 423.49 98.00 426.47 98.00 C 426.47 101.84 426.45 105.68 426.48 109.52 C 421.58 111.20 415.76 112.06 411.20 109.01 C 404.36 104.16 404.90 92.41 411.96 87.99 Z" />
<path fill="#ffffff" opacity="1.00" d=" M 431.87 86.01 C 436.34 86.37 441.46 84.84 445.36 87.73 C 449.39 91.21 447.60 98.60 442.37 99.84 C 445.90 102.86 447.73 107.22 450.31 110.98 C 448.78 110.99 447.26 111.02 445.75 111.04 C 443.54 107.66 442.12 103.65 438.98 100.96 C 438.20 100.98 436.64 101.00 435.87 101.02 C 435.86 104.34 435.86 107.67 435.87 111.00 C 434.53 111.00 433.20 111.00 431.87 111.00 C 431.86 102.67 431.87 94.34 431.87 86.01 M 435.87 88.97 C 435.86 91.99 435.86 95.02 435.87 98.04 C 437.57 97.92 439.38 98.24 441.03 97.63 C 444.16 96.00 444.26 90.61 440.90 89.14 C 439.23 88.92 437.54 89.00 435.87 88.97 Z" />
<path fill="#ffffff" opacity="1.00" d=" M 460.97 86.10 C 465.74 85.21 471.10 87.53 473.02 92.14 C 475.16 97.18 474.74 103.75 470.84 107.83 C 466.03 112.78 456.54 111.95 453.12 105.78 C 449.07 98.78 451.99 87.22 460.97 86.10 M 460.35 89.47 C 455.04 91.96 454.53 99.43 456.79 104.16 C 458.50 108.18 464.19 109.36 467.37 106.38 C 470.64 103.26 470.56 98.09 469.53 94.01 C 468.54 90.20 463.98 87.71 460.35 89.47 Z" />
<path fill="#ffffff" opacity="1.00" d=" M 477.87 86.00 C 479.20 86.00 480.53 86.00 481.87 86.01 C 481.86 89.67 481.86 93.33 481.87 97.00 C 485.62 97.00 489.37 97.00 493.13 97.00 C 493.13 93.34 493.13 89.67 493.13 86.01 C 494.41 86.00 495.70 86.00 497.00 86.00 C 497.00 94.33 497.00 102.67 497.00 111.00 C 495.70 111.00 494.41 111.00 493.13 111.00 C 493.13 107.33 493.13 103.66 493.13 100.00 C 489.37 100.00 485.62 100.00 481.87 100.00 C 481.86 103.67 481.86 107.33 481.87 111.00 C 480.53 111.00 479.20 111.00 477.87 111.00 C 477.87 102.67 477.86 94.33 477.87 86.00 Z" />
<path fill="#ffffff" opacity="1.00" d=" M 502.87 85.98 C 504.76 85.99 506.66 86.01 508.57 86.07 C 510.86 92.46 513.35 98.77 515.64 105.16 C 518.37 98.87 520.57 92.36 523.12 86.00 C 524.90 86.00 526.68 86.00 528.47 86.00 C 528.47 94.33 528.47 102.67 528.47 111.00 C 527.50 111.00 525.57 111.00 524.60 111.00 C 524.65 103.99 524.48 96.98 524.69 89.97 C 522.56 97.13 519.53 103.98 517.00 111.00 C 516.31 111.00 514.92 110.99 514.23 110.99 C 511.70 104.24 509.08 97.52 506.52 90.79 C 506.67 97.53 506.57 104.26 506.60 111.00 C 505.67 111.00 503.80 111.00 502.87 111.00 C 502.87 102.66 502.86 94.32 502.87 85.98 Z" />
<path fill="#ffffff" opacity="1.00" d=" M 540.16 86.01 C 541.67 86.01 543.19 86.03 544.72 86.06 C 547.57 94.40 550.57 102.69 553.50 111.00 C 552.03 111.00 550.56 111.00 549.10 111.00 C 548.40 108.66 547.69 106.33 546.99 104.00 C 543.84 103.99 540.69 103.97 537.55 104.07 C 536.93 106.34 536.28 108.61 535.66 110.89 C 534.20 110.95 532.74 111.00 531.29 111.04 C 534.18 102.68 537.27 94.38 540.16 86.01 M 538.64 101.00 C 541.08 101.00 543.54 101.00 545.99 100.98 C 544.70 97.36 543.27 93.79 542.38 90.05 C 541.28 93.75 539.92 97.37 538.64 101.00 Z" />
<path fill="#ffffff" opacity="1.00" d=" M 556.87 85.98 C 558.45 86.00 560.05 86.01 561.65 86.05 C 565.49 92.48 569.30 98.94 573.45 105.18 C 573.08 98.79 573.34 92.39 573.27 86.00 C 574.23 86.00 576.17 86.00 577.13 86.00 C 577.13 94.33 577.13 102.66 577.13 110.99 C 575.71 111.00 574.29 111.01 572.88 111.02 C 568.67 104.47 564.61 97.82 560.63 91.12 C 560.85 97.74 560.68 104.37 560.73 111.00 C 559.76 111.00 557.83 111.00 556.87 111.00 C 556.87 102.66 556.86 94.32 556.87 85.98 Z" />
<path fill="#ffffff" opacity="1.00" d=" M 582.87 85.98 C 584.45 86.00 586.04 86.02 587.64 86.04 C 591.47 92.51 595.40 98.91 599.41 105.27 C 599.14 98.85 599.31 92.42 599.27 86.00 C 600.20 86.00 602.07 86.00 603.00 86.00 L 603.00 111.00 C 601.61 111.00 600.23 111.00 598.86 111.01 C 594.68 104.46 590.61 97.83 586.65 91.15 C 586.82 97.77 586.70 104.38 586.73 111.00 C 585.76 111.00 583.83 111.00 582.87 111.00 C 582.87 102.66 582.86 94.32 582.87 85.98 Z" />
<path fill="#ffffff" opacity="1.00" d=" M 61.24 147.88 C 63.64 148.30 66.08 148.54 68.51 148.64 C 66.73 151.15 67.25 154.21 69.91 155.79 C 64.51 155.47 59.07 155.54 53.69 156.17 C 53.60 154.36 53.50 152.55 53.39 150.74 C 54.22 150.07 55.04 149.41 55.87 148.74 C 57.42 148.57 58.98 148.40 60.54 148.22 C 59.50 150.60 58.58 153.02 57.74 155.47 C 58.84 154.76 59.91 154.00 61.07 153.39 C 62.25 153.95 63.32 154.70 64.43 155.38 C 63.29 152.91 62.20 150.42 61.24 147.88 Z" />
<path fill="#ffffff" opacity="1.00" d=" M 72.11 148.57 C 74.34 148.43 76.55 148.19 78.78 148.05 C 79.51 148.14 80.98 148.31 81.71 148.40 C 81.59 149.74 81.46 151.08 81.34 152.43 C 80.58 151.29 79.85 150.13 79.14 148.97 C 78.35 148.99 77.57 149.02 76.79 149.04 C 77.03 150.98 77.15 152.94 77.53 154.87 C 78.55 154.03 78.48 152.59 78.90 151.44 C 79.89 152.66 80.40 154.50 81.99 155.10 C 83.57 153.41 82.35 150.51 82.74 148.39 C 84.87 148.72 86.99 149.04 89.12 149.37 C 87.94 151.47 86.84 153.63 85.93 155.87 C 80.99 155.83 76.05 155.53 71.12 155.75 C 72.07 154.76 73.02 153.76 73.97 152.76 C 72.65 153.21 71.34 153.72 69.99 154.09 C 67.85 153.10 69.13 150.84 69.73 149.28 C 70.99 149.91 72.25 150.53 73.51 151.16 C 73.05 150.29 72.58 149.43 72.11 148.57 Z" />
</g>
<g id="#792e22ff">
<path fill="#792e22" opacity="1.00" d=" M 64.79 4.23 C 66.54 4.71 66.46 6.66 66.89 8.09 C 67.61 10.03 68.27 12.00 68.74 14.02 C 67.55 13.50 66.60 12.67 65.88 11.55 C 65.32 12.31 64.20 13.84 63.63 14.61 C 63.87 11.13 64.44 7.69 64.79 4.23 M 65.37 9.35 C 63.87 12.38 68.73 9.42 65.37 9.35 Z" />
<path fill="#792e22" opacity="1.00" d=" M 70.31 4.07 C 71.69 4.28 73.66 3.97 74.36 5.51 C 75.43 8.92 75.17 14.47 70.28 13.89 C 69.86 10.62 70.14 7.34 70.31 4.07 M 71.54 4.97 C 71.44 7.62 71.39 10.28 71.46 12.93 C 74.06 11.61 74.39 6.26 71.54 4.97 Z" />
<path fill="#792e22" opacity="1.00" d=" M 56.32 5.95 C 57.95 5.53 60.08 5.03 61.02 6.93 C 62.09 9.31 63.52 13.95 59.99 14.87 C 58.16 15.24 57.42 14.46 57.79 12.53 C 58.96 11.61 59.66 12.26 59.87 14.47 C 61.40 11.96 60.91 7.78 58.19 6.25 C 58.46 8.21 58.55 10.21 57.05 11.70 C 56.85 9.78 56.60 7.86 56.32 5.95 Z" />
<path fill="#792e22" opacity="1.00" d=" M 79.26 14.90 C 79.67 11.52 79.45 7.48 81.63 4.68 C 81.82 5.57 82.22 7.35 82.41 8.23 C 81.02 10.31 81.00 13.06 79.26 14.90 Z" />
<path fill="#792e22" opacity="1.00" d=" M 83.57 9.69 C 83.90 8.23 83.24 5.59 85.61 6.13 C 84.79 9.13 84.21 12.19 83.53 15.22 C 81.37 14.13 82.59 11.18 82.10 9.28 C 82.47 9.38 83.20 9.59 83.57 9.69 Z" />
<path fill="#792e22" opacity="1.00" d=" M 52.10 6.72 C 55.16 8.81 55.03 13.36 56.09 16.62 C 53.01 14.53 52.95 10.06 52.10 6.72 Z" />
<path fill="#792e22" opacity="1.00" d=" M 85.07 16.11 C 86.36 12.72 88.09 9.27 90.77 6.77 C 90.62 10.29 90.75 13.94 89.66 17.33 C 89.29 16.51 88.55 14.88 88.17 14.06 C 87.15 14.77 86.12 15.45 85.07 16.11 M 88.34 12.51 C 88.95 13.13 88.95 13.13 88.34 12.51 Z" />
<path fill="#792e22" opacity="1.00" d=" M 92.06 16.98 C 91.79 13.43 94.82 7.65 98.98 10.40 C 95.57 10.46 94.12 13.27 93.11 16.09 C 93.83 17.10 94.53 18.11 95.22 19.14 C 94.03 18.75 92.27 18.54 92.06 16.98 Z" />
<path fill="#792e22" opacity="1.00" d=" M 40.54 12.14 C 41.78 11.99 43.51 10.33 44.58 11.64 C 45.96 12.61 45.66 14.38 45.74 15.84 C 46.89 16.86 48.03 17.90 49.12 18.99 C 47.41 19.10 46.15 17.93 44.87 17.00 C 45.38 18.30 45.95 19.62 45.76 21.05 C 43.58 18.36 42.16 15.17 40.54 12.14 M 42.93 12.83 C 42.54 14.21 43.04 14.85 44.42 14.73 C 44.80 13.35 44.30 12.72 42.93 12.83 Z" />
<path fill="#792e22" opacity="1.00" d=" M 100.24 11.90 C 100.65 11.85 101.46 11.74 101.87 11.69 C 99.91 14.43 99.55 19.17 96.01 20.17 C 97.36 17.38 98.62 14.54 100.24 11.90 Z" />
<path fill="#792e22" opacity="1.00" d=" M 35.95 14.96 C 37.22 14.36 38.50 13.77 39.82 13.28 C 39.28 14.03 38.71 14.77 38.13 15.48 C 38.32 16.00 38.72 17.04 38.92 17.56 C 39.86 17.42 40.80 17.29 41.74 17.16 C 41.33 17.62 40.53 18.55 40.13 19.01 C 40.45 21.12 42.58 20.96 44.19 21.30 C 43.11 21.92 42.03 22.54 40.96 23.17 C 39.24 20.46 37.57 17.73 35.95 14.96 Z" />
<path fill="#792e22" opacity="1.00" d=" M 104.45 14.48 C 105.77 13.84 107.24 15.06 107.87 16.18 C 107.61 18.86 105.78 21.20 103.90 23.02 C 102.14 24.48 99.10 22.15 100.23 20.03 C 101.11 17.88 102.48 15.75 104.45 14.48 M 101.52 22.61 C 104.38 21.41 106.27 18.35 106.40 15.30 C 103.43 16.27 101.40 19.54 101.52 22.61 Z" />
<path fill="#792e22" opacity="1.00" d=" M 32.88 16.52 C 36.36 18.05 36.84 22.59 38.62 25.64 C 35.03 24.69 32.63 21.39 29.99 18.98 C 32.36 18.96 33.56 21.44 35.76 21.96 C 34.74 20.18 33.69 18.41 32.88 16.52 Z" />
<path fill="#792e22" opacity="1.00" d=" M 104.50 26.09 C 106.55 23.15 108.73 20.17 111.62 18.00 C 111.33 20.11 110.57 22.11 109.98 24.15 C 111.48 22.82 112.75 21.17 114.64 20.37 C 112.94 23.61 110.27 26.19 107.66 28.69 C 107.74 26.53 108.72 24.58 109.42 22.59 C 107.80 23.77 106.50 25.51 104.50 26.09 Z" />
<path fill="#792e22" opacity="1.00" d=" M 27.84 20.64 C 30.73 22.72 34.09 25.48 34.77 29.08 C 32.07 26.68 29.11 24.11 27.84 20.64 Z" />
<path fill="#792e22" opacity="1.00" d=" M 24.44 23.78 C 27.78 24.98 30.87 27.85 32.44 30.98 C 30.51 30.26 28.63 29.45 26.70 28.73 C 27.92 30.30 29.30 31.76 30.22 33.54 C 27.30 31.99 24.95 29.56 22.68 27.22 C 22.66 26.93 22.62 26.34 22.59 26.05 C 24.50 26.81 26.38 27.62 28.30 28.33 C 27.06 26.77 25.70 25.32 24.44 23.78 Z" />
<path fill="#792e22" opacity="1.00" d=" M 116.68 24.79 C 117.24 24.78 118.35 24.77 118.91 24.76 C 119.24 24.96 119.51 25.26 119.72 25.64 C 119.30 25.57 118.46 25.42 118.03 25.35 C 116.26 28.16 114.42 30.94 112.29 33.50 C 112.38 32.51 112.57 30.53 112.67 29.54 C 111.69 29.63 109.73 29.81 108.76 29.90 C 111.30 28.05 113.94 26.32 116.68 24.79 M 113.45 28.41 C 114.09 29.00 114.09 29.00 113.45 28.41 Z" />
<path fill="#792e22" opacity="1.00" d=" M 113.44 34.45 C 116.42 32.75 118.66 29.22 122.21 28.92 C 120.24 31.22 117.73 32.94 115.37 34.81 C 115.75 35.39 116.51 36.54 116.89 37.12 C 115.39 36.75 114.41 35.56 113.44 34.45 Z" />
<path fill="#792e22" opacity="1.00" d=" M 94.87 68.77 C 98.68 68.76 102.49 68.75 106.30 68.78 C 107.12 72.72 102.15 72.15 99.80 73.56 C 101.93 73.61 104.06 73.60 106.19 73.60 C 106.18 74.23 106.15 75.50 106.13 76.13 C 102.37 76.14 98.61 76.14 94.86 76.12 C 94.86 75.28 94.87 73.60 94.87 72.76 C 96.94 72.25 99.02 71.79 101.11 71.36 C 99.03 71.37 96.94 71.36 94.86 71.30 C 94.86 70.67 94.86 69.41 94.87 68.77 Z" />
</g>
<g id="#fefefeff">
<path fill="#fefefe" opacity="1.00" d=" M 71.54 4.97 C 74.39 6.26 74.06 11.61 71.46 12.93 C 71.39 10.28 71.44 7.62 71.54 4.97 Z" />
<path fill="#fefefe" opacity="1.00" d=" M 101.52 22.61 C 101.40 19.54 103.43 16.27 106.40 15.30 C 106.27 18.35 104.38 21.41 101.52 22.61 Z" />
<path fill="#fefefe" opacity="1.00" d=" M 15.92 55.06 C 17.04 50.80 18.73 46.73 20.92 42.91 C 22.28 44.16 23.64 45.43 25.04 46.64 C 28.89 47.91 31.94 44.39 35.63 44.39 C 33.57 47.10 31.62 50.03 28.57 51.74 C 27.79 53.54 27.01 55.35 26.24 57.16 C 26.24 57.74 26.23 58.88 26.23 59.45 C 26.20 59.57 26.12 59.82 26.09 59.94 C 25.62 56.87 24.78 53.89 23.66 51.00 C 20.27 52.53 17.13 54.54 13.81 56.19 C 14.13 54.12 14.58 52.05 15.48 50.15 C 15.67 51.78 15.81 53.42 15.92 55.06 Z" />
<path fill="#fefefe" opacity="1.00" d=" M 116.69 46.30 C 118.06 45.15 119.39 43.96 120.74 42.78 C 123.16 46.69 124.07 51.27 126.37 55.23 C 126.69 55.00 127.35 54.53 127.68 54.30 C 127.75 54.85 127.89 55.97 127.95 56.53 C 124.56 54.67 121.25 52.67 117.79 50.92 C 117.04 52.91 116.32 54.91 115.75 56.96 C 113.70 51.83 108.94 48.78 105.99 44.27 L 107.82 44.72 C 108.68 45.05 109.54 45.39 110.40 45.76 C 112.37 46.70 114.66 47.59 116.69 46.30 Z" />
<path fill="#fefefe" opacity="1.00" d=" M 40.67 79.97 C 40.65 78.20 43.71 78.21 43.76 79.93 C 43.69 81.65 40.85 81.63 40.67 79.97 Z" />
<path fill="#fefefe" opacity="1.00" d=" M 96.91 83.24 C 98.52 82.75 100.20 82.58 101.88 82.52 C 101.09 84.75 98.59 83.26 96.91 83.24 Z" />
<path fill="#fefefe" opacity="1.00" d=" M 57.55 101.33 C 60.23 101.23 62.91 100.99 65.59 100.74 C 66.88 101.13 68.15 101.61 69.42 102.08 C 69.55 104.92 69.55 107.76 69.44 110.61 C 65.18 108.37 60.31 109.15 55.82 110.09 C 56.44 107.17 57.07 104.27 57.55 101.33 Z" />
<path fill="#fefefe" opacity="1.00" d=" M 71.31 102.04 C 73.05 101.34 74.88 100.85 76.77 100.88 C 78.98 101.22 81.22 101.46 83.46 101.59 C 83.96 104.45 84.49 107.31 85.17 110.14 C 81.24 109.58 77.12 108.78 73.27 110.19 L 71.52 110.24 C 71.31 107.51 71.29 104.77 71.31 102.04 Z" />
<path fill="#fefefe" opacity="1.00" d=" M 84.30 102.55 C 84.80 102.52 85.81 102.46 86.32 102.43 C 86.88 104.94 87.43 107.45 87.96 109.96 C 88.37 111.76 88.68 113.58 89.01 115.40 C 83.76 115.52 78.50 115.30 73.25 115.58 C 72.71 115.87 71.63 116.45 71.09 116.74 C 64.87 114.19 57.96 115.99 51.42 115.44 C 51.89 113.91 52.35 112.38 52.80 110.85 C 54.11 107.99 53.45 103.54 56.70 102.08 C 55.00 106.01 53.96 110.17 53.06 114.34 C 53.63 114.35 54.77 114.36 55.34 114.37 L 56.69 114.37 C 60.22 114.47 63.74 114.44 67.27 114.53 C 72.71 115.02 78.08 113.53 83.52 113.76 C 84.91 113.95 86.31 114.18 87.69 114.43 C 86.74 110.42 86.36 106.20 84.30 102.55 Z" />
<path fill="#fefefe" opacity="1.00" d=" M 41.74 111.87 C 42.70 110.47 43.57 110.49 44.35 111.93 C 43.39 113.29 42.53 113.26 41.74 111.87 Z" />
<path fill="#fefefe" opacity="1.00" d=" M 37.15 112.91 C 37.22 111.18 40.36 111.10 40.32 112.91 C 40.00 114.39 37.26 114.63 37.15 112.91 Z" />
<path fill="#fefefe" opacity="1.00" d=" M 96.66 114.38 C 98.71 114.85 100.65 115.70 102.53 116.64 C 102.52 117.11 102.50 118.06 102.49 118.53 C 100.42 118.09 98.48 117.25 96.62 116.27 C 96.63 115.79 96.65 114.85 96.66 114.38 Z" />
<path fill="#fefefe" opacity="1.00" d=" M 42.54 120.07 C 43.27 118.76 45.18 118.00 46.60 118.42 C 46.50 119.74 43.21 121.87 42.54 120.07 Z" />
<path fill="#fefefe" opacity="1.00" d=" M 94.60 124.64 C 92.86 125.94 90.54 122.45 92.92 121.75 C 94.29 121.61 95.44 123.52 94.60 124.64 Z" />
<path fill="#fefefe" opacity="1.00" d=" M 53.16 133.01 C 53.47 131.12 54.65 129.58 55.69 128.04 C 55.10 129.76 55.05 132.12 53.16 133.01 Z" />
<path fill="#fefefe" opacity="1.00" d=" M 60.24 138.16 C 60.97 135.89 60.55 132.75 62.85 131.34 C 62.85 133.68 63.28 137.52 60.24 138.16 Z" />
<path fill="#fefefe" opacity="1.00" d=" M 69.96 134.82 C 68.17 134.85 68.24 131.81 69.94 131.71 C 71.60 131.85 71.67 134.70 69.96 134.82 Z" />
<path fill="#fefefe" opacity="1.00" d=" M 30.60 148.64 C 34.96 146.23 40.61 143.51 45.18 147.02 C 45.17 147.84 45.14 149.48 45.13 150.30 C 46.49 150.03 47.85 149.76 49.22 149.50 C 50.18 150.26 51.16 151.01 52.13 151.76 C 52.27 153.24 52.42 154.72 52.56 156.21 C 47.98 156.66 43.46 157.55 38.97 158.58 C 41.17 157.63 43.85 157.36 45.31 155.24 C 44.98 153.86 45.48 151.89 43.92 151.13 C 40.84 149.18 37.09 150.59 34.10 152.01 C 28.64 154.72 22.59 156.76 16.41 156.06 C 17.11 155.75 18.53 155.12 19.24 154.81 C 18.11 154.09 16.98 153.39 15.86 152.67 C 20.91 151.97 26.11 151.26 30.60 148.64 Z" />
<path fill="#fefefe" opacity="1.00" d=" M 97.84 145.89 C 102.43 143.94 107.00 147.06 111.04 148.96 C 115.37 151.37 120.34 151.98 125.16 152.66 C 124.05 153.40 122.92 154.11 121.82 154.84 C 122.51 155.15 123.90 155.76 124.60 156.06 C 118.42 156.75 112.37 154.72 106.92 152.01 C 103.94 150.58 100.22 149.21 97.13 151.11 C 95.59 151.76 95.98 153.66 95.95 154.98 C 96.08 155.37 96.35 156.13 96.48 156.52 C 98.32 157.24 100.21 157.80 102.04 158.55 C 98.71 157.76 95.35 157.14 91.98 156.52 C 91.52 154.08 90.91 151.67 90.23 149.28 C 92.02 149.60 93.81 149.93 95.60 150.26 C 95.81 148.56 95.91 146.52 97.84 145.89 Z" />
</g>
<g id="#732317ff">
<path fill="#732317" opacity="1.00" d=" M 46.37 9.98 C 47.42 9.01 48.65 8.30 50.06 8.03 C 49.37 8.92 48.58 9.71 47.70 10.40 C 49.16 11.92 51.09 12.93 52.49 14.50 C 53.72 16.72 51.06 18.13 49.19 18.11 C 49.82 17.55 51.07 16.45 51.70 15.90 C 50.29 13.56 47.19 12.79 46.37 9.98 Z" />
<path fill="#732317" opacity="1.00" d=" M 20.17 29.03 C 22.51 30.61 24.89 32.16 27.01 34.03 C 28.67 35.42 26.32 38.62 24.50 37.45 C 22.13 35.82 19.13 34.56 17.79 31.87 C 21.13 32.71 23.17 36.08 26.69 36.47 C 25.86 32.84 20.29 32.77 20.17 29.03 Z" />
<path fill="#732317" opacity="1.00" d=" M 74.10 129.67 C 75.86 129.28 77.61 128.87 79.37 128.49 C 81.01 131.69 76.86 130.97 76.65 133.44 C 77.53 133.36 79.29 133.20 80.17 133.13 C 80.31 133.66 80.61 134.74 80.75 135.27 C 79.41 135.75 77.80 136.08 77.87 137.85 C 78.71 137.76 80.39 137.58 81.23 137.49 C 81.32 138.13 81.49 139.41 81.58 140.05 C 79.88 140.40 78.17 140.76 76.47 141.10 C 75.59 137.31 74.65 133.53 74.10 129.67 Z" />
</g>
<g id="#b33028ff">
<path fill="#b33028" opacity="1.00" d=" M 62.75 18.40 C 63.02 18.37 63.55 18.30 63.82 18.26 C 64.93 22.70 66.07 27.13 67.28 31.55 C 67.45 32.62 67.63 33.70 67.77 34.78 C 67.50 35.09 66.97 35.71 66.70 36.01 C 65.79 36.31 64.87 36.53 63.94 36.69 L 63.27 36.56 C 62.55 36.50 62.13 36.86 62.01 37.63 L 61.54 37.96 C 60.47 37.02 59.43 36.04 58.48 34.98 C 55.02 30.90 51.53 26.84 48.02 22.81 C 48.32 22.67 48.90 22.39 49.19 22.25 C 52.71 26.70 56.59 30.84 60.18 35.23 C 60.82 35.21 62.10 35.17 62.73 35.15 C 59.08 30.61 56.01 25.64 52.82 20.77 L 53.73 20.47 C 57.22 24.57 59.24 29.77 63.21 33.46 C 62.96 34.86 63.52 35.54 64.90 35.52 C 65.13 34.09 64.56 33.41 63.21 33.46 C 62.23 28.37 59.26 23.93 56.65 19.53 C 57.15 19.40 57.66 19.28 58.17 19.17 C 61.01 24.25 62.58 30.19 66.62 34.48 C 65.59 29.06 63.96 23.78 62.75 18.40 Z" />
<path fill="#b33028" opacity="1.00" d=" M 72.63 17.80 C 72.92 17.82 73.49 17.85 73.78 17.86 C 73.61 22.13 73.22 26.39 72.99 30.66 C 72.77 32.34 72.53 34.09 71.55 35.53 C 71.51 33.32 71.64 31.11 71.91 28.92 C 72.42 25.23 72.49 21.51 72.63 17.80 Z" />
<path fill="#b33028" opacity="1.00" d=" M 78.50 18.34 L 79.42 18.45 C 78.25 23.45 76.22 28.27 75.74 33.42 C 72.46 34.08 77.43 36.26 75.74 33.42 C 79.58 29.55 80.91 23.88 83.66 19.23 C 83.96 19.31 84.56 19.46 84.85 19.54 C 82.22 24.89 79.16 30.04 76.94 35.59 C 81.62 31.34 84.08 25.33 88.15 20.57 L 89.09 20.89 C 86.42 25.00 83.49 28.93 80.93 33.12 C 79.89 34.28 78.69 35.54 78.69 37.22 C 80.21 36.89 81.12 35.57 81.94 34.37 C 85.62 30.46 89.17 26.43 92.70 22.38 C 92.96 22.50 93.47 22.73 93.72 22.85 C 90.57 26.52 87.34 30.12 84.21 33.80 C 82.67 35.55 81.08 37.26 79.50 38.99 C 79.26 38.59 78.78 37.79 78.54 37.39 C 76.88 36.82 75.21 36.26 73.52 35.78 C 73.79 34.70 74.06 33.63 74.33 32.55 C 75.77 27.83 76.91 23.02 78.50 18.34 Z" />
<path fill="#b33028" opacity="1.00" d=" M 43.04 25.68 C 43.29 25.52 43.77 25.20 44.02 25.04 C 48.24 28.72 52.46 32.40 56.83 35.90 C 58.25 37.04 59.56 38.31 60.67 39.76 C 59.38 39.44 58.22 38.80 57.21 37.93 C 52.56 33.77 47.77 29.76 43.04 25.68 Z" />
<path fill="#b33028" opacity="1.00" d=" M 98.12 25.38 C 98.36 25.53 98.84 25.84 99.08 25.99 C 94.26 29.88 89.47 33.80 84.67 37.71 C 83.69 38.20 83.17 38.97 83.11 40.03 C 82.42 39.97 81.04 39.86 80.35 39.80 C 82.25 38.16 84.15 36.52 86.13 34.97 C 90.25 31.92 94.07 28.51 98.12 25.38 Z" />
<path fill="#b33028" opacity="1.00" d=" M 38.50 29.12 C 38.70 28.96 39.11 28.63 39.31 28.47 C 44.78 31.92 50.11 35.61 55.68 38.90 C 57.16 39.89 58.58 40.96 60.00 42.04 C 59.29 42.17 57.86 42.42 57.15 42.55 L 57.69 41.38 C 51.14 37.54 44.77 33.39 38.50 29.12 Z" />
<path fill="#b33028" opacity="1.00" d=" M 85.97 38.94 C 91.62 35.68 96.93 31.90 102.55 28.61 C 102.75 28.77 103.13 29.09 103.33 29.25 C 97.26 33.27 91.07 37.12 84.91 41.00 C 83.91 41.57 82.91 42.14 81.91 42.69 C 82.21 42.03 82.81 40.69 83.11 40.03 C 84.22 40.13 85.17 39.77 85.97 38.94 Z" />
<path fill="#b33028" opacity="1.00" d=" M 33.97 33.57 C 34.14 33.39 34.49 33.03 34.66 32.85 C 42.21 35.96 49.71 39.21 57.15 42.55 C 57.63 42.77 58.57 43.20 59.04 43.42 C 58.88 44.09 58.57 45.43 58.42 46.10 C 57.22 45.75 56.02 45.41 54.82 45.08 C 46.55 42.81 38.16 40.98 29.95 38.53 C 30.11 38.32 30.44 37.88 30.61 37.67 C 39.53 39.92 48.37 42.56 57.38 44.40 C 56.04 43.39 54.66 42.39 53.07 41.79 C 46.67 39.15 40.26 36.48 33.97 33.57 Z" />
<path fill="#b33028" opacity="1.00" d=" M 69.48 45.59 C 68.00 42.45 68.90 39.10 71.62 37.01 C 70.92 39.74 71.60 42.33 73.26 44.56 C 72.02 44.97 70.78 45.41 69.48 45.59 Z" />
<path fill="#b33028" opacity="1.00" d=" M 110.87 37.42 C 111.17 37.93 111.46 38.44 111.74 38.96 L 111.22 39.04 C 102.78 40.37 94.62 43.16 86.34 45.24 C 85.57 45.34 84.04 45.54 83.27 45.64 C 83.68 44.95 84.31 44.51 85.16 44.30 C 93.75 42.07 102.39 40.02 110.87 37.42 Z" />
<path fill="#b33028" opacity="1.00" d=" M 18.96 149.24 C 26.83 148.33 33.08 142.29 40.99 141.63 C 43.76 141.39 45.03 144.07 45.87 146.21 C 48.01 145.83 50.15 145.42 52.30 145.17 C 55.24 146.20 58.21 147.15 61.24 147.88 C 62.20 150.42 63.29 152.91 64.43 155.38 C 63.32 154.70 62.25 153.95 61.07 153.39 C 59.91 154.00 58.84 154.76 57.74 155.47 C 58.58 153.02 59.50 150.60 60.54 148.22 C 58.98 148.40 57.42 148.57 55.87 148.74 C 55.04 149.41 54.22 150.07 53.39 150.74 C 53.50 152.55 53.60 154.36 53.69 156.17 C 59.07 155.54 64.51 155.47 69.91 155.79 C 67.25 154.21 66.73 151.15 68.51 148.64 C 69.71 148.67 70.91 148.62 72.11 148.57 C 72.58 149.43 73.05 150.29 73.51 151.16 C 72.25 150.53 70.99 149.91 69.73 149.28 C 69.13 150.84 67.85 153.10 69.99 154.09 C 71.34 153.72 72.65 153.21 73.97 152.76 C 73.02 153.76 72.07 154.76 71.12 155.75 C 76.05 155.53 80.99 155.83 85.93 155.87 C 86.84 153.63 87.94 151.47 89.12 149.37 C 86.99 149.04 84.87 148.72 82.74 148.39 C 82.35 150.51 83.57 153.41 81.99 155.10 C 80.40 154.50 79.89 152.66 78.90 151.44 C 78.48 152.59 78.55 154.03 77.53 154.87 C 77.15 152.94 77.03 150.98 76.79 149.04 C 77.57 149.02 78.35 148.99 79.14 148.97 C 79.85 150.13 80.58 151.29 81.34 152.43 C 81.46 151.08 81.59 149.74 81.71 148.40 C 80.98 148.31 79.51 148.14 78.78 148.05 C 82.09 147.24 85.40 146.34 88.58 145.11 C 90.76 145.48 92.95 145.85 95.13 146.24 C 95.98 144.13 97.18 141.47 99.91 141.63 C 107.52 142.18 113.56 147.82 121.02 149.08 C 124.21 149.93 127.29 148.47 130.22 147.40 C 128.79 149.38 127.24 151.32 125.16 152.66 C 120.34 151.98 115.37 151.37 111.04 148.96 C 107.00 147.06 102.43 143.94 97.84 145.89 C 95.91 146.52 95.81 148.56 95.60 150.26 C 93.81 149.93 92.02 149.60 90.23 149.28 C 90.91 151.67 91.52 154.08 91.98 156.52 C 95.35 157.14 98.71 157.76 102.04 158.55 C 102.43 159.16 103.20 160.38 103.59 160.98 C 103.17 161.24 102.34 161.75 101.92 162.00 L 100.77 162.00 C 89.79 158.94 78.27 159.37 66.99 159.28 C 58.08 159.46 49.02 159.50 40.39 162.00 L 39.22 162.00 C 38.80 161.72 37.95 161.17 37.53 160.89 C 37.89 160.31 38.61 159.16 38.97 158.58 C 43.46 157.55 47.98 156.66 52.56 156.21 C 52.42 154.72 52.27 153.24 52.13 151.76 C 51.16 151.01 50.18 150.26 49.22 149.50 C 47.85 149.76 46.49 150.03 45.13 150.30 C 45.14 149.48 45.17 147.84 45.18 147.02 C 40.61 143.51 34.96 146.23 30.60 148.64 C 26.11 151.26 20.91 151.97 15.86 152.67 C 13.76 151.31 12.21 149.34 10.72 147.38 C 13.37 148.30 16.06 149.69 18.96 149.24 M 60.48 151.21 C 61.02 151.80 61.02 151.80 60.48 151.21 M 89.09 152.16 C 89.68 152.73 89.68 152.73 89.09 152.16 M 88.21 154.26 C 85.66 155.51 89.42 157.30 90.63 156.02 C 91.23 154.71 89.27 153.62 88.21 154.26 Z" />
</g>
<g id="#4685c2ff">
<path fill="#4685c2" opacity="1.00" d=" M 63.82 18.26 C 65.13 18.11 66.45 17.98 67.78 17.87 C 67.92 21.76 68.20 25.64 68.39 29.53 C 68.11 30.04 67.55 31.04 67.28 31.55 C 66.07 27.13 64.93 22.70 63.82 18.26 Z" />
</g>
<g id="#7e5561ff">
<path fill="#7e5561" opacity="1.00" d=" M 67.78 17.87 C 68.26 17.85 69.23 17.81 69.71 17.78 C 69.92 22.28 70.07 26.78 70.26 31.28 C 70.31 32.69 70.36 34.11 70.40 35.52 L 68.92 35.57 C 68.75 33.56 68.55 31.55 68.39 29.53 C 68.20 25.64 67.92 21.76 67.78 17.87 Z" />
</g>
<g id="#4887c1ff">
<path fill="#4887c1" opacity="1.00" d=" M 69.71 17.78 C 70.44 17.79 71.90 17.80 72.63 17.80 C 72.49 21.51 72.42 25.23 71.91 28.92 C 71.37 29.71 70.82 30.50 70.26 31.28 C 70.07 26.78 69.92 22.28 69.71 17.78 Z" />
</g>
<g id="#4884beff">
<path fill="#4884be" opacity="1.00" d=" M 73.78 17.86 C 75.36 17.99 76.93 18.16 78.50 18.34 C 76.91 23.02 75.77 27.83 74.33 32.55 C 73.99 32.08 73.32 31.13 72.99 30.66 C 73.22 26.39 73.61 22.13 73.78 17.86 Z" />
</g>
<g id="#4884bcff">
<path fill="#4884bc" opacity="1.00" d=" M 58.17 19.17 C 59.69 18.89 61.22 18.63 62.75 18.40 C 63.96 23.78 65.59 29.06 66.62 34.48 C 62.58 30.19 61.01 24.25 58.17 19.17 Z" />
</g>
<g id="#4983bbff">
<path fill="#4983bb" opacity="1.00" d=" M 79.42 18.45 C 80.84 18.67 82.25 18.93 83.66 19.23 C 80.91 23.88 79.58 29.55 75.74 33.42 C 76.22 28.27 78.25 23.45 79.42 18.45 Z" />
<path fill="#4983bb" opacity="1.00" d=" M 53.73 20.47 C 54.46 20.23 55.92 19.76 56.65 19.53 C 59.26 23.93 62.23 28.37 63.21 33.46 C 59.24 29.77 57.22 24.57 53.73 20.47 Z" />
<path fill="#4983bb" opacity="1.00" d=" M 84.85 19.54 C 85.96 19.87 87.06 20.21 88.15 20.57 C 84.08 25.33 81.62 31.34 76.94 35.59 C 79.16 30.04 82.22 24.89 84.85 19.54 Z" />
<path fill="#4983bb" opacity="1.00" d=" M 49.19 22.25 C 50.39 21.73 51.60 21.23 52.82 20.77 C 56.01 25.64 59.08 30.61 62.73 35.15 C 62.10 35.17 60.82 35.21 60.18 35.23 C 56.59 30.84 52.71 26.70 49.19 22.25 Z" />
<path fill="#4983bb" opacity="1.00" d=" M 89.09 20.89 C 90.31 21.36 91.51 21.86 92.70 22.38 C 89.17 26.43 85.62 30.46 81.94 34.37 C 81.69 34.06 81.18 33.43 80.93 33.12 C 83.49 28.93 86.42 25.00 89.09 20.89 Z" />
<path fill="#4983bb" opacity="1.00" d=" M 85.99 42.80 C 93.54 40.37 100.67 36.84 107.99 33.81 C 109.01 34.97 109.96 36.18 110.87 37.42 C 102.39 40.02 93.75 42.07 85.16 44.30 C 85.44 43.80 85.71 43.30 85.99 42.80 Z" />
</g>
<g id="#4a83b9ff">
<path fill="#4a83b9" opacity="1.00" d=" M 44.02 25.04 C 45.33 24.26 46.66 23.51 48.02 22.81 C 51.53 26.84 55.02 30.90 58.48 34.98 C 58.07 35.21 57.24 35.67 56.83 35.90 C 52.46 32.40 48.24 28.72 44.02 25.04 Z" />
<path fill="#4a83b9" opacity="1.00" d=" M 93.72 22.85 C 95.22 23.63 96.67 24.51 98.12 25.38 C 94.07 28.51 90.25 31.92 86.13 34.97 C 85.65 34.68 84.69 34.09 84.21 33.80 C 87.34 30.12 90.57 26.52 93.72 22.85 Z" />
<path fill="#4a83b9" opacity="1.00" d=" M 99.08 25.99 C 100.27 26.82 101.41 27.71 102.55 28.61 C 96.93 31.90 91.62 35.68 85.97 38.94 C 85.65 38.63 84.99 38.02 84.67 37.71 C 89.47 33.80 94.26 29.88 99.08 25.99 Z" />
<path fill="#4a83b9" opacity="1.00" d=" M 34.66 32.85 C 35.90 31.57 37.16 30.30 38.50 29.12 C 44.77 33.39 51.14 37.54 57.69 41.38 L 57.15 42.55 C 49.71 39.21 42.21 35.96 34.66 32.85 Z" />
</g>
<g id="#4a82b9ff">
<path fill="#4a82b9" opacity="1.00" d=" M 39.31 28.47 C 40.54 27.52 41.77 26.57 43.04 25.68 C 47.77 29.76 52.56 33.77 57.21 37.93 C 56.83 38.17 56.07 38.66 55.68 38.90 C 50.11 35.61 44.78 31.92 39.31 28.47 Z" />
</g>
<g id="#7bb0d3ff">
<path fill="#7bb0d3" opacity="1.00" d=" M 70.26 31.28 C 70.82 30.50 71.37 29.71 71.91 28.92 C 71.64 31.11 71.51 33.32 71.55 35.53 C 72.53 34.09 72.77 32.34 72.99 30.66 C 73.32 31.13 73.99 32.08 74.33 32.55 C 74.06 33.63 73.79 34.70 73.52 35.78 C 71.25 35.62 68.95 35.65 66.70 36.01 C 66.97 35.71 67.50 35.09 67.77 34.78 C 67.63 33.70 67.45 32.62 67.28 31.55 C 67.55 31.04 68.11 30.04 68.39 29.53 C 68.55 31.55 68.75 33.56 68.92 35.57 L 70.40 35.52 C 70.36 34.11 70.31 32.69 70.26 31.28 Z" />
<path fill="#7bb0d3" opacity="1.00" d=" M 65.79 62.49 C 58.83 60.21 52.97 52.58 54.82 45.08 C 56.02 45.41 57.22 45.75 58.42 46.10 C 58.13 50.47 60.01 55.08 63.91 57.32 C 64.43 57.67 64.96 58.02 65.50 58.36 L 66.59 59.08 L 67.28 59.53 C 66.91 60.27 66.16 61.75 65.79 62.49 Z" />
</g>
<g id="#4983b9ff">
<path fill="#4983b9" opacity="1.00" d=" M 84.91 41.00 C 91.07 37.12 97.26 33.27 103.33 29.25 C 104.59 30.39 105.79 31.58 106.99 32.79 C 102.17 34.61 97.51 36.81 92.73 38.73 C 90.32 39.77 87.62 40.57 85.99 42.80 C 85.72 42.35 85.18 41.45 84.91 41.00 Z" />
</g>
<g id="#7a87a1ff">
<path fill="#7a87a1" opacity="1.00" d=" M 63.21 33.46 C 64.56 33.41 65.13 34.09 64.90 35.52 C 63.52 35.54 62.96 34.86 63.21 33.46 Z" />
</g>
<g id="#7e93adff">
<path fill="#7e93ad" opacity="1.00" d=" M 75.74 33.42 C 72.46 34.08 77.43 36.26 75.74 33.42 Z" />
</g>
<g id="#62a0cfff">
<path fill="#62a0cf" opacity="1.00" d=" M 80.93 33.12 C 81.18 33.43 81.69 34.06 81.94 34.37 C 81.12 35.57 80.21 36.89 78.69 37.22 C 78.69 35.54 79.89 34.28 80.93 33.12 Z" />
</g>
<g id="#8a4b4dff">
<path fill="#8a4b4d" opacity="1.00" d=" M 92.73 38.73 C 97.51 36.81 102.17 34.61 106.99 32.79 C 107.24 33.04 107.74 33.56 107.99 33.81 C 100.67 36.84 93.54 40.37 85.99 42.80 C 87.62 40.57 90.32 39.77 92.73 38.73 Z" />
</g>
<g id="#4983baff">
<path fill="#4983ba" opacity="1.00" d=" M 30.61 37.67 C 31.70 36.28 32.81 34.90 33.97 33.57 C 40.26 36.48 46.67 39.15 53.07 41.79 C 54.66 42.39 56.04 43.39 57.38 44.40 C 48.37 42.56 39.53 39.92 30.61 37.67 Z" />
</g>
<g id="#7bafd3ff">
<path fill="#7bafd3" opacity="1.00" d=" M 79.50 38.99 C 81.08 37.26 82.67 35.55 84.21 33.80 C 84.69 34.09 85.65 34.68 86.13 34.97 C 84.15 36.52 82.25 38.16 80.35 39.80 C 81.04 39.86 82.42 39.97 83.11 40.03 C 82.81 40.69 82.21 42.03 81.91 42.69 C 82.91 42.14 83.91 41.57 84.91 41.00 C 85.18 41.45 85.72 42.35 85.99 42.80 C 85.71 43.30 85.44 43.80 85.16 44.30 C 84.31 44.51 83.68 44.95 83.27 45.64 C 84.04 45.54 85.57 45.34 86.34 45.24 C 87.76 50.04 85.28 54.76 82.26 58.35 C 80.19 60.81 77.04 61.80 74.25 63.17 C 74.30 62.42 74.40 60.93 74.46 60.18 C 75.19 59.29 75.94 58.42 76.75 57.60 C 79.87 55.78 82.42 52.71 82.67 48.99 C 82.64 45.41 81.62 41.89 79.50 38.99 M 83.26 43.26 C 83.80 43.85 83.80 43.85 83.26 43.26 Z" />
<path fill="#7bafd3" opacity="1.00" d=" M 56.83 35.90 C 57.24 35.67 58.07 35.21 58.48 34.98 C 59.43 36.04 60.47 37.02 61.54 37.96 L 62.01 37.63 L 62.46 37.84 C 62.51 40.12 60.22 41.65 59.04 43.42 C 58.57 43.20 57.63 42.77 57.15 42.55 C 57.86 42.42 59.29 42.17 60.00 42.04 C 58.58 40.96 57.16 39.89 55.68 38.90 C 56.07 38.66 56.83 38.17 57.21 37.93 C 58.22 38.80 59.38 39.44 60.67 39.76 C 59.56 38.31 58.25 37.04 56.83 35.90 Z" />
</g>
<g id="#fffefeff">
<path fill="#fffefe" opacity="1.00" d=" M 62.01 37.63 C 62.13 36.86 62.55 36.50 63.27 36.56 L 63.94 36.69 C 64.87 36.53 65.79 36.31 66.70 36.01 C 68.95 35.65 71.25 35.62 73.52 35.78 C 75.21 36.26 76.88 36.82 78.54 37.39 C 78.78 37.79 79.26 38.59 79.50 38.99 C 81.62 41.89 82.64 45.41 82.67 48.99 C 82.42 52.71 79.87 55.78 76.75 57.60 C 72.47 57.12 68.16 58.02 63.91 57.32 C 60.01 55.08 58.13 50.47 58.42 46.10 C 58.57 45.43 58.88 44.09 59.04 43.42 C 60.22 41.65 62.51 40.12 62.46 37.84 L 62.01 37.63 M 69.48 45.59 C 69.79 47.79 69.14 49.89 68.23 51.87 C 71.75 51.86 74.65 47.89 73.26 44.56 C 71.60 42.33 70.92 39.74 71.62 37.01 C 68.90 39.10 68.00 42.45 69.48 45.59 M 64.33 39.88 C 65.52 43.25 63.55 46.25 61.82 48.98 C 62.37 50.57 63.21 52.03 64.22 53.37 C 63.81 54.20 63.40 55.03 62.98 55.86 C 67.72 57.25 72.72 56.26 77.57 56.59 C 77.40 55.93 77.06 54.61 76.88 53.95 L 76.10 53.60 C 76.52 52.58 76.94 51.55 77.35 50.53 L 77.70 50.46 C 78.07 47.33 77.43 43.76 74.57 41.96 C 76.81 45.48 74.92 49.16 72.23 51.70 L 73.02 51.51 C 72.65 51.95 71.93 52.82 71.56 53.26 C 69.95 53.23 68.34 53.27 66.73 53.30 C 66.39 51.27 66.67 49.23 67.37 47.31 C 68.75 44.20 66.69 41.66 64.33 39.88 Z" />
</g>
<g id="#5ca3d6ff">
<path fill="#5ca3d6" opacity="1.00" d=" M 83.11 40.03 C 83.17 38.97 83.69 38.20 84.67 37.71 C 84.99 38.02 85.65 38.63 85.97 38.94 C 85.17 39.77 84.22 40.13 83.11 40.03 Z" />
</g>
<g id="#4a83baff">
<path fill="#4a83ba" opacity="1.00" d=" M 29.95 38.53 C 38.16 40.98 46.55 42.81 54.82 45.08 C 52.97 52.58 58.83 60.21 65.79 62.49 C 66.05 62.88 66.55 63.66 66.81 64.04 C 68.57 68.14 68.63 72.69 68.31 77.06 C 64.09 79.64 64.45 85.36 65.82 89.47 C 67.06 92.95 66.64 96.65 66.31 100.25 L 64.64 100.47 C 61.26 100.72 57.86 100.93 54.55 101.69 C 53.88 103.69 53.03 105.62 51.91 107.40 C 51.27 88.69 51.77 69.95 51.64 51.23 C 45.69 51.06 39.71 51.63 33.79 50.85 L 33.65 50.27 C 34.96 48.29 36.36 46.38 37.57 44.35 C 34.85 42.71 32.02 41.22 29.52 39.24 L 29.95 38.53 Z" />
<path fill="#4a83ba" opacity="1.00" d=" M 86.34 45.24 C 94.62 43.16 102.78 40.37 111.22 39.04 C 109.72 41.38 106.96 42.29 104.77 43.81 L 104.28 45.08 C 105.62 47.22 107.15 49.23 108.69 51.23 C 102.02 51.31 95.36 51.03 88.70 51.39 C 88.53 68.53 88.68 85.68 88.63 102.82 C 85.19 101.22 81.38 100.87 77.63 100.85 C 77.00 100.59 75.74 100.08 75.12 99.83 C 74.72 98.55 74.36 97.27 74.04 95.97 C 72.88 91.59 75.79 87.45 74.79 83.04 C 74.28 80.70 74.94 77.55 72.66 76.06 C 71.37 73.50 71.88 70.61 72.45 67.94 C 72.81 66.60 73.24 65.27 73.69 63.95 C 73.83 63.75 74.11 63.36 74.25 63.17 C 77.04 61.80 80.19 60.81 82.26 58.35 C 85.28 54.76 87.76 50.04 86.34 45.24 Z" />
<path fill="#4a83ba" opacity="1.00" d=" M 54.07 116.76 C 59.73 117.08 65.95 115.30 71.12 118.28 C 72.05 117.74 72.97 117.19 73.89 116.64 C 77.69 116.65 81.48 116.64 85.27 116.69 C 85.01 117.24 84.48 118.34 84.21 118.89 C 83.83 119.27 83.07 120.02 82.69 120.40 C 82.61 120.46 82.45 120.58 82.38 120.65 C 73.77 126.47 60.56 125.19 54.07 116.76 Z" />
</g>
<g id="#000000ff">
<path fill="#000000" opacity="1.00" d=" M 111.22 39.04 L 111.74 38.96 C 113.53 41.14 114.98 43.57 116.47 45.96 C 114.48 46.77 112.40 46.26 110.40 45.76 C 109.54 45.39 108.68 45.05 107.82 44.72 C 106.81 44.39 105.79 44.09 104.77 43.81 C 106.96 42.29 109.72 41.38 111.22 39.04 Z" />
<path fill="#000000" opacity="1.00" d=" M 25.04 46.64 C 26.55 44.19 28.04 41.72 29.52 39.24 C 32.02 41.22 34.85 42.71 37.57 44.35 C 37.09 44.36 36.12 44.38 35.63 44.39 C 31.94 44.39 28.89 47.91 25.04 46.64 Z" />
<path fill="#000000" opacity="1.00" d=" M 88.63 102.82 C 88.68 85.68 88.53 68.53 88.70 51.39 C 88.98 65.93 88.73 80.47 88.84 95.01 C 89.00 100.80 87.67 106.84 90.18 112.33 C 90.52 113.79 90.89 115.25 91.27 116.70 C 90.68 116.71 89.50 116.73 88.91 116.75 C 88.22 116.78 86.83 116.86 86.14 116.89 C 85.49 117.55 84.85 118.22 84.21 118.89 C 84.48 118.34 85.01 117.24 85.27 116.69 C 81.48 116.64 77.69 116.65 73.89 116.64 C 72.97 117.19 72.05 117.74 71.12 118.28 C 65.95 115.30 59.73 117.08 54.07 116.76 C 53.38 116.76 51.98 116.77 51.28 116.77 C 50.86 116.75 50.00 116.72 49.57 116.70 C 49.75 116.14 50.11 115.02 50.29 114.46 C 51.07 112.17 51.83 109.84 51.91 107.40 C 53.03 105.62 53.88 103.69 54.55 101.69 C 57.86 100.93 61.26 100.72 64.64 100.47 L 65.59 100.74 C 62.91 100.99 60.23 101.23 57.55 101.33 C 57.07 104.27 56.44 107.17 55.82 110.09 C 55.58 111.50 55.47 112.94 55.34 114.37 C 54.77 114.36 53.63 114.35 53.06 114.34 C 53.96 110.17 55.00 106.01 56.70 102.08 C 53.45 103.54 54.11 107.99 52.80 110.85 C 52.35 112.38 51.89 113.91 51.42 115.44 C 57.96 115.99 64.87 114.19 71.09 116.74 C 71.63 116.45 72.71 115.87 73.25 115.58 C 78.50 115.30 83.76 115.52 89.01 115.40 C 88.68 113.58 88.37 111.76 87.96 109.96 C 87.43 107.45 86.88 104.94 86.32 102.43 C 85.81 102.46 84.80 102.52 84.30 102.55 C 86.36 106.20 86.74 110.42 87.69 114.43 C 86.31 114.18 84.91 113.95 83.52 113.76 C 83.22 113.44 82.61 112.80 82.31 112.48 C 83.20 112.57 85.00 112.74 85.89 112.83 C 85.71 112.16 85.35 110.82 85.17 110.14 C 84.49 107.31 83.96 104.45 83.46 101.59 C 81.22 101.46 78.98 101.22 76.77 100.88 L 77.63 100.85 C 81.38 100.87 85.19 101.22 88.63 102.82 Z" />
<path fill="#000000" opacity="1.00" d=" M 63.91 57.32 C 68.16 58.02 72.47 57.12 76.75 57.60 C 75.94 58.42 75.19 59.29 74.46 60.18 L 74.51 59.41 C 72.12 59.83 69.67 60.06 67.28 59.53 L 66.59 59.08 C 68.89 59.29 71.20 59.31 73.51 59.35 C 73.53 58.76 73.53 58.18 73.52 57.59 C 70.84 57.85 68.17 58.15 65.50 58.36 C 64.96 58.02 64.43 57.67 63.91 57.32 Z" />
<path fill="#000000" opacity="1.00" d=" M 71.73 96.81 C 73.32 99.96 66.17 98.86 68.97 96.46 C 69.66 96.55 71.04 96.72 71.73 96.81 Z" />
</g>
<g id="#da0000ff">
<path fill="#da0000" opacity="1.00" d=" M 64.33 39.88 C 66.69 41.66 68.75 44.20 67.37 47.31 C 66.45 47.24 64.61 47.10 63.70 47.03 C 63.23 47.51 62.29 48.49 61.82 48.98 C 63.55 46.25 65.52 43.25 64.33 39.88 Z" />
</g>
<g id="#d90101ff">
<path fill="#d90101" opacity="1.00" d=" M 74.57 41.96 C 77.43 43.76 78.07 47.33 77.70 50.46 L 77.35 50.53 C 75.90 50.83 74.45 51.13 73.02 51.51 L 72.23 51.70 C 74.92 49.16 76.81 45.48 74.57 41.96 Z" />
</g>
<g id="#8e332cff">
<path fill="#8e332c" opacity="1.00" d=" M 83.26 43.26 C 83.80 43.85 83.80 43.85 83.26 43.26 Z" />
</g>
<g id="#f0ec37ff">
<path fill="#f0ec37" opacity="1.00" d=" M 68.23 51.87 C 69.14 49.89 69.79 47.79 69.48 45.59 C 70.78 45.41 72.02 44.97 73.26 44.56 C 74.65 47.89 71.75 51.86 68.23 51.87 Z" />
</g>
<g id="#f1ed3dff">
<path fill="#f1ed3d" opacity="1.00" d=" M 61.82 48.98 C 62.29 48.49 63.23 47.51 63.70 47.03 C 64.61 47.10 66.45 47.24 67.37 47.31 C 66.67 49.23 66.39 51.27 66.73 53.30 C 66.10 53.32 64.85 53.35 64.22 53.37 C 63.21 52.03 62.37 50.57 61.82 48.98 Z" />
</g>
<g id="#667c77c0">
<path fill="#667c77" opacity="0.75" d=" M 33.21 50.79 C 33.32 50.66 33.54 50.40 33.65 50.27 L 33.79 50.85 L 33.21 50.79 Z" />
</g>
<g id="#a3a4a6ff">
<path fill="#a3a4a6" opacity="1.00" d=" M 64.22 53.37 C 64.85 53.35 66.10 53.32 66.73 53.30 C 68.34 53.27 69.95 53.23 71.56 53.26 C 73.08 53.32 74.59 53.43 76.10 53.60 L 76.88 53.95 C 77.06 54.61 77.40 55.93 77.57 56.59 C 72.72 56.26 67.72 57.25 62.98 55.86 C 63.40 55.03 63.81 54.20 64.22 53.37 Z" />
</g>
<g id="#712013ff">
<path fill="#712013" opacity="1.00" d=" M 35.67 62.43 C 33.70 60.77 34.69 57.77 37.25 57.47 C 37.32 58.19 37.47 59.61 37.55 60.33 C 40.44 60.30 43.33 60.29 46.22 60.30 C 46.26 60.92 46.34 62.16 46.38 62.79 C 42.86 63.05 39.04 63.77 35.67 62.43 Z" />
</g>
<g id="#712014ff">
<path fill="#712014" opacity="1.00" d=" M 95.19 58.38 C 98.88 58.19 102.58 58.36 106.28 58.35 C 106.23 59.21 106.18 60.08 106.13 60.95 C 104.52 61.47 102.92 62.00 101.33 62.57 C 100.58 62.06 99.84 61.55 99.10 61.03 C 99.87 60.86 101.41 60.52 102.18 60.35 C 99.66 60.54 97.14 60.72 94.62 60.71 C 94.76 60.13 95.05 58.96 95.19 58.38 Z" />
<path fill="#712014" opacity="1.00" d=" M 34.60 67.70 C 37.32 66.21 40.57 65.77 43.57 66.61 C 46.97 67.34 46.77 73.56 43.15 73.79 C 40.39 74.33 36.82 74.44 34.74 72.21 C 34.05 70.80 34.56 69.20 34.60 67.70 M 37.13 70.81 C 38.98 71.77 41.13 71.25 43.13 71.22 C 43.23 70.79 43.43 69.94 43.53 69.51 C 41.64 69.10 36.92 67.72 37.13 70.81 Z" />
</g>
<g id="#bbbbbbff">
<path fill="#bbbbbb" opacity="1.00" d=" M 67.28 59.53 C 69.67 60.06 72.12 59.83 74.51 59.41 L 74.46 60.18 C 74.40 60.93 74.30 62.42 74.25 63.17 C 74.11 63.36 73.83 63.75 73.69 63.95 C 71.40 64.02 69.10 64.02 66.81 64.04 C 66.55 63.66 66.05 62.88 65.79 62.49 C 66.16 61.75 66.91 60.27 67.28 59.53 Z" />
</g>
<g id="#6f1d11ff">
<path fill="#6f1d11" opacity="1.00" d=" M 95.03 65.57 C 94.72 63.09 95.38 61.12 98.45 61.12 C 98.54 62.01 98.55 62.90 98.61 63.79 C 101.08 63.05 103.68 63.17 106.23 63.17 C 106.23 63.96 106.22 64.75 106.22 65.54 C 102.49 65.53 98.76 65.53 95.03 65.57 Z" />
<path fill="#6f1d11" opacity="1.00" d=" M 96.03 81.06 C 99.45 80.28 102.93 79.82 106.40 79.31 C 106.72 81.66 104.77 82.26 103.08 82.94 C 104.63 83.93 106.62 84.78 106.35 86.99 C 102.46 86.62 98.62 85.87 94.78 85.20 C 95.10 83.89 93.95 81.22 96.03 81.06 M 96.91 83.24 C 98.59 83.26 101.09 84.75 101.88 82.52 C 100.20 82.58 98.52 82.75 96.91 83.24 Z" />
<path fill="#6f1d11" opacity="1.00" d=" M 34.57 110.49 C 38.21 109.71 41.89 109.08 45.51 108.18 C 45.90 109.82 46.49 111.46 46.46 113.18 C 45.75 115.28 43.29 114.97 41.59 114.62 C 40.29 115.44 38.73 117.13 37.10 116.02 C 34.93 115.13 35.32 112.35 34.57 110.49 M 41.74 111.87 C 42.53 113.26 43.39 113.29 44.35 111.93 C 43.57 110.49 42.70 110.47 41.74 111.87 M 37.15 112.91 C 37.26 114.63 40.00 114.39 40.32 112.91 C 40.36 111.10 37.22 111.18 37.15 112.91 Z" />
<path fill="#6f1d11" opacity="1.00" d=" M 95.36 112.36 C 98.23 110.78 101.73 113.17 104.06 114.90 C 106.59 116.61 105.05 121.11 102.05 120.93 C 98.86 120.56 95.09 119.32 93.69 116.14 C 93.69 114.76 94.24 113.22 95.36 112.36 M 96.66 114.38 C 96.65 114.85 96.63 115.79 96.62 116.27 C 98.48 117.25 100.42 118.09 102.49 118.53 C 102.50 118.06 102.52 117.11 102.53 116.64 C 100.65 115.70 98.71 114.85 96.66 114.38 Z" />
<path fill="#6f1d11" opacity="1.00" d=" M 37.12 119.42 C 40.56 118.18 44.01 116.99 47.35 115.50 C 48.04 116.62 48.74 117.75 49.44 118.87 C 46.21 121.31 43.37 124.29 39.81 126.27 C 39.10 124.33 40.32 122.74 41.13 121.10 C 40.28 121.25 38.59 121.55 37.75 121.70 C 37.59 121.13 37.28 119.99 37.12 119.42 M 42.54 120.07 C 43.21 121.87 46.50 119.74 46.60 118.42 C 45.18 118.00 43.27 118.76 42.54 120.07 Z" />
<path fill="#6f1d11" opacity="1.00" d=" M 91.38 120.38 C 93.82 117.83 96.94 121.72 96.82 124.28 C 98.28 125.00 99.75 125.69 101.23 126.37 C 100.63 127.10 100.02 127.82 99.42 128.55 C 98.03 127.68 96.65 126.81 95.25 125.99 C 96.43 127.35 97.66 128.68 98.87 130.02 C 98.25 130.22 97.00 130.63 96.38 130.83 C 93.89 128.51 91.47 126.09 89.18 123.58 C 88.90 122.20 90.63 121.35 91.38 120.38 M 94.60 124.64 C 95.44 123.52 94.29 121.61 92.92 121.75 C 90.54 122.45 92.86 125.94 94.60 124.64 Z" />
<path fill="#6f1d11" opacity="1.00" d=" M 48.28 122.29 C 51.08 120.16 54.66 125.08 51.29 126.88 C 51.01 126.37 50.44 125.37 50.16 124.87 L 48.70 124.50 C 49.22 127.05 49.70 130.46 46.77 131.75 C 44.00 133.77 40.41 128.67 43.98 127.13 C 44.60 127.77 45.83 129.07 46.44 129.71 C 46.58 127.19 45.47 123.77 48.28 122.29 Z" />
<path fill="#6f1d11" opacity="1.00" d=" M 83.76 129.10 C 82.26 125.67 88.00 121.97 89.48 126.42 C 87.97 126.49 85.96 126.86 86.29 128.83 C 86.69 131.02 88.01 133.10 89.97 134.22 C 89.75 132.66 89.16 131.21 88.44 129.82 C 89.03 129.59 90.21 129.12 90.80 128.89 C 91.51 130.30 92.31 131.67 92.89 133.15 C 92.62 134.95 90.70 136.68 88.83 136.36 C 86.04 134.97 84.82 131.83 83.76 129.10 Z" />
<path fill="#6f1d11" opacity="1.00" d=" M 48.83 133.94 C 50.86 131.13 53.03 128.43 55.03 125.60 C 56.14 126.32 57.25 127.05 58.35 127.78 C 56.77 131.45 55.66 135.31 54.18 139.03 C 52.04 138.03 52.66 135.72 52.31 133.87 C 51.71 134.48 50.52 135.69 49.92 136.30 C 49.00 135.83 47.59 135.03 48.83 133.94 M 53.16 133.01 C 55.05 132.12 55.10 129.76 55.69 128.04 C 54.65 129.58 53.47 131.12 53.16 133.01 Z" />
<path fill="#6f1d11" opacity="1.00" d=" M 66.79 129.55 C 68.66 129.79 70.94 129.04 72.46 130.47 C 73.33 132.58 72.81 134.85 71.66 136.72 C 72.28 138.28 72.90 139.84 73.52 141.40 C 69.88 142.24 70.34 138.26 69.54 135.95 C 69.49 137.81 69.41 139.66 69.33 141.53 C 68.71 141.43 67.48 141.24 66.87 141.14 C 66.68 137.28 66.94 133.42 66.79 129.55 M 69.96 134.82 C 71.67 134.70 71.60 131.85 69.94 131.71 C 68.24 131.81 68.17 134.85 69.96 134.82 Z" />
</g>
<g id="#919191ff">
<path fill="#919191" opacity="1.00" d=" M 66.81 64.04 C 69.10 64.02 71.40 64.02 73.69 63.95 C 73.24 65.27 72.81 66.60 72.45 67.94 C 71.27 67.56 70.10 67.18 68.92 66.80 C 68.82 70.18 68.95 73.56 69.32 76.91 L 68.31 77.06 C 68.63 72.69 68.57 68.14 66.81 64.04 Z" />
</g>
<g id="#b9b6b4ff">
<path fill="#b9b6b4" opacity="1.00" d=" M 68.92 66.80 C 70.10 67.18 71.27 67.56 72.45 67.94 C 71.88 70.61 71.37 73.50 72.66 76.06 C 71.55 76.37 70.44 76.66 69.32 76.91 C 68.95 73.56 68.82 70.18 68.92 66.80 Z" />
</g>
<g id="#701f12ff">
<path fill="#701f12" opacity="1.00" d=" M 34.40 76.50 C 38.16 76.54 41.92 76.54 45.68 76.51 C 45.29 78.68 46.61 82.02 44.01 83.10 C 42.16 84.03 40.35 82.75 38.92 81.69 C 37.40 82.32 35.90 82.96 34.39 83.59 C 34.45 82.85 34.57 81.36 34.64 80.61 C 36.11 80.16 37.62 79.84 39.12 79.49 C 37.61 79.38 36.10 79.29 34.60 79.20 C 34.53 78.30 34.47 77.40 34.40 76.50 M 40.67 79.97 C 40.85 81.63 43.69 81.65 43.76 79.93 C 43.71 78.21 40.65 78.20 40.67 79.97 Z" />
</g>
<g id="#eecdb1ff">
<path fill="#eecdb1" opacity="1.00" d=" M 72.66 76.06 C 74.94 77.55 74.28 80.70 74.79 83.04 C 75.79 87.45 72.88 91.59 74.04 95.97 C 74.15 97.29 74.23 98.61 74.29 99.93 C 71.69 100.87 68.98 100.56 66.31 100.25 C 66.64 96.65 67.06 92.95 65.82 89.47 C 64.45 85.36 64.09 79.64 68.31 77.06 L 69.32 76.91 C 70.44 76.66 71.55 76.37 72.66 76.06 M 68.29 82.75 C 69.54 83.48 71.35 83.56 72.61 82.81 C 72.25 81.37 68.70 81.38 68.29 82.75 M 68.32 85.80 C 69.44 86.52 70.57 86.52 71.69 85.81 C 71.76 84.37 68.25 84.36 68.32 85.80 M 69.25 88.28 C 68.22 90.89 68.83 93.75 68.97 96.46 C 66.17 98.86 73.32 99.96 71.73 96.81 C 71.76 94.25 71.93 91.68 71.78 89.13 C 71.23 88.11 70.39 87.83 69.25 88.28 Z" />
</g>
<g id="#c8b5a1ff">
<path fill="#c8b5a1" opacity="1.00" d=" M 68.29 82.75 C 68.70 81.38 72.25 81.37 72.61 82.81 C 71.35 83.56 69.54 83.48 68.29 82.75 Z" />
</g>
<g id="#c8b4a0ff">
<path fill="#c8b4a0" opacity="1.00" d=" M 68.32 85.80 C 68.25 84.36 71.76 84.37 71.69 85.81 C 70.57 86.52 69.44 86.52 68.32 85.80 Z" />
</g>
<g id="#6f1e11ff">
<path fill="#6f1e11" opacity="1.00" d=" M 34.74 87.81 C 36.98 85.16 41.02 86.14 44.02 86.45 C 46.57 87.35 45.73 90.44 45.59 92.49 C 44.55 92.57 43.51 92.65 42.48 92.74 C 43.21 91.40 44.47 88.98 41.97 88.65 C 40.07 88.45 37.00 87.85 36.25 90.27 C 37.60 90.29 38.96 90.30 40.32 90.30 C 40.34 90.93 40.39 92.18 40.41 92.81 C 38.69 92.72 36.80 93.30 35.20 92.51 C 34.14 91.24 34.26 89.30 34.74 87.81 Z" />
</g>
<g id="#b9bec3ff">
<path fill="#b9bec3" opacity="1.00" d=" M 69.25 88.28 C 70.39 87.83 71.23 88.11 71.78 89.13 C 71.93 91.68 71.76 94.25 71.73 96.81 C 71.04 96.72 69.66 96.55 68.97 96.46 C 68.83 93.75 68.22 90.89 69.25 88.28 Z" />
</g>
<g id="#7a2e22ff">
<path fill="#7a2e22" opacity="1.00" d=" M 94.84 89.80 C 98.61 89.79 102.38 89.79 106.15 89.80 C 106.15 90.41 106.16 91.64 106.16 92.25 C 103.39 92.32 100.63 92.32 97.86 92.37 C 100.77 92.81 103.69 93.19 106.58 93.80 C 104.49 96.55 100.01 95.46 96.91 96.60 C 100.00 96.50 103.09 96.46 106.18 96.50 C 106.18 97.09 106.16 98.27 106.15 98.86 C 102.37 98.86 98.59 98.85 94.82 98.90 C 94.80 97.67 94.73 96.43 94.90 95.21 C 96.54 94.70 98.27 94.67 99.97 94.49 C 98.21 94.15 96.45 93.82 94.70 93.46 C 94.73 92.55 94.80 90.71 94.84 89.80 Z" />
</g>
<g id="#712115ff">
<path fill="#712115" opacity="1.00" d=" M 34.41 95.63 C 38.14 95.70 41.88 95.69 45.61 95.66 C 45.61 97.58 45.61 99.50 45.62 101.42 C 45.07 101.46 43.96 101.53 43.41 101.56 C 42.95 100.23 43.25 98.12 41.36 98.02 C 41.31 98.88 41.22 100.61 41.18 101.47 C 40.55 101.46 39.28 101.44 38.65 101.42 C 38.65 100.65 38.66 99.09 38.67 98.31 C 38.20 98.35 37.28 98.42 36.81 98.45 C 37.34 100.74 36.55 101.81 34.44 101.66 C 34.41 99.65 34.41 97.64 34.41 95.63 Z" />
</g>
<g id="#929393ff">
<path fill="#929393" opacity="1.00" d=" M 74.04 95.97 C 74.36 97.27 74.72 98.55 75.12 99.83 C 75.74 100.08 77.00 100.59 77.63 100.85 L 76.77 100.88 C 74.88 100.85 73.05 101.34 71.31 102.04 C 71.05 102.12 70.55 102.29 70.29 102.37 C 70.07 102.30 69.64 102.15 69.42 102.08 C 68.15 101.61 66.88 101.13 65.59 100.74 L 64.64 100.47 L 66.31 100.25 C 68.98 100.56 71.69 100.87 74.29 99.93 C 74.23 98.61 74.15 97.29 74.04 95.97 Z" />
</g>
<g id="#b3b3b1ff">
<path fill="#b3b3b1" opacity="1.00" d=" M 69.42 102.08 C 69.64 102.15 70.07 102.30 70.29 102.37 C 70.55 102.29 71.05 102.12 71.31 102.04 C 71.29 104.77 71.31 107.51 71.52 110.24 L 73.27 110.19 C 72.02 110.56 70.74 111.10 69.44 110.61 C 69.55 107.76 69.55 104.92 69.42 102.08 Z" />
</g>
<g id="#702013ff">
<path fill="#702013" opacity="1.00" d=" M 95.40 102.63 C 99.09 103.11 102.81 103.37 106.52 103.67 C 106.47 104.34 106.38 105.67 106.33 106.34 C 105.05 106.52 101.04 105.20 101.61 107.43 C 103.16 107.83 104.74 108.00 106.32 108.26 C 106.22 108.83 106.03 109.96 105.93 110.52 C 102.31 110.50 98.70 110.05 95.12 109.54 C 95.03 108.95 94.84 107.78 94.75 107.19 C 96.32 107.25 97.89 107.32 99.46 107.39 L 99.47 105.67 C 98.05 105.58 96.64 105.48 95.23 105.39 C 95.28 104.47 95.34 103.55 95.40 102.63 Z" />
</g>
<g id="#6b6727ff">
<path fill="#6b6727" opacity="1.00" d=" M 55.82 110.09 C 60.31 109.15 65.18 108.37 69.44 110.61 C 70.74 111.10 72.02 110.56 73.27 110.19 C 77.12 108.78 81.24 109.58 85.17 110.14 C 85.35 110.82 85.71 112.16 85.89 112.83 C 85.00 112.74 83.20 112.57 82.31 112.48 C 82.61 112.80 83.22 113.44 83.52 113.76 C 78.08 113.53 72.71 115.02 67.27 114.53 C 66.34 113.30 65.99 111.00 63.99 111.28 C 61.07 110.66 58.94 112.99 56.69 114.37 L 55.34 114.37 C 55.47 112.94 55.58 111.50 55.82 110.09 M 70.14 112.01 C 68.21 112.40 69.45 114.85 71.03 114.15 C 73.04 113.92 71.64 111.30 70.14 112.01 Z" />
</g>
<g id="#928e2fff">
<path fill="#928e2f" opacity="1.00" d=" M 56.69 114.37 C 58.94 112.99 61.07 110.66 63.99 111.28 C 65.99 111.00 66.34 113.30 67.27 114.53 C 63.74 114.44 60.22 114.47 56.69 114.37 Z" />
</g>
<g id="#839464ce">
<path fill="#839464" opacity="0.81" d=" M 82.38 120.65 C 82.45 120.58 82.61 120.46 82.69 120.40 C 82.61 120.46 82.45 120.58 82.38 120.65 Z" />
</g>
<g id="#75271bff">
<path fill="#75271b" opacity="1.00" d=" M 57.41 140.04 C 58.03 136.09 59.02 132.20 59.86 128.30 C 61.84 128.93 64.53 128.84 65.50 131.07 C 65.82 133.99 65.16 137.15 63.47 139.57 C 61.97 141.55 59.38 140.07 57.41 140.04 M 60.24 138.16 C 63.28 137.52 62.85 133.68 62.85 131.34 C 60.55 132.75 60.97 135.89 60.24 138.16 Z" />
</g>
<g id="#b43129ff">
<path fill="#b43129" opacity="1.00" d=" M 34.10 152.01 C 37.09 150.59 40.84 149.18 43.92 151.13 C 45.48 151.89 44.98 153.86 45.31 155.24 C 42.37 155.22 39.35 155.02 36.50 155.92 C 25.38 161.32 11.70 163.67 0.00 158.71 L 0.00 158.65 C 5.60 159.26 11.25 158.32 16.41 156.06 C 22.59 156.76 28.64 154.72 34.10 152.01 Z" />
<path fill="#b43129" opacity="1.00" d=" M 97.13 151.11 C 100.22 149.21 103.94 150.58 106.92 152.01 C 112.37 154.72 118.42 156.75 124.60 156.06 C 129.80 158.35 135.49 159.22 141.14 158.66 C 129.11 163.81 115.13 161.17 103.71 155.64 C 101.15 155.20 98.54 155.11 95.95 154.98 C 95.98 153.66 95.59 151.76 97.13 151.11 Z" />
</g>
<g id="#e8c2c0ff">
<path fill="#e8c2c0" opacity="1.00" d=" M 60.48 151.21 C 61.02 151.80 61.02 151.80 60.48 151.21 Z" />
</g>
<g id="#edd1cfff">
<path fill="#edd1cf" opacity="1.00" d=" M 89.09 152.16 C 89.68 152.73 89.68 152.73 89.09 152.16 Z" />
</g>
<g id="#f2deddff">
<path fill="#f2dedd" opacity="1.00" d=" M 88.21 154.26 C 89.27 153.62 91.23 154.71 90.63 156.02 C 89.42 157.30 85.66 155.51 88.21 154.26 Z" />
</g>
<g id="#84342ae0">
<path fill="#84342a" opacity="0.88" d=" M 36.50 155.92 C 39.35 155.02 42.37 155.22 45.31 155.24 C 43.85 157.36 41.17 157.63 38.97 158.58 C 38.61 159.16 37.89 160.31 37.53 160.89 C 37.40 159.20 37.37 157.51 37.27 155.83 L 36.50 155.92 Z" />
</g>
<g id="#863429e5">
<path fill="#863429" opacity="0.90" d=" M 95.95 154.98 C 98.54 155.11 101.15 155.20 103.71 155.64 C 103.68 157.42 103.68 159.20 103.59 160.98 C 103.20 160.38 102.43 159.16 102.04 158.55 C 100.21 157.80 98.32 157.24 96.48 156.52 C 96.35 156.13 96.08 155.37 95.95 154.98 Z" />
</g>
</svg>
