<?xml version="1.0" encoding="UTF-8" ?>
<!DOCTYPE svg PUBLIC "-//W3C//DTD SVG 1.1//EN" "http://www.w3.org/Graphics/SVG/1.1/DTD/svg11.dtd">
<svg width="175pt" height="175pt" viewBox="0 0 175 175" version="1.1" xmlns="http://www.w3.org/2000/svg">
<g id="#f8c21cff">
<path fill="#f8c21c" opacity="1.00" d=" M 81.94 0.00 L 92.78 0.00 C 113.69 1.41 134.04 10.30 148.91 25.12 C 164.04 39.79 173.12 60.09 175.00 81.00 L 175.00 92.83 C 173.73 110.65 167.21 128.11 155.98 142.05 C 140.74 161.42 117.02 173.57 92.44 175.00 L 82.60 175.00 C 64.41 173.85 46.60 167.13 32.46 155.58 C 13.52 140.46 1.66 117.19 0.00 93.06 L 0.00 82.11 C 1.47 60.76 10.75 40.02 26.13 25.08 C 40.93 10.34 61.16 1.51 81.94 0.00 M 59.80 58.70 C 57.07 56.20 54.49 53.54 51.98 50.82 C 52.03 57.55 51.98 64.27 52.00 71.00 C 58.76 71.05 65.52 70.88 72.27 71.11 C 69.91 69.02 67.81 66.67 65.46 64.59 C 73.66 55.50 87.66 52.74 99.00 56.96 C 112.05 61.50 121.01 75.29 119.90 89.05 C 119.22 103.29 107.85 116.02 93.84 118.45 C 82.71 120.66 70.67 116.24 63.49 107.49 C 57.73 100.81 55.28 91.72 56.18 83.00 C 53.49 82.98 50.81 82.99 48.12 83.06 C 47.54 91.23 49.10 99.63 53.26 106.75 C 59.14 117.25 70.03 124.69 81.93 126.48 C 92.66 128.23 104.03 125.18 112.57 118.48 C 120.78 112.14 126.31 102.47 127.62 92.18 C 128.87 82.89 126.70 73.19 121.58 65.34 C 115.32 55.59 104.66 48.69 93.10 47.39 C 81.03 45.77 68.35 50.00 59.80 58.70 M 84.00 67.01 C 84.01 74.22 83.98 81.44 84.02 88.65 C 88.36 92.96 92.71 97.27 97.01 101.62 C 98.99 99.86 100.84 97.95 102.68 96.03 C 99.75 93.07 96.81 90.12 93.82 87.22 C 93.02 86.32 91.70 85.51 92.01 84.09 C 91.96 78.40 92.02 72.70 92.00 67.01 C 89.33 67.00 86.67 67.00 84.00 67.01 Z" />
</g>
<g id="#000000ff">
<path fill="#000000" opacity="1.00" d=" M 59.80 58.70 C 68.35 50.00 81.03 45.77 93.10 47.39 C 104.66 48.69 115.32 55.59 121.58 65.34 C 126.70 73.19 128.87 82.89 127.62 92.18 C 126.31 102.47 120.78 112.14 112.57 118.48 C 104.03 125.18 92.66 128.23 81.93 126.48 C 70.03 124.69 59.14 117.25 53.26 106.75 C 49.10 99.63 47.54 91.23 48.12 83.06 C 50.81 82.99 53.49 82.98 56.18 83.00 C 55.28 91.72 57.73 100.81 63.49 107.49 C 70.67 116.24 82.71 120.66 93.84 118.45 C 107.85 116.02 119.22 103.29 119.90 89.05 C 121.01 75.29 112.05 61.50 99.00 56.96 C 87.66 52.74 73.66 55.50 65.46 64.59 C 67.81 66.67 69.91 69.02 72.27 71.11 C 65.52 70.88 58.76 71.05 52.00 71.00 C 51.98 64.27 52.03 57.55 51.98 50.82 C 54.49 53.54 57.07 56.20 59.80 58.70 Z" />
<path fill="#000000" opacity="1.00" d=" M 84.00 67.01 C 86.67 67.00 89.33 67.00 92.00 67.01 C 92.02 72.70 91.96 78.40 92.01 84.09 C 91.70 85.51 93.02 86.32 93.82 87.22 C 96.81 90.12 99.75 93.07 102.68 96.03 C 100.84 97.95 98.99 99.86 97.01 101.62 C 92.71 97.27 88.36 92.96 84.02 88.65 C 83.98 81.44 84.01 74.22 84.00 67.01 Z" />
</g>
</svg>
