<?xml version="1.0" encoding="UTF-8" ?>
<!DOCTYPE svg PUBLIC "-//W3C//DTD SVG 1.1//EN" "http://www.w3.org/Graphics/SVG/1.1/DTD/svg11.dtd">
<svg width="2755pt" height="388pt" viewBox="0 0 2755 388" version="1.1" xmlns="http://www.w3.org/2000/svg">
<g id="#fffffffe">
<path fill="#ffffff" opacity="1.00" d=" M 1575.00 0.00 L 1585.00 0.00 C 1585.00 129.33 1585.00 258.67 1585.00 388.00 L 1575.00 388.00 C 1575.00 258.67 1575.00 129.33 1575.00 0.00 Z" />
<path fill="#ffffff" opacity="1.00" d=" M 1885.98 156.08 C 1890.24 150.38 1894.51 144.68 1898.79 138.99 C 1903.32 139.01 1907.84 138.99 1912.38 139.00 C 1905.93 144.29 1899.48 149.58 1893.04 154.88 C 1891.19 156.83 1888.31 155.84 1885.98 156.08 Z" />
<path fill="#ffffff" opacity="1.00" d=" M 1933.12 139.00 C 1940.68 139.00 1948.25 139.00 1955.82 139.00 C 1955.83 165.66 1955.78 192.31 1955.84 218.97 C 1956.07 221.39 1955.69 224.29 1957.36 226.28 C 1960.25 227.75 1963.59 227.65 1966.75 228.01 C 1966.73 229.36 1966.73 230.71 1966.76 232.06 C 1955.54 232.06 1944.33 232.06 1933.12 232.06 C 1933.10 230.71 1933.10 229.36 1933.12 228.01 C 1936.79 227.37 1943.47 228.39 1943.72 223.09 C 1944.57 210.77 1943.91 198.38 1944.12 186.03 C 1943.90 173.32 1944.58 160.58 1943.72 147.89 C 1943.46 142.61 1936.78 143.64 1933.12 142.99 C 1933.10 141.66 1933.10 140.33 1933.12 139.00 Z" />
<path fill="#ffffff" opacity="1.00" d=" M 2400.12 139.00 C 2407.68 139.00 2415.24 139.00 2422.82 139.00 C 2422.82 165.32 2422.81 191.64 2422.82 217.96 C 2422.96 220.62 2422.73 223.52 2424.04 225.95 C 2426.80 227.91 2430.50 227.55 2433.75 228.01 C 2433.72 229.36 2433.72 230.71 2433.75 232.06 C 2422.54 232.06 2411.33 232.06 2400.12 232.06 C 2400.09 230.71 2400.09 229.36 2400.12 228.01 C 2403.79 227.37 2410.48 228.39 2410.72 223.09 C 2411.60 207.76 2410.89 192.38 2411.12 177.03 C 2410.93 167.32 2411.53 157.57 2410.72 147.89 C 2410.45 142.61 2403.78 143.64 2400.12 142.99 C 2400.09 141.66 2400.09 140.33 2400.12 139.00 Z" />
<path fill="#ffffff" opacity="1.00" d=" M 2458.42 139.04 C 2462.95 138.96 2467.49 139.01 2472.04 139.00 C 2465.64 144.27 2459.24 149.53 2452.86 154.81 C 2451.01 156.84 2448.09 155.84 2445.73 156.08 C 2449.95 150.39 2454.24 144.76 2458.42 139.04 Z" />
<path fill="#ffffff" opacity="1.00" d=" M 503.87 143.76 C 510.80 139.03 519.99 139.34 527.74 141.62 C 527.75 144.35 527.74 147.07 527.79 149.80 C 522.89 146.91 516.53 145.85 511.22 148.17 C 508.47 149.35 507.25 152.12 507.71 155.01 C 512.09 160.94 520.27 161.54 525.34 166.69 C 529.60 170.08 530.85 176.11 529.11 181.14 C 527.55 184.97 523.84 187.52 519.95 188.56 C 513.12 190.36 505.80 189.58 499.24 187.11 C 499.24 184.26 499.25 181.40 499.23 178.55 C 504.53 182.25 511.71 184.15 517.90 181.64 C 521.52 180.34 522.60 174.91 519.46 172.53 C 514.39 167.99 506.96 166.89 502.31 161.71 C 497.44 156.83 498.07 147.66 503.87 143.76 Z" />
<path fill="#ffffff" opacity="1.00" d=" M 543.09 146.38 C 550.65 139.25 562.34 138.65 571.76 141.97 C 571.74 144.68 571.74 147.39 571.81 150.11 C 565.90 146.95 558.41 146.06 552.37 149.36 C 542.18 154.92 540.84 171.10 549.34 178.70 C 555.60 183.99 565.06 183.15 571.79 179.20 C 571.74 181.76 571.75 184.32 571.74 186.88 C 565.59 189.66 558.53 190.21 551.95 188.88 C 544.20 187.27 537.91 180.75 536.17 173.09 C 533.90 163.82 535.81 152.98 543.09 146.38 Z" />
<path fill="#ffffff" opacity="1.00" d=" M 858.56 140.72 C 866.21 139.04 875.15 140.35 880.71 146.28 C 887.36 152.89 888.29 163.19 886.50 171.96 C 884.97 179.89 878.85 186.88 870.91 188.79 C 864.08 190.28 856.32 189.83 850.51 185.59 C 844.95 181.61 841.84 174.92 841.37 168.20 C 840.80 160.68 842.31 152.40 847.75 146.83 C 850.58 143.69 854.44 141.60 858.56 140.72 M 860.54 147.79 C 855.43 149.28 851.67 153.95 850.53 159.05 C 848.97 165.63 849.81 173.31 854.58 178.43 C 860.12 184.47 871.19 183.47 875.68 176.64 C 879.99 169.48 879.92 159.54 875.36 152.52 C 872.17 147.88 865.79 146.30 860.54 147.79 Z" />
<path fill="#ffffff" opacity="1.00" d=" M 967.71 143.71 C 974.61 139.02 983.77 139.35 991.50 141.61 C 991.49 144.32 991.48 147.02 991.55 149.73 C 987.02 147.11 981.47 146.20 976.40 147.56 C 974.08 148.41 971.34 150.21 971.46 152.99 C 971.30 156.02 974.13 158.02 976.48 159.35 C 981.72 161.91 987.45 164.19 991.17 168.92 C 994.21 172.58 994.34 178.01 992.39 182.22 C 990.52 185.81 986.68 187.85 982.89 188.79 C 976.28 190.27 969.28 189.52 963.00 187.07 C 962.99 184.21 963.00 181.36 962.99 178.51 C 968.22 182.28 975.37 184.07 981.56 181.72 C 985.13 180.46 986.38 175.19 983.39 172.71 C 978.22 167.88 970.42 166.83 965.71 161.32 C 961.32 156.30 962.07 147.53 967.71 143.71 Z" />
<path fill="#ffffff" opacity="1.00" d=" M 1036.51 140.65 C 1043.28 139.30 1050.94 140.08 1056.44 144.58 C 1062.25 149.16 1065.09 156.74 1064.79 164.02 C 1065.10 171.36 1062.80 179.20 1057.17 184.19 C 1050.94 189.72 1041.70 190.70 1033.91 188.45 C 1025.83 186.09 1020.15 178.33 1019.20 170.13 C 1018.66 164.40 1018.80 158.39 1021.21 153.07 C 1023.86 146.75 1029.74 141.86 1036.51 140.65 M 1038.55 147.72 C 1032.83 149.04 1028.89 154.43 1027.91 160.01 C 1026.79 166.17 1027.53 173.20 1031.86 178.03 C 1036.99 184.09 1047.67 183.82 1052.55 177.56 C 1055.48 174.10 1056.36 169.42 1056.28 165.00 C 1056.37 160.33 1055.45 155.33 1052.31 151.70 C 1049.05 147.80 1043.36 146.47 1038.55 147.72 Z" />
<path fill="#ffffff" opacity="1.00" d=" M 466.24 141.00 C 474.83 141.00 483.41 141.00 492.00 141.00 C 492.00 143.25 492.00 145.50 492.00 147.76 C 486.08 147.75 480.17 147.75 474.25 147.75 C 474.25 152.17 474.25 156.58 474.25 161.00 C 479.75 161.00 485.25 161.00 490.75 161.00 C 490.75 163.33 490.75 165.66 490.76 168.00 C 485.25 168.00 479.75 168.00 474.25 168.00 C 474.25 172.58 474.25 177.17 474.25 181.75 C 480.50 181.75 486.75 181.75 493.00 181.75 C 493.00 184.08 493.00 186.42 493.00 188.76 C 484.08 188.75 475.16 188.76 466.25 188.75 C 466.24 172.84 466.25 156.92 466.24 141.00 Z" />
<path fill="#ffffff" opacity="1.00" d=" M 580.00 141.00 C 582.75 141.00 585.50 141.00 588.25 141.00 C 588.25 150.33 588.26 159.66 588.24 169.00 C 588.20 172.93 588.97 177.28 591.96 180.09 C 595.27 182.84 600.28 183.04 604.08 181.23 C 608.08 179.11 609.19 174.16 609.25 169.99 C 609.25 160.33 609.24 150.66 609.24 141.00 C 611.99 141.00 614.75 141.00 617.51 141.00 C 617.48 150.67 617.52 160.33 617.49 170.00 C 617.37 175.38 616.28 181.30 612.11 185.08 C 608.69 188.49 603.63 189.46 598.98 189.53 C 594.01 189.66 588.55 188.75 584.92 185.09 C 581.19 181.43 580.11 175.98 580.00 170.96 C 579.98 160.97 580.01 150.99 580.00 141.00 Z" />
<path fill="#ffffff" opacity="1.00" d=" M 628.50 141.00 C 637.08 141.00 645.66 141.00 654.25 141.00 C 654.25 143.25 654.24 145.50 654.25 147.75 C 648.33 147.76 642.42 147.75 636.50 147.75 C 636.50 152.17 636.50 156.58 636.50 161.00 C 642.00 161.00 647.50 161.00 653.00 161.00 C 652.99 163.33 652.99 165.67 653.00 168.00 C 647.49 168.02 641.97 167.95 636.47 168.05 C 636.53 172.61 636.49 177.18 636.50 181.75 C 642.75 181.75 648.99 181.75 655.24 181.75 C 655.24 184.07 655.24 186.40 655.27 188.72 C 646.34 188.79 637.42 188.74 628.50 188.75 C 628.50 172.83 628.49 156.92 628.50 141.00 Z" />
<path fill="#ffffff" opacity="1.00" d=" M 663.50 141.00 C 666.24 141.00 669.00 141.00 671.76 141.00 C 671.75 154.58 671.75 168.17 671.76 181.75 C 677.92 181.75 684.08 181.75 690.25 181.75 C 690.25 184.08 690.24 186.42 690.25 188.76 C 681.33 188.75 672.41 188.75 663.50 188.76 C 663.49 172.84 663.50 156.92 663.50 141.00 Z" />
<path fill="#ffffff" opacity="1.00" d=" M 711.06 141.00 C 714.12 141.00 717.17 141.01 720.24 140.98 C 726.26 156.88 732.11 172.84 738.04 188.77 C 735.04 188.75 732.05 188.75 729.06 188.76 C 727.59 184.78 726.22 180.76 724.79 176.77 C 718.59 176.74 712.39 176.74 706.19 176.77 C 704.88 180.78 703.58 184.80 702.12 188.76 C 699.13 188.75 696.15 188.76 693.17 188.74 C 699.18 172.84 705.06 156.90 711.06 141.00 M 715.47 148.99 C 713.35 156.07 710.77 163.00 708.39 170.00 C 713.11 170.00 717.82 170.00 722.54 170.00 C 720.29 162.96 717.51 156.10 715.47 148.99 Z" />
<path fill="#ffffff" opacity="1.00" d=" M 763.00 141.00 C 771.07 141.59 779.67 139.50 787.33 142.78 C 796.81 146.96 797.25 161.54 789.51 167.63 C 784.45 172.08 777.28 171.58 771.01 171.49 C 770.99 177.25 771.00 183.00 771.00 188.76 C 768.33 188.75 765.66 188.75 763.00 188.76 C 763.00 172.84 763.00 156.92 763.00 141.00 M 771.00 147.76 C 771.00 153.42 770.99 159.09 771.00 164.75 C 774.80 164.61 778.99 165.38 782.43 163.32 C 787.05 160.76 787.53 153.65 784.12 149.93 C 780.50 146.76 775.38 147.98 771.00 147.76 Z" />
<path fill="#ffffff" opacity="1.00" d=" M 802.75 141.00 C 808.51 141.02 814.28 140.97 820.06 141.00 C 825.14 141.02 830.63 143.31 832.95 148.09 C 835.23 153.09 834.36 159.62 830.25 163.43 C 828.54 165.20 826.17 166.08 823.95 166.99 C 831.21 172.60 834.69 181.45 839.89 188.77 C 836.66 188.75 833.44 188.76 830.22 188.74 C 826.86 183.43 824.07 177.74 820.32 172.70 C 818.14 169.62 814.21 169.27 810.76 169.44 C 810.74 175.88 810.76 182.32 810.75 188.75 C 808.08 188.75 805.41 188.75 802.75 188.76 C 802.75 172.84 802.75 156.92 802.75 141.00 M 810.75 147.51 C 810.75 152.59 810.75 157.66 810.75 162.74 C 814.72 162.49 819.39 163.73 822.71 160.93 C 826.56 157.98 826.66 150.92 822.11 148.59 C 818.58 146.88 814.52 147.67 810.75 147.51 Z" />
<path fill="#ffffff" opacity="1.00" d=" M 895.75 141.00 C 904.42 141.00 913.08 141.00 921.76 141.00 C 921.74 143.25 921.74 145.50 921.75 147.75 C 915.83 147.75 909.91 147.75 904.00 147.75 C 904.00 152.50 904.00 157.25 904.00 162.00 C 909.41 162.00 914.83 162.00 920.25 161.99 C 920.24 164.24 920.24 166.50 920.25 168.75 C 914.83 168.75 909.41 168.75 904.00 168.75 C 904.00 175.42 904.00 182.09 904.00 188.76 C 901.24 188.75 898.49 188.76 895.74 188.74 C 895.76 172.82 895.74 156.91 895.75 141.00 Z" />
<path fill="#ffffff" opacity="1.00" d=" M 930.00 141.00 C 938.58 141.00 947.17 141.00 955.76 141.00 C 955.74 143.25 955.74 145.50 955.75 147.75 C 949.83 147.75 943.91 147.75 938.00 147.75 C 937.99 152.17 938.00 156.58 938.00 161.00 C 943.50 161.00 949.00 160.99 954.51 161.01 C 954.49 163.34 954.49 165.67 954.50 168.00 C 949.00 168.00 943.50 168.00 938.00 168.00 C 938.00 172.58 937.99 177.17 938.00 181.75 C 944.33 181.75 950.66 181.75 957.00 181.75 C 956.99 184.08 956.99 186.42 957.00 188.76 C 948.00 188.75 939.00 188.75 930.00 188.76 C 930.00 172.84 930.00 156.92 930.00 141.00 Z" />
<path fill="#ffffff" opacity="1.00" d=" M 1002.00 141.00 C 1004.83 141.00 1007.66 141.00 1010.50 141.00 C 1010.50 156.92 1010.50 172.83 1010.51 188.75 C 1007.66 188.75 1004.83 188.75 1002.00 188.76 C 1002.00 172.84 1002.00 156.92 1002.00 141.00 Z" />
<path fill="#ffffff" opacity="1.00" d=" M 1073.24 141.00 C 1076.44 141.00 1079.65 141.00 1082.86 141.00 C 1090.71 153.08 1098.37 165.29 1106.31 177.32 C 1105.71 165.22 1106.12 153.11 1106.00 141.00 C 1108.66 141.00 1111.32 141.00 1114.00 141.00 C 1114.00 156.92 1114.00 172.84 1114.00 188.76 C 1111.02 188.75 1108.05 188.75 1105.08 188.76 C 1097.19 176.24 1088.62 164.13 1081.15 151.37 C 1081.37 163.83 1081.20 176.30 1081.24 188.77 C 1078.57 188.75 1075.90 188.75 1073.25 188.75 C 1073.24 172.83 1073.25 156.92 1073.24 141.00 Z" />
<path fill="#ffffff" opacity="1.00" d=" M 1138.00 141.00 C 1141.06 141.00 1144.13 141.00 1147.20 141.00 C 1153.13 156.90 1159.06 172.80 1164.93 188.73 C 1161.94 188.76 1158.95 188.75 1155.98 188.75 C 1154.51 184.77 1153.14 180.75 1151.71 176.75 C 1145.52 176.75 1139.33 176.77 1133.14 176.74 C 1131.72 180.70 1130.62 184.78 1129.04 188.68 C 1126.05 188.86 1123.07 188.73 1120.10 188.74 C 1126.05 172.82 1132.03 156.92 1138.00 141.00 M 1142.47 148.94 C 1140.28 156.02 1137.67 162.96 1135.34 170.00 C 1140.07 170.00 1144.79 170.00 1149.52 170.00 C 1147.20 162.97 1144.35 156.10 1142.47 148.94 Z" />
<path fill="#ffffff" opacity="1.00" d=" M 1171.24 141.00 C 1173.90 141.00 1176.57 141.00 1179.25 141.00 C 1179.25 154.58 1179.25 168.17 1179.25 181.75 C 1185.41 181.75 1191.57 181.75 1197.74 181.75 C 1197.74 184.07 1197.74 186.39 1197.79 188.71 C 1188.94 188.80 1180.09 188.73 1171.25 188.75 C 1171.24 172.84 1171.25 156.92 1171.24 141.00 Z" />
<path fill="#ffffff" opacity="1.00" d=" M 1703.94 144.37 C 1717.15 141.21 1730.77 144.04 1743.75 146.98 C 1743.75 152.67 1743.75 158.37 1743.75 164.06 C 1741.28 164.06 1738.82 164.06 1736.38 164.06 C 1736.15 159.94 1736.50 155.06 1733.04 152.09 C 1727.33 147.08 1719.08 146.59 1711.88 147.37 C 1702.95 148.52 1695.85 155.37 1692.16 163.27 C 1687.59 172.82 1686.66 183.69 1687.35 194.13 C 1688.03 203.97 1691.40 214.14 1698.93 220.87 C 1705.86 227.32 1715.77 229.50 1725.01 228.83 C 1732.23 228.26 1739.03 225.41 1745.32 221.95 C 1745.29 223.65 1745.29 225.35 1745.32 227.05 C 1734.17 233.50 1720.74 235.21 1708.14 233.29 C 1699.13 231.88 1690.52 227.47 1684.59 220.48 C 1677.76 212.68 1674.67 202.25 1674.27 192.03 C 1673.78 181.34 1675.14 170.10 1680.82 160.81 C 1685.84 152.44 1694.44 146.47 1703.94 144.37 Z" />
<path fill="#ffffff" opacity="1.00" d=" M 1832.48 156.01 C 1836.37 154.97 1840.27 154.02 1844.19 153.05 C 1844.18 158.03 1844.18 163.01 1844.19 168.00 C 1850.16 168.00 1856.14 168.00 1862.13 168.00 C 1862.10 169.69 1862.10 171.37 1862.13 173.06 C 1856.14 173.06 1850.16 173.06 1844.19 173.06 C 1844.25 187.38 1844.07 201.70 1844.28 216.01 C 1844.52 220.44 1844.96 226.34 1849.75 228.26 C 1853.52 230.01 1857.53 228.26 1860.67 226.03 C 1860.62 227.72 1860.60 229.41 1860.62 231.11 C 1854.03 233.91 1846.06 233.71 1839.83 230.12 C 1834.11 226.54 1832.64 219.24 1832.54 212.97 C 1832.43 199.67 1832.54 186.36 1832.49 173.05 C 1829.33 173.06 1826.19 173.06 1823.06 173.06 C 1823.03 171.37 1823.04 169.69 1823.06 168.00 C 1826.19 168.00 1829.34 168.00 1832.50 168.00 C 1832.49 164.00 1832.50 160.00 1832.48 156.01 Z" />
<path fill="#ffffff" opacity="1.00" d=" M 1762.69 171.94 C 1771.36 168.51 1780.76 166.17 1790.15 167.23 C 1794.61 167.73 1799.22 169.27 1802.30 172.70 C 1805.33 176.00 1806.38 180.61 1806.47 184.98 C 1806.58 195.31 1806.41 205.66 1806.55 215.99 C 1806.76 219.16 1806.74 222.67 1808.69 225.35 C 1810.36 227.42 1813.27 226.86 1815.62 227.24 C 1815.70 228.71 1815.80 230.18 1815.91 231.66 C 1811.58 232.93 1806.54 233.99 1802.45 231.50 C 1799.62 229.82 1798.40 226.61 1797.38 223.67 C 1791.97 228.48 1785.41 232.66 1777.98 232.99 C 1772.13 233.39 1766.08 231.23 1762.20 226.77 C 1757.79 222.02 1756.87 214.80 1758.87 208.78 C 1760.74 203.27 1765.50 199.10 1770.88 197.12 C 1778.49 194.24 1786.76 193.94 1794.81 193.99 C 1794.63 188.28 1795.50 182.25 1793.14 176.87 C 1789.18 167.54 1772.46 169.86 1771.22 179.91 C 1770.92 181.28 1770.76 182.67 1770.58 184.06 C 1767.93 184.06 1765.30 184.06 1762.69 184.06 C 1762.68 180.02 1762.68 175.98 1762.69 171.94 M 1774.45 203.34 C 1768.70 208.21 1768.86 218.55 1775.36 222.72 C 1781.21 226.82 1788.78 224.44 1794.81 221.99 C 1794.80 214.01 1794.81 206.03 1794.81 198.04 C 1787.78 197.90 1779.95 198.43 1774.45 203.34 Z" />
<path fill="#ffffff" opacity="1.00" d=" M 1875.87 171.94 C 1885.89 168.00 1897.08 165.35 1907.75 168.10 C 1913.82 169.56 1918.58 174.89 1919.29 181.11 C 1920.12 188.68 1919.49 196.34 1919.69 203.95 C 1919.97 210.60 1918.85 217.52 1921.02 223.94 C 1922.11 227.27 1925.98 227.00 1928.81 227.24 C 1928.87 228.71 1928.96 230.19 1929.07 231.67 C 1924.93 232.86 1920.23 233.90 1916.21 231.83 C 1913.03 230.26 1911.62 226.81 1910.54 223.67 C 1905.62 228.06 1899.81 231.89 1893.16 232.80 C 1887.16 233.68 1880.65 232.08 1876.30 227.73 C 1869.23 221.20 1869.35 208.84 1876.17 202.18 C 1884.53 194.14 1897.13 194.09 1908.00 193.99 C 1907.77 187.81 1908.91 181.01 1905.55 175.46 C 1901.75 169.63 1892.96 170.01 1887.84 173.80 C 1884.47 176.04 1884.32 180.48 1883.76 184.07 C 1881.12 184.06 1878.49 184.06 1875.87 184.06 C 1875.86 180.02 1875.86 175.98 1875.87 171.94 M 1887.44 203.51 C 1881.91 208.43 1882.12 218.51 1888.46 222.67 C 1894.32 226.83 1901.94 224.45 1908.00 221.99 C 1907.99 214.01 1908.01 206.02 1907.99 198.04 C 1900.88 197.90 1892.93 198.45 1887.44 203.51 Z" />
<path fill="#ffffff" opacity="1.00" d=" M 1997.56 167.76 C 2006.85 165.99 2017.35 167.02 2024.97 173.08 C 2031.34 178.08 2034.85 185.97 2035.73 193.90 C 2036.74 203.21 2035.72 213.30 2030.28 221.18 C 2026.13 227.27 2019.37 231.32 2012.13 232.47 C 2003.18 233.89 1993.23 232.73 1985.97 226.91 C 1979.58 221.91 1976.05 214.01 1975.17 206.07 C 1974.15 196.95 1975.10 187.12 1980.27 179.29 C 1984.16 173.29 1990.57 169.14 1997.56 167.76 M 2001.46 171.65 C 1997.09 173.03 1993.94 176.69 1991.77 180.55 C 1987.52 188.22 1986.76 197.33 1987.63 205.91 C 1988.42 213.10 1990.97 220.52 1996.44 225.50 C 2000.25 229.00 2006.13 229.96 2010.86 227.82 C 2015.11 225.91 2018.02 221.96 2020.03 217.88 C 2023.42 210.82 2024.04 202.76 2023.42 195.05 C 2022.74 187.77 2020.31 180.30 2015.03 175.05 C 2011.56 171.55 2006.16 170.11 2001.46 171.65 Z" />
<path fill="#ffffff" opacity="1.00" d=" M 2057.47 171.66 C 2065.64 165.61 2076.61 166.39 2085.98 168.64 C 2093.38 168.25 2100.77 167.48 2108.18 166.96 C 2107.16 169.69 2106.15 172.41 2105.15 175.14 C 2100.08 174.33 2095.00 173.57 2089.95 172.72 C 2095.05 177.66 2098.09 184.77 2097.23 191.92 C 2096.69 201.37 2089.06 209.54 2079.90 211.38 C 2075.00 212.62 2069.99 211.79 2065.14 210.86 C 2062.83 212.82 2060.70 215.76 2061.46 218.94 C 2062.40 221.52 2065.54 221.82 2067.90 221.95 C 2077.12 222.26 2086.53 221.26 2095.56 223.62 C 2098.75 224.43 2101.91 226.29 2103.35 229.38 C 2106.19 235.69 2104.59 243.79 2099.28 248.32 C 2091.89 254.86 2081.48 256.23 2071.97 256.00 C 2064.06 255.73 2055.64 254.73 2049.01 250.05 C 2045.50 247.70 2043.73 242.99 2045.42 239.01 C 2047.41 233.98 2052.59 231.50 2057.10 229.14 C 2054.40 227.04 2050.78 224.90 2050.98 220.96 C 2051.43 215.09 2057.48 212.18 2062.04 209.69 C 2057.02 207.35 2052.49 203.44 2050.63 198.10 C 2047.39 189.06 2049.30 177.48 2057.47 171.66 M 2069.40 171.59 C 2065.57 172.66 2062.99 176.16 2062.00 179.86 C 2060.54 185.15 2060.60 190.78 2061.43 196.18 C 2062.14 200.38 2064.02 204.93 2068.10 206.85 C 2072.63 208.93 2078.81 208.22 2081.97 204.07 C 2084.96 200.08 2085.50 194.87 2085.64 190.03 C 2085.65 184.84 2085.31 179.19 2082.08 174.89 C 2079.18 171.08 2073.75 170.32 2069.40 171.59 M 2060.92 230.15 C 2055.36 234.58 2054.56 244.95 2060.99 249.00 C 2065.76 251.92 2071.61 252.10 2077.06 251.87 C 2082.81 251.52 2089.23 249.30 2092.06 243.88 C 2093.78 240.28 2094.03 235.05 2090.54 232.40 C 2087.22 229.97 2082.88 230.07 2078.97 230.05 C 2072.95 230.14 2066.92 229.92 2060.92 230.15 Z" />
<path fill="#ffffff" opacity="1.00" d=" M 2139.49 167.77 C 2148.79 165.98 2159.31 167.00 2166.95 173.07 C 2173.32 178.06 2176.83 185.93 2177.72 193.84 C 2178.75 203.20 2177.73 213.35 2172.22 221.27 C 2168.07 227.32 2161.33 231.33 2154.12 232.47 C 2145.17 233.89 2135.24 232.72 2127.98 226.92 C 2121.61 221.92 2118.07 214.06 2117.18 206.15 C 2116.15 197.02 2117.08 187.17 2122.24 179.33 C 2126.11 173.34 2132.51 169.17 2139.49 167.77 M 2143.48 171.65 C 2139.11 173.01 2135.95 176.67 2133.78 180.53 C 2129.52 188.20 2128.76 197.32 2129.63 205.91 C 2130.42 213.10 2132.97 220.52 2138.44 225.50 C 2142.26 229.01 2148.18 229.97 2152.91 227.79 C 2157.14 225.87 2160.03 221.93 2162.04 217.86 C 2165.41 210.81 2166.04 202.76 2165.42 195.07 C 2164.74 187.76 2162.29 180.25 2156.98 175.00 C 2153.51 171.54 2148.15 170.13 2143.48 171.65 Z" />
<path fill="#ffffff" opacity="1.00" d=" M 2235.33 174.32 C 2242.16 167.43 2252.93 165.41 2262.09 168.12 C 2266.95 169.58 2271.13 173.03 2273.61 177.46 C 2277.23 183.66 2277.92 191.02 2277.98 198.06 C 2264.88 198.07 2251.79 198.05 2238.70 198.07 C 2238.85 205.56 2239.61 213.60 2244.14 219.86 C 2247.04 224.00 2251.94 226.44 2256.94 226.82 C 2264.03 227.30 2271.24 226.36 2277.97 224.00 C 2277.92 225.68 2277.91 227.37 2277.94 229.05 C 2268.49 232.39 2258.08 234.46 2248.20 231.83 C 2238.62 229.35 2230.84 221.58 2227.78 212.25 C 2223.77 199.54 2225.43 183.97 2235.33 174.32 M 2245.29 174.32 C 2240.25 179.48 2239.21 187.07 2239.05 193.96 C 2247.86 194.04 2256.69 193.99 2265.52 193.99 C 2265.51 188.01 2265.62 181.66 2262.84 176.19 C 2259.57 169.93 2249.96 169.40 2245.29 174.32 Z" />
<path fill="#ffffff" opacity="1.00" d=" M 2321.22 169.23 C 2327.50 166.45 2335.32 165.85 2341.43 169.41 C 2346.87 172.68 2349.32 179.21 2349.55 185.31 C 2349.80 196.53 2349.43 207.77 2349.73 219.00 C 2350.06 221.50 2349.70 224.44 2351.24 226.59 C 2354.21 227.69 2357.42 227.68 2360.56 228.00 C 2360.54 229.35 2360.54 230.70 2360.57 232.06 C 2349.37 232.07 2338.19 232.06 2327.00 232.06 C 2326.97 230.70 2326.97 229.35 2327.00 228.00 C 2330.16 227.66 2333.48 227.72 2336.50 226.49 C 2338.56 220.59 2337.73 214.14 2337.94 208.00 C 2337.71 199.49 2338.47 190.92 2337.34 182.47 C 2336.97 178.70 2334.06 175.34 2330.16 175.16 C 2321.87 174.34 2314.83 179.84 2308.75 184.72 C 2308.97 197.53 2308.30 210.38 2309.13 223.17 C 2309.28 228.48 2316.10 227.31 2319.69 228.01 C 2319.66 229.36 2319.66 230.71 2319.69 232.06 C 2308.52 232.06 2297.35 232.06 2286.18 232.06 C 2286.15 230.71 2286.15 229.36 2286.18 228.01 C 2289.81 227.36 2296.39 228.39 2296.70 223.18 C 2297.50 211.15 2296.84 199.05 2297.06 186.99 C 2296.86 182.69 2297.61 178.08 2295.81 174.04 C 2292.96 172.22 2289.39 172.43 2286.18 171.98 C 2286.15 170.65 2286.15 169.33 2286.18 168.00 C 2293.70 168.00 2301.22 168.00 2308.75 168.00 C 2308.93 172.25 2308.47 176.49 2308.41 180.73 C 2312.04 176.28 2315.76 171.54 2321.22 169.23 Z" />
<path fill="#ffffff" opacity="1.00" d=" M 2513.88 167.89 C 2519.73 166.38 2526.60 166.43 2531.62 170.23 C 2536.50 173.87 2538.45 180.18 2538.58 186.06 C 2538.73 196.70 2538.51 207.34 2538.68 217.98 C 2539.02 220.82 2538.58 224.12 2540.24 226.59 C 2543.21 227.69 2546.43 227.68 2549.57 228.02 C 2549.54 229.36 2549.54 230.71 2549.56 232.06 C 2538.37 232.07 2527.18 232.06 2516.00 232.06 C 2515.97 230.70 2515.97 229.35 2516.00 228.00 C 2519.16 227.65 2522.50 227.72 2525.51 226.49 C 2527.83 219.26 2526.61 211.47 2526.94 204.00 C 2526.59 196.09 2527.82 187.94 2525.75 180.21 C 2524.59 176.03 2519.78 174.60 2515.94 175.11 C 2508.91 175.93 2503.07 180.42 2497.75 184.72 C 2497.77 195.47 2497.73 206.21 2497.76 216.96 C 2497.92 219.95 2497.56 223.23 2499.03 225.96 C 2501.77 227.91 2505.46 227.55 2508.69 228.01 C 2508.66 229.36 2508.66 230.71 2508.69 232.06 C 2497.52 232.06 2486.35 232.06 2475.18 232.06 C 2475.15 230.71 2475.15 229.36 2475.18 228.02 C 2478.59 227.27 2484.65 228.48 2485.56 223.92 C 2486.53 217.01 2485.85 209.99 2486.06 203.03 C 2485.86 194.30 2486.46 185.53 2485.69 176.83 C 2485.39 171.65 2478.78 172.69 2475.18 171.98 C 2475.15 170.65 2475.15 169.33 2475.18 168.00 C 2482.70 168.00 2490.22 168.00 2497.75 168.00 C 2497.73 172.26 2497.78 176.51 2497.71 180.77 C 2501.50 174.89 2506.95 169.71 2513.88 167.89 Z" />
<path fill="#ffffff" opacity="1.00" d=" M 2562.37 176.45 C 2570.46 166.23 2586.96 163.67 2597.51 171.47 C 2605.35 177.77 2607.03 188.58 2606.98 198.06 C 2593.88 198.07 2580.79 198.05 2567.70 198.07 C 2567.85 205.36 2568.56 213.12 2572.76 219.33 C 2575.61 223.75 2580.68 226.42 2585.88 226.82 C 2592.99 227.31 2600.22 226.37 2606.97 224.00 C 2606.92 225.68 2606.90 227.37 2606.94 229.05 C 2597.72 232.30 2587.64 234.35 2577.97 232.02 C 2566.70 229.48 2557.95 219.64 2555.73 208.45 C 2553.52 197.55 2554.95 185.17 2562.37 176.45 M 2574.28 174.32 C 2569.25 179.48 2568.21 187.07 2568.05 193.96 C 2576.86 194.04 2585.69 193.99 2594.52 193.99 C 2594.51 188.01 2594.62 181.68 2591.86 176.22 C 2588.59 169.93 2578.96 169.39 2574.28 174.32 Z" />
<path fill="#ffffff" opacity="1.00" d=" M 2623.69 171.94 C 2632.36 168.51 2641.75 166.17 2651.15 167.23 C 2655.83 167.74 2660.70 169.45 2663.75 173.23 C 2666.68 176.76 2667.48 181.51 2667.49 185.98 C 2667.53 195.65 2667.46 205.31 2667.52 214.98 C 2667.65 218.25 2667.66 221.71 2669.21 224.69 C 2670.65 227.40 2674.03 226.90 2676.62 227.24 C 2676.68 228.71 2676.78 230.18 2676.91 231.66 C 2672.76 232.86 2668.07 233.90 2664.04 231.83 C 2660.86 230.27 2659.43 226.82 2658.38 223.66 C 2652.98 228.47 2646.43 232.65 2639.01 232.98 C 2633.15 233.40 2627.07 231.24 2623.19 226.76 C 2618.80 222.02 2617.87 214.82 2619.86 208.81 C 2621.72 203.30 2626.47 199.12 2631.85 197.14 C 2639.46 194.24 2647.75 193.94 2655.81 193.99 C 2655.57 187.65 2656.80 180.56 2653.04 174.98 C 2649.04 169.66 2640.73 170.13 2635.74 173.74 C 2632.31 175.96 2632.12 180.42 2631.58 184.06 C 2628.92 184.06 2626.30 184.06 2623.69 184.06 C 2623.67 180.02 2623.67 175.98 2623.69 171.94 M 2635.44 203.34 C 2629.71 208.21 2629.86 218.51 2636.33 222.70 C 2642.18 226.83 2649.77 224.45 2655.81 221.99 C 2655.80 214.01 2655.81 206.02 2655.81 198.04 C 2648.77 197.90 2640.94 198.43 2635.44 203.34 Z" />
<path fill="#ffffff" opacity="1.00" d=" M 2438.06 168.00 C 2445.55 168.00 2453.06 168.00 2460.57 168.00 C 2460.59 184.99 2460.51 201.97 2460.60 218.96 C 2460.79 221.33 2460.55 224.03 2461.93 226.10 C 2464.74 227.86 2468.25 227.57 2471.44 228.02 C 2471.41 229.37 2471.41 230.71 2471.44 232.06 C 2460.31 232.06 2449.18 232.06 2438.06 232.06 C 2438.03 230.71 2438.03 229.36 2438.06 228.01 C 2441.27 227.51 2445.12 227.96 2447.79 225.76 C 2449.05 222.67 2448.82 219.26 2448.94 215.99 C 2448.93 205.00 2448.95 194.00 2448.93 183.01 C 2448.82 180.08 2448.93 177.02 2447.80 174.25 C 2445.08 172.11 2441.28 172.50 2438.06 171.98 C 2438.03 170.65 2438.03 169.32 2438.06 168.00 Z" />
<path fill="#ffffff" opacity="1.00" d=" M 464.75 215.00 C 467.00 215.00 469.25 215.00 471.51 215.01 C 471.49 227.42 471.51 239.84 471.50 252.25 C 469.24 252.25 467.00 252.25 464.75 252.25 C 464.75 239.83 464.75 227.42 464.75 215.00 Z" />
<path fill="#ffffff" opacity="1.00" d=" M 480.24 215.00 C 482.73 215.00 485.21 215.00 487.70 215.00 C 493.77 224.49 499.98 233.88 505.90 243.45 C 505.57 233.97 505.83 224.48 505.75 215.00 C 507.83 215.00 509.91 215.00 512.00 215.00 C 512.00 227.42 512.00 239.83 512.00 252.25 C 509.65 252.25 507.31 252.25 504.97 252.25 C 498.79 242.64 492.35 233.19 486.43 223.43 C 486.60 233.03 486.46 242.64 486.50 252.25 C 484.41 252.25 482.32 252.25 480.24 252.25 C 480.25 239.83 480.25 227.42 480.24 215.00 Z" />
<path fill="#ffffff" opacity="1.00" d=" M 525.09 219.03 C 531.51 213.24 541.20 213.60 548.97 216.03 C 548.99 218.29 549.00 220.56 549.01 222.83 C 544.10 219.92 537.71 218.78 532.44 221.35 C 523.37 225.73 522.71 240.51 531.09 245.89 C 534.97 248.12 539.69 247.64 543.75 246.14 C 543.75 243.17 543.74 240.21 543.75 237.25 C 541.16 237.25 538.58 237.25 536.00 237.25 C 535.99 235.50 535.99 233.75 536.00 232.00 C 540.75 232.00 545.50 232.00 550.25 232.00 C 550.24 237.95 550.27 243.89 550.23 249.84 C 543.01 253.47 533.75 254.54 526.59 250.23 C 516.16 243.67 515.86 226.75 525.09 219.03 Z" />
<path fill="#ffffff" opacity="1.00" d=" M 558.00 215.00 C 564.75 215.00 571.50 215.00 578.25 215.00 C 578.25 216.83 578.24 218.66 578.25 220.50 C 573.58 220.50 568.92 220.50 564.25 220.50 C 564.25 223.92 564.25 227.33 564.25 230.75 C 568.50 230.75 572.75 230.75 577.00 230.75 C 576.99 232.58 576.99 234.41 577.00 236.25 C 572.75 236.25 568.50 236.25 564.25 236.25 C 564.25 239.83 564.25 243.41 564.25 247.00 C 569.16 247.00 574.08 247.00 579.00 247.00 C 578.99 248.75 578.99 250.50 579.00 252.25 C 572.00 252.25 565.00 252.25 558.00 252.25 C 558.00 239.83 558.00 227.42 558.00 215.00 Z" />
<path fill="#ffffff" opacity="1.00" d=" M 585.24 215.00 C 587.75 215.00 590.26 215.00 592.77 215.01 C 598.85 224.50 604.94 233.97 611.05 243.43 C 610.45 233.97 610.87 224.48 610.75 215.00 C 612.83 215.00 614.91 215.00 617.00 215.00 C 617.00 227.42 617.00 239.83 617.00 252.25 C 614.66 252.25 612.32 252.25 609.99 252.25 C 603.82 242.72 597.59 233.22 591.45 223.66 C 591.57 233.19 591.47 242.72 591.50 252.25 C 589.41 252.25 587.32 252.25 585.24 252.25 C 585.25 239.83 585.24 227.42 585.24 215.00 Z" />
<path fill="#ffffff" opacity="1.00" d=" M 626.00 214.99 C 628.17 214.99 630.35 215.00 632.53 215.04 C 632.46 227.44 632.52 239.85 632.50 252.25 C 630.33 252.25 628.16 252.25 626.00 252.25 C 626.00 239.83 626.00 227.41 626.00 214.99 Z" />
<path fill="#ffffff" opacity="1.00" d=" M 641.49 215.01 C 648.24 214.99 655.00 215.00 661.76 215.00 C 661.75 216.83 661.75 218.67 661.75 220.50 C 657.08 220.50 652.42 220.51 647.76 220.49 C 647.75 223.91 647.75 227.33 647.75 230.75 C 652.00 230.75 656.25 230.75 660.50 230.75 C 660.49 232.58 660.50 234.41 660.50 236.25 C 656.25 236.25 652.00 236.25 647.75 236.25 C 647.75 239.83 647.75 243.42 647.75 247.00 C 652.67 247.00 657.59 246.99 662.51 247.00 C 662.49 248.75 662.49 250.50 662.50 252.25 C 655.50 252.25 648.50 252.25 641.50 252.25 C 641.49 239.84 641.50 227.42 641.49 215.01 Z" />
<path fill="#ffffff" opacity="1.00" d=" M 668.75 215.00 C 675.87 215.66 684.09 213.12 690.29 217.70 C 696.34 222.82 693.32 233.75 685.60 235.37 C 691.12 239.83 693.89 246.56 697.90 252.24 C 695.33 252.25 692.77 252.26 690.22 252.22 C 687.60 248.01 685.44 243.50 682.42 239.57 C 680.73 237.34 677.81 237.30 675.29 237.12 C 675.21 242.16 675.26 247.21 675.25 252.25 C 673.08 252.25 670.91 252.25 668.75 252.25 C 668.75 239.83 668.75 227.42 668.75 215.00 M 675.25 220.25 C 675.25 224.17 675.25 228.09 675.25 232.01 C 677.53 231.98 679.83 232.14 682.10 231.76 C 686.30 230.89 688.27 224.88 685.16 221.82 C 682.43 219.46 678.54 220.44 675.25 220.25 Z" />
<path fill="#ffffff" opacity="1.00" d=" M 701.75 215.00 C 703.99 215.00 706.25 215.00 708.51 215.01 C 708.49 227.42 708.51 239.84 708.50 252.25 C 706.24 252.25 703.99 252.25 701.75 252.25 C 701.75 239.83 701.75 227.42 701.75 215.00 Z" />
<path fill="#ffffff" opacity="1.00" d=" M 727.06 215.00 C 729.45 215.00 731.85 215.00 734.25 215.00 C 738.85 227.42 743.51 239.82 748.08 252.25 C 745.70 252.25 743.33 252.25 740.96 252.25 C 739.92 249.17 738.83 246.10 737.77 243.03 C 732.94 242.97 728.12 243.01 723.30 243.00 C 722.26 246.08 721.24 249.17 720.20 252.26 C 717.83 252.25 715.47 252.25 713.11 252.24 C 717.78 239.83 722.38 227.40 727.06 215.00 M 725.03 237.74 C 728.70 237.75 732.37 237.75 736.05 237.75 C 734.15 232.35 732.16 226.97 730.48 221.50 C 728.86 226.97 726.81 232.31 725.03 237.74 Z" />
<path fill="#ffffff" opacity="1.00" d=" M 767.48 215.03 C 774.23 214.97 780.99 215.01 787.76 215.00 C 787.74 216.83 787.74 218.67 787.75 220.50 C 783.08 220.50 778.42 220.50 773.75 220.50 C 773.75 223.92 773.75 227.33 773.75 230.75 C 778.08 230.75 782.42 230.75 786.75 230.75 C 786.75 232.58 786.74 234.41 786.75 236.25 C 782.42 236.25 778.08 236.25 773.75 236.25 C 773.75 239.83 773.75 243.42 773.75 247.00 C 778.67 247.00 783.59 247.00 788.51 247.00 C 788.49 248.75 788.49 250.50 788.50 252.25 C 781.50 252.25 774.50 252.25 767.50 252.25 C 767.48 239.84 767.53 227.44 767.48 215.03 Z" />
<path fill="#ffffff" opacity="1.00" d=" M 795.00 215.00 C 797.43 215.00 799.87 215.00 802.31 214.98 C 808.38 224.40 814.41 233.84 820.50 243.24 C 820.49 233.82 820.50 224.40 820.50 214.98 C 822.50 214.99 824.52 215.01 826.54 215.05 C 826.45 227.45 826.53 239.85 826.50 252.25 C 824.19 252.25 821.88 252.25 819.59 252.26 C 813.41 242.65 806.95 233.22 801.05 223.45 C 800.95 233.05 801.02 242.65 801.00 252.25 C 798.99 252.25 796.99 252.25 795.00 252.25 C 795.00 239.83 795.00 227.42 795.00 215.00 Z" />
<path fill="#ffffff" opacity="1.00" d=" M 850.00 215.00 C 852.24 215.00 854.50 215.00 856.76 215.00 C 856.75 227.42 856.75 239.83 856.75 252.25 C 854.49 252.25 852.24 252.25 850.00 252.25 C 850.00 239.83 850.00 227.42 850.00 215.00 Z" />
<path fill="#ffffff" opacity="1.00" d=" M 865.49 215.00 C 867.98 215.00 870.48 215.00 872.99 215.00 C 879.10 224.39 885.04 233.89 891.23 243.23 C 890.76 233.83 891.10 224.41 891.00 215.00 C 893.07 215.00 895.16 215.00 897.25 215.00 C 897.25 227.42 897.25 239.83 897.25 252.25 C 894.90 252.25 892.56 252.25 890.22 252.24 C 884.07 242.71 877.80 233.25 871.73 223.67 C 871.79 233.20 871.73 242.72 871.75 252.25 C 869.66 252.25 867.57 252.25 865.50 252.25 C 865.49 239.84 865.50 227.42 865.49 215.00 Z" />
<path fill="#ffffff" opacity="1.00" d=" M 906.24 215.00 C 912.99 215.00 919.75 215.00 926.50 215.00 C 926.49 216.83 926.49 218.66 926.50 220.50 C 921.91 220.50 917.33 220.50 912.75 220.50 C 912.75 224.17 912.75 227.83 912.75 231.50 C 917.00 231.50 921.25 231.50 925.50 231.50 C 925.49 233.25 925.49 235.00 925.50 236.75 C 921.25 236.75 917.00 236.75 912.75 236.75 C 912.75 241.92 912.75 247.09 912.75 252.25 C 910.57 252.25 908.41 252.25 906.25 252.25 C 906.24 239.83 906.25 227.42 906.24 215.00 Z" />
<path fill="#ffffff" opacity="1.00" d=" M 941.46 215.61 C 946.20 213.96 951.63 213.90 956.32 215.78 C 961.70 217.98 965.15 223.41 966.06 229.01 C 966.68 234.72 966.35 240.93 962.98 245.81 C 956.35 255.84 939.07 255.42 933.12 244.88 C 927.74 235.21 930.19 219.86 941.46 215.61 M 947.08 220.11 C 936.85 221.64 934.63 235.60 939.85 243.01 C 943.81 249.04 953.98 248.65 957.56 242.43 C 960.32 237.43 960.33 231.07 958.09 225.87 C 956.30 221.69 951.47 219.42 947.08 220.11 Z" />
<path fill="#ffffff" opacity="1.00" d=" M 973.00 215.00 C 980.19 215.67 988.74 212.98 994.77 218.12 C 1000.34 223.50 997.03 233.69 989.66 235.47 C 995.29 239.74 997.87 246.65 1001.95 252.23 C 999.39 252.25 996.85 252.25 994.31 252.25 C 991.67 248.02 989.47 243.50 986.41 239.55 C 984.79 237.25 981.78 237.32 979.29 237.12 C 979.21 242.16 979.26 247.21 979.25 252.25 C 977.16 252.25 975.07 252.25 973.00 252.25 C 973.00 239.83 973.00 227.42 973.00 215.00 M 979.25 220.25 C 979.25 224.17 979.25 228.09 979.25 232.01 C 981.58 231.98 983.94 232.14 986.26 231.73 C 990.38 230.78 992.30 224.79 989.17 221.81 C 986.42 219.47 982.54 220.43 979.25 220.25 Z" />
<path fill="#ffffff" opacity="1.00" d=" M 1006.00 215.00 C 1008.94 215.00 1011.88 215.00 1014.83 215.00 C 1018.58 224.44 1022.27 233.90 1026.03 243.34 C 1029.69 233.85 1033.65 224.47 1037.38 215.00 C 1040.25 215.00 1043.12 215.00 1046.00 215.00 C 1046.00 227.42 1046.00 239.83 1046.00 252.25 C 1043.91 252.25 1041.82 252.25 1039.75 252.25 C 1039.77 242.14 1039.71 232.03 1039.76 221.92 C 1036.67 232.29 1031.89 242.11 1028.09 252.25 C 1026.57 252.25 1025.06 252.25 1023.56 252.25 C 1019.59 242.38 1015.48 232.56 1011.70 222.61 C 1011.82 232.49 1011.72 242.37 1011.75 252.25 C 1009.82 252.25 1007.91 252.25 1006.00 252.25 C 1006.00 239.83 1006.00 227.42 1006.00 215.00 Z" />
<path fill="#ffffff" opacity="1.00" d=" M 1050.71 252.25 C 1055.30 239.81 1060.04 227.43 1064.63 215.00 C 1067.03 215.00 1069.44 215.00 1071.85 215.00 C 1076.44 227.43 1081.11 239.83 1085.67 252.27 C 1083.29 252.25 1080.92 252.25 1078.57 252.25 C 1077.51 249.15 1076.40 246.06 1075.30 242.98 C 1070.48 243.02 1065.67 242.99 1060.86 243.00 C 1059.85 246.08 1058.81 249.15 1057.81 252.23 C 1055.44 252.25 1053.07 252.25 1050.71 252.25 M 1068.06 221.65 C 1066.38 227.06 1064.37 232.36 1062.63 237.75 C 1066.29 237.75 1069.95 237.75 1073.62 237.75 C 1071.73 232.39 1069.83 227.04 1068.06 221.65 Z" />
<path fill="#ffffff" opacity="1.00" d=" M 1083.00 215.00 C 1092.25 215.00 1101.50 215.00 1110.76 215.00 C 1110.74 216.83 1110.74 218.67 1110.75 220.50 C 1107.24 220.50 1103.74 220.50 1100.25 220.50 C 1100.25 231.09 1100.25 241.67 1100.25 252.25 C 1098.07 252.25 1095.90 252.25 1093.75 252.25 C 1093.75 241.67 1093.74 231.09 1093.75 220.51 C 1090.16 220.50 1086.58 220.50 1083.01 220.51 C 1082.99 218.67 1082.99 216.83 1083.00 215.00 Z" />
<path fill="#ffffff" opacity="1.00" d=" M 1116.00 215.00 C 1118.16 215.00 1120.33 215.00 1122.51 215.00 C 1122.49 227.42 1122.51 239.84 1122.50 252.25 C 1120.32 252.25 1118.16 252.25 1116.00 252.25 C 1116.00 239.83 1116.00 227.42 1116.00 215.00 Z" />
<path fill="#ffffff" opacity="1.00" d=" M 1138.17 217.00 C 1143.95 213.54 1151.23 213.91 1157.49 215.72 C 1157.49 217.90 1157.49 220.08 1157.53 222.27 C 1152.20 219.31 1145.00 219.01 1140.23 223.18 C 1133.68 229.01 1134.12 241.60 1142.17 245.92 C 1147.01 248.30 1152.93 247.47 1157.52 244.86 C 1157.49 246.90 1157.49 248.94 1157.51 250.99 C 1150.93 253.55 1142.93 254.15 1136.76 250.24 C 1125.63 242.81 1126.65 223.58 1138.17 217.00 Z" />
<path fill="#ffffff" opacity="1.00" d=" M 1174.09 215.00 C 1176.46 215.00 1178.85 215.00 1181.25 214.99 C 1185.95 227.38 1190.47 239.84 1195.13 252.25 C 1192.76 252.25 1190.41 252.25 1188.06 252.26 C 1186.91 249.19 1185.84 246.09 1184.78 243.00 C 1179.97 243.00 1175.17 243.00 1170.37 243.00 C 1169.34 246.10 1168.21 249.16 1167.19 252.25 C 1164.84 252.25 1162.49 252.25 1160.16 252.24 C 1164.80 239.83 1169.42 227.41 1174.09 215.00 M 1172.01 237.73 C 1175.69 237.76 1179.37 237.75 1183.06 237.74 C 1181.22 232.33 1179.15 226.99 1177.55 221.51 C 1175.85 226.96 1173.90 232.34 1172.01 237.73 Z" />
<path fill="#ffffff" opacity="1.00" d=" M 1210.05 215.02 C 1212.47 215.00 1214.91 215.00 1217.36 214.97 C 1220.15 220.84 1222.90 226.73 1225.44 232.72 C 1228.11 226.75 1230.99 220.87 1233.86 215.00 C 1236.14 215.00 1238.41 215.00 1240.71 215.01 C 1236.74 222.88 1232.56 230.65 1228.66 238.55 C 1228.25 243.10 1228.61 247.69 1228.50 252.25 C 1226.32 252.25 1224.16 252.25 1222.00 252.25 C 1221.91 247.86 1222.16 243.46 1221.89 239.08 C 1218.19 230.95 1213.89 223.09 1210.05 215.02 Z" />
<path fill="#ffffff" opacity="1.00" d=" M 1261.42 217.41 C 1266.78 213.42 1274.10 213.99 1280.25 215.48 C 1280.24 217.63 1280.23 219.77 1280.28 221.92 C 1276.14 219.63 1270.63 218.69 1266.48 221.36 C 1264.49 222.37 1264.84 224.72 1264.91 226.56 C 1269.21 230.79 1275.80 231.65 1279.70 236.40 C 1283.32 240.51 1282.64 247.74 1277.82 250.64 C 1271.81 254.11 1264.28 253.34 1258.00 251.03 C 1257.99 248.77 1257.98 246.51 1258.00 244.26 C 1261.98 247.06 1267.15 248.47 1271.92 247.00 C 1273.94 246.40 1275.83 244.25 1275.04 242.04 C 1274.71 239.71 1272.48 238.46 1270.61 237.46 C 1267.08 235.78 1263.36 234.22 1260.55 231.43 C 1256.75 227.70 1257.01 220.56 1261.42 217.41 Z" />
<path fill="#ffffff" opacity="1.00" d=" M 1288.48 215.02 C 1290.64 215.00 1292.81 215.00 1295.00 214.99 C 1295.00 227.41 1295.00 239.83 1295.00 252.25 C 1292.82 252.25 1290.65 252.25 1288.50 252.25 C 1288.48 239.84 1288.51 227.43 1288.48 215.02 Z" />
<path fill="#ffffff" opacity="1.00" d=" M 1305.60 217.53 C 1310.95 213.37 1318.45 214.01 1324.67 215.46 C 1324.74 217.64 1324.75 219.82 1324.82 222.00 C 1320.70 219.82 1315.55 218.75 1311.24 220.99 C 1308.87 222.26 1308.15 225.92 1310.46 227.62 C 1314.56 230.98 1320.29 232.03 1323.81 236.22 C 1327.79 240.30 1326.94 248.12 1321.79 250.85 C 1315.77 254.04 1308.43 253.34 1302.24 251.00 C 1302.24 248.75 1302.23 246.51 1302.20 244.27 C 1305.16 246.13 1308.47 247.66 1312.05 247.56 C 1314.77 247.68 1318.46 247.09 1319.34 244.02 C 1320.14 241.45 1318.03 239.07 1315.88 237.97 C 1312.04 235.96 1307.80 234.46 1304.71 231.31 C 1301.08 227.55 1301.31 220.70 1305.60 217.53 Z" />
<path fill="#ffffff" opacity="1.00" d=" M 1329.24 215.00 C 1338.41 215.00 1347.58 215.00 1356.76 215.00 C 1356.74 216.83 1356.74 218.67 1356.75 220.50 C 1353.24 220.50 1349.74 220.50 1346.25 220.51 C 1346.26 231.09 1346.25 241.67 1346.25 252.25 C 1344.07 252.25 1341.90 252.25 1339.75 252.25 C 1339.74 241.67 1339.75 231.08 1339.74 220.50 C 1336.24 220.50 1332.74 220.50 1329.25 220.50 C 1329.23 218.67 1329.23 216.83 1329.24 215.00 Z" />
<path fill="#ffffff" opacity="1.00" d=" M 1362.00 215.00 C 1368.75 215.00 1375.50 215.00 1382.25 215.00 C 1382.24 216.83 1382.23 218.66 1382.25 220.50 C 1377.66 220.50 1373.08 220.50 1368.50 220.50 C 1368.49 223.92 1368.49 227.33 1368.50 230.75 C 1372.74 230.75 1376.99 230.75 1381.25 230.75 C 1381.23 232.58 1381.23 234.41 1381.25 236.25 C 1376.99 236.25 1372.74 236.25 1368.50 236.25 C 1368.49 239.84 1368.49 243.42 1368.51 247.01 C 1373.42 246.99 1378.33 247.00 1383.25 247.00 C 1383.24 248.75 1383.23 250.50 1383.25 252.25 C 1376.16 252.25 1369.08 252.25 1362.00 252.25 C 1362.00 239.83 1362.00 227.42 1362.00 215.00 Z" />
<path fill="#ffffff" opacity="1.00" d=" M 1389.49 215.01 C 1392.49 214.99 1395.49 214.97 1398.51 215.07 C 1402.06 224.61 1406.06 233.98 1409.58 243.53 C 1413.20 233.95 1417.17 224.50 1421.01 215.00 C 1423.83 215.00 1426.66 215.00 1429.50 215.00 C 1429.50 227.42 1429.50 239.84 1429.50 252.25 C 1427.40 252.25 1425.31 252.25 1423.25 252.25 C 1423.38 242.22 1422.96 232.18 1423.49 222.16 C 1420.00 232.35 1415.56 242.20 1411.69 252.25 C 1410.14 252.25 1408.61 252.25 1407.10 252.26 C 1403.26 242.18 1398.72 232.36 1395.28 222.14 C 1395.78 232.16 1395.37 242.21 1395.50 252.25 C 1393.48 252.25 1391.48 252.25 1389.50 252.25 C 1389.49 239.84 1389.50 227.42 1389.49 215.01 Z" />
<path fill="#ffffff" opacity="1.00" d=" M 1448.21 215.00 C 1450.57 215.00 1452.93 214.93 1455.31 215.03 C 1460.20 227.34 1464.55 239.88 1469.29 252.25 C 1466.89 252.25 1464.52 252.25 1462.15 252.22 C 1461.06 249.15 1459.97 246.07 1458.89 243.00 C 1454.06 243.02 1449.23 242.95 1444.41 243.05 C 1443.43 246.13 1442.40 249.19 1441.38 252.26 C 1439.00 252.25 1436.63 252.25 1434.28 252.26 C 1438.92 239.84 1443.60 227.44 1448.21 215.00 M 1451.53 221.19 C 1450.27 226.86 1447.91 232.21 1446.21 237.75 C 1449.86 237.75 1453.52 237.74 1457.18 237.76 C 1455.31 232.23 1453.23 226.77 1451.53 221.19 Z" />
<path fill="#ffffff" opacity="1.00" d=" M 1476.12 217.15 C 1481.49 213.62 1488.58 213.82 1494.55 215.53 C 1494.86 217.65 1494.73 219.82 1494.85 221.97 C 1490.73 219.81 1485.47 218.67 1481.24 221.11 C 1478.85 222.30 1478.45 225.82 1480.42 227.57 C 1483.41 230.12 1487.39 231.07 1490.58 233.36 C 1493.42 235.37 1496.42 238.19 1496.28 241.99 C 1496.69 245.49 1495.04 249.17 1491.86 250.83 C 1485.84 254.13 1478.42 253.30 1472.23 250.93 C 1472.24 248.68 1472.23 246.42 1472.21 244.17 C 1476.57 247.20 1482.52 248.79 1487.54 246.50 C 1490.24 245.00 1490.08 240.98 1487.70 239.26 C 1483.70 236.10 1478.22 235.10 1474.75 231.17 C 1470.93 227.32 1471.58 220.18 1476.12 217.15 Z" />
</g>
<g id="#2d619efe">
<path fill="#2d619e" opacity="1.00" d=" M 136.37 23.36 C 156.71 11.87 179.65 5.00 202.97 3.62 C 218.08 1.88 233.22 4.40 248.03 7.26 C 247.51 12.60 246.08 17.77 244.80 22.96 C 233.55 21.52 222.40 18.85 210.99 18.94 C 181.33 17.99 151.69 27.57 127.54 44.68 C 102.75 62.37 83.22 87.71 73.82 116.80 C 65.51 141.30 64.11 167.76 68.12 193.22 C 65.48 193.68 62.79 193.78 60.11 193.85 C 53.35 161.59 56.97 127.31 70.18 97.12 C 83.69 66.39 106.97 39.76 136.37 23.36 Z" />
<path fill="#2d619e" opacity="1.00" d=" M 264.37 12.80 C 270.08 14.11 275.34 16.80 280.60 19.30 C 297.35 27.73 312.74 39.08 325.30 53.02 C 321.32 57.37 317.23 61.71 312.25 64.94 C 297.98 48.25 278.88 36.47 258.88 27.87 C 260.60 22.80 262.64 17.86 264.37 12.80 Z" />
<path fill="#2d619e" opacity="1.00" d=" M 113.28 81.30 C 133.05 57.46 162.03 41.24 192.86 37.62 C 208.58 36.14 224.64 36.42 240.03 40.22 C 239.71 46.91 238.02 53.41 235.88 59.73 C 214.75 54.74 192.02 56.57 172.07 65.21 C 147.28 76.02 127.13 96.88 117.10 122.00 C 112.55 133.12 110.20 145.05 109.75 157.04 C 108.71 165.66 110.22 174.27 110.95 182.85 C 102.55 185.43 93.91 187.26 85.14 188.04 C 84.64 180.70 83.31 173.43 83.04 166.07 C 82.64 135.42 93.69 104.84 113.28 81.30 Z" />
<path fill="#2d619e" opacity="1.00" d=" M 253.11 44.96 C 268.14 50.58 281.78 59.52 293.60 70.31 C 295.87 72.43 298.32 74.42 300.08 77.00 C 295.82 81.26 292.47 87.03 286.45 88.99 C 275.53 77.36 261.64 68.93 247.00 62.81 C 248.74 56.76 250.66 50.76 253.11 44.96 Z" />
<path fill="#2d619e" opacity="1.00" d=" M 199.43 73.44 C 206.17 67.80 216.37 66.61 224.11 70.85 C 231.28 74.52 236.29 81.83 237.26 89.82 C 261.17 94.98 283.65 109.91 294.98 131.97 C 297.43 137.19 300.20 142.64 300.03 148.57 C 297.98 144.53 297.16 139.99 295.05 135.98 C 285.73 116.54 267.11 102.78 246.90 96.22 C 243.70 95.32 240.50 93.90 237.11 94.10 C 235.60 96.83 235.31 100.06 233.72 102.77 C 228.56 112.27 215.99 116.34 205.97 112.90 C 197.81 110.05 192.54 102.18 190.67 94.02 C 179.43 95.51 168.90 100.32 159.55 106.59 C 153.50 110.73 147.44 115.05 142.76 120.75 C 136.16 128.53 131.84 137.89 128.11 147.29 C 130.45 133.66 137.93 121.28 147.98 111.92 C 159.81 100.81 174.86 93.39 190.64 89.84 C 191.48 83.54 194.43 77.46 199.43 73.44 M 207.98 78.98 C 209.30 78.99 210.62 79.00 211.95 79.01 C 211.96 77.19 211.95 75.37 211.89 73.55 C 209.55 74.41 209.02 77.01 207.98 78.98 M 216.10 73.47 C 216.02 75.30 215.98 77.14 215.96 78.97 C 217.28 78.98 218.60 79.00 219.93 79.01 C 219.04 76.91 218.35 74.52 216.10 73.47 M 221.66 74.88 C 222.02 77.95 224.40 79.81 227.50 79.16 C 225.79 77.42 223.79 76.03 221.66 74.88 M 200.70 78.97 C 202.87 79.44 205.32 78.52 205.01 75.90 C 203.37 76.62 201.82 77.55 200.70 78.97 M 207.02 81.91 C 206.41 84.42 205.04 87.15 206.26 89.68 C 207.47 91.78 210.04 90.47 211.88 90.23 C 211.85 87.31 213.03 84.10 211.58 81.38 C 210.05 80.97 208.51 81.66 207.02 81.91 M 216.20 81.63 C 215.92 84.10 215.44 86.55 215.38 89.05 C 216.78 90.37 219.51 91.53 221.33 90.36 C 224.21 87.00 221.16 79.54 216.20 81.63 M 198.14 81.92 C 197.25 84.44 195.49 87.04 196.27 89.81 C 197.51 91.66 199.92 90.32 201.67 90.15 C 202.30 87.29 202.88 84.41 203.18 81.49 C 201.49 81.54 199.81 81.69 198.14 81.92 M 224.91 81.64 C 225.01 84.18 224.45 86.94 225.63 89.30 C 226.81 91.38 229.40 90.29 231.26 90.20 C 231.66 86.17 229.90 80.93 224.91 81.64 M 195.76 92.82 C 196.38 95.19 196.46 97.96 198.22 99.85 C 199.52 101.23 201.50 100.33 203.11 100.25 C 202.67 97.94 202.54 95.52 201.55 93.35 C 200.30 91.15 197.64 92.55 195.76 92.82 M 205.77 92.83 C 205.92 95.17 205.29 97.99 207.09 99.86 C 208.43 101.19 210.42 100.29 212.05 100.24 C 212.00 97.93 212.45 95.50 211.67 93.28 C 210.40 91.08 207.67 92.63 205.77 92.83 M 215.98 92.76 C 216.01 95.27 216.01 97.78 216.00 100.29 C 217.59 100.41 219.54 101.21 220.84 99.84 C 222.67 98.05 223.02 94.69 221.27 92.74 C 219.82 91.17 217.69 92.45 215.98 92.76 M 224.92 99.89 C 226.03 101.94 228.36 100.44 229.99 100.04 C 230.44 97.52 231.95 94.78 230.65 92.29 C 226.37 90.99 222.84 96.16 224.92 99.89 M 200.65 103.87 C 202.33 105.34 204.22 106.57 206.34 107.30 C 205.67 104.56 203.28 103.52 200.65 103.87 M 208.05 103.97 C 208.94 106.07 209.63 108.47 211.90 109.50 C 211.96 107.66 211.99 105.83 212.00 104.00 C 210.68 103.99 209.36 103.98 208.05 103.97 M 215.96 104.01 C 215.98 105.84 216.01 107.67 216.10 109.51 C 218.35 108.47 219.03 106.06 219.93 103.97 C 218.60 103.98 217.28 103.99 215.96 104.01 M 223.17 104.04 C 222.79 105.15 222.42 106.26 222.05 107.38 C 223.85 106.38 225.59 105.28 227.28 104.10 C 225.91 104.07 224.54 104.05 223.17 104.04 Z" />
<path fill="#2d619e" opacity="1.00" d=" M 137.28 140.16 C 138.77 138.58 141.10 139.34 143.00 139.26 C 152.86 139.38 163.01 137.45 172.66 140.35 C 175.89 141.52 174.57 146.79 171.52 147.31 C 163.09 148.76 154.50 147.64 146.00 147.99 C 145.91 152.01 145.92 156.02 146.02 160.04 C 154.67 160.62 163.78 158.28 171.99 162.03 C 171.60 163.89 172.72 166.61 170.72 167.74 C 162.51 168.33 154.26 167.80 146.03 168.01 C 146.02 173.00 146.02 177.98 146.03 182.96 C 154.02 183.10 162.02 182.82 170.01 183.03 C 173.26 182.66 176.18 186.49 174.42 189.43 C 173.40 191.99 170.24 191.92 167.95 191.99 C 159.31 192.00 150.66 192.05 142.02 192.00 C 139.35 192.18 135.97 190.85 135.66 187.84 C 134.28 175.29 135.21 162.64 134.99 150.05 C 135.01 146.69 134.77 142.78 137.28 140.16 Z" />
<path fill="#2d619e" opacity="1.00" d=" M 193.41 139.60 C 198.91 138.49 204.75 138.27 210.16 139.89 C 214.61 141.23 218.43 144.62 220.07 148.99 C 221.19 152.26 218.85 156.84 215.03 156.40 C 211.96 156.14 211.23 152.51 209.54 150.48 C 206.16 144.03 196.18 144.72 192.23 150.20 C 190.91 153.65 194.02 156.85 197.06 157.94 C 204.12 160.39 212.40 160.55 218.22 165.75 C 224.88 172.28 222.94 184.44 215.16 189.24 C 207.66 193.67 197.77 194.01 190.03 189.97 C 185.43 187.60 182.18 183.05 181.12 178.03 C 180.73 174.36 184.67 170.83 188.16 172.81 C 191.46 175.44 191.33 180.63 194.97 183.01 C 199.39 186.44 205.92 185.39 209.93 181.83 C 214.23 178.98 211.60 171.72 207.04 170.73 C 199.24 168.13 190.04 167.25 184.26 160.76 C 178.74 153.04 184.71 141.62 193.41 139.60 Z" />
<path fill="#2d619e" opacity="1.00" d=" M 267.49 139.58 C 274.74 138.24 283.19 137.93 289.37 142.61 C 292.27 145.09 295.37 148.90 293.94 152.96 C 293.17 155.72 289.85 157.31 287.28 155.93 C 284.49 153.02 283.41 148.48 279.55 146.65 C 276.08 145.18 271.94 145.87 268.76 147.74 C 266.33 149.39 265.01 153.37 267.28 155.67 C 274.93 160.66 285.18 159.75 292.34 165.68 C 298.96 172.25 297.05 185.48 288.55 189.60 C 280.14 194.28 268.78 193.98 261.17 187.84 C 256.69 184.83 255.37 179.28 256.18 174.19 C 257.65 172.06 261.50 171.49 263.17 173.71 C 265.50 176.82 265.91 181.42 269.60 183.43 C 274.84 186.92 282.36 184.64 285.86 179.72 C 288.02 176.15 284.75 171.75 281.20 170.79 C 273.83 168.64 265.79 167.32 259.66 162.34 C 256.16 158.91 256.69 153.44 257.13 148.98 C 258.77 144.45 262.81 140.78 267.49 139.58 Z" />
<path fill="#2d619e" opacity="1.00" d=" M 234.05 139.87 C 237.05 139.53 241.82 139.11 242.57 143.02 C 243.34 157.02 243.08 171.07 242.80 185.08 C 243.03 187.95 241.54 190.92 238.95 192.24 C 236.99 192.88 234.89 191.83 233.38 190.62 C 231.29 188.28 232.07 184.90 231.96 182.05 C 231.87 170.03 232.24 158.01 231.71 146.00 C 231.73 143.74 233.09 141.82 234.05 139.87 Z" />
<path fill="#2d619e" opacity="1.00" d=" M 314.18 160.02 C 320.79 159.93 327.40 159.92 334.01 160.02 C 334.41 169.07 333.59 178.15 331.76 187.02 C 325.00 186.56 318.51 184.51 311.97 182.88 C 312.59 175.25 313.80 167.67 314.18 160.02 Z" />
<path fill="#2d619e" opacity="1.00" d=" M 351.10 160.00 C 356.44 159.92 361.78 159.92 367.11 160.02 C 367.25 166.37 365.63 172.60 365.89 178.96 C 368.35 179.15 371.16 178.38 373.39 179.69 C 374.88 180.90 373.24 181.78 372.33 182.65 C 373.03 183.13 373.74 183.61 374.46 184.10 C 373.14 185.22 371.91 186.82 370.00 186.78 C 368.13 186.73 366.46 185.80 364.76 185.16 C 363.85 188.35 363.45 191.65 362.99 194.93 C 358.33 193.89 353.68 192.81 349.03 191.76 C 349.63 181.16 351.59 170.64 351.10 160.00 Z" />
<path fill="#2d619e" opacity="1.00" d=" M 45.72 184.39 C 47.26 182.99 47.04 180.81 48.01 179.17 C 50.69 178.04 54.74 178.41 55.40 181.81 C 53.24 182.40 51.06 182.91 48.87 183.39 C 48.97 183.66 49.16 184.21 49.26 184.48 C 51.36 183.95 53.48 183.49 55.64 183.28 C 54.67 188.30 48.29 187.63 45.72 184.39 Z" />
<path fill="#2d619e" opacity="1.00" d=" M 37.60 186.16 C 40.45 184.82 43.54 184.85 46.40 186.16 C 45.57 190.60 38.48 190.53 37.60 186.16 Z" />
<path fill="#2d619e" opacity="1.00" d=" M 372.60 187.56 C 374.32 185.54 376.85 184.09 379.47 185.49 C 383.88 186.90 381.16 194.22 377.02 193.57 C 374.46 193.83 372.91 191.71 372.53 189.44 C 375.18 189.45 377.86 189.99 380.50 189.53 C 377.80 189.11 374.86 189.37 372.60 187.56 Z" />
<path fill="#2d619e" opacity="1.00" d=" M 37.67 189.98 C 40.61 189.85 43.56 189.83 46.50 190.08 C 45.86 192.85 43.34 193.50 40.84 192.96 C 39.83 193.62 39.50 194.63 39.84 195.98 C 37.87 196.49 35.87 196.94 33.88 197.38 C 33.97 197.66 34.16 198.21 34.25 198.49 C 36.34 197.97 38.43 197.50 40.55 197.19 C 39.76 202.51 32.97 201.54 30.48 198.13 C 31.01 197.70 32.06 196.85 32.58 196.42 C 32.40 195.56 32.04 193.85 31.86 192.99 C 34.10 192.81 36.50 193.48 38.65 192.75 C 38.66 192.54 38.68 192.11 38.68 191.90 C 38.43 191.42 37.93 190.46 37.67 189.98 Z" />
<path fill="#2d619e" opacity="1.00" d=" M 380.02 193.71 C 382.79 192.15 387.59 191.89 388.39 195.83 C 386.23 196.41 384.05 196.91 381.88 197.38 C 381.97 197.66 382.16 198.21 382.25 198.48 C 384.35 197.95 386.47 197.49 388.63 197.26 C 387.63 202.48 380.99 201.54 378.47 198.13 C 378.99 197.72 380.03 196.91 380.55 196.50 C 380.41 195.80 380.15 194.41 380.02 193.71 Z" />
<path fill="#2d619e" opacity="1.00" d=" M 20.59 202.23 C 23.83 201.22 27.40 200.19 30.75 201.33 C 33.58 202.27 33.01 206.69 30.62 207.78 C 27.33 209.82 21.47 209.28 20.52 204.88 C 23.49 204.54 26.88 207.62 29.47 205.51 C 26.41 204.71 23.00 204.54 20.59 202.23 Z" />
<path fill="#2d619e" opacity="1.00" d=" M 64.75 210.09 C 65.93 206.93 63.78 202.92 66.74 200.50 C 67.11 205.48 67.14 210.49 66.82 215.47 C 65.38 214.02 63.84 212.28 64.75 210.09 Z" />
<path fill="#2d619e" opacity="1.00" d=" M 176.00 201.01 C 176.49 201.01 177.47 201.00 177.96 201.00 C 178.03 205.32 178.08 209.64 177.97 213.96 C 177.49 213.97 176.51 214.00 176.02 214.01 C 175.93 209.67 175.89 205.34 176.00 201.01 Z" />
<path fill="#2d619e" opacity="1.00" d=" M 192.27 200.74 C 193.22 201.17 194.17 201.61 195.11 202.06 C 194.27 202.70 193.43 203.35 192.60 204.00 C 193.02 204.34 193.87 205.01 194.29 205.35 C 192.78 208.28 194.39 212.44 191.40 214.51 C 191.32 211.44 191.22 208.29 189.68 205.54 C 190.59 203.97 191.44 202.36 192.27 200.74 Z" />
<path fill="#2d619e" opacity="1.00" d=" M 238.23 200.59 C 240.36 200.98 240.24 203.24 240.45 204.93 C 240.72 208.44 240.71 212.00 240.06 215.48 C 236.61 213.65 238.25 209.61 237.89 206.52 C 236.45 208.77 237.05 211.58 236.83 214.10 C 233.66 214.93 229.12 215.29 227.63 211.59 C 226.14 209.10 228.77 206.95 230.09 205.09 C 232.65 205.24 235.21 205.29 237.77 205.14 C 237.91 203.62 238.07 202.10 238.23 200.59 M 229.82 211.99 C 231.29 211.98 232.77 211.98 234.24 211.97 C 233.96 210.03 234.14 206.17 231.08 207.07 C 229.67 208.29 230.15 210.34 229.82 211.99 Z" />
<path fill="#2d619e" opacity="1.00" d=" M 287.28 204.01 C 288.76 200.08 296.02 199.94 297.52 203.90 C 294.99 203.54 292.46 203.13 289.91 202.93 C 289.92 203.62 289.94 204.98 289.95 205.66 C 292.84 206.51 297.86 206.91 297.61 210.99 C 296.28 216.26 288.08 215.66 286.56 210.76 C 288.50 211.39 290.38 212.17 292.24 213.00 C 293.73 212.18 295.14 211.22 296.46 210.12 C 293.27 208.42 287.56 208.71 287.28 204.01 Z" />
<path fill="#2d619e" opacity="1.00" d=" M 311.09 201.39 C 311.54 201.22 312.43 200.86 312.87 200.69 C 313.60 205.56 314.04 210.59 313.01 215.46 C 311.85 214.65 311.04 213.51 311.07 212.06 C 310.60 208.54 310.10 204.86 311.09 201.39 Z" />
<path fill="#2d619e" opacity="1.00" d=" M 386.30 203.66 C 385.46 199.98 390.87 200.86 393.11 200.94 C 397.03 200.67 397.78 206.18 394.70 207.81 C 391.45 209.81 385.57 209.07 384.52 204.87 C 387.47 204.55 390.82 207.54 393.46 205.56 C 391.07 204.92 388.60 204.57 386.30 203.66 Z" />
<path fill="#2d619e" opacity="1.00" d=" M 69.14 204.70 C 70.99 204.59 73.09 203.93 74.71 205.17 C 77.49 207.19 77.62 211.06 77.04 214.15 C 72.96 214.55 76.15 209.07 73.97 207.06 C 69.35 206.66 71.30 212.71 70.83 215.48 C 67.49 212.80 69.06 208.34 69.14 204.70 Z" />
<path fill="#2d619e" opacity="1.00" d=" M 100.15 204.71 C 102.22 204.54 104.75 203.83 106.32 205.66 C 108.69 208.36 108.20 212.24 107.93 215.53 C 105.30 213.28 106.26 209.50 105.10 206.55 C 100.60 207.23 102.21 212.30 101.78 215.48 C 98.51 212.76 100.05 208.35 100.15 204.71 Z" />
<path fill="#2d619e" opacity="1.00" d=" M 159.98 204.66 C 161.65 204.46 163.55 203.74 165.08 204.80 C 168.52 207.03 169.63 212.96 165.91 215.47 C 165.54 212.69 166.75 209.45 165.02 207.00 C 160.12 206.75 163.41 213.44 160.24 215.61 C 159.96 211.97 160.03 208.31 159.98 204.66 Z" />
<path fill="#2d619e" opacity="1.00" d=" M 179.98 204.66 C 181.68 204.45 183.60 203.73 185.14 204.84 C 188.53 207.10 189.60 212.98 185.91 215.47 C 185.80 213.03 186.11 210.56 185.74 208.13 C 185.36 206.43 182.82 206.75 182.37 208.21 C 181.83 210.73 182.30 213.67 180.23 215.61 C 179.96 211.97 180.03 208.31 179.98 204.66 Z" />
<path fill="#2d619e" opacity="1.00" d=" M 79.76 213.04 C 77.83 210.57 78.73 207.25 80.77 205.18 C 83.37 205.51 86.47 204.46 88.73 206.02 C 88.47 208.96 88.55 211.99 87.79 214.85 C 86.55 217.70 83.23 218.23 80.47 218.23 C 80.71 215.41 84.04 216.35 85.60 214.73 C 83.63 214.47 80.97 215.14 79.76 213.04 M 82.19 212.94 C 83.67 213.00 84.93 212.09 85.79 210.96 C 86.27 208.76 84.08 207.64 82.71 206.43 C 80.73 208.06 80.06 211.10 82.19 212.94 Z" />
<path fill="#2d619e" opacity="1.00" d=" M 92.47 214.41 C 87.94 213.09 89.01 206.05 93.03 204.86 C 95.82 204.39 99.95 207.04 98.45 210.20 C 96.15 210.46 93.82 210.56 91.57 211.16 C 93.58 212.74 96.09 212.32 98.45 212.19 C 96.77 213.45 94.77 215.73 92.47 214.41 M 91.48 206.85 C 91.79 210.22 95.32 208.72 97.53 208.78 C 95.97 207.05 93.68 206.81 91.48 206.85 Z" />
<path fill="#2d619e" opacity="1.00" d=" M 110.11 205.00 C 110.58 204.99 111.51 204.99 111.98 204.99 C 111.96 208.50 112.01 212.02 111.77 215.54 C 108.66 212.82 109.98 208.57 110.11 205.00 Z" />
<path fill="#2d619e" opacity="1.00" d=" M 113.02 209.01 C 113.76 207.21 115.25 205.70 117.01 204.89 C 119.41 204.26 120.89 206.59 122.40 207.99 C 123.67 204.32 127.94 205.31 130.94 205.04 C 130.95 208.55 130.99 212.07 130.75 215.58 C 128.21 213.21 128.99 209.64 128.86 206.54 C 124.66 207.39 127.13 212.45 124.86 214.91 C 122.67 214.76 123.23 211.74 122.72 210.23 C 120.38 210.42 118.05 210.61 115.75 210.99 C 117.01 213.92 120.18 211.97 122.50 212.03 C 121.18 213.16 119.91 214.84 117.96 214.65 C 115.10 214.68 112.85 211.70 113.02 209.01 M 115.51 206.89 C 115.58 209.73 118.56 208.81 120.45 209.09 C 120.40 206.25 117.40 207.17 115.51 206.89 Z" />
<path fill="#2d619e" opacity="1.00" d=" M 135.14 205.24 C 137.41 205.04 139.69 205.25 141.97 205.28 C 141.99 208.11 142.00 210.95 141.97 213.79 C 139.48 214.05 136.56 215.50 134.31 213.77 C 132.49 211.29 132.16 206.97 135.14 205.24 M 134.86 212.26 C 136.37 212.36 138.36 212.96 139.35 211.37 C 140.94 209.59 139.66 206.35 137.07 206.96 C 134.35 207.01 135.20 210.50 134.86 212.26 Z" />
<path fill="#2d619e" opacity="1.00" d=" M 149.05 208.96 C 149.48 205.74 153.72 203.66 156.38 205.70 C 157.93 206.66 157.85 208.68 158.34 210.23 C 156.07 210.67 153.77 210.92 151.49 211.23 C 152.96 213.37 155.40 212.38 157.49 212.12 C 155.81 217.25 147.61 213.61 149.05 208.96 M 151.96 206.94 C 151.72 207.45 151.26 208.47 151.03 208.98 C 152.84 208.98 154.65 208.96 156.46 208.92 C 156.30 206.39 153.71 207.15 151.96 206.94 Z" />
<path fill="#2d619e" opacity="1.00" d=" M 193.68 210.06 C 195.15 208.12 196.07 204.63 199.05 204.81 C 201.67 205.12 203.27 207.69 203.96 210.01 C 203.41 212.42 201.41 214.43 198.99 214.97 C 196.38 214.52 194.95 212.13 193.68 210.06 M 198.15 207.03 C 196.23 208.53 196.29 212.64 199.04 213.06 C 202.26 212.46 201.66 206.20 198.15 207.03 Z" />
<path fill="#2d619e" opacity="1.00" d=" M 205.00 205.24 C 206.77 205.25 208.53 205.26 210.30 205.26 C 207.01 207.90 207.64 212.42 205.26 215.57 C 204.98 212.13 205.04 208.68 205.00 205.24 Z" />
<path fill="#2d619e" opacity="1.00" d=" M 243.27 206.02 C 243.65 205.70 244.40 205.07 244.78 204.76 C 244.84 208.42 245.68 211.99 246.31 215.58 C 244.53 214.87 242.58 213.93 242.04 211.92 C 242.15 209.90 242.87 207.98 243.27 206.02 Z" />
<path fill="#2d619e" opacity="1.00" d=" M 246.00 209.09 C 246.87 207.11 248.63 204.89 250.97 204.86 C 252.67 204.59 253.56 206.30 254.63 207.25 C 252.81 207.44 250.60 206.66 249.11 208.07 C 248.53 209.01 248.03 209.99 247.60 211.00 C 249.75 212.06 252.08 212.54 254.48 212.54 C 252.01 217.09 245.53 213.51 246.00 209.09 Z" />
<path fill="#2d619e" opacity="1.00" d=" M 257.47 205.59 C 259.58 205.02 261.79 205.11 263.95 204.93 C 263.98 208.16 264.00 211.39 264.03 214.62 C 261.58 214.36 258.66 215.15 256.67 213.31 C 253.86 211.52 254.67 206.94 257.47 205.59 M 258.23 206.68 C 257.72 208.18 257.23 209.70 256.76 211.22 C 258.57 211.72 260.42 212.00 262.29 212.20 C 262.37 209.50 261.52 206.47 258.23 206.68 Z" />
<path fill="#2d619e" opacity="1.00" d=" M 271.35 211.71 C 269.82 209.34 270.82 206.65 272.34 204.60 C 272.20 208.02 272.95 211.55 276.07 213.45 C 276.84 210.44 276.68 207.15 278.40 204.46 C 278.56 208.17 280.03 212.13 278.69 215.74 C 277.32 218.64 273.67 218.56 271.53 216.58 C 273.54 216.07 275.55 215.54 277.51 214.84 C 275.18 214.50 272.34 214.24 271.35 211.71 Z" />
<path fill="#2d619e" opacity="1.00" d=" M 299.20 204.46 C 302.43 207.43 302.01 212.38 299.21 215.49 C 298.98 211.82 298.99 208.13 299.20 204.46 Z" />
<path fill="#2d619e" opacity="1.00" d=" M 302.13 206.26 C 303.70 203.54 307.54 205.10 308.72 207.42 C 306.97 207.32 305.21 207.22 303.46 207.12 C 305.19 208.51 307.24 209.36 309.29 210.15 C 309.78 214.60 302.87 216.64 301.46 212.08 C 303.42 212.28 305.42 212.44 307.37 212.02 C 305.09 210.94 301.01 209.59 302.13 206.26 Z" />
<path fill="#2d619e" opacity="1.00" d=" M 314.77 208.96 C 315.10 206.24 318.07 203.44 320.88 204.74 C 322.77 205.36 323.54 207.30 324.44 208.89 C 324.07 209.34 323.35 210.24 322.98 210.68 C 321.89 210.29 320.81 209.89 319.73 209.51 C 320.39 209.29 321.72 208.86 322.38 208.64 C 320.89 207.06 318.97 206.53 317.04 207.72 C 317.64 209.39 317.89 211.25 318.96 212.73 C 320.47 212.57 321.98 212.37 323.50 212.15 C 321.69 217.36 313.83 213.54 314.77 208.96 Z" />
<path fill="#2d619e" opacity="1.00" d=" M 343.58 205.55 C 345.66 205.04 347.82 205.10 349.95 204.93 C 349.98 208.16 350.00 211.39 350.03 214.62 C 347.34 214.41 344.07 215.15 342.10 212.80 C 339.87 210.78 340.98 206.71 343.58 205.55 M 344.19 207.13 C 341.44 208.51 343.69 213.49 346.54 212.49 C 349.92 211.37 347.43 205.16 344.19 207.13 Z" />
<path fill="#2d619e" opacity="1.00" d=" M 351.89 207.09 C 352.60 203.50 357.66 204.64 358.63 207.54 C 356.90 207.36 355.18 207.20 353.47 207.06 C 355.15 208.53 357.25 209.35 359.31 210.17 C 359.80 214.59 352.84 216.65 351.50 212.09 C 353.45 212.28 355.43 212.44 357.37 212.03 C 355.24 210.89 351.91 210.08 351.89 207.09 Z" />
<path fill="#2d619e" opacity="1.00" d=" M 212.14 215.45 C 210.32 212.32 210.17 208.61 211.74 205.34 C 216.09 206.38 220.52 204.73 224.86 205.82 C 224.97 209.07 225.06 212.32 224.83 215.56 C 222.32 213.46 223.10 210.02 222.85 207.15 C 222.13 207.09 220.69 206.97 219.97 206.91 C 219.39 209.77 219.05 212.66 218.58 215.54 C 216.41 213.27 217.08 210.03 216.92 207.19 C 216.10 207.12 214.45 206.99 213.63 206.92 C 213.36 209.78 215.04 213.51 212.14 215.45 Z" />
<path fill="#2d619e" opacity="1.00" d=" M 326.12 215.44 C 324.27 212.30 324.31 208.64 325.72 205.34 C 330.01 206.47 334.41 204.64 338.69 205.85 C 339.13 208.77 341.50 212.51 338.80 214.98 C 335.71 214.05 337.46 209.64 336.93 207.18 C 336.11 207.12 334.46 207.00 333.63 206.93 C 333.40 209.61 334.69 212.73 332.96 215.07 C 329.70 214.14 331.45 209.68 330.91 207.16 C 330.09 207.10 328.45 206.99 327.63 206.93 C 327.36 209.78 329.05 213.54 326.12 215.44 Z" />
<path fill="#2d619e" opacity="1.00" d=" M 14.42 210.56 C 18.12 209.61 22.56 209.29 25.65 211.95 C 25.03 212.27 23.79 212.92 23.17 213.24 C 24.31 214.13 25.47 215.11 25.00 216.74 C 21.60 217.71 17.59 218.71 14.33 216.82 C 12.00 215.75 11.57 211.26 14.42 210.56 Z" />
<path fill="#2d619e" opacity="1.00" d=" M 392.76 213.03 C 393.07 212.10 393.40 211.18 393.74 210.26 C 397.31 210.59 402.88 208.09 404.42 212.71 C 400.62 213.76 396.57 214.37 392.76 213.03 Z" />
<path fill="#2d619e" opacity="1.00" d=" M 391.51 214.21 C 395.80 214.79 400.16 215.16 404.43 214.19 C 403.18 220.35 393.79 218.96 391.51 214.21 Z" />
<path fill="#2d619e" opacity="1.00" d=" M 6.17 222.13 C 9.91 220.84 14.02 220.89 17.94 220.85 C 20.01 220.66 21.26 222.36 22.31 223.83 C 17.27 226.54 10.80 227.08 5.89 223.77 C 5.96 223.36 6.10 222.54 6.17 222.13 Z" />
<path fill="#2d619e" opacity="1.00" d=" M 234.39 222.24 C 237.70 220.42 243.17 220.80 244.46 224.97 C 240.88 224.88 235.92 222.76 233.66 226.70 C 231.49 229.23 233.06 233.11 236.08 234.02 C 237.96 234.73 242.20 235.13 241.14 231.95 C 239.74 231.00 238.16 230.36 236.66 229.62 C 238.69 226.50 244.20 226.98 244.56 231.10 C 245.38 236.78 237.04 239.04 233.48 235.46 C 228.96 232.35 229.71 224.82 234.39 222.24 Z" />
<path fill="#2d619e" opacity="1.00" d=" M 395.74 224.81 C 396.22 223.51 395.84 220.96 397.93 221.16 C 402.26 220.88 406.94 220.19 411.01 222.16 C 411.22 223.38 410.78 224.19 409.70 224.62 C 405.31 226.77 400.26 226.12 395.74 224.81 Z" />
<path fill="#2d619e" opacity="1.00" d=" M 179.04 221.99 C 179.54 222.00 180.53 222.02 181.03 222.03 C 181.31 225.86 180.03 230.30 182.43 233.63 C 184.26 235.97 188.02 234.70 188.74 232.04 C 189.47 228.74 188.90 225.34 188.92 222.00 C 189.45 222.00 190.50 222.00 191.03 222.00 C 191.16 225.93 191.07 229.86 190.83 233.79 C 188.86 235.83 186.23 238.81 183.17 236.73 C 177.24 234.40 179.19 226.93 179.04 221.99 Z" />
<path fill="#2d619e" opacity="1.00" d=" M 202.97 231.38 C 203.37 228.02 201.39 222.71 205.86 221.47 C 206.11 226.02 205.36 230.77 207.39 235.03 C 208.32 237.20 204.76 237.68 203.71 236.35 C 201.17 233.59 199.61 230.06 196.88 227.45 C 196.10 230.46 198.59 235.17 195.24 236.98 C 193.22 235.60 193.81 233.06 193.94 231.00 C 194.33 227.88 193.72 224.65 194.80 221.64 C 198.41 224.07 200.47 227.96 202.97 231.38 Z" />
<path fill="#2d619e" opacity="1.00" d=" M 215.90 221.51 C 216.95 222.29 219.00 222.47 219.09 224.12 C 219.52 227.64 218.96 231.34 217.70 234.65 C 214.87 238.82 207.33 236.84 207.67 231.45 C 209.81 232.58 211.75 234.03 213.79 235.33 C 217.46 231.55 215.49 226.16 215.90 221.51 Z" />
<path fill="#2d619e" opacity="1.00" d=" M 219.97 222.40 C 222.34 222.27 224.71 221.96 227.08 222.14 C 227.05 225.99 229.00 229.34 229.88 232.95 C 229.25 237.74 223.54 237.03 220.03 237.04 C 220.04 232.16 219.89 227.28 219.97 222.40 M 223.15 223.40 C 223.05 225.06 222.99 226.73 222.96 228.41 C 224.32 227.85 225.57 227.08 226.68 226.12 C 225.56 225.13 224.38 224.22 223.15 223.40 M 223.00 229.67 C 222.98 231.56 222.99 233.46 223.02 235.35 C 224.72 234.93 227.74 234.58 227.02 232.03 C 227.04 229.87 224.39 230.24 223.00 229.67 Z" />
<path fill="#2d619e" opacity="1.00" d=" M 106.77 238.48 C 114.40 233.73 121.00 227.50 128.76 222.96 C 143.70 244.94 167.87 259.77 193.72 265.12 C 192.17 273.41 191.17 281.82 188.84 289.95 C 169.99 288.01 152.54 279.46 136.97 269.05 C 125.43 260.51 114.69 250.54 106.77 238.48 Z" />
<path fill="#2d619e" opacity="1.00" d=" M 5.57 226.05 C 11.15 226.84 16.81 226.85 22.39 226.04 C 22.44 230.52 17.35 230.80 14.04 230.92 C 10.64 231.14 5.63 230.43 5.57 226.05 Z" />
<path fill="#2d619e" opacity="1.00" d=" M 395.54 226.21 C 400.81 227.02 406.14 226.74 411.40 226.02 C 411.33 228.93 408.90 230.89 406.10 230.99 C 402.17 231.42 396.02 231.46 395.54 226.21 Z" />
<path fill="#2d619e" opacity="1.00" d=" M 292.34 228.11 C 298.17 231.21 302.75 236.06 307.91 240.07 C 308.39 243.00 305.53 244.91 304.03 247.04 C 279.95 276.38 241.82 293.19 203.97 292.01 C 203.61 283.34 204.51 274.71 205.08 266.07 C 214.08 267.42 223.26 266.65 232.09 264.62 C 239.95 262.80 247.81 260.69 255.08 257.15 C 269.47 250.36 281.77 239.86 292.34 228.11 Z" />
<path fill="#2d619e" opacity="1.00" d=" M 6.39 233.61 C 10.92 232.54 16.08 232.48 20.07 235.19 C 20.37 237.44 17.87 238.25 16.15 238.77 C 11.75 239.47 7.00 239.03 3.10 236.76 C 2.31 234.56 4.85 234.08 6.39 233.61 Z" />
<path fill="#2d619e" opacity="1.00" d=" M 396.55 236.86 C 397.32 233.52 401.16 233.41 403.92 233.03 C 407.58 232.51 411.21 233.52 414.46 235.19 C 413.34 238.79 409.18 239.05 406.02 238.98 C 402.71 239.20 399.53 238.20 396.55 236.86 Z" />
<path fill="#2d619e" opacity="1.00" d=" M 2.57 238.13 C 8.51 240.80 15.45 241.18 21.33 238.12 C 20.90 240.03 21.04 242.76 18.83 243.59 C 14.29 244.65 8.95 245.91 4.76 243.15 C 2.98 242.12 3.03 239.86 2.57 238.13 Z" />
<path fill="#2d619e" opacity="1.00" d=" M 396.95 238.96 C 402.64 239.81 408.48 240.64 414.15 239.16 C 414.19 240.76 413.99 242.30 413.53 243.79 C 408.10 245.28 402.28 244.97 397.05 242.85 C 397.01 241.55 396.98 240.26 396.95 238.96 Z" />
<path fill="#2d619e" opacity="1.00" d=" M 85.84 253.92 C 88.00 252.05 90.34 250.39 92.78 248.91 C 113.99 279.79 148.08 301.73 185.21 307.32 C 186.58 310.87 185.10 314.51 183.78 317.82 C 144.59 310.08 108.29 287.15 85.84 253.92 Z" />
<path fill="#2d619e" opacity="1.00" d=" M 6.79 251.74 C 12.28 250.78 19.03 249.93 23.23 254.50 C 17.76 259.23 9.96 258.14 3.68 255.87 C 3.77 253.94 4.64 251.99 6.79 251.74 Z" />
<path fill="#2d619e" opacity="1.00" d=" M 396.39 252.30 C 402.16 249.85 408.74 251.01 414.40 253.26 C 413.46 256.64 409.66 257.03 406.78 257.68 C 402.62 258.49 398.59 256.84 394.66 255.77 C 395.04 254.54 394.94 252.85 396.39 252.30 Z" />
<path fill="#2d619e" opacity="1.00" d=" M 322.25 252.05 C 326.05 254.71 329.41 257.95 333.26 260.55 C 331.17 264.50 328.00 267.70 325.07 271.02 C 294.21 304.76 247.56 323.11 202.00 319.97 C 202.00 316.68 202.01 313.39 202.01 310.11 C 231.07 310.36 260.57 302.99 284.98 286.91 C 299.23 277.49 312.21 265.94 322.25 252.05 Z" />
<path fill="#2d619e" opacity="1.00" d=" M 2.91 257.23 C 9.52 259.37 16.75 259.55 23.27 256.98 C 22.88 258.79 23.17 261.17 21.37 262.32 C 15.84 264.69 9.70 264.12 4.23 261.85 C 3.79 260.31 3.35 258.76 2.91 257.23 Z" />
<path fill="#2d619e" opacity="1.00" d=" M 394.91 257.26 C 401.19 259.34 408.07 259.48 414.26 257.00 C 413.91 258.99 414.03 261.79 411.72 262.64 C 406.32 264.40 400.40 263.89 395.12 261.95 C 395.05 260.38 394.98 258.82 394.91 257.26 Z" />
<path fill="#2d619e" opacity="1.00" d=" M 9.07 272.44 C 16.64 270.29 25.40 269.71 32.29 274.16 C 32.02 275.93 31.50 278.00 29.44 278.39 C 21.74 280.73 12.13 281.41 5.72 275.67 C 6.71 274.49 7.46 272.87 9.07 272.44 Z" />
<path fill="#2d619e" opacity="1.00" d=" M 390.49 271.63 C 397.43 270.27 405.13 270.20 411.30 274.13 C 411.39 278.64 406.22 279.07 402.89 279.58 C 396.72 280.69 390.43 279.34 384.79 276.79 C 384.52 273.46 387.81 272.20 390.49 271.63 Z" />
<path fill="#2d619e" opacity="1.00" d=" M 5.70 278.02 C 13.66 283.10 23.82 282.58 32.22 278.89 C 32.94 281.72 32.64 285.36 29.42 286.44 C 23.57 288.52 16.91 288.53 10.92 287.06 C 6.86 286.10 4.65 282.00 5.70 278.02 Z" />
<path fill="#2d619e" opacity="1.00" d=" M 384.98 278.12 C 392.81 283.36 402.95 282.34 411.25 278.85 C 412.10 281.49 411.96 284.84 408.99 286.06 C 402.09 289.10 393.86 288.64 386.86 286.09 C 383.53 284.91 385.11 280.74 384.98 278.12 Z" />
<path fill="#2d619e" opacity="1.00" d=" M 29.56 293.82 C 37.63 292.70 46.62 291.78 54.00 295.99 C 55.32 296.94 57.53 297.89 57.00 299.91 C 56.40 302.09 54.18 303.32 52.10 303.76 C 42.92 305.92 32.75 307.22 23.93 303.03 C 21.86 302.10 19.93 299.58 21.28 297.31 C 23.65 295.41 26.63 294.44 29.56 293.82 Z" />
<path fill="#2d619e" opacity="1.00" d=" M 360.14 298.24 C 362.81 295.03 367.21 294.40 371.07 293.63 C 379.92 292.36 389.96 292.32 397.24 298.29 C 396.51 302.01 392.77 303.51 389.47 304.24 C 380.62 306.22 370.79 306.72 362.54 302.38 C 361.06 301.67 359.80 299.89 360.14 298.24 Z" />
<path fill="#2d619e" opacity="1.00" d=" M 51.57 306.34 C 53.85 305.72 55.56 304.00 57.42 302.65 C 57.10 306.90 58.14 313.16 52.98 314.85 C 43.31 317.84 32.42 318.10 23.01 314.04 C 19.25 312.23 20.13 307.36 19.93 303.95 C 29.82 308.22 41.19 309.64 51.57 306.34 Z" />
<path fill="#2d619e" opacity="1.00" d=" M 360.02 303.14 C 368.09 308.87 378.51 308.48 387.87 307.31 C 391.24 306.88 394.09 304.90 396.84 303.05 C 396.52 306.37 398.34 310.87 395.34 313.31 C 385.27 318.75 372.64 318.42 362.36 313.69 C 358.46 311.71 360.19 306.60 360.02 303.14 Z" />
<path fill="#2d619e" opacity="1.00" d=" M 64.49 315.66 C 75.31 314.14 86.86 314.33 96.94 318.98 C 99.56 320.39 103.00 323.52 100.88 326.71 C 94.79 331.56 86.62 333.15 78.98 333.01 C 69.68 333.26 59.65 333.69 51.41 328.64 C 49.25 327.42 46.94 324.90 48.21 322.27 C 51.96 317.21 58.81 316.76 64.49 315.66 Z" />
<path fill="#2d619e" opacity="1.00" d=" M 315.84 322.14 C 322.01 317.00 330.18 315.65 337.96 315.21 C 348.96 314.36 361.64 314.80 369.96 323.09 C 369.88 325.89 367.84 328.25 365.35 329.33 C 355.95 334.10 345.10 333.01 334.92 332.95 C 328.68 332.61 322.04 331.10 317.23 326.88 C 315.66 325.81 316.14 323.75 315.84 322.14 Z" />
<path fill="#2d619e" opacity="1.00" d=" M 47.97 330.06 C 51.51 333.11 55.90 334.96 60.50 335.71 C 71.64 337.65 83.47 338.09 94.25 334.16 C 97.08 333.20 99.34 331.18 101.77 329.52 C 101.86 333.66 102.63 337.90 101.61 341.97 C 101.14 344.21 98.79 345.07 97.01 346.06 C 88.01 350.46 77.72 350.11 67.96 350.01 C 60.87 349.78 53.31 348.03 48.12 342.89 C 47.98 338.61 47.91 334.33 47.97 330.06 Z" />
<path fill="#2d619e" opacity="1.00" d=" M 316.11 330.14 C 323.53 335.59 332.97 337.04 341.96 337.08 C 351.62 337.32 361.92 335.98 369.88 330.07 C 369.54 335.00 371.98 341.87 366.97 345.14 C 358.03 350.70 347.08 350.37 336.96 349.98 C 330.28 349.48 323.14 348.42 317.65 344.33 C 314.23 340.43 316.32 334.79 316.11 330.14 Z" />
<path fill="#2d619e" opacity="1.00" d=" M 106.77 352.68 C 107.89 347.08 114.24 346.11 118.96 345.47 C 127.93 344.92 137.79 343.34 145.97 348.05 C 147.31 349.00 149.58 349.89 149.01 351.95 C 147.22 356.31 142.10 356.90 138.08 357.83 C 127.53 360.20 115.58 359.54 106.77 352.68 Z" />
<path fill="#2d619e" opacity="1.00" d=" M 267.98 350.99 C 272.50 345.26 280.41 345.38 287.01 344.97 C 294.84 344.47 303.82 344.56 309.91 350.27 C 310.52 353.78 306.73 355.91 303.90 356.83 C 294.87 359.24 285.05 360.15 276.05 357.15 C 272.80 355.95 268.74 354.96 267.98 350.99 Z" />
<path fill="#2d619e" opacity="1.00" d=" M 106.98 356.13 C 110.06 358.18 113.46 359.80 117.13 360.43 C 124.01 361.55 131.13 362.61 138.04 360.98 C 142.40 360.25 146.06 357.66 149.92 355.69 C 149.48 358.60 149.39 361.55 149.35 364.49 C 148.32 366.88 146.12 368.82 143.58 369.46 C 133.75 372.35 122.94 373.33 113.13 369.85 C 110.92 369.06 108.37 368.06 107.49 365.66 C 106.49 362.59 107.01 359.29 106.98 356.13 Z" />
<path fill="#2d619e" opacity="1.00" d=" M 268.94 366.84 C 267.93 363.36 267.85 359.73 268.00 356.14 C 272.66 359.56 278.41 360.78 284.06 361.30 C 293.26 362.68 303.64 361.58 310.97 355.37 C 309.90 360.08 311.68 366.78 305.98 369.02 C 294.18 373.50 279.97 373.51 268.94 366.84 Z" />
<path fill="#2d619e" opacity="1.00" d=" M 171.51 359.67 C 180.50 358.52 190.93 357.87 198.23 364.29 C 196.88 368.28 192.66 369.73 188.89 370.39 C 179.79 371.66 169.81 372.01 161.76 366.86 C 161.07 361.27 167.50 360.45 171.51 359.67 Z" />
<path fill="#2d619e" opacity="1.00" d=" M 221.96 361.91 C 228.21 359.03 235.33 358.89 242.10 359.05 C 247.25 359.15 252.27 360.95 256.22 364.27 C 254.92 368.28 250.68 369.72 246.92 370.38 C 237.81 371.66 227.80 372.02 219.74 366.84 C 219.96 365.02 219.97 362.74 221.96 361.91 Z" />
<path fill="#2d619e" opacity="1.00" d=" M 162.10 377.96 C 162.02 375.02 161.97 372.07 161.98 369.13 C 168.07 373.44 175.92 373.91 183.12 373.72 C 188.33 373.20 193.64 372.15 198.03 369.12 C 197.82 372.25 198.75 375.96 196.66 378.63 C 192.09 381.79 186.30 381.93 180.97 382.44 C 174.49 382.97 167.25 382.35 162.10 377.96 Z" />
<path fill="#2d619e" opacity="1.00" d=" M 219.95 369.10 C 230.70 375.91 245.08 375.12 256.07 369.16 C 255.85 372.73 257.13 378.20 252.78 379.74 C 244.03 383.42 234.06 383.13 224.99 380.85 C 223.11 380.40 221.63 379.08 220.11 377.97 C 220.04 375.01 219.97 372.06 219.95 369.10 Z" />
</g>
</svg>
