<?xml version="1.0" encoding="UTF-8" ?>
<!DOCTYPE svg PUBLIC "-//W3C//DTD SVG 1.1//EN" "http://www.w3.org/Graphics/SVG/1.1/DTD/svg11.dtd">
<svg width="412pt" height="380pt" viewBox="0 0 412 380" version="1.1" xmlns="http://www.w3.org/2000/svg">
<g id="#ffffffff">
</g>
<g id="#265c9bff">
<path fill="#265c9b" opacity="1.00" d=" M 192.48 1.21 C 202.65 0.56 212.86 1.58 223.01 0.55 C 230.49 1.87 238.04 2.78 245.43 4.62 C 244.14 9.94 242.95 15.28 241.60 20.58 C 213.00 12.85 181.96 14.62 154.40 25.48 C 123.83 37.37 97.86 60.29 81.82 88.85 C 64.63 119.01 59.06 155.28 65.51 189.32 C 62.69 189.90 59.87 190.50 57.05 191.08 C 50.37 158.49 54.02 123.84 67.53 93.42 C 79.80 65.56 100.35 41.40 125.93 24.87 C 145.87 11.94 168.87 3.80 192.48 1.21 Z" />
<path fill="#265c9b" opacity="1.00" d=" M 255.87 25.13 C 257.82 19.90 259.55 14.58 261.49 9.34 C 283.84 17.61 304.38 30.87 320.74 48.22 C 321.09 48.67 321.78 49.55 322.13 50.00 C 318.24 54.25 313.93 58.11 309.71 62.03 C 294.99 45.73 276.31 33.13 255.87 25.13 Z" />
<path fill="#265c9b" opacity="1.00" d=" M 165.99 40.06 C 188.93 32.14 214.16 31.58 237.60 37.69 C 236.23 44.05 234.59 50.35 233.26 56.72 C 210.80 51.45 186.56 53.71 165.73 63.77 C 141.68 75.13 122.55 96.23 113.24 121.11 C 106.08 139.82 104.86 160.42 108.35 180.06 C 99.82 182.25 91.12 183.78 82.52 185.67 C 77.78 160.33 80.51 133.58 90.80 109.90 C 104.63 77.49 132.48 51.21 165.99 40.06 Z" />
<path fill="#265c9b" opacity="1.00" d=" M 250.09 41.83 C 268.00 48.81 284.16 60.02 297.20 74.13 C 292.88 78.41 288.47 82.60 284.09 86.82 C 272.97 74.91 259.15 65.54 243.82 59.97 C 245.82 53.89 247.97 47.86 250.09 41.83 Z" />
<path fill="#265c9b" opacity="1.00" d=" M 196.95 70.04 C 204.70 63.96 216.39 63.80 224.28 69.72 C 229.90 73.61 232.99 80.16 233.90 86.80 C 254.88 91.35 274.86 102.98 287.16 120.85 C 293.48 130.36 298.15 141.62 297.64 153.21 C 296.62 138.36 289.03 124.66 278.74 114.18 C 266.49 102.07 250.53 94.05 233.77 90.38 C 232.87 96.72 229.78 102.77 224.54 106.59 C 216.41 112.89 203.95 112.59 196.15 105.86 C 191.44 102.08 188.81 96.32 187.86 90.46 C 168.06 94.89 149.06 105.35 136.71 121.72 C 129.79 130.76 125.17 141.65 124.32 153.06 C 123.83 141.00 128.86 129.30 135.67 119.58 C 148.01 102.47 167.44 91.33 187.84 86.84 C 188.53 80.32 191.58 73.97 196.95 70.04 M 207.60 70.49 C 206.71 72.29 205.83 74.09 204.99 75.90 C 206.42 75.91 207.85 75.94 209.29 75.93 C 209.26 74.15 209.26 72.37 209.24 70.59 C 208.83 70.56 208.01 70.52 207.60 70.49 M 212.70 70.42 C 212.68 72.26 212.67 74.09 212.65 75.93 C 214.08 75.92 215.52 75.93 216.96 75.91 C 216.09 74.12 215.20 72.34 214.31 70.57 C 213.90 70.53 213.10 70.46 212.70 70.42 M 203.00 71.93 C 201.16 73.17 199.39 74.51 197.71 75.97 C 198.57 75.94 200.27 75.90 201.12 75.87 C 202.03 74.72 202.44 73.27 203.00 71.93 M 218.91 71.89 C 219.49 73.32 220.10 74.73 220.71 76.14 C 221.59 76.04 223.35 75.84 224.23 75.74 C 222.50 74.41 220.72 73.12 218.91 71.89 M 195.02 79.35 C 194.00 81.69 193.25 84.14 192.75 86.64 C 194.78 86.65 196.82 86.64 198.87 86.66 C 199.24 84.20 199.65 81.76 200.08 79.31 C 198.39 79.33 196.71 79.34 195.02 79.35 M 202.30 86.56 C 204.62 86.59 206.94 86.60 209.26 86.61 C 209.26 84.22 209.25 81.82 209.25 79.42 C 207.41 79.40 205.56 79.40 203.72 79.39 C 203.20 81.77 202.73 84.16 202.30 86.56 M 212.68 79.42 C 212.68 81.82 212.68 84.22 212.69 86.62 C 215.00 86.61 217.31 86.59 219.63 86.57 C 219.21 84.16 218.75 81.77 218.23 79.38 C 216.37 79.40 214.53 79.41 212.68 79.42 M 221.39 79.23 C 221.81 81.69 222.22 84.15 222.59 86.63 C 224.65 86.63 226.72 86.63 228.79 86.62 C 228.20 84.26 227.53 81.92 226.83 79.59 C 225.02 79.45 223.20 79.33 221.39 79.23 M 192.65 89.97 C 193.25 92.49 194.01 94.96 194.90 97.39 C 196.64 97.41 198.38 97.43 200.13 97.44 C 199.67 95.02 199.25 92.60 198.88 90.16 C 196.80 90.11 194.72 90.02 192.65 89.97 M 212.64 90.18 C 212.67 92.53 212.58 94.89 212.83 97.24 C 214.58 97.46 216.37 97.53 218.12 97.21 C 218.93 94.96 219.24 92.58 219.65 90.24 C 217.31 90.20 214.97 90.18 212.64 90.18 M 222.54 90.22 C 222.19 92.63 221.80 95.03 221.40 97.43 C 223.08 97.44 224.75 97.45 226.43 97.48 C 227.51 95.06 228.25 92.52 228.77 89.93 C 226.69 90.01 224.62 90.11 222.54 90.22 M 202.30 90.22 C 202.72 92.62 203.19 95.01 203.71 97.39 C 205.56 97.39 207.40 97.37 209.25 97.37 C 209.25 94.97 209.26 92.57 209.26 90.17 C 206.94 90.17 204.62 90.19 202.30 90.22 M 197.76 100.96 C 199.45 102.35 201.25 103.62 203.10 104.81 C 202.59 103.63 202.10 102.44 201.49 101.31 C 200.26 101.07 199.02 100.95 197.76 100.96 M 204.97 101.02 C 206.03 103.10 207.15 105.16 208.47 107.10 C 209.14 105.08 209.28 102.95 209.35 100.85 C 207.89 100.90 206.43 100.96 204.97 101.02 M 213.53 107.07 C 214.79 105.14 215.89 103.11 216.95 101.06 C 215.51 100.97 214.07 100.89 212.63 100.81 C 212.66 102.92 212.69 105.08 213.53 107.07 M 220.37 101.03 C 219.91 102.30 219.48 103.58 219.04 104.86 C 220.77 103.64 222.50 102.40 224.20 101.13 C 222.92 101.09 221.64 101.06 220.37 101.03 Z" />
<path fill="#265c9b" opacity="1.00" d=" M 190.52 136.68 C 197.32 135.01 205.08 134.97 211.15 138.86 C 214.53 141.06 217.38 144.87 216.99 149.08 C 216.69 152.14 213.00 154.31 210.25 152.76 C 207.27 150.02 206.52 144.99 202.28 143.68 C 198.06 142.50 192.44 142.86 189.74 146.77 C 187.76 149.51 189.94 153.09 192.72 154.18 C 199.83 157.31 208.29 157.35 214.58 162.31 C 219.46 166.04 220.21 173.07 218.36 178.57 C 216.70 183.43 212.32 186.90 207.51 188.37 C 201.76 190.04 195.50 190.06 189.78 188.26 C 183.72 186.28 178.61 180.55 178.44 174.02 C 178.31 170.28 183.67 168.00 186.11 170.92 C 188.14 173.63 188.77 177.28 191.39 179.57 C 194.22 182.09 198.36 182.12 201.89 181.53 C 205.47 180.86 209.29 177.96 209.04 173.98 C 209.09 171.00 206.70 168.70 204.07 167.76 C 197.37 165.20 189.60 164.92 183.87 160.19 C 178.90 156.28 178.16 148.66 181.21 143.35 C 183.19 139.93 186.81 137.77 190.52 136.68 Z" />
<path fill="#265c9b" opacity="1.00" d=" M 264.50 136.72 C 271.06 135.06 278.50 134.97 284.54 138.41 C 288.22 140.59 291.52 144.57 291.01 149.10 C 290.85 152.18 287.00 154.36 284.34 152.71 C 281.36 149.96 280.55 144.94 276.28 143.66 C 272.08 142.52 266.43 142.88 263.78 146.81 C 262.04 149.65 264.01 153.14 266.87 154.22 C 273.96 157.32 282.37 157.36 288.63 162.30 C 293.87 166.35 294.57 174.20 291.87 179.91 C 289.74 184.61 285.00 187.63 280.10 188.77 C 274.23 190.10 267.86 189.97 262.27 187.61 C 256.98 185.26 252.65 179.96 252.52 174.04 C 252.47 170.30 257.63 168.01 260.15 170.87 C 262.63 174.05 263.21 178.89 267.23 180.72 C 271.80 182.71 277.94 182.26 281.49 178.48 C 284.29 175.55 283.41 170.08 279.60 168.43 C 272.59 165.12 264.03 165.28 257.88 160.13 C 252.81 156.00 252.17 147.97 255.73 142.68 C 257.74 139.65 261.09 137.79 264.50 136.72 Z" />
<path fill="#265c9b" opacity="1.00" d=" M 132.31 143.00 C 132.13 140.09 133.69 136.59 137.07 136.66 C 147.03 136.35 157.02 136.44 166.98 136.61 C 170.14 136.39 172.10 139.97 170.59 142.61 C 169.52 144.62 167.01 144.63 165.04 144.67 C 157.60 144.68 150.15 144.63 142.71 144.66 C 142.71 148.93 142.71 153.21 142.71 157.48 C 150.31 157.61 157.93 157.26 165.52 157.62 C 169.00 157.60 170.25 162.47 167.72 164.52 C 166.00 165.53 163.94 165.42 162.03 165.48 C 155.58 165.47 149.13 165.39 142.68 165.52 C 142.72 170.45 142.71 175.38 142.72 180.31 C 151.13 180.41 159.54 180.13 167.95 180.42 C 170.69 180.34 172.66 183.29 171.76 185.84 C 171.24 187.88 169.02 188.72 167.10 188.68 C 158.42 188.81 149.73 188.65 141.04 188.74 C 138.83 188.65 136.40 188.90 134.42 187.71 C 132.28 186.24 132.35 183.38 132.28 181.08 C 132.32 168.38 132.24 155.69 132.31 143.00 Z" />
<path fill="#265c9b" opacity="1.00" d=" M 231.37 137.39 C 233.86 136.68 237.60 136.29 239.09 138.99 C 239.73 140.58 239.56 142.35 239.62 144.03 C 239.55 157.04 239.61 170.06 239.60 183.07 C 239.72 185.21 239.06 188.03 236.62 188.55 C 234.56 188.88 232.03 189.09 230.42 187.50 C 228.97 186.06 229.35 183.83 229.22 182.00 C 229.29 168.66 229.21 155.32 229.26 141.98 C 229.17 140.22 229.68 138.26 231.37 137.39 Z" />
<path fill="#265c9b" opacity="1.00" d=" M 311.12 156.50 C 317.66 156.58 324.21 156.57 330.76 156.55 C 331.04 165.98 330.45 175.45 328.65 184.72 C 321.95 183.08 315.24 181.48 308.51 179.99 C 310.09 172.26 311.04 164.39 311.12 156.50 Z" />
<path fill="#265c9b" opacity="1.00" d=" M 348.12 156.60 C 353.32 156.59 358.52 156.59 363.72 156.60 C 363.66 163.23 363.30 169.87 362.43 176.45 C 364.27 176.19 366.15 175.53 368.04 175.86 C 369.35 176.21 371.68 176.89 370.64 178.69 C 367.90 180.72 364.50 179.58 361.57 178.74 C 364.26 181.29 368.08 180.95 371.24 179.50 C 371.02 180.30 370.59 181.89 370.37 182.68 C 373.41 181.98 376.62 182.06 379.20 184.04 C 376.77 186.71 370.68 187.58 369.44 183.39 C 366.75 183.91 364.08 183.42 361.66 182.18 C 361.11 185.47 360.49 188.76 359.69 192.00 C 355.17 190.74 350.52 189.96 346.03 188.61 C 345.60 187.27 346.22 185.81 346.30 184.44 C 347.88 175.25 348.34 165.91 348.12 156.60 Z" />
<path fill="#265c9b" opacity="1.00" d=" M 45.21 176.15 C 47.53 175.30 50.12 175.83 52.24 176.98 C 52.67 179.68 49.92 179.74 47.97 179.88 C 46.31 179.74 43.86 179.77 43.30 177.77 C 43.78 177.37 44.73 176.56 45.21 176.15 Z" />
<path fill="#265c9b" opacity="1.00" d=" M 42.90 179.71 C 46.11 180.81 49.51 180.81 52.75 179.83 C 52.39 185.16 43.25 185.05 42.90 179.71 Z" />
<path fill="#265c9b" opacity="1.00" d=" M 34.42 184.13 C 36.86 181.15 41.43 181.91 44.10 184.18 C 41.64 186.55 36.42 187.37 34.42 184.13 Z" />
<path fill="#265c9b" opacity="1.00" d=" M 34.01 186.43 C 37.35 186.88 40.72 186.88 44.06 186.47 C 43.27 191.43 34.73 191.47 34.01 186.43 Z" />
<path fill="#265c9b" opacity="1.00" d=" M 369.09 186.44 C 372.43 186.88 375.80 186.88 379.15 186.46 C 378.33 191.44 369.83 191.47 369.09 186.44 Z" />
<path fill="#265c9b" opacity="1.00" d=" M 28.74 193.08 C 27.28 189.84 31.98 189.70 34.08 189.88 C 36.10 189.80 36.97 191.48 37.42 193.17 C 34.57 193.75 31.50 194.38 28.74 193.08 Z" />
<path fill="#265c9b" opacity="1.00" d=" M 376.92 193.02 C 375.29 191.54 377.59 190.10 378.93 190.01 C 380.89 189.57 383.09 189.74 384.77 190.94 C 384.87 192.87 384.99 194.83 384.75 196.76 C 381.62 198.49 376.17 198.20 375.91 193.72 C 378.39 194.43 380.97 194.93 383.57 194.71 C 381.36 194.08 379.07 193.79 376.92 193.02 Z" />
<path fill="#265c9b" opacity="1.00" d=" M 27.87 193.71 C 30.91 194.86 34.16 194.85 37.25 193.91 C 37.11 194.70 36.82 196.28 36.67 197.06 C 33.33 197.97 28.18 198.45 27.87 193.71 Z" />
<path fill="#265c9b" opacity="1.00" d=" M 127.77 201.28 C 127.90 199.66 130.63 195.26 131.19 198.90 C 130.12 199.79 128.95 200.54 127.77 201.28 Z" />
<path fill="#265c9b" opacity="1.00" d=" M 229.03 201.07 C 229.93 199.32 231.31 196.29 233.57 198.42 C 232.09 199.37 230.61 200.30 229.03 201.07 Z" />
<path fill="#265c9b" opacity="1.00" d=" M 18.87 201.00 C 17.21 198.59 20.30 198.20 21.97 197.86 C 24.59 197.36 27.18 198.33 29.60 199.25 C 27.27 202.77 22.34 202.16 18.87 201.00 Z" />
<path fill="#265c9b" opacity="1.00" d=" M 62.52 197.83 C 62.96 198.10 63.82 198.64 64.25 198.90 C 64.71 202.27 64.48 205.70 64.45 209.09 C 64.62 210.35 63.96 211.40 62.98 212.14 C 61.68 207.50 62.45 202.58 62.52 197.83 Z" />
<path fill="#265c9b" opacity="1.00" d=" M 107.49 198.34 C 108.84 197.27 110.27 199.66 108.94 200.55 C 107.58 201.57 106.18 199.22 107.49 198.34 Z" />
<path fill="#265c9b" opacity="1.00" d=" M 173.20 199.02 C 173.56 198.64 174.30 197.87 174.66 197.49 C 175.15 202.11 175.12 206.78 174.89 211.41 C 174.45 211.41 173.56 211.39 173.11 211.39 C 172.95 207.27 172.76 203.12 173.20 199.02 Z" />
<path fill="#265c9b" opacity="1.00" d=" M 188.58 199.32 C 189.14 197.88 190.72 198.32 191.92 198.34 C 191.62 199.51 190.63 200.30 189.92 201.22 C 190.34 201.53 191.18 202.15 191.60 202.46 C 188.32 204.88 191.88 210.26 188.12 212.00 C 187.90 209.49 187.83 206.98 187.74 204.47 C 185.11 202.99 187.75 200.96 188.58 199.32 Z" />
<path fill="#265c9b" opacity="1.00" d=" M 234.70 202.16 C 234.98 200.53 235.17 198.82 236.23 197.47 C 236.83 199.40 237.09 201.50 238.46 203.08 C 235.81 205.41 237.35 209.05 238.07 211.88 C 233.19 211.59 236.19 205.95 233.90 203.19 C 233.56 205.93 233.53 208.68 233.33 211.43 C 230.82 211.13 227.65 212.33 225.75 210.17 C 223.42 207.95 224.31 203.53 227.29 202.37 C 229.74 202.02 232.23 202.31 234.70 202.16 M 227.54 204.54 C 225.24 206.21 226.95 210.77 229.92 209.35 C 233.57 208.50 230.41 201.77 227.54 204.54 Z" />
<path fill="#265c9b" opacity="1.00" d=" M 240.41 198.36 C 241.66 196.94 243.52 199.33 242.33 200.49 C 241.05 201.88 239.15 199.55 240.41 198.36 Z" />
<path fill="#265c9b" opacity="1.00" d=" M 284.48 201.00 C 285.90 196.52 292.79 197.00 294.56 200.99 C 291.78 200.83 287.45 198.08 286.17 202.01 C 288.89 204.00 294.58 203.52 294.60 207.98 C 293.47 212.87 284.96 212.78 283.93 208.02 C 285.68 208.42 287.35 209.11 289.11 209.50 C 290.75 209.96 293.19 208.67 292.46 206.74 C 289.72 205.03 284.22 205.38 284.48 201.00 Z" />
<path fill="#265c9b" opacity="1.00" d=" M 296.26 198.03 C 298.00 197.43 298.68 200.41 296.98 200.83 C 295.24 201.36 294.63 198.51 296.26 198.03 Z" />
<path fill="#265c9b" opacity="1.00" d=" M 308.80 197.47 C 309.62 199.38 310.38 201.36 311.51 203.11 C 308.73 205.35 310.38 209.05 311.06 211.87 C 305.92 211.64 309.64 205.44 306.44 203.07 C 307.93 201.54 308.18 199.42 308.80 197.47 Z" />
<path fill="#265c9b" opacity="1.00" d=" M 381.58 199.93 C 384.76 197.21 389.45 197.15 393.05 199.06 C 393.32 201.35 390.60 201.54 388.95 201.83 C 386.32 202.29 383.82 201.19 381.58 199.93 Z" />
<path fill="#265c9b" opacity="1.00" d=" M 17.78 201.59 C 21.57 202.93 25.66 202.96 29.42 201.52 C 29.44 206.08 24.03 206.06 20.77 205.36 C 18.71 205.27 18.47 203.07 17.78 201.59 Z" />
<path fill="#265c9b" opacity="1.00" d=" M 66.18 202.17 C 68.01 202.20 69.87 202.03 71.69 202.34 C 73.63 203.02 74.19 205.17 74.05 207.03 C 73.78 208.63 74.80 211.17 72.82 211.96 C 71.46 209.42 72.98 206.00 70.84 203.85 C 66.86 204.04 68.67 209.00 67.97 211.53 C 67.54 211.47 66.67 211.34 66.23 211.27 C 65.99 208.24 66.12 205.20 66.18 202.17 Z" />
<path fill="#265c9b" opacity="1.00" d=" M 76.83 210.15 C 74.39 207.76 75.63 202.99 79.01 202.26 C 80.92 202.10 82.83 202.25 84.75 202.27 C 84.74 205.42 85.02 208.60 84.55 211.73 C 83.87 215.09 78.93 216.32 77.05 213.27 C 79.17 213.03 81.29 212.65 83.23 211.75 C 81.09 211.40 78.37 212.09 76.83 210.15 M 79.28 204.29 C 76.41 205.10 77.55 210.20 80.53 209.59 C 84.24 209.31 82.68 202.53 79.28 204.29 Z" />
<path fill="#265c9b" opacity="1.00" d=" M 87.83 210.15 C 84.56 207.16 87.71 201.14 92.01 202.09 C 94.67 202.35 95.40 205.19 96.35 207.21 C 93.63 207.45 90.89 207.53 88.17 207.83 C 90.13 210.04 93.00 209.37 95.56 209.28 C 93.65 211.52 90.03 212.71 87.83 210.15 M 88.11 205.89 C 90.23 205.96 92.36 205.94 94.47 205.79 C 93.35 205.02 92.29 204.04 90.93 203.72 C 89.91 204.34 88.97 205.06 88.11 205.89 Z" />
<path fill="#265c9b" opacity="1.00" d=" M 97.20 202.15 C 99.04 202.20 100.90 202.03 102.72 202.35 C 106.08 203.84 104.99 208.25 104.81 211.15 L 103.87 212.05 C 102.50 209.49 103.97 206.06 101.88 203.86 C 97.84 203.95 99.77 208.88 98.96 211.47 C 98.54 211.37 97.70 211.17 97.28 211.07 C 96.96 208.10 97.14 205.12 97.20 202.15 Z" />
<path fill="#265c9b" opacity="1.00" d=" M 107.40 202.42 C 107.78 202.28 108.53 202.00 108.91 201.86 C 109.36 205.40 110.10 209.41 107.93 212.56 C 107.03 209.26 106.96 205.78 107.40 202.42 Z" />
<path fill="#265c9b" opacity="1.00" d=" M 111.19 209.72 C 108.71 206.81 111.20 201.74 115.02 202.02 C 117.52 201.93 119.07 204.17 119.76 206.29 C 117.96 208.61 114.43 207.04 111.94 207.76 C 113.71 210.17 116.59 209.33 119.10 209.21 C 117.41 212.00 113.11 212.55 111.19 209.72 M 111.76 205.84 C 113.95 205.94 116.14 205.90 118.32 205.68 C 117.22 205.00 116.13 204.29 114.95 203.78 C 113.67 204.07 112.78 205.10 111.76 205.84 Z" />
<path fill="#265c9b" opacity="1.00" d=" M 120.55 202.28 C 123.14 202.41 125.72 202.24 128.31 202.16 C 128.00 205.44 129.70 209.68 126.95 212.19 C 126.08 209.31 126.37 206.27 126.23 203.31 C 122.11 204.59 122.62 209.05 121.80 212.43 C 119.61 209.49 120.63 205.67 120.55 202.28 Z" />
<path fill="#265c9b" opacity="1.00" d=" M 132.67 211.28 C 128.84 209.84 129.04 203.41 133.00 202.28 C 134.97 202.09 136.97 202.27 138.95 202.25 C 138.97 205.28 138.98 208.30 139.01 211.32 C 136.90 211.30 134.76 211.67 132.67 211.28 M 133.26 204.35 C 130.38 205.75 132.39 210.92 135.51 209.34 C 138.60 207.93 136.28 202.59 133.26 204.35 Z" />
<path fill="#265c9b" opacity="1.00" d=" M 146.79 209.19 C 144.57 205.88 148.06 200.98 151.92 202.14 C 153.96 202.55 156.65 205.57 154.79 207.36 C 152.50 207.61 150.18 207.56 147.89 207.75 C 149.65 210.18 152.50 209.31 155.02 209.23 C 153.24 212.27 148.41 212.46 146.79 209.19 M 147.68 205.83 C 149.86 205.94 152.04 205.90 154.22 205.71 C 153.19 205.04 152.15 204.35 151.04 203.81 C 149.63 203.87 148.77 205.13 147.68 205.83 Z" />
<path fill="#265c9b" opacity="1.00" d=" M 156.89 202.13 C 159.62 202.19 163.79 201.42 164.62 204.99 C 164.51 207.15 166.17 211.49 162.90 211.79 C 162.30 209.14 164.20 204.15 160.19 203.83 C 157.98 205.87 159.47 209.28 158.24 211.80 L 156.96 211.34 C 156.60 208.28 156.78 205.19 156.89 202.13 Z" />
<path fill="#265c9b" opacity="1.00" d=" M 176.88 202.12 C 179.61 202.18 183.82 201.43 184.59 205.03 C 184.45 207.09 186.07 211.30 183.22 211.81 C 182.21 209.17 184.09 204.19 180.09 203.82 C 178.17 205.91 179.15 209.04 178.45 211.58 C 176.81 212.45 176.79 210.00 176.74 209.00 C 176.65 206.70 176.77 204.41 176.88 202.12 Z" />
<path fill="#265c9b" opacity="1.00" d=" M 194.30 202.36 C 197.70 200.77 201.41 204.57 200.44 207.98 C 199.86 211.04 195.79 212.92 193.33 210.73 C 190.32 208.73 190.98 203.65 194.30 202.36 M 194.52 204.58 C 192.19 206.19 193.95 210.79 196.89 209.39 C 200.42 208.42 197.63 202.11 194.52 204.58 Z" />
<path fill="#265c9b" opacity="1.00" d=" M 201.86 202.19 C 203.99 202.34 206.13 202.40 208.27 202.54 C 206.97 203.77 204.99 204.43 204.19 206.12 C 203.80 207.98 203.74 209.89 203.39 211.76 C 203.01 211.58 202.24 211.23 201.86 211.05 C 201.55 208.11 201.73 205.14 201.86 202.19 Z" />
<path fill="#265c9b" opacity="1.00" d=" M 208.58 202.03 C 210.84 202.15 213.12 202.27 215.36 202.67 C 217.56 202.17 220.77 201.40 221.88 204.07 C 222.58 206.54 223.50 210.34 220.98 212.06 C 220.38 209.76 220.48 207.36 220.10 205.03 C 219.40 203.75 217.63 203.53 216.85 204.89 C 216.32 207.37 216.38 209.94 215.89 212.43 C 214.04 210.37 214.57 207.53 214.10 205.02 C 213.29 203.73 211.52 203.48 210.81 205.03 C 210.34 207.53 210.82 210.34 209.10 212.47 C 208.17 209.06 208.38 205.51 208.58 202.03 Z" />
<path fill="#265c9b" opacity="1.00" d=" M 240.94 212.53 C 240.61 208.99 238.67 203.92 242.05 201.35 C 242.19 205.05 243.40 209.30 240.94 212.53 Z" />
<path fill="#265c9b" opacity="1.00" d=" M 246.29 202.41 C 248.71 201.25 251.07 202.86 253.00 204.20 C 254.82 201.23 258.41 202.43 261.26 202.21 C 261.36 205.29 261.35 208.37 261.23 211.46 C 259.21 211.40 257.17 211.57 255.16 211.30 C 252.56 210.44 251.95 207.40 252.39 205.02 C 249.90 204.42 245.50 202.99 245.28 206.96 C 245.62 210.59 249.96 208.99 252.40 209.41 C 250.54 211.18 247.65 212.64 245.34 210.70 C 242.20 208.75 242.92 203.65 246.29 202.41 M 255.35 204.53 C 252.77 206.15 255.08 211.12 257.92 209.22 C 261.16 207.81 258.23 202.18 255.35 204.53 Z" />
<path fill="#265c9b" opacity="1.00" d=" M 268.57 208.56 C 268.28 206.13 267.54 202.90 270.02 201.33 C 270.83 203.99 269.27 207.80 271.82 209.64 C 276.56 209.59 272.42 203.10 276.06 201.32 C 276.40 204.81 276.75 208.39 276.11 211.87 C 275.06 215.16 270.68 215.74 268.52 213.22 C 270.46 212.81 272.43 212.47 274.38 212.04 C 272.24 211.39 269.02 211.35 268.57 208.56 Z" />
<path fill="#265c9b" opacity="1.00" d=" M 295.92 201.37 C 298.84 202.86 297.35 206.48 297.56 209.00 C 299.91 209.11 302.35 209.63 304.64 208.78 C 302.71 207.46 298.11 207.40 299.02 203.99 C 300.22 200.99 305.44 201.53 305.91 204.83 C 304.06 204.57 302.22 204.28 300.36 204.09 C 302.27 205.88 307.05 206.37 305.84 209.80 C 304.28 212.23 300.65 212.08 298.92 209.90 C 297.89 210.58 296.86 211.26 295.83 211.92 C 295.53 208.41 295.52 204.87 295.92 201.37 Z" />
<path fill="#265c9b" opacity="1.00" d=" M 311.96 207.07 C 311.35 203.34 316.19 200.50 319.15 202.84 C 320.81 203.80 320.84 205.80 321.13 207.46 C 318.62 207.51 316.10 207.53 313.59 207.69 C 315.30 210.20 318.14 209.34 320.64 209.20 C 318.71 213.37 311.68 211.63 311.96 207.07 M 313.53 205.87 C 315.61 205.97 317.70 205.96 319.79 205.87 C 318.08 203.54 315.13 203.31 313.53 205.87 Z" />
<path fill="#265c9b" opacity="1.00" d=" M 322.62 202.05 C 326.37 202.39 330.12 202.59 333.88 202.24 C 337.58 203.98 337.27 209.59 335.10 212.48 C 334.09 209.67 335.44 205.88 332.93 203.83 C 329.09 204.65 331.10 209.69 329.84 212.47 C 328.17 210.33 328.59 207.55 328.16 205.05 C 327.36 203.77 325.56 203.44 324.87 205.02 C 324.38 207.53 324.88 210.35 323.11 212.47 C 322.24 209.06 322.43 205.52 322.62 202.05 Z" />
<path fill="#265c9b" opacity="1.00" d=" M 341.12 202.30 C 343.10 202.08 345.10 202.26 347.10 202.23 C 347.18 205.28 347.18 208.34 347.16 211.39 C 344.65 211.19 341.71 212.19 339.56 210.44 C 336.98 208.20 337.79 203.34 341.12 202.30 M 341.37 204.45 C 338.56 205.82 340.54 210.61 343.51 209.40 C 346.90 208.42 344.36 202.20 341.37 204.45 Z" />
<path fill="#265c9b" opacity="1.00" d=" M 348.81 203.95 C 350.36 201.11 355.28 201.46 355.88 204.86 C 354.04 204.57 352.21 204.25 350.37 204.05 C 352.17 205.88 357.03 206.40 355.77 209.71 C 354.01 212.83 349.55 211.67 347.88 209.03 C 350.00 209.12 352.13 209.38 354.27 209.20 C 352.68 207.07 348.27 207.47 348.81 203.95 Z" />
<path fill="#265c9b" opacity="1.00" d=" M 381.84 201.56 C 385.60 202.90 389.68 203.00 393.42 201.51 C 392.87 202.85 393.03 204.97 391.13 205.17 C 387.73 206.20 382.24 206.15 381.84 201.56 Z" />
<path fill="#265c9b" opacity="1.00" d=" M 9.20 208.97 C 12.84 206.28 17.95 206.24 21.94 208.15 C 22.45 210.58 19.72 210.51 18.08 210.85 C 14.97 211.39 11.85 210.65 9.20 208.97 Z" />
<path fill="#265c9b" opacity="1.00" d=" M 392.04 207.19 C 395.10 206.68 398.38 206.73 401.25 208.05 C 401.22 208.54 401.14 209.53 401.11 210.02 C 397.53 211.15 393.47 211.49 389.97 209.92 C 387.92 208.53 390.89 207.38 392.04 207.19 Z" />
<path fill="#265c9b" opacity="1.00" d=" M 9.58 210.53 C 13.72 212.11 18.24 212.09 22.41 210.62 C 22.31 215.62 15.98 214.99 12.53 214.39 C 10.39 214.25 9.95 212.27 9.58 210.53 Z" />
<path fill="#265c9b" opacity="1.00" d=" M 388.85 210.63 C 393.13 212.11 397.71 212.01 402.02 210.68 C 401.44 212.43 400.73 214.41 398.58 214.50 C 395.04 214.98 389.27 215.47 388.85 210.63 Z" />
<path fill="#265c9b" opacity="1.00" d=" M 5.26 218.42 C 9.55 217.18 14.73 216.93 18.61 219.45 C 19.83 221.24 17.13 221.95 15.88 222.38 C 11.65 223.33 6.60 223.51 3.01 220.73 C 3.08 219.44 4.16 218.78 5.26 218.42 Z" />
<path fill="#265c9b" opacity="1.00" d=" M 391.78 220.10 C 396.79 216.67 404.02 216.55 409.00 220.10 C 404.32 224.12 396.47 224.08 391.78 220.10 Z" />
<path fill="#265c9b" opacity="1.00" d=" M 176.14 218.52 C 176.59 218.76 177.50 219.25 177.95 219.50 C 178.68 222.74 177.84 226.14 178.64 229.37 C 179.87 232.55 184.99 232.24 185.84 228.94 C 186.25 225.80 185.80 222.62 186.21 219.49 C 186.72 219.24 187.73 218.75 188.24 218.50 C 188.29 222.54 189.12 226.84 187.69 230.72 C 185.52 235.18 178.41 235.03 176.47 230.43 C 175.49 226.56 176.11 222.47 176.14 218.52 Z" />
<path fill="#265c9b" opacity="1.00" d=" M 191.47 219.40 C 191.80 219.27 192.45 219.02 192.78 218.90 C 195.58 221.99 197.65 225.66 200.38 228.81 C 200.51 225.79 200.25 222.74 200.65 219.73 C 201.04 219.46 201.84 218.91 202.24 218.63 C 203.27 223.80 203.14 229.30 202.29 234.49 C 198.60 231.85 196.74 227.48 193.75 224.16 C 193.66 227.37 193.67 230.59 193.61 233.81 C 193.05 233.81 191.93 233.82 191.37 233.83 C 191.35 229.02 191.06 224.19 191.47 219.40 Z" />
<path fill="#265c9b" opacity="1.00" d=" M 213.14 219.09 C 213.73 219.12 214.92 219.16 215.51 219.19 C 214.96 223.76 217.30 229.91 213.03 233.18 C 209.45 235.65 204.73 232.62 204.62 228.49 C 207.20 229.56 210.62 233.80 212.89 229.92 C 213.36 226.33 213.04 222.70 213.14 219.09 Z" />
<path fill="#265c9b" opacity="1.00" d=" M 217.17 218.89 C 219.47 219.02 222.21 218.25 224.14 219.88 C 225.87 221.24 225.22 223.62 225.31 225.51 C 226.36 227.42 227.69 229.74 226.19 231.83 C 224.30 234.96 220.20 233.80 217.19 233.93 C 217.02 228.92 217.04 223.90 217.17 218.89 M 219.51 220.97 C 219.52 222.32 219.53 223.67 219.54 225.03 C 220.61 224.33 223.89 224.89 222.97 222.89 C 223.07 220.95 220.75 221.45 219.51 220.97 M 219.46 226.90 C 219.48 228.55 219.51 230.21 219.55 231.87 C 221.52 231.48 224.86 231.91 224.53 228.93 C 223.84 226.69 221.26 227.26 219.46 226.90 Z" />
<path fill="#265c9b" opacity="1.00" d=" M 227.58 227.99 C 226.27 223.00 230.91 217.87 235.97 218.40 C 238.01 218.70 241.12 219.41 240.94 222.06 C 237.99 221.83 234.60 219.79 231.97 222.04 C 229.34 223.91 229.14 228.21 231.75 230.21 C 233.49 231.98 236.10 231.35 238.30 231.30 C 238.34 230.43 238.40 228.69 238.43 227.82 C 237.02 227.76 235.62 227.70 234.22 227.63 C 234.24 227.06 234.27 225.92 234.28 225.34 C 236.44 225.32 238.60 225.33 240.77 225.39 C 240.84 227.51 241.01 229.65 240.76 231.77 C 236.96 236.20 228.64 233.69 227.58 227.99 Z" />
<path fill="#265c9b" opacity="1.00" d=" M 103.79 235.56 C 111.12 230.37 118.28 224.93 125.65 219.80 C 140.78 241.58 164.57 257.07 190.66 261.94 C 189.14 270.41 187.62 278.89 186.11 287.36 C 153.11 282.30 122.76 262.95 103.79 235.56 Z" />
<path fill="#265c9b" opacity="1.00" d=" M 2.71 222.21 C 7.94 224.67 14.03 224.61 19.29 222.30 C 18.88 223.94 19.14 226.38 17.02 226.89 C 12.73 228.25 7.14 228.84 3.43 225.83 C 3.25 224.92 2.89 223.11 2.71 222.21 Z" />
<path fill="#265c9b" opacity="1.00" d=" M 392.10 222.32 C 397.40 224.65 403.45 224.55 408.76 222.30 C 408.19 223.81 408.66 226.20 406.72 226.82 C 402.73 228.45 398.00 228.30 394.02 226.74 C 392.10 226.18 392.70 223.76 392.10 222.32 Z" />
<path fill="#265c9b" opacity="1.00" d=" M 263.01 248.18 C 273.19 241.91 282.03 233.65 289.58 224.42 C 294.93 228.96 300.41 233.34 305.83 237.80 C 288.51 261.25 263.03 278.70 234.60 285.46 C 223.42 288.13 211.89 289.27 200.41 288.82 C 201.10 280.35 201.54 271.85 202.20 263.37 C 223.40 264.87 245.03 259.54 263.01 248.18 Z" />
<path fill="#265c9b" opacity="1.00" d=" M 0.00 231.92 C 5.93 229.51 13.19 229.02 18.57 233.02 C 13.27 237.07 5.82 236.83 0.00 234.09 L 0.00 231.92 Z" />
<path fill="#265c9b" opacity="1.00" d=" M 397.47 230.66 C 401.93 229.74 407.05 229.58 411.03 232.12 C 411.69 234.88 408.49 235.37 406.53 235.77 C 402.33 236.21 397.56 236.46 393.98 233.83 C 393.52 231.70 395.96 231.19 397.47 230.66 Z" />
<path fill="#265c9b" opacity="1.00" d=" M 0.00 235.26 C 5.48 238.16 12.06 237.67 17.68 235.43 C 17.64 236.48 17.55 238.56 17.50 239.61 C 12.01 242.01 5.29 242.61 0.00 239.35 L 0.00 235.26 Z" />
<path fill="#265c9b" opacity="1.00" d=" M 393.76 235.29 C 399.13 237.89 405.54 237.91 411.01 235.56 C 410.98 237.03 410.94 238.51 410.91 239.99 C 405.67 241.92 399.45 242.45 394.40 239.69 C 394.08 238.23 393.87 236.77 393.76 235.29 Z" />
<path fill="#265c9b" opacity="1.00" d=" M 82.70 250.95 C 85.00 249.29 87.30 247.62 89.59 245.94 C 111.32 276.88 145.55 298.87 182.98 304.80 C 182.33 308.08 181.74 311.36 181.19 314.66 C 141.62 307.57 105.62 283.87 82.70 250.95 Z" />
<path fill="#265c9b" opacity="1.00" d=" M 0.92 249.93 C 6.15 247.68 12.28 247.21 17.66 249.22 C 19.01 249.61 19.76 250.52 19.91 251.95 C 14.50 255.76 7.16 254.98 1.24 252.88 C 1.16 252.14 1.00 250.66 0.92 249.93 Z" />
<path fill="#265c9b" opacity="1.00" d=" M 390.99 251.22 C 395.09 247.50 401.06 247.59 406.18 248.44 C 408.13 248.94 410.90 249.44 410.94 251.96 C 406.68 255.12 400.89 254.94 395.92 254.00 C 393.96 253.75 392.46 252.40 390.99 251.22 Z" />
<path fill="#265c9b" opacity="1.00" d=" M 319.30 248.88 C 323.09 251.91 326.88 254.95 330.56 258.12 C 311.69 282.04 285.79 300.42 256.74 309.76 C 238.04 315.88 218.16 318.24 198.53 316.93 C 198.79 313.44 199.03 309.94 199.25 306.45 C 225.34 307.67 251.69 301.41 274.42 288.54 C 291.96 278.69 307.31 265.01 319.30 248.88 Z" />
<path fill="#265c9b" opacity="1.00" d=" M 0.97 254.04 C 7.04 256.66 14.19 256.71 20.07 253.53 C 19.56 255.42 20.47 258.49 18.00 259.19 C 12.73 261.16 6.34 261.36 1.28 258.67 C 1.01 257.14 1.03 255.58 0.97 254.04 Z" />
<path fill="#265c9b" opacity="1.00" d=" M 391.58 253.78 C 397.77 256.75 405.26 256.76 411.32 253.43 C 410.82 255.38 411.51 258.39 409.06 259.21 C 403.54 261.46 396.96 261.07 391.66 258.34 C 391.63 256.81 391.60 255.29 391.58 253.78 Z" />
<path fill="#265c9b" opacity="1.00" d=" M 3.79 271.06 C 7.77 267.95 13.14 267.92 17.95 267.98 C 22.27 268.20 27.65 268.58 29.92 272.91 C 23.90 277.78 15.36 277.40 8.20 275.89 C 6.11 275.25 1.87 273.85 3.79 271.06 Z" />
<path fill="#265c9b" opacity="1.00" d=" M 387.60 268.68 C 394.03 267.67 401.52 267.04 407.22 270.77 C 409.41 272.41 407.02 274.74 405.13 275.21 C 398.88 277.46 391.78 277.41 385.47 275.40 C 383.89 274.76 381.04 273.46 382.37 271.34 C 383.68 269.80 385.71 269.19 387.60 268.68 Z" />
<path fill="#265c9b" opacity="1.00" d=" M 2.98 275.16 C 10.84 280.01 21.59 279.84 29.59 275.38 C 29.09 277.78 30.31 281.38 27.64 282.78 C 23.48 284.94 18.62 285.10 14.03 285.00 C 10.37 284.78 6.24 284.31 3.55 281.55 C 2.98 279.47 3.16 277.28 2.98 275.16 Z" />
<path fill="#265c9b" opacity="1.00" d=" M 381.93 275.20 C 387.14 278.85 393.86 279.03 399.96 278.32 C 403.00 278.06 405.77 276.73 408.40 275.27 C 407.96 277.72 409.18 281.20 406.54 282.71 C 402.15 285.30 396.78 285.16 391.86 284.89 C 388.58 284.51 384.94 284.05 382.43 281.72 C 381.74 279.63 382.06 277.36 381.93 275.20 Z" />
<path fill="#265c9b" opacity="1.00" d=" M 27.64 290.72 C 34.99 289.61 42.76 289.67 49.79 292.27 C 51.89 293.11 55.04 294.84 53.77 297.58 C 50.62 301.19 45.43 301.74 40.98 302.37 C 34.32 302.92 27.31 302.69 21.10 300.00 C 19.45 299.19 17.72 297.99 17.53 295.98 C 19.38 292.27 23.99 291.55 27.64 290.72 Z" />
<path fill="#265c9b" opacity="1.00" d=" M 367.57 290.69 C 374.41 289.62 381.54 289.78 388.19 291.82 C 390.45 292.57 393.05 293.71 393.87 296.16 C 393.33 299.41 389.56 300.39 386.87 301.24 C 378.65 303.23 369.75 303.22 361.72 300.42 C 359.66 299.57 356.34 297.89 357.59 295.16 C 359.96 292.12 364.03 291.43 367.57 290.69 Z" />
<path fill="#265c9b" opacity="1.00" d=" M 36.97 305.10 C 42.89 304.88 49.36 304.25 54.02 300.19 C 53.52 303.87 55.70 309.45 51.14 311.18 C 44.55 314.17 37.03 314.33 29.93 313.77 C 25.68 313.21 20.85 312.43 17.93 308.99 C 17.11 306.13 17.61 303.07 17.41 300.14 C 22.91 304.49 30.21 305.15 36.97 305.10 Z" />
<path fill="#265c9b" opacity="1.00" d=" M 357.15 300.14 C 362.69 304.62 370.15 305.13 376.98 305.09 C 382.92 304.87 389.36 304.10 394.01 300.01 C 393.91 302.87 394.16 305.76 393.69 308.60 C 390.82 312.57 385.54 313.23 381.04 313.81 C 373.99 314.30 366.52 314.13 360.03 311.04 C 355.73 309.12 357.75 303.78 357.15 300.14 Z" />
<path fill="#265c9b" opacity="1.00" d=" M 60.52 312.77 C 70.00 311.44 79.83 311.60 89.09 314.18 C 92.75 315.40 97.42 316.85 98.57 321.02 C 98.11 324.87 93.95 326.43 90.82 327.66 C 79.68 331.19 67.54 331.22 56.17 328.78 C 52.21 327.64 47.56 326.52 45.17 322.85 C 43.86 320.71 45.64 318.48 47.34 317.27 C 51.22 314.59 55.95 313.55 60.52 312.77 Z" />
<path fill="#265c9b" opacity="1.00" d=" M 328.55 312.80 C 339.46 311.33 351.04 311.47 361.37 315.68 C 363.93 316.84 367.62 319.16 366.44 322.49 C 363.68 327.00 357.91 328.09 353.15 329.25 C 341.83 331.18 329.78 331.11 318.94 327.03 C 315.99 325.86 311.50 323.12 313.47 319.38 C 317.02 314.82 323.24 313.91 328.55 312.80 Z" />
<path fill="#265c9b" opacity="1.00" d=" M 358.61 331.49 C 361.79 330.58 364.53 328.63 366.90 326.36 C 366.84 330.29 367.07 334.23 366.81 338.16 C 366.64 340.09 364.88 341.37 363.45 342.44 C 357.68 346.12 350.66 346.86 344.00 347.26 C 336.34 347.53 328.54 346.95 321.20 344.66 C 318.27 343.64 315.06 342.41 313.32 339.70 C 312.60 335.43 313.16 331.06 312.97 326.76 C 317.77 331.34 324.48 332.81 330.85 333.62 C 340.11 334.63 349.68 334.31 358.61 331.49 Z" />
<path fill="#265c9b" opacity="1.00" d=" M 44.56 326.63 C 52.21 333.50 63.22 334.02 72.99 334.12 C 81.84 333.81 91.54 332.87 98.54 326.82 C 98.48 330.50 98.64 334.18 98.47 337.87 C 98.56 340.19 96.51 341.73 94.70 342.77 C 90.43 345.13 85.55 345.99 80.78 346.70 C 71.91 347.74 62.74 347.69 54.10 345.22 C 50.52 344.07 46.53 342.46 44.74 338.91 C 44.24 334.83 44.62 330.71 44.56 326.63 Z" />
<path fill="#265c9b" opacity="1.00" d=" M 114.37 342.55 C 123.39 340.94 133.05 340.93 141.68 344.32 C 143.92 345.26 147.33 347.68 145.39 350.40 C 142.20 353.78 137.26 354.63 132.86 355.36 C 124.65 356.32 115.93 356.16 108.22 352.85 C 106.26 351.96 103.51 350.02 104.58 347.54 C 106.70 344.32 110.87 343.45 114.37 342.55 Z" />
<path fill="#265c9b" opacity="1.00" d=" M 274.56 342.75 C 283.57 340.92 293.20 340.91 301.95 343.97 C 304.32 344.95 307.83 346.66 306.90 349.82 C 304.96 352.82 301.18 353.79 297.92 354.64 C 288.93 356.49 279.30 356.48 270.58 353.40 C 268.30 352.45 265.13 350.92 265.48 347.98 C 267.20 344.65 271.24 343.68 274.56 342.75 Z" />
<path fill="#265c9b" opacity="1.00" d=" M 104.06 352.88 C 110.34 358.30 119.13 358.71 127.02 358.66 C 133.63 358.32 140.93 357.65 146.03 352.94 C 145.41 356.99 147.84 362.94 143.27 365.27 C 136.44 368.78 128.43 369.09 120.90 368.83 C 115.88 368.47 110.55 367.76 106.34 364.78 C 102.54 362.08 104.73 356.78 104.06 352.88 Z" />
<path fill="#265c9b" opacity="1.00" d=" M 265.34 353.01 C 271.29 358.05 279.47 358.64 286.93 358.68 C 293.99 358.51 301.67 357.76 307.28 352.99 C 307.15 356.28 307.67 359.67 306.85 362.90 C 305.10 365.61 301.82 366.73 298.87 367.57 C 290.93 369.50 282.53 369.33 274.57 367.62 C 271.39 366.78 267.75 365.89 265.77 363.01 C 265.04 359.75 265.55 356.33 265.34 353.01 Z" />
<path fill="#265c9b" opacity="1.00" d=" M 168.48 356.59 C 176.11 355.54 184.28 355.45 191.48 358.55 C 193.20 359.33 195.64 361.19 194.38 363.31 C 192.36 365.91 188.88 366.70 185.83 367.44 C 178.29 368.76 170.26 368.72 162.99 366.08 C 160.74 365.24 157.38 363.05 159.48 360.36 C 161.85 357.99 165.32 357.28 168.48 356.59 Z" />
<path fill="#265c9b" opacity="1.00" d=" M 229.17 356.20 C 236.57 355.80 244.85 355.48 251.29 359.75 C 253.70 361.30 252.44 364.30 250.16 365.20 C 242.57 368.99 233.59 368.74 225.42 367.41 C 222.11 366.57 217.70 365.72 216.57 361.99 C 218.69 357.34 224.76 357.00 229.17 356.20 Z" />
<path fill="#265c9b" opacity="1.00" d=" M 180.08 370.62 C 185.30 370.36 190.62 369.19 194.87 365.98 C 194.70 368.83 194.99 371.73 194.43 374.55 C 190.90 378.56 184.89 379.02 179.87 379.00 C 173.50 378.76 166.43 380.08 160.84 376.22 C 157.28 374.09 159.05 369.37 158.60 366.02 C 164.77 370.48 172.73 370.97 180.08 370.62 Z" />
<path fill="#265c9b" opacity="1.00" d=" M 239.04 370.54 C 243.98 370.24 248.91 368.94 252.89 365.90 C 252.37 369.35 254.23 374.27 250.44 376.34 C 244.96 380.01 238.16 378.70 231.97 379.08 C 227.43 379.85 222.84 378.34 218.85 376.24 C 215.24 374.23 217.17 369.35 216.65 366.05 C 223.07 370.74 231.41 371.02 239.04 370.54 Z" />
</g>
</svg>
